<?xml version="1.0" encoding="utf-8" ?>
<svg xmlns="http://www.w3.org/2000/svg" xmlns:xlink="http://www.w3.org/1999/xlink" width="1024" height="1024">
	<path fill="#4F4B56" d="M143.171 737.714C145.785 738.537 146.647 739.883 147.904 742.248C149.095 744.487 150.016 746.937 150.999 749.275C150.526 750.45 150.158 751.624 149.266 752.556C147.414 747.518 144.769 742.867 143.171 737.714Z"/>
	<path fill="#4F4B56" d="M465.093 15.1171C471.175 14.6861 477.042 13.8987 483.035 12.8087C481.803 15.067 480.45 16.2274 477.95 16.9484C474.943 17.8156 471.632 17.4926 468.54 17.3593L468.378 16.7087C467.289 15.8469 466.724 15.9499 465.365 15.8199L465.093 15.1171Z"/>
	<path fill="#E5E4E5" fill-opacity="0.011764706" d="M905.052 507.192C905.755 508.232 905.497 508.877 905.85 509.952C905.93 510.199 906.113 510.4 906.244 510.624L906.338 509.785C908.459 514.096 907.507 527.516 907.036 532.44L905.874 531.909C903.48 526.591 904 513.004 905.052 507.192Z"/>
	<defs>
		<linearGradient id="gradient_0" gradientUnits="userSpaceOnUse" x1="436.32678" y1="35.397404" x2="427.10049" y2="21.996935">
			<stop offset="0" stop-color="#3C3C40" stop-opacity="0.98431373"/>
			<stop offset="1" stop-color="#5A5872"/>
		</linearGradient>
	</defs>
	<path fill="url(#gradient_0)" d="M390.712 45.3257C396.574 42.3568 401.967 38.5309 407.771 35.434Q413.527 32.3749 419.473 29.7043Q425.42 27.0338 431.53 24.7636Q437.641 22.4934 443.888 20.6336Q450.136 18.7738 456.493 17.3325C459.464 16.6511 461.991 15.2314 465.093 15.1171L465.365 15.8199C466.724 15.9499 467.289 15.8469 468.378 16.7087L468.54 17.3593C468.331 17.3383 468.121 17.3207 467.912 17.2962C467.164 17.2085 466.485 17.0543 465.758 16.8657C464.438 17.2955 463.482 17.7515 462.295 18.4707C458.73 20.6292 453.987 20.6509 449.981 21.6424C439.134 24.3268 419.222 32.3867 409.404 37.8583C405.235 40.1822 401.349 43.5982 397.09 45.6329C395.944 45.6726 395.116 45.821 394.053 45.3198L395.333 44.3386C393.623 44.0357 392.735 46.0084 390.712 45.3257Z"/>
	<path fill="#C2C1C2" d="M902.003 503.54L905.052 507.192C904 513.004 903.48 526.591 905.874 531.909L907.036 532.44C909.219 541.651 907.627 563.047 907.601 573.778C907.568 587.139 908.3 600.892 907.475 614.206C907.389 615.595 907.192 616.551 906.583 617.785C906.061 618.841 905.543 619.895 904.999 620.94C904.545 618.046 905.272 614.543 905.39 611.583C905.609 606.093 905.594 600.582 905.623 595.088Q905.685 577.006 905.51 558.925C905.465 552.747 905.731 546.381 905.313 540.236C905.072 536.689 903.454 533.304 903.175 529.761C902.635 522.898 903.67 516.144 902.562 509.226C902.271 507.319 901.957 505.476 902.003 503.54Z"/>
	<path fill="#4F4B56" d="M390.712 45.3257C392.735 46.0084 393.623 44.0357 395.333 44.3386L394.053 45.3198C395.116 45.821 395.944 45.6726 397.09 45.6329C392.658 48.0254 387.916 49.8667 383.575 52.3912C372.886 58.6076 362.842 66.6472 352.964 74.0392C350.918 75.5702 348.357 76.3019 346.344 77.8951C338.375 84.2031 330.138 94.7569 321.98 101.757C312.549 112.382 301.323 121.465 292.162 132.283C290.301 134.482 289.214 137.21 287.445 139.474C285.064 142.52 282.13 145.171 279.618 148.121C277.062 151.123 275.127 154.614 272.621 157.655C269.925 160.925 266.828 163.84 264.238 167.204C260.151 172.512 251.823 186.021 247.623 189.36C246.499 190.253 244.436 191.572 243.72 192.748C242.917 194.068 243.089 195.619 242.351 196.972C240.385 200.573 237.508 203.903 235.33 207.431C230.471 215.302 226.206 223.198 221.871 231.351C220.568 233.801 218.353 235.661 216.916 238.022C214.588 241.846 212.989 246.321 210.817 250.281C208.563 254.392 205.83 258.218 203.429 262.241C200.611 266.964 198.171 271.958 195.665 276.856C192.287 283.458 188.952 290.097 186.097 296.945C184.414 300.981 183.168 305.196 181.423 309.201C178.559 315.777 174.995 322.019 172.372 328.707C170.15 334.373 168.631 340.283 166.436 345.945C163.122 354.495 159.052 362.804 155.894 371.414C149.524 388.782 145.504 404.42 140.746 422.166C138.309 431.256 135.61 439.742 134.099 449.07C133.028 448.827 132.364 448.313 131.459 447.722C132.723 444.194 132.321 440.015 133.339 436.322C138.713 416.831 143.506 397.19 150.065 378.053C154.001 366.568 158.762 355.477 163.254 344.214C165.898 337.584 168.002 330.729 170.747 324.143C173.128 318.429 176.087 312.954 178.606 307.3C180.566 302.902 182.202 298.369 184.224 293.998Q199.758 261.061 218.557 229.872C224.39 220.008 230.006 210.126 236.379 200.589C244.507 188.423 253.277 176.273 262.321 164.779C264.642 161.828 267.223 159.086 269.536 156.13C283.098 138.803 296.435 122.081 312.46 106.905C331.777 84.8461 364.341 57.9754 390.712 45.3257Z"/>
	<path fill="#2F2D30" d="M483.035 12.8087C496.758 11.6099 511.253 12.5467 525.059 12.5594C531.598 12.5654 542.346 11.5757 548.41 12.8582C555.013 13.465 562.976 14.4675 569.125 16.9443C581.525 20.6194 604.598 28.0187 615.162 34.2068C618.877 35.8726 622.742 37.7447 626.046 40.1296C637.104 46.1829 648.219 52.3079 658.421 59.7564C664.266 64.0241 669.608 68.9462 675.421 73.2642C677.931 75.4072 681.643 77.9223 683.6 80.5613C690.716 87.0071 697.339 94.0549 704.546 100.363C708.072 102.985 713.181 106.849 715.145 110.825C720.702 116.827 726.466 122.707 731.785 128.918C742.409 139.762 757.488 157.629 765.675 170.519Q769.517 175.734 773.477 180.86C777.296 185.522 780.375 191.054 783.72 196.093C794.98 213.057 805.284 229.976 814.659 248.072L822.808 263.05C825.391 266.866 853.331 325.099 853.833 327.86C856.122 332.976 858.494 338.283 860.345 343.568C866.958 361.762 873.686 379.734 879.391 398.257C882.948 409.806 885.646 421.668 888.514 433.403C892.974 451.654 897.451 470.381 900.29 488.97C900.742 492.81 902.326 500.014 902.003 503.54C901.957 505.476 902.271 507.319 902.562 509.226C903.67 516.144 902.635 522.898 903.175 529.761C903.454 533.304 905.072 536.689 905.313 540.236C905.731 546.381 905.465 552.747 905.51 558.925Q905.685 577.006 905.623 595.088C905.594 600.582 905.609 606.093 905.39 611.583C905.272 614.543 904.545 618.046 904.999 620.94C904.98 623.56 904.153 626.086 903.985 628.712C902.967 644.549 900.539 659.698 897.113 675.191C881.616 745.269 854.619 800.091 810.976 856.853C799.517 871.757 787.752 886.75 774.359 899.946C767.26 906.941 759.888 912.956 752.299 919.375Q744.127 926.373 735.601 932.933Q727.074 939.494 718.215 945.598Q709.357 951.703 700.19 957.336Q691.024 962.969 681.576 968.114C675.904 971.143 669.866 973.4 664.028 976.076C652.295 981.454 640.754 986.864 628.626 991.348C622.336 993.674 615.867 995.326 609.429 997.168C594.39 1001.47 579.118 1005.46 563.636 1007.83C559.028 1008.54 554.331 1008.7 549.693 1009.18C544.839 1009.67 540.015 1010.58 535.144 1010.91C522.937 1011.73 510.486 1011.47 498.249 1011.36C462.628 1011.07 410.233 997.843 376.807 984.324C358.785 977.034 340.665 967.634 324.028 957.563C313.714 951.32 304.233 943.811 294.526 936.686C285.277 929.897 273.874 923.151 266.106 914.738C266.029 914.655 265.977 914.552 265.913 914.459C258.668 909.298 243.974 893.719 237.947 886.61C231.593 880.758 226.596 873.276 221.146 866.616C209.772 852.715 197.157 839.508 187.884 824.032Q184.512 818.298 181.029 812.631C177.489 809.616 166.302 788.355 163.92 783.004C158.726 773.12 153.102 763.057 149.266 752.556C150.158 751.624 150.526 750.45 150.999 749.275C150.016 746.937 149.095 744.487 147.904 742.248C146.647 739.883 145.785 738.537 143.171 737.714C139.6 726.016 135.065 714.626 131.658 702.854C130.266 698.044 129.64 693.054 128.497 688.181C124.861 672.687 121.321 657.536 119.254 641.737C118.698 637.483 116.923 633.324 116.941 629.032C115.922 622.098 116.432 614.511 116.549 607.508Q116.348 586.685 116.413 565.862C116.406 549.803 115.806 535.803 118.983 519.938C119.567 514.802 118.901 508.149 120.797 503.389C122.217 498.166 122.256 492.937 123.07 487.627C123.694 483.555 124.806 479.564 125.465 475.489C125.971 472.362 126.053 469.104 127.168 466.128C129.088 460.026 127.973 453.237 131.459 447.722C132.364 448.313 133.028 448.827 134.099 449.07C135.61 439.742 138.309 431.256 140.746 422.166C145.504 404.42 149.524 388.782 155.894 371.414C159.052 362.804 163.122 354.495 166.436 345.945C168.631 340.283 170.15 334.373 172.372 328.707C174.995 322.019 178.559 315.777 181.423 309.201C183.168 305.196 184.414 300.981 186.097 296.945C188.952 290.097 192.287 283.458 195.665 276.856C198.171 271.958 200.611 266.964 203.429 262.241C205.83 258.218 208.563 254.392 210.817 250.281C212.989 246.321 214.588 241.846 216.916 238.022C218.353 235.661 220.568 233.801 221.871 231.351C226.206 223.198 230.471 215.302 235.33 207.431C237.508 203.903 240.385 200.573 242.351 196.972C243.089 195.619 242.917 194.068 243.72 192.748C244.436 191.572 246.499 190.253 247.623 189.36C251.823 186.021 260.151 172.512 264.238 167.204C266.828 163.84 269.925 160.925 272.621 157.655C275.127 154.614 277.062 151.123 279.618 148.121C282.13 145.171 285.064 142.52 287.445 139.474C289.214 137.21 290.301 134.482 292.162 132.283C301.323 121.465 312.549 112.382 321.98 101.757C330.138 94.7569 338.375 84.2031 346.344 77.8951C348.357 76.3019 350.918 75.5702 352.964 74.0392C362.842 66.6472 372.886 58.6076 383.575 52.3912C387.916 49.8667 392.658 48.0254 397.09 45.6329C401.349 43.5982 405.235 40.1822 409.404 37.8583C419.222 32.3867 439.134 24.3268 449.981 21.6424C453.987 20.6509 458.73 20.6292 462.295 18.4707C463.482 17.7515 464.438 17.2955 465.758 16.8657C466.485 17.0543 467.164 17.2085 467.912 17.2962C468.121 17.3207 468.331 17.3383 468.54 17.3593C471.632 17.4926 474.943 17.8156 477.95 16.9484C480.45 16.2274 481.803 15.067 483.035 12.8087Z"/>
	<path fill="#22222A" d="M871.325 538.619L873.005 537.577C874.266 538.901 874.335 540.51 874.273 542.263C874.213 543.953 874.286 547.515 872.909 548.685C872.757 548.815 872.571 548.898 872.402 549.004C871.822 545.626 871.683 542.038 871.325 538.619Z"/>
	<path fill="#4F4B56" d="M765.675 170.519Q769.517 175.734 773.477 180.86C772.768 180.821 772.202 180.805 771.514 180.545C769.34 179.723 767.014 177.027 766.028 174.988C765.217 173.314 765.142 172.242 765.675 170.519Z"/>
	<path fill="#4F4B56" d="M181.029 812.631C182.608 812.665 183.392 812.603 184.578 813.734C186.638 815.698 188.674 819.779 188.413 822.675C188.356 823.301 188.188 823.46 187.884 824.032Q184.512 818.298 181.029 812.631Z"/>
	<path fill="#4F4B56" d="M853.833 327.86C856.122 332.976 858.494 338.283 860.345 343.568C858.834 342.69 858.016 341.75 857.013 340.317C854.211 336.314 852.956 332.682 853.833 327.86Z"/>
	<path fill="#4F4B56" d="M822.808 263.05C822.54 262.998 822.268 262.964 822.004 262.892C819.485 262.201 817.529 258.504 816.434 256.303C815.18 253.784 813.699 250.824 814.659 248.072L822.808 263.05Z"/>
	<path fill="#5F5D63" d="M116.549 607.508L116.96 607.668L117.652 607.337L118.566 604.665C118.58 609.845 119.547 624.258 117.879 628.294L116.941 629.032C115.922 622.098 116.432 614.511 116.549 607.508Z"/>
	<path fill="#4F4B56" d="M898.333 503.152C898.371 498.287 898.027 493.437 900.29 488.97C900.742 492.81 902.326 500.014 902.003 503.54C901.957 505.476 902.271 507.319 902.562 509.226C900.999 507.382 899.7 505.154 898.333 503.152Z"/>
	<path fill="#4F4B56" d="M120.797 503.389L121.486 503.551C122.568 502.831 123.52 502.24 124.729 501.742C121.65 509.393 122.588 512.567 122.125 520.201L118.983 519.938C119.567 514.802 118.901 508.149 120.797 503.389Z"/>
	<path fill="#4F4B56" d="M731.785 128.918C731.248 129.116 731.24 129.203 730.705 129.125C727.61 128.672 717.634 117.813 715.787 114.689C714.871 113.14 714.772 112.567 715.145 110.825C720.702 116.827 726.466 122.707 731.785 128.918Z"/>
	<path fill="#4F4B56" d="M683.6 80.5613C690.716 87.0071 697.339 94.0549 704.546 100.363C703.788 101.187 703.897 101.01 702.886 101.159C701.326 100.394 700.041 99.4724 698.734 98.3407C694.593 94.7569 684.014 85.8024 683.6 80.5613Z"/>
	<path fill="#4F4B56" d="M150.999 749.275C151.773 752.484 152.644 755.508 154.04 758.508C156.336 763.447 161.762 770.039 162.06 775.481C160.951 773.205 158.879 770.37 158.336 767.989L156.818 766.572C158.391 770.311 164.622 779.45 163.92 783.004C158.726 773.12 153.102 763.057 149.266 752.556C150.158 751.624 150.526 750.45 150.999 749.275Z"/>
	<path fill="#22222A" d="M149.586 607.625C148.807 607.584 148.42 607.535 147.674 607.247C145.993 597.461 147.14 581.677 147.575 571.58L148.334 571.254L147.586 571.507L147.613 571.185L148.359 571.32L147.585 571.626L148.413 571.511C148.851 573.011 148.925 574.594 149.08 576.144Q149.017 591.89 149.586 607.625Z"/>
	<path fill="#74737A" d="M131.459 447.722C132.364 448.313 133.028 448.827 134.099 449.07C137.962 448.798 142.02 449.554 145.807 450.276C141.918 450.384 136.06 449.621 132.955 452.234C130.783 456.217 132.664 462.291 130.655 466.687C129.357 466.647 128.422 466.537 127.168 466.128C129.088 460.026 127.973 453.237 131.459 447.722Z"/>
	<path fill="#22222A" d="M861.883 466.668C862.495 467.31 862.695 467.598 863.061 468.364L863.084 467.872C865.722 474.02 865.414 480.642 866.466 487.122C867.257 492.001 870.916 501.402 868.824 506.214C868.603 506.722 868.34 507 868.007 507.41C866.715 502.78 866.699 497.889 865.296 493.274C863.899 484.52 862.567 475.503 861.883 466.668Z"/>
	<path fill="#4F4B56" d="M237.947 886.61C238.815 886.318 238.937 886.051 239.813 886.463C243.122 888.018 265.309 909.842 265.904 912.995C266.006 913.533 265.95 913.933 265.913 914.459C258.668 909.298 243.974 893.719 237.947 886.61Z"/>
	<path fill="#22222A" d="M653.616 96.5131C655.791 96.6325 656.807 98.3615 658.749 98.2747C658.048 97.163 657.117 96.6366 656.04 95.9455L656.375 95.8531L655.723 95.5233C665.251 99.3226 677.409 113.201 684.97 120.78L684.299 120.958L685.018 121.378C683.087 120.521 681.032 117.172 679.13 116.907C681.288 119.089 684.985 121.915 686.415 124.512L685.698 124.655C681.614 121.984 677.641 117.406 674.008 114.069C667.36 107.965 660.693 102.12 653.616 96.5131Z"/>
	<path fill="#5F5D63" d="M120.797 503.389C122.217 498.166 122.256 492.937 123.07 487.627C123.694 483.555 124.806 479.564 125.465 475.489C125.971 472.362 126.053 469.104 127.168 466.128C128.422 466.537 129.357 466.647 130.655 466.687C128.244 471.925 129.297 476.907 127.674 482.128C127.046 484.146 125.805 486.143 124.822 488.008C125.787 492.579 125.792 497.177 124.729 501.742C123.52 502.24 122.568 502.831 121.486 503.551L120.797 503.389Z"/>
	<path fill="#4F4B56" d="M675.421 73.2642C674.667 73.3629 674.141 73.3394 673.386 73.1781C667.06 71.8279 665.187 67.148 660.5 63.6051C657.391 61.2553 653.637 59.3886 650.289 57.3798C646.508 55.1118 642.968 52.4338 639.164 50.2255C635.855 48.3046 632.164 47.1269 628.984 44.9672C627.883 44.2197 626.693 43.318 626.043 42.1269C625.564 41.2472 625.827 41.0512 626.046 40.1296C637.104 46.1829 648.219 52.3079 658.421 59.7564C664.266 64.0241 669.608 68.9462 675.421 73.2642Z"/>
	<path fill="#4F4B56" d="M548.41 12.8582C555.013 13.465 562.976 14.4675 569.125 16.9443C581.525 20.6194 604.598 28.0187 615.162 34.2068C612.339 34.7526 609.469 33.9421 606.749 33.1669C602.277 31.8924 598.061 29.7147 593.715 28.0705C586.028 25.1621 578.004 22.5641 570.182 20.0273C568.34 19.5365 566.61 18.6781 564.742 18.251C561.538 17.5186 558.209 17.3034 554.993 16.5998C552.525 16.0599 549.809 15.0586 548.41 12.8582Z"/>
	<path fill="#74737A" d="M118.983 519.938L122.125 520.201C121.661 526.302 118.926 531.334 118.641 537.445C117.601 559.76 119.872 582.38 118.566 604.665L117.652 607.337L116.96 607.668L116.549 607.508Q116.348 586.685 116.413 565.862C116.406 549.803 115.806 535.803 118.983 519.938Z"/>
	<path fill="#C2C1C2" d="M161.34 469.622L161.437 470.083C162.329 474.497 162.068 479.41 163.513 483.666C164.8 484.258 166.102 484.428 167.485 484.653L167.656 485.171C166.369 485.707 165.117 485.946 163.756 486.199L163.574 486.731C164.809 487.518 166.029 488.019 167.386 488.538C166.387 488.905 165.545 488.971 164.486 489.025L164.09 489.703C165.014 491.026 167.279 490.329 167.638 491.708L166.6 492.769L166.954 493.43L167.64 493.506C168.282 493.582 168.876 493.684 169.503 493.828C170.269 495.427 171.208 502.474 170.626 504.129C170.54 504.373 170.391 504.591 170.278 504.824C169.562 506.306 168.449 508.167 168.285 509.791C169.184 509.477 168.713 509.769 169.41 508.754C170.395 507.32 171.702 506.167 172.961 504.981C172.085 507.716 170.07 510.931 169.793 513.636C170.351 514.164 171.693 515.159 171.85 515.846C171.201 516.568 170.95 516.787 170.048 517.241C170.489 519 171.308 518.177 171.956 519.291C172.758 520.668 168.851 524.771 170.177 527.648C170.982 527.629 172.565 527.381 173.257 527.702C173.134 527.945 173.001 528.183 172.886 528.429C172.262 529.757 171.865 530.46 172.207 531.885C172.973 531.736 173.737 531.607 174.509 531.494L175.021 532.503L174.707 533.353L172.828 533.912C172.586 535.059 172.628 535.871 172.794 537.029L173.478 537.466L175.482 536.682L175.835 537.195C174.62 537.702 173.39 538.167 172.262 538.852C173.651 540.202 176.409 539.7 176.656 541.817L175.546 542.001L176.911 542.212L176.178 542.56C174.968 541.496 174.665 541.106 173.046 540.78L172.714 541.375C173.854 543.231 176.104 543.607 176.979 545.531C176.403 546.188 175.827 546.716 175.144 547.26C176.107 547.808 176.442 547.812 177.515 547.875C178.313 549.287 177.541 549.328 177.565 550.761C177.588 552.111 181.209 554.731 181.658 556.366C182.317 558.769 181.62 562.125 181.89 564.686C182.267 568.278 185.369 572.536 184.362 576.069C184.197 576.649 183.98 577.212 183.791 577.784C183.505 578.651 183.522 579.127 183.749 580.003L184.441 580.864C184.547 580.624 184.649 580.384 184.757 580.146C185.24 579.086 185.03 579.492 185.716 578.473C186.604 579.163 186.46 579.13 186.774 580.117C186.306 581.067 185.845 581.586 185.063 582.295L186.061 583.658C186.398 583.665 186.74 583.618 187.071 583.681C188.229 583.901 188.782 585.955 189.217 586.99C189.963 588.763 191.783 592.513 191.65 594.379C191.452 597.14 187.522 601.287 191.28 603.392C192.899 603.391 193.531 603.203 194.909 604.108C199.036 611.795 202.063 620.044 205.745 627.939C208.704 634.284 214.68 644.848 218.385 651.009Q222.224 657.467 226.327 663.761Q230.43 670.055 234.791 676.174Q239.151 682.292 243.762 688.225Q248.372 694.157 253.224 699.894Q258.076 705.63 263.162 711.16Q268.247 716.691 273.558 722.006Q278.868 727.321 284.394 732.411Q289.92 737.502 295.652 742.359C303.254 748.909 310.757 755.27 319.034 760.983C325.559 765.487 332.723 769.139 339.504 773.257C346.751 777.657 353.921 782.435 361.403 786.416C370.845 791.441 380.786 795.086 390.739 798.928C399.741 802.402 408.873 806.078 418.123 808.811C431.228 812.684 444.784 816.333 458.32 818.232L458.891 819.611C466.006 820.064 473.201 819.452 480.296 820.034C484.559 820.383 488.75 821.432 493.019 821.784C497.077 822.119 501.162 821.958 505.221 822.355C509.274 822.751 513.41 823.68 517.48 823.714C522.362 823.755 527.19 822.698 532.033 822.224C544.446 821.008 556.72 819.675 569.09 818.06C573.843 817.44 578.782 817.628 583.476 816.669C593.92 814.535 606.297 812.006 615.371 806.233L617.991 804.6C627.378 796.908 632.982 795.685 644.965 796.057C645.336 796.059 645.707 796.062 646.078 796.048C652.029 795.818 681.194 778.62 687.766 774.446C691.304 772.198 694.456 769.375 697.899 766.988C708.048 759.953 718.808 753.563 728.127 745.368C730.927 742.906 733.115 739.782 735.837 737.215C739.206 734.037 743.282 731.691 746.647 728.502C753.581 721.929 759.74 714.196 766.219 707.15C767.415 707.36 766.868 707.356 767.857 707.252C767.575 706.475 767.541 706.212 767.542 705.335C770.735 701.45 773.612 697.374 776.715 693.429C778.749 690.843 781.097 688.425 782.991 685.74C784.925 682.998 786.331 679.738 788.345 677.099C789.643 675.397 792.39 674.364 793.446 672.835C796.433 668.508 796.367 663.223 801.204 659.873C802.294 659.118 803.339 655.3 803.895 653.919L804.318 653.825C804.405 655.813 804.469 657.801 804.667 659.782C807.316 658.325 805.872 652.588 807.07 649.885L807.594 650.183C807.222 652.971 807.689 656.28 807.828 659.116C808.53 657.898 809.574 656.401 809.826 655.01C810.115 653.415 809.37 651.915 808.517 650.645C807.945 649.794 807.595 649.395 807.577 648.327C809.111 645.169 811.312 644.772 814.341 643.551C815.722 642.995 816.662 642.299 817.219 640.842C818.355 637.865 818.095 635.783 816.852 632.928C816.601 632.353 816.551 632.492 816.627 631.927C816.891 629.957 825.571 612.383 827.065 609.883C827.583 609.018 828.15 608.577 828.925 607.954C828.756 607.664 828.534 607.398 828.416 607.083C827.791 605.422 831.14 600.524 831.703 598.648C831.766 598.44 831.813 598.227 831.868 598.017L833.487 597.298C833.435 595.544 833.56 593.884 833.971 592.171C834.397 590.393 835.268 589.984 836.754 589.092C837.728 588.508 838.11 588.405 838.744 587.44C837.807 587.007 836.992 586.656 836.225 585.956C837.533 584.99 838.118 586.244 839.703 585.682C840.587 584.722 840.806 584.154 841.009 582.905C841.183 581.834 841.341 581.114 841.887 580.149L842.473 580.82L842.183 582.383C842.918 581.056 845.45 576.241 845.344 574.854C845.151 572.34 843.4 570.754 844.108 567.933C844.721 565.487 846.908 563.506 847.468 561.141C847.863 559.473 846.837 557.537 847.099 555.999C847.473 553.804 851.013 550.519 851.512 547.553C852.204 543.442 850.349 539.524 850.321 535.475C850.297 531.908 851.837 527.34 852.814 523.863C853.708 523.503 853.786 523.461 854.417 522.652C853.506 522.025 853.411 522.172 853.052 521.053C853.712 519.862 854.305 519.948 855.533 519.519L855.692 518.982C854.596 518.632 853.564 518.257 852.515 517.783L852.781 517.288C853.749 517.078 854.639 516.888 855.546 516.485L853.719 515.057C853.431 513.738 853.446 513.712 854.025 512.491C854.965 511.939 855.505 511.881 856.56 511.922C857.523 511.96 858.362 511.948 859.323 511.809C859.402 511.684 859.496 511.568 859.56 511.435C860.687 509.084 858.069 506.212 857.581 503.872C857.194 502.012 857.509 499.861 858.556 498.267C860.287 498.123 861.686 497.906 863.321 497.31C864.594 496.181 864.841 494.843 865.296 493.274C866.699 497.889 866.715 502.78 868.007 507.41C869.064 511.777 868.933 515.7 869.361 520.105L871.325 538.619C871.683 542.038 871.822 545.626 872.402 549.004L873.544 549.29C873.48 549.433 873.4 549.57 873.351 549.719C872.919 551.052 873.309 552.63 873.004 554.087C871.961 559.053 873.083 565.776 873.09 570.936Q873.016 587.096 872.351 603.242C872.127 608.419 871.197 613.613 870.574 618.757Q868.622 635.669 866.052 652.498C861.79 680.3 852.939 708.525 842.47 734.532C838.551 744.267 835.11 754.022 830.634 763.544C808.712 810.187 776.35 849.686 738.696 884.508C732.293 890.429 725.601 895.965 719.015 901.673C712.893 906.98 707.043 912.589 700.275 917.092C632.08 962.467 541.34 987.712 460.077 971.024C436.619 966.206 413.406 960.233 391.02 951.642C335.431 930.307 286.534 893.261 248.34 847.881C238.074 835.684 228.753 824.471 219.945 811.085C209.291 794.894 198.728 778.461 190.07 761.094C184.483 749.887 179.804 738.065 175.147 726.446C172.196 719.086 168.77 711.641 166.473 704.067C160.379 683.975 156.306 662.999 153.139 642.265C151.873 633.976 150.968 625.481 150.239 617.127C149.964 613.976 150.029 610.758 149.586 607.625Q149.017 591.89 149.08 576.144C150.352 567.531 149.511 558.629 150.179 549.961C151.082 538.246 153.177 525.783 153.799 514.321C154.161 507.655 153.432 500.716 154.398 494.124C155.594 485.957 159.407 477.766 161.34 469.622Z"/>
	<path fill="#E5E4E5" d="M828.925 607.954C828.756 607.664 828.534 607.398 828.416 607.083C827.791 605.422 831.14 600.524 831.703 598.648C831.766 598.44 831.813 598.227 831.868 598.017L833.487 597.298C832.733 600.902 832.214 604.827 830.615 608.155L829.907 608.445L828.925 607.954Z"/>
	<path fill="#2F2D30" d="M720.175 780.583C725.768 780.436 731.02 780.386 736.069 783.268C739.908 785.459 742.483 788.839 743.519 793.138C745.084 799.63 744.352 807.662 740.759 813.32C737.119 819.053 731.264 823.655 724.589 825.017C721.315 825.391 717.979 825.531 714.754 824.736C708.515 823.197 703.897 818.306 700.67 812.978C700.187 806.743 699.445 801.002 702.401 795.196C706.029 788.071 712.75 783.162 720.175 780.583Z"/>
	<path fill="#2F2D30" d="M617.991 804.6C627.378 796.908 632.982 795.685 644.965 796.057C651.627 797.44 658.227 799.953 662.166 805.891C665.573 811.028 666.297 819.162 664.852 825.081C663.045 832.482 657.898 838.604 651.36 842.339C644.132 846.468 635.625 848.355 627.491 846.011C621.459 844.272 615.533 840.653 612.54 834.97C609.908 829.971 609.396 821.388 611.245 815.942C612.699 811.661 616.16 808.66 617.991 804.6Z"/>
	<path fill="#FDFDFA" d="M161.34 469.622C163.063 463.677 163.604 457.079 164.862 450.981C167.326 439.04 170.405 426.903 173.774 415.183Q181.626 387.516 191.462 360.49Q201.297 333.464 213.064 307.221C215.327 302.292 218.351 297.755 220.654 292.853C222.66 288.586 224.325 284.15 226.428 279.93C228.587 275.598 231.22 271.511 233.411 267.195C235.536 263.011 237.179 258.591 239.491 254.498C244.858 244.993 251.117 236.019 257.191 226.972C262.974 218.357 268.496 209.559 274.231 200.912C276.525 197.453 279.304 194.36 281.77 191.029C284.573 187.244 286.982 183.175 289.805 179.413C294.407 173.282 299.715 167.524 304.638 161.637C308.102 157.494 311.31 153.125 314.833 149.041C330.729 130.612 349.045 112.261 368.27 97.3444C373.812 93.0443 379.891 89.4552 385.609 85.3941C407.317 69.9747 422.621 60.4535 448.03 51.8289C456.411 48.9838 464.699 46.3778 473.391 44.6423C529.712 33.3972 578.583 46.9408 626.62 77.0101C635.96 82.8566 644.4 90.3622 653.616 96.5131C660.693 102.12 667.36 107.965 674.008 114.069C677.641 117.406 681.614 121.984 685.698 124.655C694.332 134.678 703.902 143.765 712.298 154.036Q718.116 161.02 723.753 168.152Q729.389 175.284 734.841 182.558Q740.292 189.832 745.554 197.244Q750.817 204.656 755.887 212.201Q760.957 219.746 765.831 227.419Q770.706 235.092 775.381 242.888Q780.056 250.684 784.53 258.597Q789.003 266.51 793.271 274.536Q797.54 282.562 801.6 290.695Q805.661 298.828 809.511 307.062Q813.361 315.297 816.998 323.628Q820.635 331.959 824.056 340.381Q827.477 348.803 830.681 357.31Q833.885 365.816 836.869 374.403Q839.853 382.99 842.615 391.65Q845.377 400.31 847.915 409.039C851.797 421.93 854.997 435.097 857.938 448.229C859.299 454.307 860.167 460.703 861.883 466.668C862.567 475.503 863.899 484.52 865.296 493.274C864.841 494.843 864.594 496.181 863.321 497.31C861.686 497.906 860.287 498.123 858.556 498.267C857.509 499.861 857.194 502.012 857.581 503.872C858.069 506.212 860.687 509.084 859.56 511.435C859.496 511.568 859.402 511.684 859.323 511.809C858.362 511.948 857.523 511.96 856.56 511.922C855.505 511.881 854.965 511.939 854.025 512.491C853.446 513.712 853.431 513.738 853.719 515.057L855.546 516.485C854.639 516.888 853.749 517.078 852.781 517.288L852.515 517.783C853.564 518.257 854.596 518.632 855.692 518.982L855.533 519.519C854.305 519.948 853.712 519.862 853.052 521.053C853.411 522.172 853.506 522.025 854.417 522.652C853.786 523.461 853.708 523.503 852.814 523.863C851.837 527.34 850.297 531.908 850.321 535.475C850.349 539.524 852.204 543.442 851.512 547.553C851.013 550.519 847.473 553.804 847.099 555.999C846.837 557.537 847.863 559.473 847.468 561.141C846.908 563.506 844.721 565.487 844.108 567.933C843.4 570.754 845.151 572.34 845.344 574.854C845.45 576.241 842.918 581.056 842.183 582.383L842.473 580.82L841.887 580.149C841.341 581.114 841.183 581.834 841.009 582.905C840.806 584.154 840.587 584.722 839.703 585.682C838.118 586.244 837.533 584.99 836.225 585.956C836.992 586.656 837.807 587.007 838.744 587.44C838.11 588.405 837.728 588.508 836.754 589.092C835.268 589.984 834.397 590.393 833.971 592.171C833.56 593.884 833.435 595.544 833.487 597.298L831.868 598.017C831.813 598.227 831.766 598.44 831.703 598.648C831.14 600.524 827.791 605.422 828.416 607.083C828.534 607.398 828.756 607.664 828.925 607.954C828.15 608.577 827.583 609.018 827.065 609.883C825.571 612.383 816.891 629.957 816.627 631.927C816.551 632.492 816.601 632.353 816.852 632.928C818.095 635.783 818.355 637.865 817.219 640.842C816.662 642.299 815.722 642.995 814.341 643.551C811.312 644.772 809.111 645.169 807.577 648.327C807.595 649.395 807.945 649.794 808.517 650.645C809.37 651.915 810.115 653.415 809.826 655.01C809.574 656.401 808.53 657.898 807.828 659.116C807.689 656.28 807.222 652.971 807.594 650.183L807.07 649.885C805.872 652.588 807.316 658.325 804.667 659.782C804.469 657.801 804.405 655.813 804.318 653.825L803.895 653.919C803.339 655.3 802.294 659.118 801.204 659.873C796.367 663.223 796.433 668.508 793.446 672.835C792.39 674.364 789.643 675.397 788.345 677.099C786.331 679.738 784.925 682.998 782.991 685.74C781.097 688.425 778.749 690.843 776.715 693.429C773.612 697.374 770.735 701.45 767.542 705.335C767.541 706.212 767.575 706.475 767.857 707.252C766.868 707.356 767.415 707.36 766.219 707.15C759.74 714.196 753.581 721.929 746.647 728.502C743.282 731.691 739.206 734.037 735.837 737.215C733.115 739.782 730.927 742.906 728.127 745.368C718.808 753.563 708.048 759.953 697.899 766.988C694.456 769.375 691.304 772.198 687.766 774.446C681.194 778.62 652.029 795.818 646.078 796.048C645.707 796.062 645.336 796.059 644.965 796.057C632.982 795.685 627.378 796.908 617.991 804.6L615.371 806.233C606.297 812.006 593.92 814.535 583.476 816.669C578.782 817.628 573.843 817.44 569.09 818.06C556.72 819.675 544.446 821.008 532.033 822.224C527.19 822.698 522.362 823.755 517.48 823.714C513.41 823.68 509.274 822.751 505.221 822.355C501.162 821.958 497.077 822.119 493.019 821.784C488.75 821.432 484.559 820.383 480.296 820.034C473.201 819.452 466.006 820.064 458.891 819.611L458.32 818.232C444.784 816.333 431.228 812.684 418.123 808.811C408.873 806.078 399.741 802.402 390.739 798.928C380.786 795.086 370.845 791.441 361.403 786.416C353.921 782.435 346.751 777.657 339.504 773.257C332.723 769.139 325.559 765.487 319.034 760.983C310.757 755.27 303.254 748.909 295.652 742.359Q289.92 737.502 284.394 732.411Q278.868 727.321 273.558 722.006Q268.247 716.691 263.162 711.16Q258.076 705.63 253.224 699.894Q248.372 694.157 243.762 688.225Q239.151 682.292 234.791 676.174Q230.43 670.055 226.327 663.761Q222.224 657.467 218.385 651.009C214.68 644.848 208.704 634.284 205.745 627.939C202.063 620.044 199.036 611.795 194.909 604.108C193.531 603.203 192.899 603.391 191.28 603.392C187.522 601.287 191.452 597.14 191.65 594.379C191.783 592.513 189.963 588.763 189.217 586.99C188.782 585.955 188.229 583.901 187.071 583.681C186.74 583.618 186.398 583.665 186.061 583.658L185.063 582.295C185.845 581.586 186.306 581.067 186.774 580.117C186.46 579.13 186.604 579.163 185.716 578.473C185.03 579.492 185.24 579.086 184.757 580.146C184.649 580.384 184.547 580.624 184.441 580.864L183.749 580.003C183.522 579.127 183.505 578.651 183.791 577.784C183.98 577.212 184.197 576.649 184.362 576.069C185.369 572.536 182.267 568.278 181.89 564.686C181.62 562.125 182.317 558.769 181.658 556.366C181.209 554.731 177.588 552.111 177.565 550.761C177.541 549.328 178.313 549.287 177.515 547.875C176.442 547.812 176.107 547.808 175.144 547.26C175.827 546.716 176.403 546.188 176.979 545.531C176.104 543.607 173.854 543.231 172.714 541.375L173.046 540.78C174.665 541.106 174.968 541.496 176.178 542.56L176.911 542.212L175.546 542.001L176.656 541.817C176.409 539.7 173.651 540.202 172.262 538.852C173.39 538.167 174.62 537.702 175.835 537.195L175.482 536.682L173.478 537.466L172.794 537.029C172.628 535.871 172.586 535.059 172.828 533.912L174.707 533.353L175.021 532.503L174.509 531.494C173.737 531.607 172.973 531.736 172.207 531.885C171.865 530.46 172.262 529.757 172.886 528.429C173.001 528.183 173.134 527.945 173.257 527.702C172.565 527.381 170.982 527.629 170.177 527.648C168.851 524.771 172.758 520.668 171.956 519.291C171.308 518.177 170.489 519 170.048 517.241C170.95 516.787 171.201 516.568 171.85 515.846C171.693 515.159 170.351 514.164 169.793 513.636C170.07 510.931 172.085 507.716 172.961 504.981C171.702 506.167 170.395 507.32 169.41 508.754C168.713 509.769 169.184 509.477 168.285 509.791C168.449 508.167 169.562 506.306 170.278 504.824C170.391 504.591 170.54 504.373 170.626 504.129C171.208 502.474 170.269 495.427 169.503 493.828C168.876 493.684 168.282 493.582 167.64 493.506L166.954 493.43L166.6 492.769L167.638 491.708C167.279 490.329 165.014 491.026 164.09 489.703L164.486 489.025C165.545 488.971 166.387 488.905 167.386 488.538C166.029 488.019 164.809 487.518 163.574 486.731L163.756 486.199C165.117 485.946 166.369 485.707 167.656 485.171L167.485 484.653C166.102 484.428 164.8 484.258 163.513 483.666C162.068 479.41 162.329 474.497 161.437 470.083L161.34 469.622Z"/>
	<path fill="#22222A" d="M785.172 400.612C788.359 400.356 791.691 399.953 794.848 400.646C799.24 401.61 801.61 404.346 803.925 407.944C804.374 413.375 804.794 420.305 801.638 425.014C799.458 428.267 796.814 429.194 793.128 429.966C788.879 430.098 784.805 429.675 780.594 429.144C778.177 426.989 776.127 425.04 774.926 421.938C773.305 417.754 773.25 412.752 775.236 408.673C777.316 404.398 780.801 402.12 785.172 400.612Z"/>
	<path fill="#22222A" d="M280.95 273.133C285.259 272.967 289.294 272.642 293.026 275.248C296.005 277.329 297.594 280.623 298.202 284.134C299.138 289.552 298.098 295.778 294.864 300.297C291.659 304.774 287.751 306.065 282.614 306.977C278.391 307.173 273.944 307.558 270.117 305.389C267.377 303.836 265.732 301.284 265.039 298.252C263.812 292.877 264.965 286.317 268.042 281.746C271.132 277.154 275.563 274.216 280.95 273.133Z"/>
	<path fill="#22222A" d="M313.184 199.605C317.612 199.198 322.28 199.075 326.55 200.503C329.519 201.496 332.054 203.257 333.351 206.187C335.424 210.868 334.228 217.286 332.434 221.944C329.705 229.026 323.401 236.957 316.469 240.185C313.516 240.672 310.563 240.783 307.574 240.648C304.293 240.499 300.608 239.714 298.407 237.052C296.172 234.348 296.078 230.357 296.575 227.056C297.655 219.866 307.475 203.931 313.184 199.605Z"/>
	<path fill="#2F2D30" d="M750.794 345.709C756.742 345.518 762.611 346.563 767.448 350.25C771.909 353.649 774.582 358.978 775.222 364.501C775.949 370.762 773.675 377.136 769.68 381.938C765.715 386.706 761.312 388.672 755.31 389.246C749.218 389.283 743.974 388.166 739.148 384.171Q738.686 383.791 738.243 383.389Q737.8 382.987 737.378 382.564Q736.956 382.14 736.555 381.696Q736.154 381.253 735.776 380.79Q735.397 380.326 735.042 379.845Q734.687 379.364 734.356 378.866Q734.025 378.367 733.72 377.853Q733.414 377.339 733.134 376.811Q732.854 376.282 732.6 375.741Q732.347 375.199 732.121 374.646Q731.894 374.092 731.695 373.528Q731.497 372.964 731.326 372.391Q731.156 371.817 731.014 371.236Q730.872 370.655 730.758 370.068Q730.645 369.481 730.561 368.889Q730.477 368.297 730.423 367.701C729.943 362.255 731.244 356.847 734.833 352.633C739.229 347.471 744.376 346.223 750.794 345.709Z"/>
	<path fill="#2F2D30" d="M700.837 554.676C708.074 554.004 715.295 554.46 721.771 558.079C727.979 561.548 732.484 567.027 734.355 573.947C736.605 582.274 735.419 590.737 731.135 598.195C726.745 605.838 720.841 610.542 712.283 612.841Q711.048 613.095 709.801 613.283C702.822 614.356 695.788 612.246 690.162 608.077C683.152 602.881 677.909 594.123 676.673 585.493C675.646 578.321 677.037 570.018 681.601 564.279C686.529 558.083 693.24 555.594 700.837 554.676Z"/>
	<path fill="#2F2D30" d="M370.971 106.165C376.673 105.671 394.665 106.891 400.158 108.171C403.33 108.909 405.746 110.345 407.429 113.211C410.282 118.073 409.969 125.969 408.305 131.155C404.413 143.286 391.068 154.425 380.188 160.172C377.087 161.509 373.98 162.63 370.642 163.212C364.783 164.233 358.142 163.826 353.197 160.213C348.737 156.954 346.338 151.665 345.444 146.344C343.982 137.636 345.783 125.198 351.051 118.036C355.989 111.322 362.729 107.353 370.971 106.165Z"/>
	<path fill="#2F2D30" d="M683.963 649.21Q685.393 649.175 686.824 649.167C697.87 649.116 709.125 651.821 717.121 659.908C725.233 668.113 727.724 679.251 727.624 690.462C727.498 704.563 722.033 716.667 711.948 726.432C701.594 736.458 688.697 741.702 674.296 741.462C662.627 739.863 652.915 736.703 643.926 728.845C635.081 721.113 630.58 710.416 629.882 698.785C629.205 687.514 631.817 676.392 639.45 667.848C651.529 654.328 666.39 650.106 683.963 649.21Z"/>
	<path fill="#2F2D30" d="M497.387 617.554C504.455 616.066 513.934 615.96 520.942 617.546Q523.003 617.757 525.044 618.104Q527.086 618.452 529.101 618.933Q531.115 619.415 533.093 620.03Q535.071 620.645 537.004 621.389Q538.937 622.133 540.816 623.004Q542.695 623.875 544.512 624.869Q546.33 625.863 548.077 626.975Q549.824 628.087 551.494 629.313C565.95 639.956 574.431 653.489 577.029 671.306C579.858 690.717 576.731 708.451 564.836 724.283Q563.839 725.636 562.775 726.938Q561.711 728.239 560.583 729.486Q559.454 730.732 558.265 731.92Q557.075 733.108 555.827 734.234Q554.579 735.36 553.276 736.423Q551.973 737.485 550.618 738.48Q549.264 739.475 547.86 740.401Q546.457 741.326 545.009 742.18Q543.561 743.034 542.071 743.814Q540.582 744.593 539.055 745.297Q537.529 746.001 535.968 746.627Q534.408 747.253 532.818 747.799Q531.229 748.346 529.613 748.811Q527.998 749.277 526.362 749.661Q524.725 750.045 523.071 750.346Q521.417 750.647 519.75 750.864C502.739 753.166 484.192 749.744 470.432 739.078C457.661 729.18 446.985 710.297 445.05 694.256C442.811 675.696 446.118 654.388 457.972 639.436C467.017 628.026 482.941 619.253 497.387 617.554Z"/>
	<path fill="#22222A" d="M497.387 617.554C504.455 616.066 513.934 615.96 520.942 617.546L520.439 618.671C519.973 618.925 519.769 619.078 519.182 619.159C517.268 619.425 499.246 618.953 498.515 618.607C498.05 618.387 497.763 617.905 497.387 617.554Z"/>
	<path fill="#2F2D30" d="M503.355 213.951C513.645 212.877 524.629 214.052 534.9 215.118C545.839 215.219 569.798 220.515 579.105 225.324C586.975 227.721 594.553 231.254 601.782 235.163C606.781 236.982 612.027 240.328 616.437 243.319C651.74 267.262 675.36 297.323 683.562 339.84C691.794 382.514 682.639 411.569 655.485 444.98C647.176 455.204 637.502 465.677 627.042 473.749C615.14 482.934 603.223 491.957 591.59 501.487C585.414 506.546 578.43 511.536 573.631 517.962C563.571 531.431 572.612 554.296 564.843 565.119C562.485 568.406 559.161 570.239 555.202 570.84C549.635 571.684 543.684 571.201 538.069 571.133Q524.869 570.922 511.668 570.917Q498.253 570.941 484.84 571.152C479.343 571.225 473.534 571.659 468.087 570.943C464.448 570.464 461.191 569.271 458.272 567.007C453.279 563.134 450.753 557.499 450.108 551.313C449.117 541.805 450.206 531.375 450.778 521.838C453.969 468.725 477.621 450.235 519.286 423.227C531.953 415.016 546.034 407.039 555.618 395.14Q556.301 394.283 556.94 393.394Q557.58 392.505 558.175 391.585Q558.771 390.665 559.32 389.717Q559.869 388.77 560.371 387.796Q560.873 386.822 561.327 385.825Q561.78 384.828 562.184 383.81Q562.588 382.791 562.941 381.754Q563.295 380.717 563.597 379.664Q563.899 378.611 564.148 377.545Q564.398 376.478 564.595 375.4Q564.792 374.323 564.936 373.237Q565.08 372.151 565.17 371.059Q565.26 369.967 565.297 368.872Q565.333 367.777 565.316 366.682Q565.299 365.587 565.227 364.493Q565.156 363.4 565.031 362.312C563.725 350.594 555.738 340.518 546.77 333.386C535.878 324.723 518.945 320.949 505.26 322.64C471.625 326.797 458.327 341.865 450.211 373.818C448.432 380.824 447.219 389.098 442.541 394.818C438.813 399.375 433.328 401.451 427.583 401.911C420.775 402.456 413.306 400.715 406.783 398.952C395.875 396.004 343.15 376.305 336.652 370.52C333.527 367.738 332.405 364.67 332.337 360.519C332.234 354.194 334.861 347.556 336.662 341.55C345.227 312.994 358.212 286.888 379.072 265.278C409.809 233.435 459.59 214.662 503.355 213.951Z"/>
	<path fill="#22222A" d="M579.105 225.324C586.975 227.721 594.553 231.254 601.782 235.163C601.181 235.552 601.381 235.486 600.551 235.674C597.342 236.399 587.364 230.878 584.659 229.095C585.465 229.056 585.645 229.079 586.343 228.619C583.934 228.041 581.328 227.203 579.11 226.08L579.105 225.324Z"/>
	<path fill="#22222A" d="M503.355 213.951C513.645 212.877 524.629 214.052 534.9 215.118L534.731 215.601C532.217 216.232 507.184 216.306 504.83 215.638C503.79 215.343 503.845 214.857 503.355 213.951Z"/>
</svg>
