<?xml version="1.0" encoding="utf-8" ?>
<svg xmlns="http://www.w3.org/2000/svg" xmlns:xlink="http://www.w3.org/1999/xlink" width="1024" height="1024">
	<path fill="#2C3B41" fill-opacity="0.98823529" d="M653.809 161.454C662.717 161.419 670.822 161.418 679.604 163.127C678.279 164.628 677.915 164.671 675.927 164.927C675.772 164.894 675.618 164.856 675.462 164.826C675.203 164.776 674.942 164.735 674.683 164.687C669.122 163.66 663.352 165.375 657.727 164.35C655.596 163.962 654.948 163.143 653.809 161.454Z"/>
	<path fill="#2C3B41" d="M679.604 163.127C698.332 165.012 731.602 183.536 745.478 195.846C745.254 195.84 745.027 195.869 744.807 195.827C743.845 195.644 743.435 195.352 742.371 195.353C736.57 195.356 721.888 183.859 716.416 180.429C704.533 172.98 689.309 168.908 675.927 164.927C677.915 164.671 678.279 164.628 679.604 163.127Z"/>
	<path fill="#041923" d="M511.61 124.136C517.574 124.066 525.023 123.307 530.405 126.33C539.048 131.184 539.58 141.211 542.109 149.525C543.088 152.744 544.835 154.427 547.793 156.039C547.927 156.113 548.645 156.478 548.786 156.578C549.063 156.775 549.317 157.003 549.582 157.215C556.881 157.595 564.288 158.244 571.581 158.401C578.341 158.548 585.254 158.043 591.986 158.665C592.197 158.679 592.41 158.687 592.621 158.705C593.777 158.806 593.305 158.756 594.448 159.021C598.808 160.035 604.646 159.356 609.198 159.382C615.364 159.419 621.455 160.142 627.605 160.309C635.977 160.536 645.649 159.386 653.809 161.454C654.948 163.143 655.596 163.962 657.727 164.35C663.352 165.375 669.122 163.66 674.683 164.687C674.942 164.735 675.203 164.776 675.462 164.826C675.618 164.856 675.772 164.894 675.927 164.927C689.309 168.908 704.533 172.98 716.416 180.429C721.888 183.859 736.57 195.356 742.371 195.353C743.435 195.352 743.845 195.644 744.807 195.827C745.027 195.869 745.254 195.84 745.478 195.846C748.57 197.773 751.553 200.924 754.245 203.424C767.504 215.741 779.138 229.08 789.165 244.151C792.621 249.347 795.067 255.947 799.39 260.397C806.2 263.197 820.992 255.948 827.265 252.579C832.468 249.785 832.301 247.462 839.126 247.264C864.719 246.524 890.519 247.379 916.137 247.358C925.466 247.351 954.985 246.17 962.155 247.921C969.94 249.822 980.437 256.561 986.306 262.112C988.548 264.233 990.956 266.542 992.639 269.14C997.237 276.238 999.665 288.438 999.879 296.78C1000.54 322.636 999.877 348.692 999.888 374.57L999.92 397.234C999.959 401.753 1000.46 406.766 999.731 411.22C999.257 414.115 997.876 416.506 995.822 418.573C991.245 423.18 984.453 426.759 979.159 430.653C967.857 438.966 956.858 447.823 945.387 455.879C943.742 457.033 941.917 458.389 940 459.007C934.139 460.895 906.655 459.835 899.085 459.835L810.931 459.915L810.922 668.339L810.767 720.594C810.759 734.959 811.865 750.424 808.758 764.52C805.526 779.178 798.467 800.138 791.198 813.441C789.438 816.663 776.735 833.588 776.621 835.498C776.544 836.792 777.812 837.321 777.22 839.15C776.14 842.492 757.231 862.332 753.507 864.391C751.57 865.462 749.929 865.25 747.927 864.575C747.769 864.522 747.613 864.465 747.456 864.41C739.766 868.429 733.218 874.748 725.556 878.946C722.471 880.636 714.791 882.805 713.176 885.683Q713.604 886.674 713.998 887.679C713.889 887.804 713.796 887.945 713.671 888.054C712.52 889.06 710.475 889.371 709.015 889.157C708.897 888.943 708.575 888.335 708.414 888.183C707.358 887.183 705.602 887.901 704.349 888.268C699.917 889.566 695.7 891.522 691.319 892.97C683.44 895.576 675.314 895.409 667.113 895.494L548.951 895.571L348.595 895.571L236.533 895.579L198.368 895.611C190.919 895.609 183.338 895.862 175.904 895.379C168.486 894.898 161.091 892.928 153.839 891.361C144.669 889.379 134.584 887.718 125.912 884.082C117 880.347 85.7498 857.423 78.5566 850.709C70.5155 843.203 63.0877 834.289 55.824 826.01C48.5298 817.697 36.9389 797.756 32.7485 787.387C30.6604 782.22 29.368 776.567 27.8254 771.209C24.4773 759.579 20.9486 748.041 19.2447 736.026C16.9209 719.639 18.9231 701.084 19.181 684.488C19.2791 678.176 18.945 671.858 19.0075 665.544Q19.6691 631.987 19.4779 598.424L20.4458 415.006L20.4568 354.906C20.4581 344.482 19.9145 333.71 20.6895 323.333C21.4392 313.295 27.1468 288.805 30.4265 279.24C33.8623 269.221 43.9754 247.474 49.6625 238.739C52.5539 234.298 56.3815 230.282 59.7162 226.161C62.8298 222.313 65.8519 218.219 69.2518 214.623C72.0592 211.654 75.3371 209.102 78.3642 206.359C82.6591 202.467 86.7056 198.285 91.3868 194.846C95.9002 191.529 100.892 188.712 105.672 185.792C109.531 183.435 113.469 180.706 117.578 178.83C123.391 176.177 130.505 175.404 136.708 173.774C148.052 170.794 163.084 166.364 174.393 164.559C182.208 163.312 189.959 163.787 197.79 163.263Q228.254 160.922 258.776 159.54C264.266 159.32 287.346 159.302 290.684 157.612C295.901 154.969 299.236 140.693 302.928 135.501C305.544 131.822 310.334 129.411 313.762 126.433C317.875 126.323 322.014 126.468 326.129 126.514C334.937 134.027 343.21 142.537 351.479 150.648C357.366 156.423 363.387 163.381 370.61 167.428C381.061 167.488 391.298 164.271 401.587 162.713C411.858 161.159 433.353 163.148 443.951 164.71C450.957 165.742 461.342 169.237 467.451 164.421C470.376 162.115 473.065 159.169 475.795 156.606C484.376 148.55 492.585 140.174 501.386 132.345C504.442 129.627 507.569 126.413 511.128 124.395C511.287 124.305 511.449 124.222 511.61 124.136Z"/>
	<path fill="#2C3B41" d="M781.6 524.862L784.53 524.88C784.55 529.519 783.857 534.684 782.895 539.21C782.029 534.499 781.903 529.637 781.6 524.862Z"/>
	<path fill="#010307" d="M489.583 178.987C495.185 180.124 500.105 182.864 504.652 186.25C504.509 186.322 504.371 186.403 504.223 186.465C503.146 186.911 502.411 186.608 501.384 186.223C497.573 184.792 491.319 182.824 489.583 178.987Z"/>
	<path fill="#2C3B41" d="M549.582 157.215C556.881 157.595 564.288 158.244 571.581 158.401C578.341 158.548 585.254 158.043 591.986 158.665C589.969 161.484 577.187 157.888 573.275 159.582C572.266 160.018 572.654 160.013 571.669 160.017C570.577 160.021 571.601 159.848 570.169 160.234L570.357 160.729C565.542 160.893 560.599 160.759 555.79 160.463C553.457 160.32 550.942 160.22 549.315 158.406L549.582 157.215Z"/>
	<path fill="#9C9B9B" d="M489.583 178.987C489.069 176.66 489.105 175.392 490.459 173.385C494.151 167.911 500.549 164.38 505.189 159.755C507.676 157.276 509.233 153.859 512.042 151.75C513.21 151.676 513.729 151.553 514.604 152.527C519.364 157.828 516.403 183.602 514.45 190.764C514.296 191.331 514.158 191.535 513.904 192.001C510.423 191.924 507.508 187.801 504.652 186.25C500.105 182.864 495.185 180.124 489.583 178.987Z"/>
	<path fill="#9C9B9B" d="M608.362 264.765C609.062 264.828 609.962 264.828 610.584 265.197C617.339 269.21 624.415 298.387 625.247 306.041C620.262 303.583 615.724 300.489 610.639 298.15C603.056 296.24 594.657 297.471 587.091 295.414C586.745 294.199 586.914 294.226 587.311 293.102C595.886 287.317 605.487 274.7 608.362 264.765Z"/>
	<path fill="#9C9B9B" d="M317.809 146.91C323.96 150.468 327.442 159.064 332.673 164.034C336.561 167.729 343.699 171.008 346.64 174.406C345.167 176.299 336.246 181.55 332.912 184.704C329.538 187.858 326.597 191.966 322.862 194.672C321.606 195.582 321.177 195.657 319.684 195.346C319.082 194.796 318.586 194.308 318.211 193.571C314.332 185.942 314.179 165.605 315.363 156.785C315.815 153.419 316.837 150.155 317.809 146.91Z"/>
	<path fill="#9C9B9B" d="M215.884 259.821C216.889 259.881 217.895 259.973 218.84 260.345C221.598 261.434 223.852 266.157 225.305 268.647C230.083 276.835 238.54 283.69 242.445 291.174C241.661 291.893 224.962 295.839 221.891 296.96C215.483 299.174 211.219 303.022 205.701 306.758L204.809 306.289C204.063 304.161 204.83 300.8 205.275 298.591C206.53 292.362 208.849 286.302 210.549 280.177C212.426 273.413 213.856 266.548 215.884 259.821Z"/>
	<path fill="#9C9B9B" d="M191.078 249.461C191.853 249.453 192.426 249.423 193.157 249.729C193.843 250.016 193.989 250.548 194.17 251.253C195.209 255.302 188.089 271.101 186.794 276.291C185.138 282.929 185.218 290.733 182.208 296.913C180.232 298.324 176.902 296.344 174.822 295.593C166.455 292.575 155.53 291.919 146.648 291.964L145.768 291.972C143.249 292.277 139.534 293.122 137.236 292.016C136.927 291.032 136.893 290.799 137.304 289.793C138.796 286.137 142.932 282.501 145.739 279.769C160.376 265.524 172.322 257.733 191.078 249.461Z"/>
	<path fill="#9C9B9B" d="M631.85 249.383C637.517 249.177 642.732 250.747 647.789 253.185C658.829 258.507 687.258 277.789 690.605 289.223C690.95 290.403 690.852 290.892 690.244 291.919C687.604 292.229 684.69 291.449 682.075 291.028C675.383 290.915 669.216 291.523 662.996 294.144C659.502 295.617 652.505 301.772 649.102 301.066C646.735 299.206 646.093 290.795 645.543 287.813C644.289 281.017 642.939 274.155 640.096 267.813C637.311 261.602 633.427 256.09 631.85 249.383Z"/>
	<path fill="#9C9B9B" d="M561.365 358.216C568.108 357.982 574.988 360.329 580.467 364.195C586.119 368.184 591.376 374.396 592.467 381.385C593.537 388.236 590.738 395.001 586.772 400.458C581.749 407.367 573.65 413.94 565.04 415.325C555.261 415.648 546.706 407.871 541.376 400.291C538.505 396.209 536.099 391.373 532.164 388.217C532.659 380.878 535.067 373.206 539.849 367.507C545.441 360.841 553.081 358.835 561.365 358.216Z"/>
	<path fill="#9C9B9B" d="M264.861 357.203C265.865 357.093 266.903 357.126 267.914 357.15C276.484 357.358 284.691 361.788 290.496 367.925C296.21 373.966 299.701 380.042 299.484 388.52C290.976 398.472 285.211 409.686 272.461 414.913C271.735 415.094 271.879 415.075 271.008 415.202C265.744 415.97 258.738 411.91 254.592 408.804C247.119 403.206 239.162 394.624 237.943 384.985C237.137 378.613 239.624 371.461 243.635 366.531C249.096 359.818 256.71 358.057 264.861 357.203Z"/>
	<path fill="#EDEFEC" d="M899.054 263.782C908.566 263.085 918.352 263.605 927.889 263.916C934.655 264.136 947.271 264.191 952.242 269.498C952.582 270.502 952.807 270.552 952.419 271.59C942.225 277.946 932.4 285.913 921.832 291.482C918.81 293.074 915.347 294.332 911.939 294.69C906.315 295.28 900.002 293.918 894.369 293.445C884.271 292.598 874.342 291.994 864.208 292.288Q852.077 292.106 840.019 290.771C836.106 290.351 832.211 289.559 828.29 289.283C822.949 288.907 817.123 289.793 811.9 288.698C809.994 288.298 809.19 287.639 808.176 285.987C808.194 285.289 808.013 284.869 808.549 284.348C811.144 281.825 817.563 279.336 820.959 277.336C826.358 274.158 832.169 269.804 837.989 267.614C841.634 266.243 845.976 265.992 849.821 265.54C855.22 264.906 860.674 264.187 866.112 264.032C877.08 263.719 888.105 264.42 899.054 263.782Z"/>
	<path fill="#010307" d="M873.767 269.198C878.056 268.752 881.829 268.642 885.84 270.484C888.322 271.624 891.701 273.991 892.436 276.812C892.794 278.187 892.608 279.181 891.894 280.407C890.376 283.015 886.376 283.846 883.703 284.638C878.187 285.319 871.3 285.552 866.692 281.964C864.953 280.609 863.333 278.416 863.142 276.16C863.031 274.854 863.463 273.584 864.311 272.587C866.801 269.658 870.232 269.504 873.767 269.198Z"/>
	<path fill="#EDEFEC" d="M972.364 290.875C972.633 290.982 972.905 291.081 973.171 291.196C976.432 292.609 979.75 297.066 980.937 300.348C982.327 304.194 982.039 381.238 981.524 391.373C981.387 394.068 981.291 397.415 980.088 399.856C974.201 411.806 956.542 424.2 944.111 428.134C943.641 428.261 942.969 428.47 942.491 428.46C941.24 428.433 940.182 427.921 939.42 426.932C936.765 423.488 936.216 406.776 936.064 401.776C935.759 391.751 937.461 381.729 937.612 371.681Q937.777 362.589 937.42 353.502C936.947 343.227 935.212 331.692 937.581 321.607C940.611 308.713 961.487 297.548 972.364 290.875Z"/>
	<path fill="#010307" d="M955.819 376.506C957.271 376.442 958.812 376.439 960.252 376.658C963.691 377.181 966.931 379.009 968.941 381.878C971.514 385.55 971.819 390.35 971.01 394.637C969.963 400.186 967.31 404.447 962.656 407.605C961.228 408.013 959.685 408.387 958.201 408.461C955.544 408.595 952.833 408.001 950.886 406.088C948.599 403.839 948.017 400.658 948.093 397.567C948.266 390.522 950.517 381.402 955.819 376.506Z"/>
	<path fill="#041923" d="M959.056 315.544C961.211 315.435 963.165 315.604 965.088 316.679C967.889 318.246 969.593 321.292 970.455 324.286C972.475 331.303 971.688 340.739 967.89 347.02C965.771 350.524 963.717 351.98 959.767 352.908C959.629 352.876 959.488 352.852 959.351 352.814C955.439 351.719 951.335 348.689 949.312 345.179C946.862 340.93 947.152 336.12 948.316 331.523C949.982 324.948 953.079 319.079 959.056 315.544Z"/>
	<path fill="#EDEFEC" d="M807.08 314.739C821.521 314.595 833.714 316.132 847.781 316.811C857.869 317.297 867.928 318.131 878.008 318.635C883.054 318.888 888.31 318.645 893.311 319.347C896.523 319.798 900.402 320.553 903.011 322.541C907.704 326.118 909.924 331.636 910.508 337.32C911.946 351.332 910.248 365.886 910.059 379.963C909.858 394.872 910.918 410.212 909.663 425.046C909.387 428.321 909.015 434.006 906.787 436.525C902.627 441.228 895.968 441.507 890.173 441.933C875.27 442.08 860.226 441.11 845.299 440.954C834.254 440.838 822.444 441.974 811.542 440.521C807.305 439.956 803.463 439.122 800.121 436.272C786.043 424.268 787.434 409.882 787.124 393.158C786.987 385.753 786.406 378.388 785.946 370.999C785.218 359.335 783.023 329.15 791.129 320.418C795.548 315.658 800.966 314.986 807.08 314.739Z"/>
	<path fill="#041923" d="M874.069 335.604C876.099 335.468 878.099 335.355 880.082 335.908C885.092 337.305 889.754 340.727 892.304 345.29C894.058 348.429 894.407 351.675 893.262 355.096C891.2 361.254 886.403 365.552 880.727 368.323C879.456 368.663 878.543 368.796 877.247 368.483C871.502 367.095 866.139 362.77 863.313 357.618C861.621 354.532 860.879 351.128 861.95 347.707C863.634 342.325 869.206 338.054 874.069 335.604Z"/>
	<path fill="#010307" d="M873.072 392.604C875.896 392.431 878.378 392.622 881.061 393.587Q881.485 393.74 881.901 393.915Q882.317 394.09 882.723 394.286Q883.129 394.482 883.525 394.698Q883.921 394.915 884.304 395.152Q884.688 395.388 885.06 395.645Q885.431 395.901 885.788 396.176Q886.146 396.451 886.488 396.744Q886.831 397.037 887.158 397.348Q887.486 397.658 887.797 397.985Q888.107 398.312 888.401 398.654Q888.694 398.997 888.97 399.354Q889.245 399.711 889.502 400.082Q889.759 400.453 889.996 400.836Q890.233 401.22 890.451 401.615Q890.668 402.01 890.864 402.416Q891.061 402.822 891.236 403.238C892.967 407.288 893.057 411.68 891.241 415.714C889.065 420.548 885.098 423.317 880.321 425.19C878.267 425.627 876.658 425.491 874.663 424.842C869.278 423.087 864.898 419.48 862.425 414.321C860.634 410.583 860.472 406.452 862.001 402.593C864.066 397.385 868.081 394.618 873.072 392.604Z"/>
	<path fill="#041923" d="M818.269 392.584C820.875 392.376 823.946 391.945 826.483 392.634C830.721 393.785 834.048 396.376 836.164 400.238C838.053 403.686 838.815 407.58 837.65 411.397C835.776 417.537 830.112 422.936 824.468 425.786C821.867 426.271 820.122 425.705 817.734 424.641C812.397 422.262 807.77 417.559 805.808 412.01C804.596 408.585 804.61 404.968 806.197 401.666C808.613 396.639 813.217 394.241 818.269 392.584Z"/>
	<path fill="#041923" d="M817.962 333.648C821.733 333.491 824.966 333.403 828.468 335.014Q829.297 335.402 830.084 335.871Q830.871 336.34 831.607 336.885Q832.343 337.43 833.021 338.045Q833.699 338.661 834.312 339.341Q834.925 340.021 835.467 340.759Q836.01 341.497 836.476 342.286Q836.942 343.074 837.327 343.905Q837.712 344.736 838.012 345.601C839.462 349.702 839.532 354.314 837.568 358.261C835.189 363.044 830.647 365.936 825.716 367.566C822.364 367.562 819.302 366.814 816.307 365.285C810.453 362.297 806.417 357.109 804.289 350.989C804.938 348.035 805.825 345.143 807.366 342.522C809.756 338.458 813.301 334.873 817.962 333.648Z"/>
	<path fill="#EDEFEC" d="M717.603 324.906L718.281 324.589C722.624 322.515 725.947 319.498 727.605 314.847C730.054 307.975 727.418 300.274 724.295 294.06C707.386 260.411 680.515 237.986 644.737 226.343C633.95 222.832 616.901 216.804 606.209 222.007C603.918 223.122 602.26 224.52 600.753 226.564C597.817 230.546 596.298 235.407 594.125 239.805C590.966 246.2 575.295 274.952 570.599 277.825C569.504 278.495 569.184 278.248 568.023 277.929C565.423 275.518 562.323 261.263 560.624 256.755C556.977 247.076 551.698 237.25 545.657 228.856C542.919 225.05 539.563 221.408 537.116 217.453C536.316 216.161 535.996 215.016 535.798 213.524C537.125 208.392 541.04 204.024 542.444 198.654C543.145 195.973 543.384 183.284 545.615 182.169C547.552 181.2 550.35 181.162 552.483 181.143C563.855 181.039 575.36 182.477 586.801 182.541L622.627 182.522C632.2 182.51 641.751 182.229 651.259 183.574C665.324 185.564 678.651 189.804 691.779 195.132C714.795 204.474 736.854 220.171 752.963 239.198C758.082 245.244 762.502 251.818 766.947 258.362C770.944 264.247 775.689 270.541 778.547 277.057C778.875 277.804 779.092 278.536 779.308 279.321C777.188 284.045 773.855 287.936 770.846 292.104C766.818 297.685 763.38 304.396 761.558 311.051C758.467 322.342 759.965 348.731 760.142 361.637C760.419 381.866 759.955 402.095 762.213 422.237Q762.513 424.769 763.114 427.248Q763.714 429.726 764.607 432.115C767.432 439.699 772.141 445.816 777.808 451.496C780.602 454.296 783.512 456.929 785.687 460.261C785.796 460.428 785.912 460.589 786.016 460.758C788.566 464.911 785.902 476.102 785.817 480.951C785.581 494.333 788.024 512.189 784.53 524.88L781.6 524.862C781.488 519.088 779.733 513.014 778.336 507.421C771.034 478.187 755.233 453.394 733.601 432.618C702.489 402.736 663.958 389.439 621.273 388.485C616.691 369.057 608.345 349.725 590.762 338.716C588.298 337.174 585.661 335.846 582.887 334.959C579.224 333.788 573.847 334.237 571.145 331.359C570.937 329.99 570.96 329.427 571.782 328.263C575.38 323.164 584.09 319.882 590.005 319.216C601.564 317.913 611.489 320.647 620.595 327.973C627.012 333.137 635.017 346.382 644.164 345.598C646.469 345.4 648.176 343.993 649.528 342.209C651.905 339.073 653.251 334.659 654.837 331.062C659.533 320.409 668.063 313.497 679.652 311.701C697.537 308.93 703.306 316.715 717.603 324.906Z"/>
	<path fill="#EDEFEC" d="M275.045 181.793C277.565 181.563 280.171 181.24 282.7 181.359C283.994 181.419 285.294 181.624 286.011 182.801C287.157 184.681 287.671 187.781 288.228 189.926C290.872 200.111 292.288 206.241 299.501 214.32C288.884 226.564 280.895 241.014 274.163 255.706C272.488 259.361 266.95 275.769 264.808 276.853C257.714 274.128 243.785 250.447 240.003 243.17C237.491 238.336 235.557 233.219 233.023 228.405C231.672 225.84 229.072 221.204 226.194 220.441C225.984 220.385 225.771 220.344 225.56 220.294C209.235 216.414 188.896 224.397 173.66 230.102C143.015 241.577 119.181 264.264 105.801 294.124C103.204 299.919 100.843 307.62 103.375 313.784C105.369 318.639 109.481 320.887 114.091 322.712C121.758 320.103 127.45 313.056 135.309 311.287C152.521 307.412 167.028 312.67 175.983 328.016C178.982 333.155 182.112 341.558 187.427 344.574C189.475 345.736 191.647 345.637 193.662 344.461C197.024 342.499 199.645 338.713 202.221 335.822C209.542 327.604 218.814 321.406 229.406 318.284C237.47 315.907 246.107 315.155 253.687 319.478C256.603 321.141 261.336 324.236 262.228 327.602C261.929 329.017 261.707 329.738 260.333 330.514C257.699 332 253.73 332.312 250.757 333.105C243.209 335.117 235.298 341.041 229.606 346.22C216.727 357.937 212.683 371.318 211.903 388.351C202.367 388.442 193.442 389.821 183.991 390.829C161.353 394.14 132.997 406.842 114.659 420.55C92.8932 436.819 67.9949 467.861 57.54 493.067C55.5679 497.821 53.8115 502.854 52.4668 507.823C51.2742 512.229 49.338 528.491 46.3474 530.782L45.3396 530.339C43.5503 528.191 43.3229 524.738 43.1047 522.005C42.2458 511.248 42.8958 500.105 42.9681 489.315L43.0347 438.626L43.2266 380.942C43.1208 356.815 42.1195 330.389 46.5842 306.702C50.8985 283.812 61.3544 257.173 76.7112 239.314C83.9898 230.849 94.1979 220.372 103.144 213.609C125.933 196.383 159.302 185.012 187.63 183.181C197.161 182.565 206.919 182.999 216.482 183.025C235.972 183.078 255.596 183.169 275.045 181.793Z"/>
	<path fill="#EDEFEC" d="M408.623 185.204C411.975 184.723 415.725 184.947 419.121 184.925C440.119 184.788 460.482 189.804 478.628 200.466C507.837 217.628 526.098 242.825 537.264 274.324C539.373 280.273 541.845 286.43 542.806 292.686C543.684 298.399 544.422 304.245 544.698 310.016C545.101 318.462 544.647 326.763 546.788 335.027C543.232 337.58 538.771 339.036 534.914 341.159C522.536 347.971 514.361 358.969 510.327 372.402C508.846 377.335 509.118 384.12 506.377 388.431C498.26 388.857 489.79 387.468 481.627 387.179Q455.447 386.184 429.25 386.489Q379.304 386.732 329.358 386.451Q329.013 384.167 328.524 381.91C323.66 359.665 306.819 344.255 288.455 332.462C287.675 293.588 287.699 277.063 309.984 243.393C312.451 239.665 313.731 235.097 316.554 231.609C319.038 228.539 329.803 217.805 333.087 215.346C336.004 213.161 339.396 211.537 342.463 209.559C347.022 206.619 351.323 203.217 356.067 200.575C371.754 191.837 390.882 186.941 408.623 185.204Z"/>
	<path fill="#010307" d="M387.517 329.542C391.563 329.808 395.636 331.252 398.46 334.287C401.373 337.418 402.594 341.536 402.306 345.765C401.863 352.265 398.008 357.133 393.226 361.171C391.848 361.339 390.872 361.005 389.581 360.525C385.191 358.892 382.323 355.949 380.479 351.649C378.432 346.879 378.519 340.847 380.511 336.071C381.993 332.519 384.004 330.926 387.517 329.542Z"/>
	<path fill="#010307" d="M439.225 329.929C440.156 330.058 441.091 330.198 442.005 330.424Q442.819 330.621 443.61 330.897Q444.4 331.174 445.159 331.527Q445.919 331.881 446.639 332.309Q447.359 332.736 448.033 333.233Q448.707 333.73 449.329 334.291Q449.95 334.853 450.513 335.473Q451.075 336.094 451.573 336.767Q452.071 337.44 452.5 338.16C454.371 341.326 455.026 344.875 454.051 348.448C452.632 353.649 448.768 357.304 444.192 359.838C442.218 360.522 440.824 360.895 438.769 360.267C435.161 359.164 432.861 357.214 431.098 353.866C428.865 349.628 428.292 344.441 429.818 339.871C431.481 334.891 434.715 332.215 439.225 329.929Z"/>
	<path fill="#041923" d="M351.186 262.649C356.332 262.506 360.795 263.487 365.393 265.791C373.047 269.625 378.902 275.97 381.523 284.176C383.836 291.422 383.518 298.903 379.806 305.665C375.43 313.638 367.617 318.16 359.135 320.597C351.551 320.848 343.943 319.442 337.684 314.9C331.715 310.568 327.315 303.322 326.24 296.011C325.059 287.993 327.598 279.576 332.391 273.128C337.238 266.607 343.296 263.746 351.186 262.649Z"/>
	<path fill="#041923" d="M475.135 262.599C480.656 262.378 485.837 262.13 491.111 264.154C499.052 267.203 505.033 274.019 508.368 281.701C510.986 287.735 511.609 294.202 509.022 300.369C505.129 309.651 496.661 316.107 487.569 319.712Q486.974 319.851 486.374 319.971Q485.665 320.106 484.95 320.207Q484.235 320.307 483.517 320.373Q482.798 320.439 482.077 320.47Q481.355 320.501 480.634 320.496Q479.912 320.492 479.191 320.453Q478.47 320.414 477.752 320.34Q477.034 320.265 476.321 320.157Q475.607 320.048 474.9 319.904Q474.192 319.761 473.493 319.583Q472.793 319.406 472.103 319.195Q471.413 318.983 470.733 318.739Q470.054 318.494 469.388 318.217Q468.721 317.94 468.069 317.631Q467.417 317.321 466.78 316.981Q466.144 316.64 465.525 316.27Q464.905 315.899 464.305 315.498Q463.712 315.107 463.14 314.688Q462.568 314.268 462.017 313.82Q461.466 313.373 460.938 312.898Q460.41 312.424 459.907 311.924Q459.403 311.424 458.925 310.899Q458.447 310.375 457.996 309.827Q457.544 309.28 457.12 308.71Q456.697 308.141 456.302 307.551Q455.907 306.961 455.542 306.353Q455.177 305.744 454.843 305.118Q454.509 304.492 454.206 303.85Q453.903 303.208 453.633 302.552Q453.362 301.896 453.125 301.227Q452.887 300.558 452.683 299.879Q452.479 299.199 452.309 298.51Q452.139 297.821 452.004 297.124C450.43 289.082 452.434 281.054 457.036 274.379C461.517 267.879 467.38 264.088 475.135 262.599Z"/>
	<path fill="#9C9B9B" d="M42.6516 586.517C45.3295 586.655 46.9388 586.338 48.2348 589C51.2622 595.217 52.289 602.064 54.7927 608.434C57.4696 615.244 60.0251 622.832 63.2488 629.387C70.0081 643.132 84.0517 658.991 94.8999 669.829C113.269 688.182 147.258 707.989 172.553 714.366C188.734 718.446 212.579 719.71 229.132 717.47C237.908 716.282 247.513 713.663 255.787 710.592C263.013 707.911 270.698 705.117 277.615 701.743C281.863 699.671 285.736 696.707 290.122 694.93C291.868 694.223 293.527 693.858 295.416 693.838L535.986 693.531C548.15 700.653 567.902 709.251 581.726 712.575C590.545 714.696 599.901 715.932 608.891 717.123C620.643 718.68 636.092 719.133 647.829 717.469C667.139 714.73 690.106 705.798 706.921 695.91C713.941 691.783 720.855 686.478 727.281 681.473C749.229 664.379 766.779 633.288 775.133 607.139C776.76 602.046 778.476 596.975 779.154 591.651L785.168 591.747C786.797 599.31 785.022 619.857 784.976 629.232C784.919 641.099 784.914 653.055 785.206 664.915C785.376 671.833 785.889 678.757 785.904 685.675C785.928 696.067 785.18 706.479 784.964 716.875Q784.915 720.117 784.822 723.358C784.691 727.399 784.119 731.367 783.792 735.39C780.372 777.502 768.244 805.709 737.017 834.797C716.229 854.161 689.477 865.941 661.582 870.608C650.286 872.498 639.656 871.974 628.265 871.9L584.54 871.264C563.287 870.746 541.866 870.906 520.607 871.027L319.139 872.092Q279.269 872.456 239.399 872.151C225.405 872.106 211.26 872.476 197.289 871.836C184.426 871.247 171.101 870.047 158.541 867.176C130.553 860.779 101.235 844.976 81.9638 823.652C74.0106 814.852 67.7568 805.396 62.0378 795.035C38.2443 751.932 42.1209 710.782 42.1757 663.553C42.2056 637.85 41.3786 612.204 42.6516 586.517Z"/>
	<path fill="#EDEFEC" d="M520.073 413.23C521.59 413 522.907 413.309 523.798 414.656C524.925 416.36 525.692 418.87 526.53 420.762C529.65 427.805 533.31 434.278 539.853 438.67C548.6 444.541 561.888 447.565 572.267 445.359C582.635 443.156 595.318 433.104 601.334 424.525C603.594 421.301 604.713 417.528 606.889 414.26C606.981 414.121 607.077 413.984 607.171 413.846C613.898 413.822 620.75 413.574 627.456 414.144C644.53 415.595 666.005 420.907 681.161 428.808C714.137 445.999 740.355 475.832 751.504 511.457C760.184 539.192 762.315 563.47 754.306 591.813C752.25 599.089 749.794 606.741 746.279 613.435C732.101 640.43 719.654 653.645 694.063 669.769C683.837 676.212 673.788 681.68 662.14 685.206C653.47 687.831 643.329 690.402 634.339 691.201C613.961 693.01 587.589 688.215 569.277 679.235C560.046 674.708 551.938 668.346 542.848 663.597L542.005 663.162C538.2 663.519 534.443 664.353 530.629 664.721C525.611 665.205 520.537 665.12 515.505 665.432C509.387 665.812 503.303 666.631 497.178 666.921C478.178 667.819 459.077 667.23 440.066 667.165L345.249 666.033C334.474 665.991 323.673 666.312 312.892 666.351C309.386 666.405 305.869 666.448 302.373 666.13C298.203 665.751 292.592 664.133 288.558 664.87C280.371 666.366 272.378 673.581 265.236 677.6C252.264 684.902 233.288 690.28 218.27 691.134C196.766 692.357 173.982 689.672 154.527 679.92C148.03 676.664 142.065 672.572 136.053 668.515C129.279 663.945 122.287 659.268 116.222 653.772C108.12 646.431 101.843 637.471 96.0261 628.291C83.801 609 73.9985 588.766 72.9931 565.509C72.4185 552.215 73.5462 531.186 76.9395 518.514C78.2067 513.782 80.3067 509.332 81.9719 504.736C83.6524 500.097 85.061 495.238 87.1474 490.766C90.8395 482.852 100.269 469.595 105.907 462.883C109.014 459.184 113.768 456.254 117.367 452.373C124.186 445.018 131.95 439.768 140.632 434.848C166.465 420.211 194.007 415.17 223.458 414.303C225.536 414.242 227.222 414.237 229.012 415.431C232.918 418.037 238.767 429.934 244.022 434.822C254.353 444.433 269.186 446.295 282.649 445.768C285.641 443.838 295.43 435.975 298.076 435.499C299.018 435.329 299.198 435.429 299.98 434.708C300.138 434.562 300.256 434.378 300.394 434.213L302.088 434.146C303.815 430.888 305.623 427.585 307.058 424.189C308.262 421.339 309.144 417.238 310.765 414.706C311.976 412.816 316.26 415.386 318.312 415.122C334.783 413.005 351.804 413.883 368.388 413.884L468.741 413.828C485.682 413.8 503.261 415.007 520.073 413.23Z"/>
	<path fill="#041923" d="M363.118 549.146C371.888 548.603 384.424 547.354 391.876 552.744C394.972 554.983 397.022 558.229 397.437 562.051C397.932 566.613 396.137 571.388 393.19 574.838C389.928 578.656 386.543 580.343 381.622 580.812C374.07 581.724 364.597 581.601 357.906 577.66C353.025 574.785 348.838 569.658 347.602 564.063C346.958 561.149 347.203 558.176 348.947 555.677C352.08 551.187 358.058 549.978 363.118 549.146Z"/>
	<path fill="#041923" d="M444.884 548.213C450.138 547.843 456.459 547.893 461.621 548.89C467.931 550.108 471.452 553.582 474.926 558.697C475.313 564.271 474.936 569.117 471.29 573.705C466.857 579.284 461.113 580.229 454.473 580.95C447.456 581.121 436.789 582.689 430.961 578.255C427.188 575.384 424.426 570.576 423.833 565.874C423.312 561.748 424.798 557.68 427.479 554.559C432.245 549.009 438.104 548.612 444.884 548.213Z"/>
	<path fill="#041923" d="M621.751 583.146C629.477 582.562 636.067 583.048 643.049 586.688C651.121 590.897 658.386 597.802 661.057 606.72C663.006 613.227 662.193 620.909 658.878 626.827C654.423 634.783 645.306 641.39 636.57 643.741C635.094 644.1 633.594 644.491 632.093 644.726C623.763 646.029 614.908 643.047 608.184 638.185C601.508 633.358 597.88 626.632 596.598 618.61Q596.468 617.818 596.378 617.02Q596.289 616.222 596.239 615.42Q596.19 614.619 596.181 613.816Q596.172 613.013 596.203 612.211Q596.235 611.409 596.307 610.609Q596.379 609.809 596.491 609.014Q596.603 608.219 596.754 607.431Q596.906 606.642 597.098 605.863Q597.289 605.083 597.519 604.314Q597.75 603.545 598.019 602.788Q598.288 602.032 598.594 601.29Q598.901 600.547 599.245 599.822Q599.588 599.096 599.968 598.389Q600.347 597.681 600.762 596.994Q601.177 596.306 601.626 595.641Q602.075 594.975 602.557 594.333C607.535 587.632 613.621 584.407 621.751 583.146Z"/>
	<path fill="#041923" d="M690.435 521.159Q691.314 521.049 692.197 520.989C700.284 520.456 708.81 523.787 714.815 529.157C721.348 534.998 725.778 544.029 726.086 552.819C726.385 561.329 721.32 569.303 715.579 575.206C710.09 580.849 703.971 584.511 695.944 584.631C688.381 584.65 682.685 584.351 676.167 580.008C668.547 574.931 662.913 568.043 661.219 558.849C659.697 550.594 661.32 542.521 666.202 535.644C672.202 527.193 680.376 522.889 690.435 521.159Z"/>
	<path fill="#041923" d="M555.976 520.685C564.553 520.197 571.577 521.363 578.779 526.236Q579.471 526.704 580.139 527.205Q580.808 527.706 581.45 528.239Q582.093 528.772 582.709 529.337Q583.325 529.901 583.912 530.495Q584.499 531.089 585.057 531.711Q585.614 532.334 586.14 532.982Q586.666 533.631 587.16 534.305Q587.653 534.979 588.113 535.677Q588.572 536.374 588.997 537.093Q589.422 537.812 589.811 538.551Q590.2 539.291 590.552 540.048Q590.904 540.806 591.218 541.579Q591.533 542.353 591.809 543.142Q592.085 543.93 592.321 544.731Q592.558 545.532 592.755 546.344Q592.952 547.156 593.109 547.976C594.553 555.736 593.004 563.376 588.465 569.856C582.802 577.939 575.46 583.209 565.666 584.877C557.201 585.658 549.527 584.583 542.437 579.591C535.411 574.644 530.42 567.319 529.002 558.792Q528.862 557.983 528.762 557.168Q528.662 556.353 528.603 555.534Q528.544 554.715 528.526 553.894Q528.508 553.073 528.532 552.253Q528.555 551.432 528.619 550.613Q528.684 549.795 528.789 548.98Q528.894 548.166 529.04 547.358Q529.186 546.55 529.372 545.75Q529.558 544.951 529.784 544.161Q530.01 543.372 530.275 542.595Q530.54 541.818 530.844 541.055Q531.148 540.292 531.489 539.545Q531.831 538.799 532.209 538.07Q532.588 537.342 533.002 536.633Q533.417 535.924 533.866 535.237Q534.316 534.55 534.799 533.886C540.112 526.656 547.083 522.056 555.976 520.685Z"/>
	<path fill="#041923" d="M625.289 459.691C633.328 459.272 640.696 461.373 647.44 465.79C654.372 470.328 658.993 477.248 660.677 485.353C662.521 494.225 660.15 503.474 655.134 510.923C649.401 519.438 641.312 523.522 631.444 525.471C622.095 525.658 614.107 524.159 606.619 518.195C599.875 512.824 594.599 505.004 593.643 496.312C592.733 488.028 595.084 478.726 600.447 472.291C606.689 464.801 615.661 460.538 625.289 459.691Z"/>
	<path fill="#041923" d="M198.144 474.711C204.135 474.176 212.692 474.633 218.2 477.279C233.656 484.707 224.064 513.646 229.554 528.505C238.261 529.12 247.164 528.614 255.892 528.525C260.178 528.482 264.713 528.163 268.942 528.977Q270.026 529.19 271.08 529.519Q272.134 529.847 273.146 530.288Q274.159 530.728 275.118 531.276Q276.077 531.823 276.972 532.47C281.91 536.026 284.865 541.213 285.785 547.194C287.029 555.289 285.649 565.527 280.451 572.095C272.927 581.603 254.003 580.437 242.981 579.83C239.287 579.627 234.899 578.879 231.253 579.434C230.006 579.624 228.398 580.104 227.813 581.348C227.118 582.825 227.396 586.378 227.392 587.996C227.361 600.238 230.589 617.963 222.432 628.242C218.137 633.654 210.68 634.235 204.284 635.088C196.202 635.302 186.182 634.907 179.584 629.627C168.047 620.393 173.663 597.975 171.686 585.063C171.428 583.376 170.809 581.482 169.382 580.416C162.402 575.207 138.334 585.043 124.688 574.383C119.264 570.146 116.876 563.613 116.194 556.968C115.462 549.834 115.985 541.161 120.845 535.51C130.566 524.209 153.885 529.975 167.46 528.601C168.599 528.485 170.515 528.175 171.147 527.051C174.965 520.262 166.613 492.826 174.686 483.076C180.382 476.197 189.893 475.322 198.144 474.711Z"/>
</svg>
