<?xml version="1.0" encoding="utf-8" ?>
<svg xmlns="http://www.w3.org/2000/svg" xmlns:xlink="http://www.w3.org/1999/xlink" width="1024" height="1024">
	<path fill="#B8B8B7" d="M228.845 23.1565Q261.187 22.7732 293.524 23.4337C302.651 23.5426 311.634 22.6328 320.753 23.6756C311.12 25.7132 303.656 24.1161 294.23 24.1775L237.645 25.0359C233.031 25.1144 229.043 26.3607 224.594 26.9388C221.801 27.3016 218.857 26.9426 216.06 26.7429L215.731 26.1909C220.768 26.154 224.668 26.3965 228.845 23.1565Z"/>
	<path fill="#B8B8B7" d="M593.827 994.437C602.371 992.824 622.894 993.557 632.336 993.546C647.399 993.528 662.434 992.993 677.499 993.163C688.88 993.292 700.263 993.856 711.639 994.1C723.928 994.364 736.331 993.237 748.612 994.086C747.42 995.063 746.351 995.252 744.853 995.323C734.011 995.836 723.036 994.949 712.201 995.027L655.171 995.557L618.643 995.526C612.058 995.513 605.071 995.934 598.536 995.226Q596.162 994.946 593.827 994.437Z"/>
	<path fill="#B8B8B7" d="M307.487 993.857C309.021 992.983 310.475 993.132 312.182 993.108C328.066 992.884 343.904 993.912 359.767 993.841C375.27 993.771 390.777 993.204 406.283 993.072Q452.269 992.706 498.25 993.437L550.028 993.812C560.897 993.839 572.2 993.283 583.012 994.447L395.018 995.537L339.719 995.52C330.273 995.531 320.006 996.303 310.642 995.335C309.009 995.166 308.718 994.879 307.487 993.857Z"/>
	<path fill="#B8B8B7" d="M415.715 23.6329C435.925 22.1224 456.824 23.1227 477.1 23.136L587.136 23.1419L717.859 23.1444C740.725 23.1462 763.984 22.17 786.791 23.4252C787.469 24.0805 787.317 23.7224 787.453 24.3863C785.27 25.6499 708.878 25.0881 699.886 25.0835L507.479 24.7711L450.486 25.1555C439.488 25.164 426.464 26.0987 415.715 23.6329Z"/>
	<path fill="#B8B8B7" d="M22.5267 241.325C23.9733 249.572 23.0197 259.35 23.0148 267.765L22.9955 322.536L22.9864 543.743L22.9858 710.815L23.0422 758.058C23.0241 764.932 23.7248 772.926 22.5566 779.657C20.7005 775.123 21.1945 754.113 21.1448 747.961L21.2777 375.704L21.0889 287.811C21.0894 278.509 20.0594 249 22.5267 241.325Z"/>
	<path fill="#B8B8B7" d="M987.353 221.95C988.742 223.826 988.73 225.706 988.857 227.99C989.248 235.015 988.857 242.157 988.858 249.193L988.892 292.194L988.881 422.456L988.86 685.435L988.885 754.667C988.889 763.059 989.859 777.896 988.479 785.558C988.31 786.496 988.082 786.915 987.497 787.639C986.098 782.562 986.983 766.243 986.959 760.002L986.847 686.639L986.848 366.863C986.873 330.821 986.474 294.75 986.94 258.713C987.078 248.03 985.946 232.19 987.353 221.95Z"/>
	<path fill="#545658" d="M327.931 23.6302C344.89 22.6129 362.058 23.1304 379.045 23.1263C390.937 23.1234 403.56 22.2818 415.375 23.6376L415.715 23.6329C426.464 26.0987 439.488 25.164 450.486 25.1555L507.479 24.7711L699.886 25.0835C708.878 25.0881 785.27 25.6499 787.453 24.3863C787.758 24.5003 788.061 24.6193 788.368 24.7282C792.062 26.0414 796.7 25.7835 800.594 26.5651C810.775 28.6084 822.873 32.2922 832.749 35.5796C890.624 54.8433 936.646 93.62 964.231 148.175C976.189 171.824 982.988 195.909 987.353 221.95C985.946 232.19 987.078 248.03 986.94 258.713C986.474 294.75 986.873 330.821 986.848 366.863L986.847 686.639L986.959 760.002C986.983 766.243 986.098 782.562 987.497 787.639C985.352 815.975 977.202 848.887 964.756 874.511C952.741 899.25 934.137 923.196 913.281 941.074Q911.612 942.497 909.916 943.886Q908.219 945.276 906.496 946.631Q904.772 947.987 903.022 949.309Q901.273 950.63 899.497 951.917Q897.721 953.204 895.921 954.456Q894.12 955.707 892.295 956.923Q890.47 958.139 888.622 959.318Q886.773 960.498 884.902 961.641Q883.03 962.784 881.137 963.89Q879.243 964.996 877.328 966.064Q875.413 967.132 873.478 968.163Q871.542 969.193 869.586 970.185Q867.631 971.177 865.656 972.131Q863.681 973.084 861.688 973.998Q859.695 974.913 857.684 975.787Q855.673 976.662 853.645 977.497Q851.618 978.332 849.574 979.127Q847.53 979.922 845.471 980.676Q843.412 981.431 841.339 982.144Q839.265 982.858 837.178 983.531Q835.091 984.203 832.991 984.835Q830.891 985.466 828.779 986.056Q826.667 986.646 824.544 987.195Q822.42 987.743 820.287 988.249Q818.153 988.755 816.01 989.219Q813.867 989.684 811.715 990.105Q809.563 990.527 807.403 990.906Q805.243 991.286 803.076 991.622Q800.91 991.959 798.737 992.253Q796.563 992.547 794.385 992.798Q792.207 993.049 790.024 993.257Q787.841 993.465 785.654 993.63C774.064 994.612 759.496 992.603 748.612 994.086C736.331 993.237 723.928 994.364 711.639 994.1C700.263 993.856 688.88 993.292 677.499 993.163C662.434 992.993 647.399 993.528 632.336 993.546C622.894 993.557 602.371 992.824 593.827 994.437C590.345 994.853 586.506 994.762 583.012 994.447C572.2 993.283 560.897 993.839 550.028 993.812L498.25 993.437Q452.269 992.706 406.283 993.072C390.777 993.204 375.27 993.771 359.767 993.841C343.904 993.912 328.066 992.884 312.182 993.108C310.475 993.132 309.021 992.983 307.487 993.857C302.569 993.31 297.306 993.692 292.344 993.718L265.209 993.853C253.15 993.905 240.885 994.337 228.844 993.679C189.921 991.549 154.519 982.145 121.741 960.529C109.822 952.669 99.7301 943.564 89.7423 933.417C84.7266 928.322 79.5214 923.297 74.9198 917.824C53.0588 891.824 36.2662 857.79 28.6831 824.674C27.1382 817.927 25.3944 810.521 24.7422 803.636C24.0658 796.496 24.2997 786.905 22.7227 780.232C22.6769 780.038 22.612 779.849 22.5566 779.657C23.7248 772.926 23.0241 764.932 23.0422 758.058L22.9858 710.815L22.9864 543.743L22.9955 322.536L23.0148 267.765C23.0197 259.35 23.9733 249.572 22.5267 241.325C23.7421 238.877 24.053 222.972 24.713 218.906C30.4374 183.638 42.4404 149.292 63.4032 120.069C71.745 108.441 80.7211 96.939 91.062 87.006C124.596 54.7949 170.011 33.7352 215.731 26.1909L216.06 26.7429C218.857 26.9426 221.801 27.3016 224.594 26.9388C229.043 26.3607 233.031 25.1144 237.645 25.0359L294.23 24.1775C303.656 24.1161 311.12 25.7132 320.753 23.6756L327.931 23.6302Z"/>
	<path fill="#C9CBCC" d="M696.527 137.397C697.598 143.487 698.359 149.501 697.575 155.683C695.916 154.898 695.77 153.329 695.146 151.666C693.796 150.528 693.613 150.701 691.919 150.698L692.55 148.513C693.118 148.177 693.717 147.848 694.214 147.406C696.872 145.044 696.438 140.606 696.527 137.397Z"/>
	<path fill="#B8B8B7" d="M327.931 23.6302C344.89 22.6129 362.058 23.1304 379.045 23.1263C390.937 23.1234 403.56 22.2818 415.375 23.6376C401.241 26.4883 372.47 25.0741 356.999 24.8479C347.176 24.7043 337.657 25.5009 327.931 23.6302Z"/>
	<path fill="#B8B8B7" d="M314.301 151.791C317.045 155.605 319.835 159.046 322.059 163.223C326.774 172.081 330.153 182.521 336.071 190.589C331.904 194.819 326.778 199.523 322.042 203.101L321.368 203C316.843 196.845 314.056 160.867 314.301 151.791Z"/>
	<path fill="#B8B8B7" d="M691.919 150.698C693.613 150.701 693.796 150.528 695.146 151.666C695.77 153.329 695.916 154.898 697.575 155.683C696.985 166.173 695.544 176.428 694.41 186.859C693.949 191.108 694.037 196.588 692.784 200.636C692.439 201.75 691.615 202.753 690.903 203.659L690.293 203.636C690.16 203.385 690.036 203.129 689.896 202.882C687.18 198.077 680.953 193.503 676.902 189.731C682.907 184.39 689.378 159.282 691.919 150.698Z"/>
	<path fill="#B8B8B7" d="M795.682 226.084C796.22 231.166 796.737 236.148 795.587 241.188C793.217 251.575 780.071 271.611 773.236 280.127C768.716 285.758 763.038 290.768 758.943 296.659C755.904 289.749 753.189 281.981 749.268 275.559C749.954 275.25 750.146 275.187 750.756 274.836C754.336 272.776 757.713 269.322 760.824 266.618C771.201 257.599 792.188 239.399 795.682 226.084Z"/>
	<path fill="#B8B8B7" d="M214.466 220.479L214.476 225.377C214.474 226.765 214.506 228.023 215.051 229.319C218.959 238.612 237.083 257.618 244.933 265.419C249.709 270.164 256.568 273.831 260.14 279.567C258.505 286.606 254.781 294.544 250.615 300.414C244.634 291.393 237.169 283.233 230.941 274.33C220.1 258.83 211.048 239.87 214.466 220.479Z"/>
	<path fill="#B8B8B7" d="M839.282 365.006C836.99 376.3 832.72 384.834 822.933 391.404C806.565 402.394 795.229 408.884 775.567 411.088C775.648 403.287 776.008 395.334 775.538 387.543C778.466 385.205 786.597 385.534 790.471 384.737C801.983 382.368 826.402 376.548 835.289 369.922C836.991 368.653 838.129 366.755 839.282 365.006Z"/>
	<path fill="#B8B8B7" d="M172.498 367.669C175.605 370.229 178.561 372.681 182.117 374.612C191.491 379.703 209.981 384.757 220.694 387.178C225.548 388.276 230.606 388.982 235.378 390.365C235.407 384.958 234.956 379.051 235.914 373.73C236.065 384.763 236.374 396.137 235.629 407.141C235.703 408.79 236.087 410.903 235.113 412.298C234.095 412.811 233.45 412.781 232.326 412.727C228.105 410.05 222.134 408.843 217.37 407.262C204.482 402.983 183.326 395.391 175.907 383.518C173.932 380.357 172.128 375.54 172.963 371.78C174.098 371.822 173.681 372.021 174.321 371.494C173.41 370.183 172.835 369.239 172.498 367.669Z"/>
	<path fill="#C9CBCC" d="M235.237 391.529Q235.282 399.339 235.629 407.141C235.703 408.79 236.087 410.903 235.113 412.298C234.095 412.811 233.45 412.781 232.326 412.727C234.208 408.159 233.256 402.818 233.838 397.972C234.098 395.812 234.708 393.639 235.237 391.529Z"/>
	<path fill="#B8B8B7" d="M159.5 571.722C158.827 567.319 157.755 562.685 158.27 558.232C160.09 561.856 161.675 565.49 162.417 569.498C171.563 605.645 191.66 633.521 220.095 657.146C223.876 660.287 229.901 665.979 233.694 668.322C234.034 668.532 234.41 668.697 234.769 668.868C235.66 668.337 235.349 668.724 235.646 667.665Q236.539 671.403 237.368 675.155C233.585 682.996 228.396 689.699 223.724 696.976C215.418 688.925 206.26 681.814 198.831 672.875C178.774 648.743 161.706 603.114 159.5 571.722Z"/>
	<path fill="#FAFAF7" d="M502.199 91.6823C505.778 90.6928 510.447 91.507 513.814 92.9001C528.284 98.8881 538.833 123.609 544.303 137.59C533.502 137.645 522.903 137.335 512.125 136.598C497.783 136.482 483.151 136.643 468.869 138.011C469.903 129.825 477.258 114.358 481.641 107.185C486.392 99.4105 493.309 93.8271 502.199 91.6823Z"/>
	<path fill="#FAFAF7" d="M775.538 387.543C773.882 371.735 773.829 355.997 772.208 339.966C771.821 336.138 768.176 329.787 768.57 326.724C768.622 326.32 768.661 326.243 768.998 326.029C773.713 323.04 798.021 328.352 804.26 329.788C816 332.491 829.752 337.381 836.313 348.282C838.973 352.702 840.586 359.897 839.282 365.006C838.129 366.755 836.991 368.653 835.289 369.922C826.402 376.548 801.983 382.368 790.471 384.737C786.597 385.534 778.466 385.205 775.538 387.543Z"/>
	<path fill="#FAFAF7" d="M172.498 367.669C169.886 364.835 170.044 360.381 170.242 356.713C170.594 350.203 173.794 344.468 178.639 340.187C180.613 338.444 182.904 336.656 185.252 335.476C195.85 330.147 226.007 324.685 238.191 325.316C239.595 325.389 240.681 325.482 241.747 326.48C240.97 334.231 238.908 341.761 237.822 349.468C236.682 357.558 236.635 365.621 235.914 373.73C234.956 379.051 235.407 384.958 235.378 390.365C230.606 388.982 225.548 388.276 220.694 387.178C209.981 384.757 191.491 379.703 182.117 374.612C178.561 372.681 175.605 370.229 172.498 367.669Z"/>
	<path fill="#FAFAF7" d="M615.478 153.311C618.312 150.625 621.593 148.363 624.518 145.757C636.331 135.23 653.232 118.366 669.497 116.52C676.218 115.758 683.354 117.342 688.583 121.809C692.743 125.362 696.181 131.849 696.527 137.397C696.438 140.606 696.872 145.044 694.214 147.406C693.717 147.848 693.118 148.177 692.55 148.513L691.919 150.698C689.378 159.282 682.907 184.39 676.902 189.731C668.604 184.525 661.161 178.197 652.682 173.184C640.58 166.03 627.628 160.405 615.478 153.311Z"/>
	<path fill="#FAFAF7" d="M314.301 151.791C314.576 140.492 313.983 131.372 322.75 122.84C327.497 118.22 333.378 115.872 339.988 115.964C359.949 116.242 380.45 145.42 397.449 156.033C391.382 157.385 386.214 160.431 380.739 163.271C364.982 171.442 350.636 180.505 336.071 190.589C330.153 182.521 326.774 172.081 322.059 163.223C319.835 159.046 317.045 155.605 314.301 151.791Z"/>
	<path fill="#FAFAF7" d="M710.237 220.845C723.51 211.054 752.726 197.391 769.104 197.005C776.26 196.837 783.364 198.843 788.51 204.039C794.615 210.202 795.639 217.855 795.682 226.084C792.188 239.399 771.201 257.599 760.824 266.618C757.713 269.322 754.336 272.776 750.756 274.836C750.146 275.187 749.954 275.25 749.268 275.559C745.571 270.247 742.739 264.338 739.496 258.742C731.606 245.128 722.126 231.205 710.237 220.845Z"/>
	<path fill="#FAFAF7" d="M214.466 220.479C215.023 214.41 217.588 207.699 222.261 203.652C228.467 198.279 237.111 196.233 245.162 197.055C256.842 198.247 292.934 214.4 300.631 223.4L300.811 224.211C300.05 224.669 299.293 225.131 298.526 225.578C289.482 230.849 266.533 268.543 260.14 279.567C256.568 273.831 249.709 270.164 244.933 265.419C237.083 257.618 218.959 238.612 215.051 229.319C214.506 228.023 214.474 226.765 214.476 225.377L214.466 220.479Z"/>
	<path fill="#FAFAF7" d="M706.27 665.49C720.38 668.711 735.662 676.533 746.718 685.855C761.432 698.261 775.484 718.396 777.104 737.969C776.103 738.565 775.031 739.234 773.901 739.545C770.795 740.4 766.663 740.151 763.432 740.311C755.802 740.689 747.941 740.896 740.395 742.093C728.314 744.01 713.208 751.736 702.139 751.027C700.891 750.223 700.859 749.912 700.255 748.529C699.695 749.576 699.299 750.608 698.89 751.719L698.089 751.87C697.912 751.266 697.706 750.669 697.605 750.047C699.505 745.634 700.621 740.977 701.826 736.341C707.861 713.126 708.998 689.313 706.27 665.49Z"/>
	<path fill="#B8B8B7" d="M232.499 748.312C240.721 747.848 248.66 748.721 256.841 748.991C264.415 749.241 272.213 748.935 279.748 749.695C286.427 750.369 293.022 751.821 299.713 752.387C305.404 752.868 310.955 751.975 316.632 752.486C316.709 752.493 316.786 752.484 316.863 752.484C319.58 755.975 321.263 762.393 323.202 766.481C329.496 779.757 338.616 793.712 349.324 803.786Q345.141 804.258 340.949 804.65C324.515 806.046 287.529 805.57 272.79 801.101C264.855 798.694 256.684 794.044 250.37 788.691C237.686 777.94 233.796 764.295 232.499 748.312Z"/>
	<path fill="#B8B8B7" d="M697.605 750.047C697.706 750.669 697.912 751.266 698.089 751.87L698.89 751.719C699.299 750.608 699.695 749.576 700.255 748.529C700.859 749.912 700.891 750.223 702.139 751.027C713.208 751.736 728.314 744.01 740.395 742.093C747.941 740.896 755.802 740.689 763.432 740.311C766.663 740.151 770.795 740.4 773.901 739.545C775.031 739.234 776.103 738.565 777.104 737.969C778.042 755.515 776.042 770.832 763.832 784.271C753.045 796.144 737.497 802.305 721.691 802.943C702.128 803.732 682.083 803.229 662.558 802.041C676.826 788.01 683.255 779.39 692.252 761.754C694.186 757.965 695.567 753.734 697.605 750.047Z"/>
	<path fill="#FAFAF7" d="M232.499 748.312C231.992 729.143 239.281 709.069 252.623 695.085C265.276 681.823 280.609 672.489 298.384 667.869C300.685 667.271 304.178 665.951 306.5 666.174C307.032 666.225 307.255 666.373 307.692 666.587C308.292 669.566 306.555 676.272 306.531 680.088C306.471 689.374 305.987 699.08 306.829 708.32C307.682 717.677 309.861 726.871 311.96 736.011C313.203 741.425 314.376 747.497 316.863 752.484C316.786 752.484 316.709 752.493 316.632 752.486C310.955 751.975 305.404 752.868 299.713 752.387C293.022 751.821 286.427 750.369 279.748 749.695C272.213 748.935 264.415 749.241 256.841 748.991C248.66 748.721 240.721 747.848 232.499 748.312Z"/>
	<path fill="#FAFAF7" d="M418.405 407.377C430.997 406.968 455.663 429.798 472.989 426.829C481.683 425.339 493.896 419.928 498.982 412.529C503.317 414.259 507.332 416.943 511.531 419.002C515.873 421.132 520.447 422.883 524.955 424.63C543.651 431.874 551.632 427.06 568.834 419.248C575.973 416.006 584.504 411.094 592.214 409.622C592.391 409.589 592.57 409.562 592.748 409.532C591.956 418.175 589.474 425.348 586.13 433.283C583.455 441.513 580.465 450.032 576.426 457.696C575.438 459.573 573.983 462.28 571.996 463.254C568.939 464.751 543.608 459.63 537.749 459.627C533.638 459.625 528.294 459.755 524.387 461.031C523.16 461.431 522.181 462.277 520.938 462.609C517.168 463.615 490.564 462.221 486.221 461.381C484.503 461.049 482.593 459.874 481.055 459.041C479.04 457.951 477.882 457.576 475.542 457.677C475.208 457.691 474.876 457.718 474.542 457.735C468.854 458.034 463.358 459.81 457.752 460.737C451.975 461.692 446.195 461.836 440.411 462.975C435.087 454.917 417.78 415.813 418.405 407.377Z"/>
	<path fill="#FAFAF7" d="M158.27 558.232C158.28 558.097 158.292 557.962 158.3 557.827C158.685 551.193 157.254 543.717 156.635 537.076C155.21 521.78 154.499 512.328 155.585 496.78C155.741 494.548 155.523 490.353 156.897 488.572C157.624 489.277 161.137 500.049 162.853 503.067C165.703 508.08 169.298 512.628 172.375 517.5C180.546 530.436 188.136 544.06 198.574 555.39C206.204 563.672 215.599 572.677 225.682 577.865C228.789 579.464 233.738 579.551 236.193 581.759C237.53 582.962 237.396 585.569 237.435 587.223C237.575 593.226 236.675 599.263 236.619 605.281L236.565 652.256C236.51 657.358 235.391 662.636 235.646 667.665C235.349 668.724 235.66 668.337 234.769 668.868C234.41 668.697 234.034 668.532 233.694 668.322C229.901 665.979 223.876 660.287 220.095 657.146C191.66 633.521 171.563 605.645 162.417 569.498C161.675 565.49 160.09 561.856 158.27 558.232Z"/>
	<path fill="#FAFAF7" d="M353.745 441.637C353.932 441.607 354.118 441.57 354.307 441.546C367.975 439.798 384.987 444.653 395.864 453.021C405.323 460.298 410.773 470.94 412.276 482.7C413.895 495.357 409.389 506.668 401.703 516.608Q400.868 517.706 399.981 518.762Q399.094 519.818 398.157 520.829Q397.22 521.841 396.234 522.805Q395.249 523.77 394.218 524.685Q393.186 525.601 392.112 526.465Q391.037 527.329 389.922 528.14Q388.806 528.951 387.653 529.707Q386.499 530.462 385.31 531.161Q384.121 531.86 382.9 532.5Q381.678 533.139 380.427 533.719Q379.176 534.299 377.898 534.817Q376.62 535.335 375.318 535.79Q374.017 536.246 372.694 536.637Q371.372 537.028 370.032 537.355Q368.692 537.681 367.338 537.942Q365.984 538.203 364.619 538.398C351.224 540.087 337.772 536.871 324.588 534.662C318.528 527.114 308.982 510.32 306.874 501.088C303.947 488.266 308.608 477.798 315.438 467.117C323.902 453.881 338.522 444.961 353.745 441.637Z"/>
	<path fill="#B8B8B7" d="M676.533 652.259C683.758 683.803 683.973 706.007 673.952 737.062C670.646 747.308 667.103 756.696 661.321 765.861C643.31 794.412 616.316 812.303 584.873 823.062C578.974 825.081 572.973 827.302 566.871 828.624C559.98 830.118 552.67 830.445 545.647 830.957C520.334 832.802 495.043 832.231 469.746 830.513C461.19 829.932 452.297 829.627 443.875 827.929C424.639 824.053 403.648 816.602 387.163 805.709C363.576 790.124 344.507 763.367 339.104 735.39Q338.179 730.376 337.6 725.311C339.984 728.711 341.157 732.831 343.436 736.314C350.432 747.009 359.247 757.084 368.168 766.184C381.032 779.307 397.664 790.776 414.625 798.01C422.394 801.323 430.712 803.213 438.9 805.178C459.006 810.002 479.348 813.927 500.126 813.987C507.448 814.009 514.962 813.129 522.266 812.567C562.278 809.49 602.486 799.837 631.923 770.89C638.314 764.607 644.766 758.122 649.826 750.694C667.822 724.276 676.238 684.001 676.533 652.259Z"/>
	<path fill="#FAFAF7" d="M638.967 442.199C641.073 441.937 643.139 441.932 645.258 441.967Q646.841 441.993 648.421 442.098Q650.001 442.202 651.574 442.384Q653.147 442.567 654.709 442.827Q656.271 443.087 657.818 443.423Q659.365 443.76 660.894 444.173Q662.422 444.586 663.929 445.073Q665.435 445.561 666.916 446.123Q668.396 446.684 669.847 447.319Q671.298 447.953 672.715 448.658Q674.133 449.363 675.514 450.137Q676.896 450.911 678.237 451.753Q679.578 452.594 680.876 453.501Q682.174 454.408 683.426 455.378Q684.677 456.348 685.88 457.378Q687.082 458.409 688.232 459.497Q689.381 460.586 690.476 461.73C698.747 470.398 707.216 481.2 706.792 493.815C706.669 497.475 705.943 501.099 705.25 504.686C702.651 518.138 696.64 525.686 686.798 534.847C680.502 535.722 674.218 536.849 667.94 537.855C651.628 539.499 634.448 538.481 620.873 528.265C609.484 519.695 600.528 505.55 598.701 491.308C597.205 479.652 601.303 467.959 608.494 458.815C615.952 449.329 627.13 443.655 638.967 442.199Z"/>
	<path fill="#FAFAF7" d="M214.722 788.675C216.162 788.284 218.029 788.414 219.539 788.366C225.755 801.701 240.107 814.394 253.446 820.28C259.855 823.107 267.217 825.405 274.148 826.453C287.966 828.543 302.365 828.006 316.297 828.002C330.424 827.998 345.187 828.484 359.18 826.487C362.825 825.967 366.019 824.948 369.437 823.6C386.337 832.999 401.976 840.402 420.181 846.982C426.011 849.09 432.007 851.417 438.06 852.776C445.722 854.496 454.025 854.632 461.851 855.194C479.445 856.458 496.761 857.248 514.403 856.973C520.431 856.879 526.429 856.178 532.452 856.033C545.945 855.709 559.724 856.475 572.98 853.299C581.828 851.18 590.336 847.326 598.655 843.715C612.432 837.737 625.8 831.554 638.552 823.598C654.86 827.839 670.58 826.618 687.195 827.008C703.642 827.393 719.425 828.938 735.814 826.043C752.72 823.057 762.178 817.268 774.426 805.823C779.884 800.723 784.915 795.479 789.235 789.356C795.88 789.277 803.514 791.781 809.923 793.59C824.476 797.698 852.811 805.052 860.531 818.843L860.667 825.553C853.557 832.915 845.867 836.889 836.622 840.998C822.775 846.568 808.033 849.861 793.492 853.011C782.265 855.444 771.119 858.203 759.781 860.108C748.742 861.963 737.593 862.952 726.494 864.35C718.362 865.374 710.301 866.942 702.17 867.949C683.535 870.255 664.666 871.789 645.935 873.123C638.973 873.619 632.012 873.475 625.049 873.835C608.393 874.697 591.662 876.112 574.999 876.528C550.237 877.147 525.275 876.69 500.5 876.623C478.107 876.563 455.608 877.118 433.228 876.523Q363.589 874.069 294.437 865.487C263.302 861.699 231.514 858.37 201.198 850.064C186.031 845.908 157.467 838.094 149.47 824.101C149.383 821.643 149.443 819.163 149.435 816.702C162.73 799.85 194.511 794.004 214.722 788.675Z"/>
	<path fill="#FAFAF7" d="M495.777 506.38C500.687 506.326 512.32 504.091 516.349 505.876C519.636 507.333 524.144 523.267 526.043 527.624C527.599 531.195 529.792 534.407 533.611 535.751C540.31 538.109 548.896 535.27 555.046 532.465C553.815 523.611 551.462 515.284 548.906 506.744C557.639 507.706 566.122 507.102 574.862 506.777C576.774 511.542 578.568 516.468 581.06 520.964C587.994 533.473 604.993 549.466 617.924 555.874C623.304 558.54 629.242 560.058 634.997 561.694C638.014 567.456 640.922 573.357 644.331 578.896C649.657 587.551 655.622 595.575 660.452 604.579C664.404 611.949 667.404 619.625 670.301 627.452C673.254 635.429 675.812 643.742 676.533 652.259C676.238 684.001 667.822 724.276 649.826 750.694C644.766 758.122 638.314 764.607 631.923 770.89C602.486 799.837 562.278 809.49 522.266 812.567C514.962 813.129 507.448 814.009 500.126 813.987C479.348 813.927 459.006 810.002 438.9 805.178C430.712 803.213 422.394 801.323 414.625 798.01C397.664 790.776 381.032 779.307 368.168 766.184C359.247 757.084 350.432 747.009 343.436 736.314C341.157 732.831 339.984 728.711 337.6 725.311C335.563 714.365 332.825 704.129 331.799 692.951C328.518 657.202 340.005 621.92 358.134 591.576C360.345 587.874 362.695 584.108 365.263 580.648C370.193 574.005 374.664 569.775 377.049 561.462C404.382 552.744 415.11 540.741 432.52 519.365C435.165 516.118 436.508 511.614 439.406 508.651C440.134 507.907 440.676 507.671 441.682 507.41C444.027 506.803 459.619 506.738 462.996 506.76C465.65 511.411 456.259 523.2 455.127 529.209C454.846 530.699 454.957 532.327 456.029 533.506C459.96 537.826 474.56 536.412 480.025 536.398C482.139 533.357 483.482 529.538 485.268 526.268C488.964 519.501 493.029 513.706 495.777 506.38Z"/>
	<path fill="#545658" d="M495.866 539.719C528.701 538.196 553.998 547.321 580.249 566.515C603.546 583.548 619.178 612.919 623.459 641.035C628.39 673.42 619.905 705.618 600.534 731.879C581.255 758.016 551.319 773.636 519.56 778.353Q516.622 778.709 513.676 778.998C484 781.825 453.451 768.603 431.019 750.051Q429.925 749.135 428.855 748.191Q427.784 747.248 426.736 746.279Q425.689 745.31 424.666 744.316Q423.643 743.321 422.644 742.302Q421.646 741.283 420.672 740.239Q419.699 739.196 418.752 738.129Q417.804 737.062 416.883 735.972Q415.963 734.882 415.069 733.769Q414.175 732.657 413.309 731.523Q412.442 730.39 411.604 729.235Q410.766 728.08 409.956 726.905Q409.147 725.73 408.366 724.536Q407.586 723.341 406.835 722.128Q406.084 720.915 405.363 719.683Q404.642 718.452 403.951 717.203Q403.26 715.955 402.601 714.689Q401.941 713.424 401.312 712.143Q400.684 710.862 400.087 709.566Q399.49 708.27 398.925 706.96Q398.361 705.649 397.828 704.326Q397.295 703.002 396.796 701.665Q396.296 700.329 395.829 698.981Q395.362 697.632 394.928 696.273Q394.494 694.913 394.094 693.544Q393.694 692.174 393.327 690.795Q392.961 689.416 392.628 688.029Q392.295 686.641 391.997 685.246Q391.698 683.85 391.434 682.448Q391.17 681.046 390.941 679.637Q390.711 678.229 390.516 676.816Q390.321 675.402 390.161 673.984Q390 672.566 389.875 671.145C387.021 638.452 395.445 608.183 416.847 582.98C433.678 563.16 452.614 550.932 477.531 543.687C483.709 541.891 489.425 540.226 495.866 539.719Z"/>
	<path fill="#FAFAF7" d="M497.612 565.662C497.867 565.619 498.119 565.562 498.376 565.534C520.271 563.2 541.297 570.688 558.705 583.722C580.25 599.853 593.167 617.033 596.945 644.297C600.454 669.616 595.464 696.103 579.777 716.649Q579.054 717.578 578.309 718.489Q577.563 719.401 576.797 720.294Q576.029 721.187 575.241 722.061Q574.453 722.936 573.643 723.791Q572.834 724.646 572.005 725.481Q571.175 726.316 570.325 727.131Q569.476 727.946 568.607 728.74Q567.738 729.534 566.85 730.307Q565.962 731.08 565.055 731.831Q564.149 732.583 563.225 733.312Q562.3 734.041 561.359 734.748Q560.417 735.454 559.459 736.138Q558.5 736.822 557.526 737.482Q556.551 738.142 555.561 738.779Q554.57 739.415 553.565 740.028Q552.56 740.64 551.54 741.228Q550.52 741.816 549.486 742.38Q548.452 742.943 547.405 743.481Q546.358 744.019 545.298 744.531Q544.238 745.044 543.167 745.531Q542.095 746.018 541.011 746.479Q539.928 746.94 538.834 747.374Q537.74 747.809 536.635 748.217Q535.531 748.625 534.417 749.006Q533.304 749.387 532.181 749.741Q531.058 750.095 529.927 750.422Q528.796 750.749 527.658 751.049Q526.519 751.348 525.374 751.62Q524.228 751.892 523.077 752.136Q521.925 752.381 520.768 752.597Q519.61 752.813 518.448 753.002Q517.286 753.19 516.12 753.35C495.831 755.533 473.486 750.01 456.765 738.333C437.775 725.073 421.086 702.5 417.089 679.503C413.01 656.034 416.339 625.549 430.499 605.644C440.856 591.085 458.387 577.494 475.024 571.173C482.255 568.426 490.002 566.917 497.612 565.662Z"/>
	<path fill="#545658" d="M503.668 576.97Q504.658 576.985 505.645 577.063C510.003 577.407 514.58 579.069 517.351 582.598C521.343 587.679 520.428 593.859 519.811 599.803C525.635 598.593 531.399 598.082 537.237 599.593C543.645 601.251 550.269 605.786 553.559 611.669C555.635 615.383 555.8 619.388 554.463 623.39C553.467 626.37 551.804 628.959 548.867 630.31C541.112 633.879 530.654 628.585 523.388 626.031C515.467 623.248 506.699 624.283 498.515 625.068C496.97 625.216 494.039 625.18 492.743 626.1C490.274 627.852 489.158 633.405 489.191 636.218C489.205 637.381 489.377 638.675 490.13 639.617C495.032 645.744 525.221 645.232 534.053 647.517Q535.034 647.773 535.997 648.091Q536.959 648.41 537.9 648.788Q538.841 649.167 539.755 649.604Q540.67 650.042 541.555 650.537Q542.44 651.032 543.292 651.582Q544.143 652.132 544.958 652.734Q545.774 653.338 546.549 653.991Q547.324 654.645 548.056 655.346C554.603 661.642 556.426 669.246 556.511 677.946C556.624 689.454 556.67 700.517 547.991 709.206C540.094 717.113 531.348 717.487 520.927 717.438C521.01 722.812 521.12 728.067 520.16 733.376C516.94 737.251 514.086 740.001 509.237 741.717C508.252 741.847 507.245 741.969 506.25 741.943C502.575 741.848 498.643 740.845 496.058 738.094C491.231 732.958 492.531 724.493 492.742 718.03C485.999 718.85 478.322 718.93 471.796 716.837C466.231 715.052 460.865 711.375 458.221 706.033C456.449 702.453 455.546 697.326 456.968 693.482C458.354 689.734 462.343 686.815 465.853 685.215C475.811 680.678 482.332 686.596 491.194 689.673C497.618 691.904 516.518 691.543 522.501 688.702L523.188 688.372C523.644 686.11 524.207 683.716 524.062 681.399C522.965 663.969 484.14 679.936 467.403 664.06C459.092 656.175 457.625 646.074 457.528 635.18C457.433 624.345 457.809 614.703 466.043 606.607C473.821 598.958 482.478 599.008 492.61 598.944L492.607 587.188C495.276 582.31 498.614 579.255 503.668 576.97Z"/>
	<path fill="#FAFAF7" d="M481.162 160.663C487.607 159.449 495.815 160.352 502.443 160.386C520.239 160.476 537.836 159.716 555.504 162.282C593.458 167.794 628.496 184.763 659.281 207.153C666.707 212.554 674.167 218.071 680.859 224.379C691.032 233.969 699.778 244.622 708.098 255.82C724.45 277.83 738.455 307.407 744.005 334.244C749.885 362.676 749.111 391.757 749.183 420.613L750.037 497.38C750.074 505.666 749.189 513.944 749.307 522.201L750.073 614.241C750.134 628.872 751.818 643.823 749.698 658.292C734.224 646.402 720.738 642.781 701.98 639.937C694.756 611.305 681.853 587.65 665.502 563.311C667.263 563.125 668.975 562.866 670.693 562.436C687.323 558.282 697.107 548.777 705.626 534.474C708.982 528.84 711.575 523.033 714.198 517.042C716.171 512.536 718.526 507.885 719.905 503.164C722.712 493.557 722.018 482.195 719.531 472.606C714.416 452.88 704.533 438.321 686.582 428.003C672.72 420.035 651.702 416.132 635.851 418.362C629.087 419.313 622.94 421.474 616.402 423.276C619.298 416.42 621.335 411.055 618.73 403.59C616.502 397.205 612.082 390.846 605.812 387.962C602.168 386.286 598.166 386.286 594.239 386.405C573.898 387.017 557.661 396.994 539.226 404.025C532.405 400.779 526.426 395.287 519.657 391.632C513.73 388.849 507.296 385.652 500.777 384.621C488.668 382.705 478.914 396.014 469.952 402.473L469.493 402.798C465.089 400.712 460.95 397.711 456.641 395.356C447.813 390.532 431.082 383.274 421.038 383.238C413.154 383.21 406.915 387.918 401.715 393.338C392.642 402.795 393.419 411.969 393.736 424.143C388.065 422.348 382.709 419.733 376.859 418.46C372.662 417.547 368.269 417.529 363.99 417.503C348.08 417.406 333.25 420.709 319.801 429.594C304.983 439.384 294.686 459.533 291.207 476.529C287.482 494.731 291.39 504.973 299.72 520.648C302.183 525.281 304.158 530.14 307.091 534.521C312.739 542.958 323.897 555.168 333.515 558.763C338.632 560.676 344.431 561.236 349.781 562.307C338.096 573.998 323.414 601.933 317.517 617.66C314.832 624.821 313.102 632.14 311.177 639.518C296.716 639.27 272.723 650.481 260.886 658.51C262.068 651.182 261.442 643.051 261.444 635.642C261.446 616.925 260.878 598.274 260.46 579.569C260.139 565.244 260.8 550.963 260.827 536.647L260.383 473.462L260.688 416.018C260.83 387.046 260.593 356.834 267.634 328.52C271.977 311.053 282.874 286.668 292.084 271.265C295.885 264.91 300.323 258.855 304.68 252.871C313.096 241.311 322.874 231.717 333.657 222.398Q336.673 219.768 339.768 217.231Q342.863 214.695 346.034 212.254Q349.205 209.814 352.449 207.472Q355.694 205.13 359.009 202.888Q362.324 200.646 365.705 198.508Q369.087 196.369 372.533 194.334Q375.979 192.3 379.486 190.372Q382.992 188.445 386.556 186.625Q390.12 184.806 393.739 183.097Q397.357 181.388 401.026 179.79Q404.694 178.192 408.41 176.708Q412.127 175.224 415.886 173.854Q419.646 172.484 423.446 171.23Q427.246 169.977 431.083 168.84Q434.919 167.703 438.789 166.684Q442.659 165.666 446.558 164.766Q456.796 162.451 467.267 161.734C471.689 161.442 476.127 161.516 480.508 160.781C480.727 160.744 480.944 160.702 481.162 160.663Z"/>
	<path fill="#545658" d="M462.19 318.612C473.612 318.186 474.502 328.905 481.989 334.505C489.99 340.489 510.415 339.885 520.2 338.187C532.984 335.969 531.717 331.673 538.168 323.065C540.222 320.325 543.309 318.862 546.673 318.529C549.735 318.227 552.907 319.116 555.198 321.211C557.85 323.637 559.126 327.018 559.229 330.566C559.403 336.594 556.565 340.266 552.707 344.431C551.055 345.943 549.406 347.491 547.672 348.908C535.114 359.175 515.903 363.786 499.963 362.082C484.636 360.444 468.029 356.404 458.028 343.704C453.63 338.118 452.103 331.664 452.974 324.729C455.676 321.235 457.787 319.451 462.19 318.612Z"/>
	<path fill="#545658" d="M392.979 263.62L395.759 263.502C400.412 263.281 404.61 263.744 408.996 265.408C416.705 268.334 423.016 274.977 426.25 282.504C431.019 293.605 431.965 319.009 427.262 330.173C422.986 340.323 414.549 346.773 404.577 350.675C404.276 350.76 403.978 350.851 403.675 350.929C397.786 352.446 390.541 351.391 385.375 348.299C377.676 343.69 371.863 335.202 369.767 326.553C366.015 311.074 365.849 289.743 374.584 275.904C379.037 268.849 385.076 265.463 392.979 263.62Z"/>
	<path fill="#545658" d="M610.1 263.177C616.11 262.441 622.828 264.512 627.866 267.77C635.95 273 641.452 281.608 643.546 290.914C646.573 304.361 646.85 324.451 639.171 336.506C634.183 344.336 627.288 349.32 618.253 351.374C610.554 351.74 603.528 351.81 597.091 346.746C589.21 340.545 584.591 330.302 583.402 320.543C581.515 305.047 581.29 286.031 591.516 273.154C596.229 267.22 602.657 263.988 610.1 263.177Z"/>
</svg>
