<?xml version="1.0" encoding="utf-8" ?>
<svg xmlns="http://www.w3.org/2000/svg" xmlns:xlink="http://www.w3.org/1999/xlink" width="1024" height="1024">
	<path fill="#162425" d="M258.934 52.2386C267.619 51.7748 276.447 52.0633 285.147 52.0576L334.068 52.1031C376.743 52.1088 419.505 51.4236 462.168 52.1281C471.773 52.2867 481.12 54.1614 490.645 54.4732C512.147 55.1768 533.846 54.532 555.371 54.5466C561.004 54.5504 566.803 54.7934 572.417 54.3468C578.244 53.8833 583.995 52.7654 589.838 52.3744C596.316 51.941 602.837 52.0289 609.327 52.0229Q652.262 51.7125 695.191 52.5318C702.94 52.711 710.432 54.5475 718.249 54.5708L765.613 54.5718C773.97 54.5857 783.081 53.9886 791.349 55.1342C794.16 55.5236 796.709 56.9544 799.503 57.4169C802.891 57.9776 806.402 57.6035 809.781 58.2427C814.429 59.1219 819.136 60.8889 823.662 62.2674C840.949 67.5322 856.902 73.6694 872.613 82.7505C891.653 93.7551 911.69 111.112 925.625 128.267C942.735 149.333 958.588 180.4 965.576 206.469C968.381 216.932 971.387 227.742 972.905 238.48C973.974 246.046 973.625 253.885 974.004 261.514C974.384 269.178 975.399 276.788 975.706 284.467C976.308 299.564 975.841 314.661 975.597 329.752C975.407 341.473 975.541 353.184 975.166 364.905C974.906 373.07 974.057 381.213 973.957 389.378C973.693 410.887 973.931 432.426 973.968 453.937C973.995 470.286 973.751 486.68 973.978 503.023C974.111 512.569 975.433 522.047 975.456 531.624C975.479 540.742 974.493 549.601 974.028 558.68C973.636 566.33 973.736 574.031 973.738 581.691L973.756 732.757L973.8 773.079C973.783 780.749 974.164 788.935 973.083 796.523C969.051 824.833 962.282 852.062 948.363 877.252C946.284 881.016 934.441 898.298 933.848 900.094C933.512 901.111 933.982 901.688 934.34 902.61C933.863 904.413 932.754 905.983 931.431 907.29C929.568 909.13 926.812 909.471 924.824 911.1C922.073 913.353 919.766 916.563 917.231 919.099C912.798 923.536 907.401 927.672 903.519 932.548C903.336 933.782 903.11 934.782 902.664 935.96C898.927 939.673 898.721 936.061 895.018 938.748Q886.559 944.945 877.467 950.169Q868.374 955.393 858.76 959.579C853.464 961.904 847.805 963.633 842.336 965.513C826.72 970.881 810.739 975.909 794.258 977.801C787.25 978.605 780.107 978.522 773.062 978.559L386.501 978.56C375.232 978.547 363.82 978.194 352.565 978.64C345.019 978.94 337.524 980.196 329.971 980.424C312.967 980.937 295.779 980.759 278.762 980.525C272.581 980.44 266.569 978.936 260.417 978.718C249.577 978.334 238.297 979.354 227.558 977.66C206.61 974.355 178.674 965.285 159.529 955.874C156.546 954.408 153.825 952.233 151.014 950.453C144.239 946.166 137.402 942.344 130.933 937.547C95.7942 911.491 72.2521 877.958 58.4792 836.531C55.1728 826.586 51.8849 816.026 50.4092 805.63C49.5522 799.593 48.5104 793.376 48.0915 787.299C47.145 773.567 47.8295 759.365 47.8279 745.594L47.832 685.01L47.9021 478.647L47.8413 330.284L47.7845 284.621C47.7779 275.541 47.4699 266.282 48.042 257.225C48.322 252.793 49.1535 248.398 49.6165 243.982C50.0541 239.809 50.0362 235.592 50.6783 231.439Q51.4936 226.368 52.5452 221.341Q53.5969 216.314 54.8824 211.342Q56.168 206.369 57.6848 201.463Q59.2016 196.556 60.9462 191.725Q62.6908 186.895 64.6595 182.151Q66.6281 177.408 68.8165 172.762Q71.0048 168.115 73.4081 163.576Q75.8114 159.037 78.4244 154.616C82.3594 148.105 87.011 142.124 91.5865 136.063C97.0282 128.854 103.001 122.57 109.326 116.147C114.212 111.185 119.223 105.956 124.595 101.524C145.2 84.5271 172.929 70.6553 198.501 63.0063C209.34 59.7641 220.933 57.4593 232.067 55.435C236.854 54.5645 241.791 54.738 246.625 54.2423C250.769 53.8174 254.806 52.8139 258.934 52.2386Z"/>
	<path fill="#CDCDCD" d="M288.51 501.7L289.284 503.624C290.095 503.892 290.569 503.835 291.39 503.773C294.584 503.534 297.47 505.289 299.788 507.337C299.911 507.446 300.024 507.567 300.142 507.682C296.491 507.355 292.69 507.838 289.397 506.055C288.321 504.477 288.549 503.58 288.51 501.7Z"/>
	<path fill="#78A5AA" d="M335.342 579.934C338.208 580.181 341.266 580.002 343.627 581.807C344.859 583.483 344.613 585.344 344.607 587.327C341.24 585.279 338.269 582.546 335.342 579.934Z"/>
	<path fill="#ACAEAF" d="M692.939 414.359C693.225 417.547 694.771 427.638 692.79 430.013C690.922 429.634 691.327 428.177 689.559 428.178C688.415 429.02 687.392 429.881 686 430.27C689.239 425.6 692.185 420.03 692.939 414.359Z"/>
	<defs>
		<linearGradient id="gradient_0" gradientUnits="userSpaceOnUse" x1="69.397087" y1="773.64838" x2="75.812775" y2="779.10486">
			<stop offset="0" stop-color="#606661"/>
			<stop offset="1" stop-color="#7D7D80"/>
		</linearGradient>
	</defs>
	<path fill="url(#gradient_0)" d="M72.5421 763.453C73.7215 768.801 74.8942 774.461 76.6988 779.635C73.9145 782.899 72.4255 785.562 71.5935 789.787C71.3825 780.978 72.0235 772.235 72.5421 763.453Z"/>
	<path fill="#ACAEAF" d="M560.718 606.931C564.46 606.077 572.806 605.472 575.189 602.203C577.121 599.551 578.419 597.611 580.841 595.293L583.701 596.52C581.716 600.484 580.247 604.614 575.7 606.183C571.323 607.694 565.328 606.978 560.718 606.931Z"/>
	<path fill="#CDCDCD" d="M180.019 338.136C186.867 338.421 194.484 349.741 210.634 349.01C207.641 349.599 204.967 350.64 202.145 351.768C193.819 349.244 185.256 345.415 180.019 338.136Z"/>
	<path fill="#FDFCFC" d="M599.483 471.971C599.58 471.979 599.679 471.971 599.774 471.995C601.158 472.341 601.579 472.913 602.312 474.086C604.418 477.458 609.054 485.365 608.033 489.469L607.361 489.814L605.692 488.853C601.177 484.65 596.803 479.696 594.018 474.157C595.8 473.328 597.644 472.661 599.483 471.971Z"/>
	<path fill="#CDCDCD" d="M463.271 361.498C469.256 361.828 474.475 363.546 479.534 366.743C479.772 370.049 479.711 373.37 479.711 376.683C475.483 374.008 465.459 370.527 463.213 366.119C462.365 364.454 462.932 363.227 463.271 361.498Z"/>
	<path fill="#515858" d="M335.509 395.573C336.524 394.797 337.48 393.962 338.458 393.141C339.568 392.211 340.963 390.875 342.456 391.005L342.759 392.625C342.221 396.599 343.019 400.447 343.285 404.413C335.919 401.718 328.055 402.118 320.337 402.158C320.649 401.016 320.499 401.478 320.909 400.338C322.061 397.135 328.419 397.888 331.205 397.274C332.689 396.947 334.14 396.21 335.509 395.573Z"/>
	<path fill="#FDFCFC" d="M338.33 119.092C340.756 120.49 342.381 127.299 343.284 129.885C337.205 129.687 331.205 129.537 325.125 129.844L316.643 130.105C322.776 125.206 330.798 121.244 338.33 119.092Z"/>
	<path fill="#FDFCFC" d="M816.246 619.272C820.579 622.831 824.436 627.613 828.412 631.609C827.063 633.935 825.718 635.91 823.937 637.943C822.893 638.913 821.784 639.643 820.593 640.411C819.357 640.511 818.715 640.702 817.743 639.724C814.202 636.16 815.709 623.918 816.246 619.272Z"/>
	<path fill="#FDFCFC" d="M560.695 434.693C566.419 434.013 572.727 434.167 578.336 435.522C580.873 441.398 581.118 448.805 579.993 455.037C576.588 452.447 561.792 437.962 560.695 434.693Z"/>
	<path fill="#FDFCFC" d="M865.405 620.462C866.184 621.405 865.677 622.68 865.517 623.869C864.323 632.745 864.464 641.484 864.53 650.417C861.856 648.649 859.33 646.781 856.815 644.794C855.809 644.055 854.739 643.035 853.871 642.119C852.329 640.492 851.164 638.565 851.304 636.251C851.661 630.307 861.168 624.057 865.405 620.462Z"/>
	<path fill="#FDFCFC" d="M722.479 388.567C729.229 388.425 731.626 390.826 736.506 395.144C731.499 399.114 726.6 403.128 721.851 407.406C719.313 409.917 716.736 412.289 714 414.582C714.021 408.248 713.223 399.865 716.054 394.076C717.474 391.173 719.503 389.656 722.479 388.567Z"/>
	<path fill="#FDFCFC" d="M822.3 606.383C827.429 606.257 832.695 606.859 837.837 607.041C844.211 607.266 850.629 607.09 857.006 607.007C854.667 610.094 851.906 612.702 849.131 615.39C845.832 618.471 842.634 621.561 838.844 624.038Q830.669 615.12 822.3 606.383Z"/>
	<path fill="#FDFCFC" d="M657.687 458.604Q658.966 458.523 660.248 458.494C665.577 458.398 668.906 459.784 672.692 463.461C668.488 469.333 663.875 473.362 657.937 477.452Q653.037 480.645 647.977 483.58C648.043 477.487 648.781 468.782 651.442 463.309C652.923 460.261 654.586 459.609 657.687 458.604Z"/>
	<path fill="#FDFCFC" d="M443.484 301.929C450.626 307.707 457.666 315.648 462.031 323.711C460.025 326.896 457.701 329.394 454.881 331.856Q449.609 335.343 444.458 339.006C442.916 326.812 443.371 314.198 443.484 301.929Z"/>
	<path fill="#FDFCFC" d="M864.73 485.208C869.19 485.035 873.647 485.28 878.023 486.182C878.25 495.27 878.147 504.495 877.885 513.582L877.281 513.718L875.686 512.492C870.128 508.182 862.411 504.371 860.163 497.284C859.321 494.628 858.19 488.499 859.435 485.978C860.863 485.043 863.048 485.255 864.73 485.208Z"/>
	<path fill="#CDCDCD" d="M438.616 131.403C442.401 148.799 440.027 166.879 430.233 182.02C429.46 183.216 428.567 184.319 427.684 185.433C424.22 181.388 422.039 175.497 418.181 172.017C419.254 171.029 420.246 169.989 421.216 168.9C429.295 159.823 439.315 144.083 438.616 131.403Z"/>
	<path fill="#FDFCFC" d="M393.026 147.234Q405.09 141.226 417.001 134.92C422.035 132.218 427.134 128.977 432.468 126.957C433.947 126.396 434.931 125.984 436.468 126.309C437.842 127.743 438.13 129.54 438.616 131.403C439.315 144.083 429.295 159.823 421.216 168.9C420.246 169.989 419.254 171.029 418.181 172.017C410.957 162.714 402.254 154.514 393.026 147.234Z"/>
	<path fill="#CDCDCD" d="M455.517 561.794C458.207 561.437 460.973 561.466 463.685 561.378C464.243 568.628 467.035 575.751 469.248 582.631C462.544 588.952 459.82 595.084 456.424 603.478C455.405 604.126 454.295 603.736 453.115 603.624Q446.174 602.918 439.218 602.387C438.37 589.068 438.303 575.797 438.306 562.459C444.092 562.509 449.759 562.439 455.517 561.794Z"/>
	<path fill="#FDFCFC" d="M288.441 560.224C293.145 563.09 296.056 570.223 300.381 574.039C303.442 576.741 307.507 578.779 310.93 581.025C318.914 586.262 326.536 591.595 334.969 596.121C338.118 597.81 340.905 599.174 343.421 601.806C342.701 604.244 342.599 607.176 341.342 609.38C334.429 609.632 327.474 610.547 320.563 611.032Q304.987 612.139 289.372 612.151C287.694 596.243 288.438 576.46 288.441 560.224Z"/>
	<path fill="#FDFCFC" d="M554.235 320.039C558.505 319.722 561.714 320.688 565.526 322.568C581.091 330.243 597.416 347 603.1 363.534C596.253 362.273 589.868 361.439 582.891 361.462C581.574 361.497 580.281 361.587 578.972 361.737C564.638 363.381 559.595 370.173 551.32 380.639C551.514 370.275 553.508 360.015 553.952 349.651C554.374 339.803 553.361 329.861 554.235 320.039Z"/>
	<path fill="#FDFCFC" d="M295.031 526.084C301.118 525.355 307.579 525.847 313.72 525.958Q329.174 526.211 344.62 526.747C344.364 540.411 345.349 554.328 344.502 567.927C339.006 569.045 330.538 568.314 325.331 566.224C310.269 560.179 300.966 540.153 295.031 526.084Z"/>
	<path fill="#FDFCFC" d="M288.486 466.699C296.015 466.543 303.541 467.052 311.077 466.989C322.186 466.896 333.495 466.243 344.581 466.678C344.992 480.522 345.27 494.463 345.032 508.31C332.381 508.605 312.136 509.862 300.142 507.682C300.024 507.567 299.911 507.446 299.788 507.337C297.47 505.289 294.584 503.534 291.39 503.773C290.569 503.835 290.095 503.892 289.284 503.624L288.51 501.7Q288.288 484.199 288.486 466.699Z"/>
	<path fill="#FDFCFC" d="M584.954 285.73L587.318 285.685C584.011 287.443 579.174 287.888 575.535 288.925C565.682 291.731 555.583 297.166 547.455 303.36C543.433 306.425 538.499 310.4 536.446 315.138C533.728 321.412 535.444 341.388 535.448 349.007C535.454 360.269 535.755 372.378 534.196 383.504C527.926 389.936 519.645 392.913 514.257 400.584C511.337 398.674 508.302 397.085 505.203 395.488C502.048 393.926 499.416 392.337 496.853 389.911C501.181 380.253 508.89 372.621 512.555 362.423C519.213 343.897 513.847 321.466 527.926 305.986C532.049 301.454 536.795 298.536 542.136 295.611C558.036 286.902 567.092 286.474 584.954 285.73Z"/>
	<path fill="#FDFCFC" d="M597.681 300.71C598.692 300.613 599.7 300.599 600.716 300.588C626.264 300.29 653.554 312.115 671.728 329.849C657.252 330.611 644.451 333.463 633.334 343.101C628.432 347.378 625.071 352.02 621.929 357.684C614.184 341.441 603.518 326.548 589.087 315.544C584.546 312.081 578.395 309.575 574.628 305.326L575.204 304.54C581.609 301.672 590.708 301.278 597.681 300.71Z"/>
	<path fill="#FDFCFC" d="M288.591 401.938Q304.462 402.298 320.337 402.158C328.055 402.118 335.919 401.718 343.285 404.413C345.486 418.766 344.213 434.615 344.123 449.137C325.4 451.384 306.418 449.233 287.757 447.602C287.236 432.508 288.298 417.061 288.591 401.938Z"/>
	<path fill="#CDCDCD" d="M727.722 501.455C724.559 530.441 705.682 561.045 683.132 579.255C671.223 588.872 646.736 602.913 631.56 605.39C622.249 606.91 612.69 606.634 603.383 608.104C608.651 595.749 612.378 584.393 614.05 570.997C618.215 573.019 625.105 572.052 629.561 571.569C635.432 570.932 641.346 570.108 647.012 568.401C665.52 562.826 696.928 545.513 708.844 530.477C712.789 525.5 717.318 520.272 720.641 514.888C723.03 511.016 724.062 505.598 727.034 502.196C727.256 501.942 727.493 501.702 727.722 501.455Z"/>
	<path fill="#FDFCFC" d="M168.83 496.051C175.193 495.57 181.366 497.169 186.319 501.354C203.372 515.764 191.03 535.146 197.011 548.862C201.564 559.304 211.039 557.001 212.405 574.734C213.166 584.605 211.29 594.181 204.645 601.808C197.462 610.052 187.132 611.427 176.821 612.077C168.295 612.23 159.328 611.469 151.517 607.778Q150.795 607.435 150.091 607.057Q149.388 606.679 148.703 606.267Q148.018 605.855 147.355 605.41Q146.691 604.965 146.05 604.488Q145.408 604.012 144.791 603.504Q144.174 602.997 143.583 602.46Q142.991 601.923 142.426 601.357Q141.862 600.792 141.325 600.2Q140.789 599.608 140.282 598.99Q139.775 598.372 139.299 597.73Q138.823 597.089 138.379 596.424Q137.935 595.76 137.523 595.075Q137.112 594.39 136.735 593.686Q136.358 592.981 136.015 592.259Q135.673 591.537 135.366 590.8Q135.059 590.062 134.789 589.31C131.437 579.813 133.474 568.395 139.765 560.493C143.949 555.236 149.45 551.822 150.51 544.69C152.282 532.78 146.241 520.276 152.078 508.903C155.524 502.189 161.892 498.31 168.83 496.051Z"/>
	<path fill="#FDFCFC" d="M840.643 510.523C845.558 514.275 849.556 520.134 853.969 524.567C861.37 532.001 869.735 538.371 876.787 546.171C887.576 558.105 896.839 571.25 907.927 582.989C899.762 596.356 904.778 645.349 903.024 663.871C897.033 660.252 891.305 657.377 884.432 655.887C883.553 636.098 885.231 615.667 883.509 596C880.205 591.982 877.71 589.419 872.287 588.839L828.51 588.842C820.949 588.827 812.387 588.044 804.964 589.319C802.507 589.741 800.343 590.832 798.553 592.576C797.429 593.672 796.491 595.035 796.202 596.597C795.243 601.779 796.61 608.592 796.734 613.923C796.875 619.982 796.611 626.092 796.461 632.151Q793.897 632.078 791.346 631.818Q788.795 631.558 786.269 631.113Q783.744 630.667 781.258 630.038Q778.772 629.41 776.338 628.601C774.714 612.783 779.337 599.201 773.997 582.94C781.46 571.726 790.672 561.799 799.718 551.87C805.199 545.853 810.613 539.661 816.48 534.016C824.622 526.182 833.364 519.244 840.643 510.523Z"/>
	<path fill="#162425" d="M833.195 541.177C837.634 540.653 842.85 540.739 847.287 541.468C852.856 542.383 856.628 544.555 859.907 549.119C860.092 555.852 861.86 568.284 856.848 573.274C854.487 575.625 851.675 575.178 848.604 575.176C842.596 575.111 828.458 575.962 823.552 572.861C822.178 571.993 821.681 569.929 821.358 568.426C820.373 563.827 819.433 549.277 822.259 545.454C824.784 542.039 829.33 541.672 833.195 541.177Z"/>
	<path fill="#FDFCFC" d="M610.44 515.502C614.44 513.951 619.956 514.346 624.259 513.952C635.998 512.876 649.101 510.352 659.646 504.965C683.21 492.926 694.173 469.675 709.662 449.624C716.095 441.297 723.38 433.904 731.323 427.026C736.809 422.275 742.168 417.928 748.698 414.673C751.384 413.334 754.582 411.709 757.605 412.73C757.711 413.907 757.592 414.324 757.11 415.383C755.487 418.948 753.05 422.377 751.127 425.824C747.5 432.325 744.356 438.874 741.546 445.77C734.334 463.476 732.383 483.004 727.722 501.455C727.493 501.702 727.256 501.942 727.034 502.196C724.062 505.598 723.03 511.016 720.641 514.888C717.318 520.272 712.789 525.5 708.844 530.477C696.928 545.513 665.52 562.826 647.012 568.401C641.346 570.108 635.432 570.932 629.561 571.569C625.105 572.052 618.215 573.019 614.05 570.997L613.908 567.302C613.848 567.104 613.769 566.91 613.728 566.706C613.55 565.824 613.609 565.057 613.161 564.241C612.883 563.732 612.437 563.649 611.903 563.526C610.104 563.112 599.406 562.904 597.645 563.446C597.05 563.629 596.623 564.156 596.112 564.511C598.254 550.036 596.642 534.837 592.539 520.871C598.089 520.149 603.496 516.377 607.623 516.141C608.736 516.078 609.406 516.007 610.44 515.502Z"/>
	<path fill="#515858" d="M592.539 520.871C598.089 520.149 603.496 516.377 607.623 516.141C608.736 516.078 609.406 516.007 610.44 515.502C611.225 523.923 612.654 532.258 613.189 540.705C613.751 549.561 613.454 558.446 613.908 567.302C613.848 567.104 613.769 566.91 613.728 566.706C613.55 565.824 613.609 565.057 613.161 564.241C612.883 563.732 612.437 563.649 611.903 563.526C610.104 563.112 599.406 562.904 597.645 563.446C597.05 563.629 596.623 564.156 596.112 564.511C598.254 550.036 596.642 534.837 592.539 520.871Z"/>
	<path fill="#CDCDCD" d="M190.256 895.928C205.555 901.392 229.558 907.815 245.794 909.219C255.478 910.057 265.604 909.514 275.337 909.53L330.57 909.557Q410.13 910.294 489.692 910.033L556 910.509C580.329 910.531 604.686 910.172 629.012 910.524Q668.883 911.379 708.762 911.041C722.089 911.046 735.627 911.539 748.934 910.935C754.49 910.683 759.976 909.627 765.518 909.205C773.02 908.634 780.542 908.494 788.032 907.729C807.258 905.767 835.064 898.489 852.316 890.384C874.282 880.064 893.116 862.561 910.153 845.642C917.189 838.654 924.573 831.536 929.714 822.976C938.915 807.656 944.036 790.4 950.001 773.732C951.05 780.734 950.589 788.394 950.107 795.454C947.958 826.966 936.863 854.831 918.175 880.171Q916.831 881.964 915.444 883.724Q914.057 885.484 912.627 887.21Q911.198 888.936 909.727 890.626Q908.256 892.317 906.745 893.972Q905.234 895.626 903.682 897.243Q902.131 898.861 900.542 900.44Q898.952 902.019 897.324 903.559Q895.696 905.099 894.032 906.6Q892.367 908.1 890.666 909.559Q888.966 911.019 887.231 912.437Q885.495 913.854 883.726 915.229Q881.957 916.605 880.155 917.937Q878.352 919.268 876.519 920.556Q874.685 921.844 872.82 923.087Q870.955 924.33 869.061 925.527Q867.167 926.725 865.244 927.876Q863.322 929.027 861.372 930.131Q859.422 931.235 857.445 932.291Q855.469 933.348 853.468 934.356Q851.467 935.364 849.441 936.323Q847.416 937.283 845.368 938.193Q843.321 939.103 841.251 939.963Q839.182 940.823 837.092 941.632Q835.003 942.442 832.894 943.2Q830.786 943.959 828.659 944.666Q826.533 945.373 824.39 946.029Q822.247 946.684 820.089 947.287Q817.931 947.891 815.759 948.442Q813.587 948.992 811.402 949.49Q809.217 949.988 807.021 950.433Q804.824 950.878 802.618 951.269Q800.411 951.66 798.196 951.998C778.649 954.935 750.792 953.174 730.401 953.162L587.955 952.684L348.434 953.172L286.883 953.339C268.977 953.553 250.544 954.723 232.766 952.301C223.239 951.003 213.817 948.438 204.607 945.727C182.091 939.099 164.266 931.519 145.242 917.428Q143.722 916.308 142.224 915.158Q140.727 914.008 139.254 912.827Q137.78 911.646 136.331 910.436Q134.882 909.226 133.458 907.986Q132.034 906.746 130.636 905.477Q129.237 904.209 127.865 902.912Q126.493 901.615 125.147 900.29Q123.802 898.965 122.484 897.614Q121.166 896.262 119.875 894.883Q118.585 893.505 117.323 892.1Q116.061 890.696 114.828 889.266Q113.596 887.836 112.392 886.381Q111.189 884.926 110.015 883.447Q108.842 881.967 107.699 880.465Q106.556 878.962 105.443 877.436Q104.331 875.91 103.251 874.362Q102.17 872.814 101.121 871.244Q100.072 869.674 99.0554 868.083Q98.0388 866.492 97.0549 864.88Q96.0709 863.269 95.1201 861.637Q94.1693 860.006 93.252 858.356Q92.3346 856.706 91.4512 855.037Q90.5678 853.368 89.7186 851.682Q88.8694 849.995 88.0548 848.292Q87.2403 846.589 86.4606 844.869Q85.681 843.149 84.9367 841.414Q84.1923 839.679 83.4835 837.929Q82.7747 836.179 82.1019 834.415Q81.429 832.651 80.7922 830.873Q80.1555 829.096 79.5552 827.305Q78.9549 825.515 78.3913 823.713Q77.8276 821.911 77.3009 820.098C75.5748 814.086 73.7835 808.097 72.8714 801.897C72.7597 801.138 72.6147 800.351 72.5887 799.585C71.5995 796.618 71.657 792.896 71.5935 789.787C72.4255 785.562 73.9145 782.899 76.6988 779.635L80.6228 793.92L81.0239 794.77C83.1128 799.251 84.7847 803.779 87.1951 808.141C97.1662 826.185 114.998 846.899 130.897 860.072C138.091 866.033 145.837 871.166 153.54 876.433C157.979 879.468 162.412 882.466 167.062 885.174C169.855 886.8 173.586 888.319 176.095 890.274C180.781 892.234 185.446 894.289 190.256 895.928Z"/>
	<path fill="#ACAEAF" d="M176.095 890.274C180.781 892.234 185.446 894.289 190.256 895.928C190.107 896.182 189.943 896.427 189.809 896.689C189.743 896.818 189.707 896.96 189.657 897.095C188.936 897.121 188.268 897.14 187.552 897.024C183.918 896.436 178.046 894.267 175.906 891.221L176.095 890.274Z"/>
	<path fill="#ACAEAF" d="M76.6988 779.635L80.6228 793.92L80.054 794.034C79.4749 792.076 79.1319 789.172 77.5957 787.849C75.9613 788.118 73.999 789.332 72.932 790.59C72.4267 791.186 72.3634 791.788 72.4021 792.565C72.5292 795.113 73.7375 797.002 72.5887 799.585C71.5995 796.618 71.657 792.896 71.5935 789.787C72.4255 785.562 73.9145 782.899 76.6988 779.635Z"/>
	<path fill="#FDFCFC" d="M180.019 338.136C164.722 322.539 155.813 303.483 155.939 281.444C156.017 267.665 160.954 255.15 170.857 245.474C183.558 233.066 199.971 227.92 217.294 226.812C220.273 226.621 226.074 226.912 228.75 225.602C231.431 224.289 236.014 209.868 237.399 206.891Q239.962 201.398 243.177 196.259C247.622 189.277 253.443 183.694 259.566 178.212C281.015 159.008 303.25 149.617 332.112 150.092C359.035 150.535 379.675 159.353 398.58 178.829C403.939 184.35 416.818 198.566 416.745 206.62C416.687 213.088 405.957 216.553 411.331 222.268C416.165 227.408 424.452 226.939 430.986 226.995C441.584 227.085 452.7 226.518 462.944 229.751C463.102 240.388 460.788 248.839 453.082 256.649C452.874 256.86 452.661 257.065 452.45 257.273C446.883 257.672 415.862 258.517 413.535 260.409C412.553 262.644 412.567 264.164 413.444 266.468C415.254 271.226 419.585 275.356 422.969 279.033C422.36 290.067 422.421 301.189 422.128 312.241C421.894 321.097 420.938 330.718 422.401 339.485C424.457 351.799 438.553 371.586 446.844 380.889C461.636 397.485 481.975 407.371 501.162 417.83C531.085 434.14 560.413 456.275 577.776 486.182C580.881 491.532 583.25 497.382 585.696 503.058C588.202 508.871 590.76 514.787 592.539 520.871C596.642 534.837 598.254 550.036 596.112 564.511C593.135 575.97 589.226 586.032 583.701 596.52L580.841 595.293C578.419 597.611 577.121 599.551 575.189 602.203C572.806 605.472 564.46 606.077 560.718 606.931C533.304 607.852 505.756 606.254 478.333 605.883C483.729 597.537 488.794 592.042 497.384 586.981C501.748 583.07 507.501 581.467 512.95 579.653C513.89 578.591 514.792 577.538 515.439 576.265C516.308 574.558 516.769 572.815 516.186 570.947C511.518 567.076 495.447 575.298 488.073 571.218C484.323 569.143 482.455 564.742 481.271 560.827Q480.969 559.852 480.718 558.863Q480.466 557.874 480.264 556.873Q480.063 555.872 479.913 554.863Q479.762 553.853 479.663 552.837Q479.564 551.821 479.517 550.802Q479.469 549.782 479.474 548.761Q479.478 547.741 479.534 546.721Q479.59 545.702 479.698 544.687Q479.806 543.672 479.965 542.664Q480.124 541.656 480.334 540.657Q480.544 539.658 480.804 538.671Q481.064 537.684 481.374 536.711Q481.684 535.739 482.043 534.783Q482.402 533.828 482.809 532.892Q483.216 531.956 483.67 531.041Q484.123 530.127 484.623 529.237C490.499 518.551 500.534 509.137 512.43 505.811Q516.096 504.811 519.873 504.402Q523.651 503.992 527.446 504.184C543.12 504.86 551.299 514.588 564.111 521.854C565.004 521.831 565.562 521.779 566.33 521.246C568.56 519.696 569.551 516.248 570.013 513.727C570.688 510.038 570.623 505.822 568.318 502.709C560.563 492.233 546.52 485.729 533.92 483.78C518.16 481.343 502.56 485.552 489.835 495.051C472.395 508.068 464.904 523.011 461.832 544.121C453.544 543.962 445.24 544.023 436.949 543.98C436.172 542.242 435.417 540.249 434.153 538.806C432.799 537.261 431.035 536.699 429.027 536.635C426.105 536.543 422.739 537.066 420.594 539.239C419.241 540.611 418.568 542.532 418.348 544.416C417.401 552.504 418.268 561.656 418.386 569.839Q418.508 588.634 418.348 607.429C400.478 609.511 381.555 608.977 363.562 608.689C362.964 579.759 363.791 550.664 363.894 521.719L363.473 422.388Q363.395 409.096 363.577 395.804C363.762 387.695 364.331 379.516 364.056 371.407C363.969 368.854 363.803 366.193 362.758 363.829C362.011 362.139 360.643 360.29 358.755 359.798C357.103 359.368 356.705 360.011 355.489 360.97C346.063 365.654 337.336 371.829 327.089 374.734C307.097 380.4 252.599 375.94 233.529 369.376C233.124 369.236 232.729 369.067 232.332 368.905C228.679 368.346 224.996 366.743 221.562 365.438C230.15 361.389 240.059 360.891 249.002 357.741Q250.16 357.337 251.307 356.904Q252.454 356.471 253.59 356.01Q254.727 355.548 255.851 355.059Q256.975 354.569 258.087 354.052Q259.199 353.535 260.297 352.99Q261.396 352.445 262.481 351.873Q263.565 351.301 264.635 350.702Q265.706 350.104 266.76 349.478Q267.815 348.853 268.854 348.202Q269.893 347.55 270.916 346.873Q271.938 346.196 272.943 345.494Q273.948 344.792 274.936 344.065Q275.923 343.337 276.892 342.586Q277.861 341.835 278.811 341.059Q279.761 340.284 280.692 339.485Q281.622 338.686 282.533 337.865Q283.443 337.043 284.332 336.199Q285.222 335.355 286.09 334.489Q286.958 333.623 287.805 332.736Q288.651 331.848 289.475 330.94Q290.299 330.032 291.1 329.104Q291.901 328.175 292.679 327.227Q293.457 326.279 294.211 325.312Q294.965 324.345 295.695 323.36Q296.424 322.374 297.129 321.371Q297.834 320.367 298.514 319.347Q299.193 318.326 299.847 317.289Q300.501 316.252 301.13 315.198Q301.758 314.145 302.359 313.077Q302.961 312.008 303.536 310.925Q304.11 309.842 304.658 308.745Q305.206 307.647 305.726 306.537C308.36 300.962 315.792 287.114 313.595 281.478C312.209 277.924 308.762 275.397 305.353 273.962C301.471 272.328 296.904 271.964 293.006 273.754C290.893 274.725 289.336 276.239 288.661 278.505C287.757 281.538 289.279 283.593 290.654 286.166C288.951 296.535 284.134 306.074 277.713 314.346C266.308 329.038 251.2 336.458 234.119 342.687C226.423 345.493 218.806 348.012 210.634 349.01C194.484 349.741 186.867 338.421 180.019 338.136Z"/>
	<path fill="#78A5AA" d="M497.384 586.981C501.748 583.07 507.501 581.467 512.95 579.653C511.477 581.665 510.025 583.524 508.256 585.296C504.662 586.162 501.052 586.562 497.384 586.981Z"/>
	<path fill="#162425" d="M192.101 262.068C193.836 261.913 195.418 261.833 197.092 262.415C200.015 263.431 202.239 265.554 203.464 268.389Q203.739 269.037 203.947 269.71Q204.155 270.383 204.293 271.073Q204.432 271.764 204.5 272.464Q204.568 273.165 204.564 273.87Q204.561 274.574 204.486 275.274Q204.411 275.974 204.266 276.663Q204.12 277.352 203.906 278.023Q203.691 278.693 203.41 279.339C201.779 283.046 199.032 285.251 195.298 286.61C194.211 286.581 193.086 286.563 192.014 286.372C188.825 285.804 185.548 283.662 183.938 280.838C182.409 278.157 182.183 274.85 183.041 271.91C184.473 267.006 187.734 264.322 192.101 262.068Z"/>
	<path fill="#162425" d="M224.989 261.973C227.234 261.76 229.354 261.793 231.458 262.713C234.693 264.127 237.141 266.987 238.407 270.24C239.727 273.633 239.851 277.603 238.205 280.906C236.777 283.771 234.458 285.409 231.506 286.458C230.043 286.722 228.488 286.901 226.999 286.79C224.022 286.569 221.127 285.054 219.337 282.656C217.28 279.901 216.592 276.136 217.174 272.78C218.019 267.899 221.033 264.676 224.989 261.973Z"/>
	<path fill="#162425" d="M472.054 421.616C475.627 421.284 478.927 421.07 482.335 422.47C485.499 423.77 488.256 426.107 489.569 429.321C490.637 431.931 490.731 435.073 489.462 437.629C487.82 440.935 484.876 442.646 481.529 443.815C478.713 444.067 475.705 444.238 472.959 443.443C469.542 442.454 466.491 440.309 464.826 437.115C463.564 434.696 463.188 431.831 464.063 429.221C465.346 425.396 468.602 423.276 472.054 421.616Z"/>
	<path fill="#162425" d="M471.879 456.612C475.859 456.388 479.934 456.473 483.603 458.211C486.46 459.564 489.053 461.878 490.069 464.946C490.967 467.655 490.729 470.684 489.276 473.156C487.473 476.225 483.956 478.198 480.597 478.97C475.684 479.333 470.835 479.777 466.395 477.137C463.759 475.569 461.556 473.057 460.802 470.037C460.164 467.48 460.649 464.92 462.087 462.717C464.314 459.305 468.03 457.464 471.879 456.612Z"/>
	<path fill="#CDCDCD" d="M287.306 367.396C282.702 367.627 278.198 367.715 273.593 367.446C271.424 367.32 268.969 366.775 266.88 366.848C266.639 366.856 266.398 366.878 266.157 366.893C272.304 366.241 279.198 367.039 285.434 367.129C298.053 367.312 310.535 367.198 323.105 365.97C330.332 365.264 337.603 364.352 344.728 362.937C347.433 362.401 350.335 361.145 353.004 360.828C353.904 360.721 354.602 360.825 355.489 360.97C346.063 365.654 337.336 371.829 327.089 374.734C307.097 380.4 252.599 375.94 233.529 369.376C233.124 369.236 232.729 369.067 232.332 368.905C233.389 368.747 232.881 368.778 234.012 368.806C242.211 369.008 243.262 370.118 250.617 371.786C257.92 373.442 272.193 375.873 279.453 375.613L280.047 374.931L279.534 375.645C279.619 375.382 279.906 374.512 279.947 374.272C279.999 373.963 279.996 373.647 280.02 373.335C282.41 371.299 284.785 369.271 287.306 367.396Z"/>
	<path fill="#162425" d="M421.083 418.567C425.837 418.182 430.481 418.296 434.782 420.61C438.123 422.407 440.813 425.405 441.761 429.127Q441.925 429.745 442.023 430.377Q442.121 431.009 442.152 431.647Q442.184 432.286 442.148 432.924Q442.112 433.562 442.01 434.193Q441.908 434.825 441.739 435.441Q441.571 436.058 441.34 436.654Q441.108 437.25 440.815 437.818Q440.522 438.387 440.171 438.921C437.96 442.24 434.466 444.135 430.649 444.869C426.036 445.121 421.505 444.922 417.375 442.608C413.642 440.516 410.721 436.851 409.741 432.662C409.066 429.772 409.461 426.832 411.148 424.359C413.484 420.934 417.204 419.428 421.083 418.567Z"/>
	<path fill="#162425" d="M315.793 196.619C318.859 196.286 322.121 196.306 325.186 196.634C336.178 197.81 345.355 203.286 352.179 211.938C358.091 219.436 361.931 230.355 360.579 239.954C359.982 244.184 357.87 247.978 354.359 250.476C352.805 251.581 350.287 252.313 348.405 251.678C342.126 249.56 341.491 238.29 339.43 233.019C336.787 226.256 332.369 222.666 325.945 219.779C320.983 218.803 317.064 218.25 312.291 220.574C306.507 223.39 301.832 229.63 300.231 235.811C299.367 239.146 299.104 242.74 297.881 245.969C297.074 248.1 295.654 250.275 293.421 251.087C290.972 251.978 287.461 251.991 285.151 250.705C282.792 249.392 281.559 246.895 280.947 244.359C279.056 236.512 281.175 223.261 285.595 216.535C292.824 205.536 303.022 198.978 315.793 196.619Z"/>
	<path fill="#FDFCFC" d="M70.4471 707.716L71.1603 707.376C81.2234 702.522 90.4466 695.902 100.395 690.777C116.733 682.36 140.365 673.445 158.039 667.94C178.137 661.681 198.936 657.302 219.445 652.601C228.905 650.432 238.294 647.904 247.772 645.831C271.018 640.748 295.396 636.526 319.058 633.834C336.659 631.832 354.458 631.585 372.143 630.705Q403.062 628.983 434.013 628.011C457.563 627.503 481.185 627.9 504.737 628.187C540.914 628.628 577.339 627.191 613.463 628.967Q646.494 630.503 679.247 635.051C690.363 636.617 701.411 638.718 712.51 640.414C728.215 642.813 744.055 644.492 759.672 647.448C769.432 649.295 779.061 651.852 788.796 653.848C814.252 659.066 840.42 663.925 865.046 672.378C884.415 679.027 904.163 685.839 922.807 694.332C932.745 698.859 941.715 705.788 952.045 709.333C950.467 730.784 951.96 752.336 950.001 773.732C944.036 790.4 938.915 807.656 929.714 822.976C924.573 831.536 917.189 838.654 910.153 845.642C893.116 862.561 874.282 880.064 852.316 890.384C835.064 898.489 807.258 905.767 788.032 907.729C780.542 908.494 773.02 908.634 765.518 909.205C759.976 909.627 754.49 910.683 748.934 910.935C735.627 911.539 722.089 911.046 708.762 911.041Q668.883 911.38 629.012 910.524C604.686 910.172 580.329 910.531 556 910.509L489.692 910.033Q410.13 910.294 330.57 909.557L275.337 909.53C265.604 909.514 255.478 910.057 245.794 909.219C229.558 907.815 205.555 901.392 190.256 895.928C185.446 894.289 180.781 892.234 176.095 890.274C173.586 888.319 169.855 886.8 167.062 885.174C162.412 882.466 157.979 879.468 153.54 876.433C145.837 871.166 138.091 866.033 130.897 860.072C114.998 846.899 97.1662 826.185 87.1951 808.141C84.7847 803.779 83.1128 799.251 81.0239 794.77L80.6228 793.92L76.6988 779.635C74.8942 774.461 73.7215 768.801 72.5421 763.453C70.4545 745.1 71.6166 726.202 70.4471 707.716Z"/>
	<path fill="#162425" d="M627.51 716.082C627.468 713.707 627.372 711.268 627.59 708.903C628.435 699.762 636.982 691.395 643.684 685.822C652.156 678.775 662.42 674.716 673.549 675.76C685.109 676.844 692.508 683.814 699.567 692.358C706.112 700.282 708.343 706.099 707.362 716.436C720.353 715.919 733.375 716.069 746.375 716.033C757.176 716.003 768.089 715.608 778.85 716.616C779.022 707.221 780.482 701.722 787.198 694.821C795.685 686.101 805.53 676.77 818.479 676.755C830.518 676.74 838.972 681.286 847.391 689.613C851.456 693.634 856.776 698.791 858.231 704.507C860.927 715.091 859.035 744.269 859.07 756.224C859.14 779.825 859.89 803.444 860.012 827.044C851.267 828.436 787.888 829.856 783.95 827.346C780.525 825.164 778.988 820.745 778.035 817.008Q762.99 817.638 747.932 817.582C738.325 817.555 728.548 817.186 718.982 818.101C718.842 818.183 718.7 818.262 718.561 818.347C715.73 820.081 713.301 824.492 709.986 824.623L708.489 823.863C707.882 824.91 707.221 826.256 706.243 827.003C705.133 827.85 704.266 828.016 702.901 828.166C693.574 829.194 683.537 828.425 674.127 828.508C660.689 828.625 646.161 830.255 632.88 828.128C629.053 824.221 627.787 820.107 626.804 814.888C619.023 815.123 611.237 816.932 603.436 817.349C593.076 817.904 582.249 816.455 572.026 818.053C567.222 818.805 562.836 822.041 558.189 822.56C557.829 823.684 557.358 824.657 556.679 825.621C555.714 826.993 554.409 827.819 552.743 828.064C545.052 829.196 481.709 829.4 478.609 826.968C475.307 824.378 474.886 818.791 474.614 814.9C471.181 816.637 466.503 815.312 462.72 815.627C457.61 816.052 452.646 817.912 447.533 818.295C434.47 819.273 421.141 818.087 408.044 818.338C406.634 819.337 405.218 820.478 403.644 821.193C403.42 822.127 403.2 823.008 402.8 823.885C402.048 825.535 400.906 827.23 399.066 827.788C393.348 829.523 362.202 828.568 354.573 828.602C347.386 828.633 340.083 829.171 332.918 828.875C331.005 828.797 327.476 828.776 325.917 827.735C322.373 825.369 321.241 818.409 320.847 814.432C319.757 813.992 320.318 813.994 319.343 814.369C316.652 815.403 313.066 815.448 310.182 815.86C301.23 817.139 292.694 817.86 283.651 817.85C277.249 817.842 270.757 817.198 264.381 817.929C259.013 818.545 256.708 822.581 252.425 824.744C251.814 825.053 250.745 824.793 250.122 824.64C248.709 825.87 247.599 826.579 245.763 827.034C231.894 830.469 186.843 828.022 170.31 827.236C170.556 823.179 170.263 819.076 170.316 815.009C170.448 804.959 170.511 795.028 170.414 784.977C170.296 772.686 170.699 760.377 170.738 748.084C170.778 735.393 170.437 722.778 170.98 710.081C171.415 699.909 178.044 693.771 185.193 687.28C193.383 679.842 201.254 676.545 212.493 677.147C224.986 677.817 234.854 685.672 242.802 694.77C248.428 701.211 250.267 707.078 249.671 715.556C261.018 715.186 272.264 715.958 283.595 716.079C296.263 716.214 308.915 715.57 321.562 716.598L321.602 714.229C321.886 699.831 324.624 698.031 334.966 688.247C342.978 680.668 352.58 676.009 363.737 676.366C376.556 676.776 385.888 683.03 394.439 692.18C401.581 699.821 403.042 706.013 402.667 716.249C411.624 716.011 420.599 716.44 429.559 716.464L475.387 716.528L475.429 712.467C475.605 700.564 479.53 697.433 487.735 689.547C496.712 680.919 505.759 676.319 518.379 676.637C530.572 676.945 539.027 682.026 547.212 690.837C555.245 699.485 557.289 704.635 556.917 716.548C570.037 716.107 583.128 716.351 596.25 716.296C606.675 716.252 617.082 715.93 627.51 716.082Z"/>
	<path fill="#CDCDCD" d="M708.512 767.377C731.643 768.896 754.865 768.599 778.044 768.497L778.015 774.708C754.672 775.407 731.269 774.596 707.928 774.903C708.042 772.393 708.304 769.881 708.512 767.377Z"/>
	<path fill="#CDCDCD" d="M626.677 736.931C627.814 747.792 626.951 763.102 626.945 774.504C604.112 774.921 581.248 774.902 558.436 775.971Q558.483 768.797 558.637 761.624C559.563 763.256 559.165 766.141 559.157 768.011C581.398 768.952 604.232 769.123 626.457 767.909C626.364 757.876 625.376 746.827 626.677 736.931Z"/>
	<path fill="#CDCDCD" d="M250.012 764.005C250.235 764.686 250.501 766.269 251.131 766.588C255.671 768.891 314.288 769.307 320.652 767.251L321.214 765.498L321.375 774.915Q285.698 774.119 250.017 774.756L250.012 764.005Z"/>
	<path fill="#CDCDCD" d="M402.957 775.493C403.115 764.768 401.851 747.049 403.299 737.286Q403.58 750.745 403.624 764.206C420.104 768.31 435.638 769.615 452.626 769.645C460.146 769.658 467.709 769.244 475.221 769.475L475.57 775.46C462.613 775.249 449.676 775.861 436.724 775.967C425.465 776.06 414.215 775.611 402.957 775.493Z"/>
	<path fill="#CDCDCD" d="M558.112 795.057C580.854 793.931 603.787 795.122 626.56 794.957C626.324 801.571 626.525 808.276 626.804 814.888C619.023 815.123 611.237 816.932 603.436 817.349C593.076 817.904 582.249 816.455 572.026 818.053C567.222 818.805 562.836 822.041 558.189 822.56C557.161 813.716 557.879 803.951 558.112 795.057Z"/>
	<path fill="#CDCDCD" d="M250.581 794.671C273.93 795.578 297.505 794.858 320.865 794.548C320.433 801.147 320.83 807.82 320.847 814.432C319.757 813.992 320.318 813.994 319.343 814.369C316.652 815.403 313.066 815.448 310.182 815.86C301.23 817.139 292.694 817.86 283.651 817.85C277.249 817.842 270.757 817.198 264.381 817.929C259.013 818.545 256.708 822.581 252.425 824.744C251.814 825.053 250.745 824.793 250.122 824.64C250.165 824.492 250.211 824.345 250.25 824.196C250.316 823.948 250.372 823.698 250.435 823.45C252.424 815.629 250.653 803.094 250.581 794.671Z"/>
	<path fill="#CDCDCD" d="M403.708 794.913C427.436 795.088 451.176 795.758 474.898 795.118Q475.067 805.014 474.614 814.9C471.181 816.637 466.503 815.312 462.72 815.627C457.61 816.052 452.646 817.912 447.533 818.295C434.47 819.273 421.141 818.087 408.044 818.338C406.634 819.337 405.218 820.478 403.644 821.193C402.767 812.714 403.448 803.448 403.708 794.913Z"/>
	<path fill="#CDCDCD" d="M708.17 795.09C714.846 795.346 721.569 795.015 728.254 795.044Q752.775 795.383 777.293 794.863C777.352 802.238 777.701 809.64 778.035 817.008Q762.99 817.638 747.932 817.582C738.325 817.555 728.548 817.186 718.982 818.101C718.842 818.183 718.7 818.262 718.561 818.347C715.73 820.081 713.301 824.492 709.986 824.623L708.489 823.863C708.384 814.255 708.051 804.707 708.17 795.09Z"/>
	<path fill="#FDFCFC" d="M557.777 737.498C580.684 736.859 603.75 737.148 626.677 736.931C625.376 746.827 626.364 757.876 626.457 767.909C604.232 769.123 581.398 768.952 559.157 768.011C559.165 766.141 559.563 763.256 558.637 761.624C558.204 753.579 557.775 745.557 557.777 737.498Z"/>
	<path fill="#FDFCFC" d="M708.27 736.977C731.501 737.62 754.837 737.272 778.076 736.982Q777.969 752.74 778.044 768.497C754.865 768.599 731.643 768.896 708.512 767.377Q708.478 752.176 708.27 736.977Z"/>
	<path fill="#FDFCFC" d="M249.431 736.974C273.317 737.073 297.161 737.258 321.035 736.464Q320.86 750.983 321.214 765.498L320.652 767.251C314.288 769.307 255.671 768.891 251.131 766.588C250.501 766.269 250.235 764.686 250.012 764.005C249.518 755.166 248.461 745.781 249.431 736.974Z"/>
	<path fill="#FDFCFC" d="M403.299 737.286C420.127 737.885 437.289 737.585 454.131 737.323C461.02 737.216 467.998 736.672 474.877 736.875C474.942 747.677 474.592 758.704 475.221 769.475C467.709 769.244 460.146 769.658 452.626 769.645C435.638 769.615 420.104 768.31 403.624 764.206Q403.58 750.745 403.299 737.286Z"/>
	<path fill="#FDFCFC" d="M818.905 696.352C824.44 696.565 835.656 709.033 839.508 712.821Q839.585 736.896 839.348 760.969C839.047 777.094 838.284 793.13 838.688 809.266C831.853 809.649 825.041 809.999 818.194 810.051Q808.349 810.356 798.5 810.181C798.514 790.223 799.272 770.215 799.325 750.249C799.359 737.683 798.589 725.18 799.126 712.6C803.14 706.555 812.596 700.032 818.905 696.352Z"/>
	<path fill="#162425" d="M817.136 743.043C818.78 742.935 820.401 742.904 822.002 743.364Q822.568 743.523 823.116 743.736Q823.665 743.95 824.189 744.216Q824.714 744.482 825.21 744.797Q825.706 745.113 826.169 745.476Q826.632 745.839 827.057 746.246Q827.482 746.652 827.866 747.098Q828.249 747.544 828.587 748.026Q828.926 748.507 829.215 749.019C830.536 751.402 830.97 754.268 830.175 756.894C829.026 760.688 825.843 763.394 822.491 765.259C820.882 765.437 819.256 765.561 817.665 765.185C814.391 764.411 811.591 762.433 809.98 759.457C808.585 756.878 808.209 753.71 809.131 750.912C810.482 746.812 813.502 744.908 817.136 743.043Z"/>
	<path fill="#FDFCFC" d="M207.19 696.975C208.36 696.825 209.571 696.803 210.724 697.09C217.481 698.775 227.169 708.062 230.502 713.991C230.677 730.078 229.982 746.107 230.041 762.167C230.1 778.14 230.929 794.527 229.952 810.463L213.376 810.682Q202.071 810.621 190.77 810.301C189.495 794.026 190.137 777.533 190.041 761.222C189.946 744.951 188.878 727.991 190.775 711.821C195.036 706.355 201.553 701.008 207.19 696.975Z"/>
	<path fill="#162425" d="M209.309 742.603C211.949 742.515 213.961 743.051 216.097 744.664Q216.606 745.051 217.072 745.488Q217.539 745.924 217.958 746.406Q218.378 746.889 218.745 747.411Q219.113 747.934 219.425 748.492Q219.738 749.049 219.991 749.636Q220.245 750.222 220.437 750.832Q220.629 751.441 220.758 752.067Q220.887 752.693 220.951 753.329C221.223 756.226 220.386 759.189 218.405 761.356C216.341 763.613 214.179 764.45 211.19 764.688C209.085 764.071 206.933 763.336 205.078 762.146C202.362 760.405 200.113 757.684 199.461 754.471C198.993 752.163 199.398 749.689 200.738 747.733C202.7 744.869 206.027 743.32 209.309 742.603Z"/>
	<path fill="#FDFCFC" d="M666.255 696.059C667.183 695.931 668.105 695.828 669.042 695.921C676.26 696.636 683.699 706.668 687.833 711.864C688.445 728.339 687.548 744.753 687.456 761.213C687.365 777.59 688.078 793.993 687.052 810.354Q677.958 810.334 668.867 810.54Q658.573 810.668 648.29 810.162C648.67 801.161 647.559 791.897 647.476 782.856L647.524 711.765C652.199 705.618 659.445 699.681 666.255 696.059Z"/>
	<path fill="#162425" d="M665.625 743.555C667.878 743.471 670.083 743.383 672.214 744.23C675.083 745.371 677.409 747.533 678.495 750.453Q678.69 750.986 678.83 751.537Q678.969 752.087 679.051 752.649Q679.133 753.211 679.157 753.779Q679.181 754.346 679.147 754.913Q679.112 755.48 679.02 756.04Q678.927 756.6 678.778 757.148Q678.628 757.696 678.423 758.226Q678.218 758.755 677.96 759.261C676.194 762.733 673.43 764.335 669.883 765.597C668.934 765.596 668.049 765.525 667.13 765.285C663.543 764.347 659.832 761.805 658.068 758.495C656.817 756.147 656.509 753.514 657.427 750.996C658.852 747.086 662.046 745.21 665.625 743.555Z"/>
	<path fill="#FDFCFC" d="M360.598 696.047C361.918 695.958 363.286 695.855 364.579 696.207C370.953 697.94 378.865 707.032 382.111 712.405C382.971 724.392 382.548 736.724 382.549 748.747C382.551 769.221 382.526 789.958 381.433 810.4L363.769 810.456L341.963 810.393L341.801 743.652C341.741 733.255 341.359 722.883 341.541 712.482C347.054 706.585 353.189 699.468 360.598 696.047Z"/>
	<path fill="#162425" d="M360.118 743.61C362.592 743.475 365.253 743.5 367.549 744.543Q368.072 744.777 368.568 745.064Q369.064 745.35 369.529 745.685Q369.993 746.02 370.421 746.401Q370.849 746.781 371.237 747.203Q371.624 747.625 371.966 748.084Q372.309 748.543 372.603 749.035Q372.897 749.526 373.14 750.045Q373.382 750.564 373.571 751.105C374.517 753.904 374.333 757.08 372.938 759.696C371.261 762.844 368.646 764.509 365.317 765.48C362.936 765.564 361.036 765.58 358.884 764.458C355.705 762.8 353.169 759.883 352.116 756.441C351.326 753.857 351.468 751.13 352.794 748.75C354.396 745.874 357.082 744.515 360.118 743.61Z"/>
	<path fill="#FDFCFC" d="M515.687 695.467C515.987 695.504 516.286 695.545 516.582 695.599C524.166 696.982 532.356 707.063 536.506 713.09C537.645 727.046 536.954 741.744 536.838 755.741C536.687 773.86 536.868 792.028 536.346 810.139C530.003 810.469 523.603 810.391 517.25 810.451C510.443 810.473 503.676 810.496 496.889 811.071C495.416 793.696 495.949 775.844 495.826 758.417C495.716 742.68 494.869 727.022 496.149 711.298C501.705 705.718 508.466 698.652 515.687 695.467Z"/>
	<path fill="#162425" d="M513.567 743.557C515.169 743.48 516.831 743.372 518.417 743.669C521.101 744.172 523.715 745.886 525.257 748.134Q525.569 748.599 525.833 749.093Q526.096 749.587 526.308 750.105Q526.519 750.623 526.677 751.161Q526.835 751.698 526.938 752.248Q527.04 752.799 527.086 753.357Q527.132 753.915 527.122 754.474Q527.111 755.034 527.043 755.59Q526.975 756.146 526.851 756.692C525.857 761.073 522.825 763.918 519.149 766.214L518.842 766.191C517.462 766.103 516.057 766.046 514.72 765.662C511.174 764.645 507.814 762.285 506.14 758.939C504.836 756.333 504.63 753.186 505.691 750.461C507.122 746.788 510.08 744.983 513.567 743.557Z"/>
	<path fill="#FDFCFC" d="M157.508 630.552C158.045 634.628 159.72 641.579 156.908 644.931C155.148 647.03 139.957 651.246 136.203 652.672C119.407 659.052 102.461 665.315 86.0163 672.564C83.2316 673.792 72.2097 680.583 70.7961 680.777C69.9412 678.994 70.8243 603.858 70.83 596.627L71.4638 359.337Q71.501 331.398 71.2085 303.461C70.9686 288.83 70.2413 274.12 71.1934 259.51C74.8082 204.042 92.5575 160.065 134.974 122.998C160.489 100.702 194.119 84.5451 227.528 78.4905C238.802 76.4473 250.082 76.254 261.499 76.0411C280.535 75.6861 299.451 76.2893 318.474 76.5022L445.5 76.9136L650.893 76.102Q689.455 75.4994 728.02 75.7284C745.871 75.7584 763.764 75.6448 781.584 76.8807C811.64 78.9652 846.027 92.6009 870.352 110.146C882.605 118.984 893.705 129.623 903.604 141.015C927.041 167.984 941.569 201.537 948.119 236.523C953.166 263.481 951.351 292.222 951.293 319.53L951.431 420.507L951.416 610.291C951.2 634.721 952.539 659.59 950.808 683.949C944.424 680.296 931.323 675.438 926.77 670.785C925.26 669.242 924.941 666.922 924.665 664.856C923.09 653.087 923.814 640.508 923.629 628.633C923.44 616.481 922.597 604.325 922.948 592.171C926.571 592.772 930.156 593.653 933.358 591.292C936.369 589.072 938.885 585.37 939.43 581.634C939.748 579.455 939.406 577.323 938.122 575.508C933.528 569.014 926.245 563.908 920.5 558.442C911.207 549.6 901.721 539.579 894.069 529.272L893.691 528.756C894.939 523.372 896.069 517.95 896.371 512.417C896.766 505.165 896.273 497.893 897.033 490.653C897.604 485.213 899.635 479.85 900.589 474.415C899.252 472.065 897.929 469.624 895.525 468.192C891.352 465.705 851.366 466.902 845.435 468.399C843.522 468.882 839.78 469.845 838.831 471.794C836.825 475.915 840.766 484.74 842.013 488.978L840.164 489.701C833.972 492.122 828.799 495.904 823.74 500.169C811.888 510.161 799.942 520.862 788.932 531.769C783.001 537.644 777.522 543.992 771.523 549.793C763.269 557.774 753.45 564.613 745.963 573.316C744.269 575.285 743.258 576.644 743.113 579.348C742.944 582.49 744.34 585.457 746.411 587.755C749.668 591.369 752.651 592.562 757.366 592.788C757.438 603.738 758.289 614.694 758.117 625.633C744.467 622.408 728.144 619.673 714.168 617.404C708.111 616.42 677.136 613.14 675.179 611.218C676.224 608.107 686.886 603.241 689.926 600.942C699.6 593.626 708.832 584.716 716.476 575.316C743.337 542.287 748.821 510.957 756.013 470.645C758.027 459.356 760.84 443.361 764.936 432.755C766.842 427.822 769.499 422.857 772.311 418.381C776.512 411.695 785.716 402.044 784.53 393.396C784.306 391.769 783.573 390.403 782.231 389.426C776.874 385.528 765.756 387.817 759.599 388.916C754.902 386.447 751.562 382.57 747.68 379.071C741.365 373.377 731.475 370.104 723.09 369.504C716.552 369.036 710.768 370.504 705.811 374.975C695.175 384.57 693.835 401.044 692.939 414.359C692.185 420.03 689.239 425.6 686 430.27C684.518 431.767 682.821 433.076 681.202 434.425C671.362 434.869 661.888 433.042 652.541 437.199C640.102 442.732 632.864 455.414 630.624 468.46C629.911 472.611 630.196 477.455 628.662 481.355C627.764 482.186 627.823 482.297 626.619 482.288C623.073 480.246 623.274 472.31 621.277 468.584C618.703 463.783 615.26 458.615 610.95 455.192C608.223 453.025 603.27 452.601 601.614 449.27C600.495 447.017 600.657 444.252 600.56 441.798C600.254 434.134 599.185 425.781 593.88 419.819C584.12 408.851 565.249 408.313 552.161 412.385C548.159 413.631 544.636 417.567 540.246 417.154C537.833 416.926 535.652 415.658 534.126 413.819C533.789 412.248 533.828 411.357 534.755 409.989C538.912 403.858 548.108 399.253 554.24 395.129C576.915 379.879 586.811 377.163 612.737 388.149C616.505 389.746 620.895 391.531 625.057 390.715C633.214 389.115 635.814 373.251 639.977 366.797C650.34 350.73 666.684 347.413 684.566 351.098C689.309 352.075 695.676 354.518 700.493 353.35C702.599 352.839 704.72 351.767 705.779 349.788C707.015 347.479 706.546 344.603 705.72 342.245C704.374 338.4 702.045 334.815 699.931 331.349C695.083 323.4 689.605 316.253 682.926 309.738C669.313 296.459 643.013 280.111 625.936 271.898C601.568 260.179 580.651 259.909 554.841 266.38C549.841 267.634 544.6 268.719 539.755 270.46C533.26 272.792 527.837 277.026 522.355 281.105C504.988 294.029 499.099 311.979 496.607 332.735C495.529 341.714 494.816 349.922 490.962 358.245L488.007 353.48C482.844 350.472 475.794 349.649 470.02 348.306C473.855 341.246 479.454 335.59 481.848 327.694C483.846 321.105 482.34 314.404 479.108 308.504C471.073 293.831 463.129 287.509 447.25 282.923C454.559 279.436 460.508 277.242 466.591 271.626C477.187 261.845 483.831 248.511 484.361 233.964C485.062 214.691 469.482 208.977 454.124 203.687C451.134 202.657 447.273 201.803 445.087 199.417C444.866 198.71 444.555 198.33 444.851 197.61C445.693 195.568 447.321 193.613 448.546 191.746C451.61 187.079 454.498 182.42 456.388 177.148C462.8 159.264 467.187 137.208 458.492 119.259C455.454 112.988 450.426 106.755 443.617 104.509C427.549 99.2094 410.764 112.529 398.529 121.16C393.571 124.658 388.471 127.938 383.506 131.416C380.947 133.209 378.495 136.084 375.638 137.304C374.495 137.791 373.237 137.905 372.1 137.321C367.323 134.867 366.323 124.783 364.971 119.956C363.106 113.291 359.815 105.504 353.382 102.1C346.111 98.2534 335.479 99.0479 327.836 101.383C315.913 105.026 306.57 114.457 298.581 123.616C295.529 127.114 292.667 130.887 289.116 133.902C280.511 141.207 269.094 146.536 259.349 152.163C237.224 164.938 223.832 186.998 212.371 208.933C194.947 208.898 180.392 212.045 166.039 222.32C149.517 234.147 138.978 251.938 135.661 271.905C131.529 296.775 137.392 319.267 152.129 339.596C171.941 366.926 205.897 387.217 239.061 393.214C248.313 394.887 257.676 394.024 266.793 395.557C267 395.591 267.205 395.632 267.41 395.669C268.496 409.113 267.525 422.596 267.607 436.067L268.486 513.993L268.856 589.616C268.833 599.89 270.123 610.778 268.338 620.903C261.345 621.199 254.42 621.659 247.512 622.842C236.81 624.674 200.329 633.975 191.852 638.812L190.991 629.638C201.842 627.46 210.649 624.267 218.815 616.406Q219.62 615.632 220.385 614.82Q221.15 614.007 221.875 613.158Q222.599 612.308 223.28 611.424Q223.961 610.54 224.598 609.623Q225.235 608.706 225.826 607.759Q226.416 606.812 226.959 605.836Q227.502 604.861 227.996 603.86Q228.49 602.859 228.934 601.835Q229.378 600.811 229.77 599.766Q230.163 598.721 230.504 597.658Q230.844 596.595 231.131 595.516Q231.419 594.437 231.653 593.346Q231.886 592.254 232.066 591.153Q232.245 590.051 232.37 588.942Q232.494 587.832 232.564 586.718Q232.634 585.604 232.648 584.488C232.796 574.219 231.878 558.96 225.213 550.658C222.627 547.437 218.994 545.062 216.125 542.057L215.667 541.571C215.194 535.203 215.579 528.72 215.637 522.336C215.755 509.339 211.144 497.583 201.929 488.323C194.217 480.575 183.136 476.538 172.254 476.594Q171.166 476.609 170.079 476.678Q168.993 476.746 167.911 476.867Q166.83 476.988 165.755 477.162Q164.681 477.336 163.616 477.561Q162.551 477.787 161.499 478.065Q160.446 478.343 159.409 478.671Q158.371 479 157.351 479.378Q156.33 479.757 155.329 480.185Q154.329 480.613 153.35 481.09Q152.371 481.566 151.417 482.089Q150.463 482.613 149.535 483.182Q148.608 483.752 147.709 484.366Q146.81 484.98 145.942 485.637Q145.074 486.294 144.24 486.992Q143.405 487.691 142.605 488.429Q141.806 489.167 141.043 489.944C126.086 505.163 130.706 519.885 130.896 539.151C121.983 550.137 114.78 550.423 113.018 566.872C111.385 582.123 114.861 601.006 124.692 613.125C133.613 624.123 143.647 629.113 157.508 630.552Z"/>
	<path fill="#162425" d="M828.819 239.683C829.178 239.633 829.537 239.578 829.898 239.555C838.77 238.986 847.944 243.514 854.476 249.219C863.465 257.07 864.911 262.926 865.718 274.46C871.098 275.062 878.115 274.792 882.066 279.101C883.587 280.759 884.368 282.823 884.218 285.078C884.001 288.354 881.97 291.518 879.568 293.655C877.884 295.153 875.914 296.257 873.7 296.737C866.401 298.319 834.878 296.15 825.695 295.721C818.064 295.668 810.386 295.541 802.761 295.826C795.426 296.1 787.184 297.461 779.967 296.381C777.444 296.004 775.148 294.694 773.265 293.01C770.847 290.847 768.568 287.678 768.455 284.314C768.376 281.99 769.538 279.809 771.13 278.177C776.626 272.543 788.486 274.194 795.671 274.244C796.775 266.754 797.768 258.528 802.623 252.399C808.963 244.395 819.052 240.935 828.819 239.683Z"/>
	<path fill="#FDFCFC" d="M829.366 258.633C832.734 258.798 835.614 259.464 838.525 261.227C844.367 264.767 848.855 270.597 850.513 277.208C845.332 277.487 840.044 277.174 834.854 277.076Q823.45 276.999 812.049 277.232C813.066 274.056 814.059 271.036 815.833 268.179C819.092 262.93 823.369 259.934 829.366 258.633Z"/>
	<path fill="#162425" d="M709.352 112.673C709.651 112.627 709.949 112.569 710.249 112.533C723.245 111.015 739.005 115.174 749.329 123.244C759.086 130.87 765.467 141.703 766.879 153.937Q770.337 153.435 773.824 153.208C786.915 152.403 798.82 154.202 808.873 163.193C814.159 167.921 820.98 176.091 821.219 183.502C821.346 187.418 819.484 191.06 816.741 193.77Q816.219 194.281 815.663 194.755Q815.107 195.228 814.519 195.661Q813.932 196.094 813.315 196.485Q812.698 196.876 812.055 197.223Q811.412 197.569 810.747 197.87Q810.081 198.171 809.397 198.424Q808.712 198.678 808.011 198.882Q807.31 199.087 806.596 199.242C798.381 201.113 788.468 200.511 780.04 200.537C762.886 200.59 745.739 200.132 728.584 200.061C717.395 200.111 706.206 199.768 695.016 199.824C674.966 199.924 654.826 200.371 634.778 199.802C628.575 199.625 623.346 198.914 618.957 194.042C616.048 190.812 614.068 186.702 614.478 182.278C615.183 174.678 620.092 167.34 625.938 162.637C637.284 153.51 649.358 152.977 663.171 154.372C665.505 147.165 667.983 140.711 672.565 134.584C681.926 122.064 693.878 114.836 709.352 112.673Z"/>
	<path fill="#FDFCFC" d="M711.286 130.631C716.289 130.122 721.213 130.618 725.969 132.271C737.109 136.141 746.135 145.143 748.824 156.788C749.78 160.927 749.837 165.72 751.677 169.559C760.061 175.329 777.076 171.421 787.416 173.972C793.073 175.368 795.56 178.214 798.373 182.981C790.731 183.033 782.962 182.349 775.306 182.114Q749.348 181.221 723.375 181.012C708.462 180.994 693.6 179.816 678.684 180.905C672.626 181.347 642.319 183.713 638.676 182.57C637.585 182.228 637.509 182.053 637.018 181.101C637.228 180.438 637.239 180.299 637.622 179.634C642.227 171.623 663.774 175.592 671.48 174.081C680.479 172.316 680.905 162.456 683.325 155.383Q684.296 152.535 685.662 149.854Q687.028 147.173 688.761 144.713C694.369 136.812 701.77 132.28 711.286 130.631Z"/>
</svg>
