<?xml version="1.0" encoding="utf-8" ?>
<svg xmlns="http://www.w3.org/2000/svg" xmlns:xlink="http://www.w3.org/1999/xlink" width="1024" height="1024">
	<path fill="#FEFEFE" d="M165.1 994.48C168.019 993.155 195.864 993.045 199.2 994.079C199.819 994.271 200.001 994.457 200.565 994.83C196.422 996.06 169.964 996.016 164.97 995.394L165.1 994.48Z"/>
	<path fill="#566063" d="M482.781 21.6717C484.289 20.8712 485.766 20.1457 487.452 19.8033C493.374 18.6006 508.735 18.7085 514.634 20.1258C513.384 20.9574 512.123 21.2858 510.876 22.0092C507.437 21.36 503.722 21.5395 500.222 21.4904C495.325 20.8713 490.572 21.8317 485.69 22.1805L485.559 22.5297L484.332 22.7716L482.781 21.6717Z"/>
	<path fill="#51565B" d="M514.634 20.1258L515.709 19.8083C515.94 20.025 516.133 20.2928 516.403 20.4583C518.718 21.8756 523.059 22.5392 525.723 23.4182C535.894 26.7739 542.353 32.4478 549.162 40.502L546.906 40.9029C544.205 38.4969 541.858 35.8034 538.95 33.6105C532.164 28.4935 519.296 23.2572 510.876 22.0092C512.123 21.2858 513.384 20.9574 514.634 20.1258Z"/>
	<path fill="#566063" d="M28.8518 469.804L29.5744 471.229C26.3588 477.929 17.5 480.834 15.8501 489.431C16.6221 490.501 16.8994 490.622 17.1357 491.981C15.9249 494.826 14.5816 497.553 14.4368 500.689C13.7262 503.228 13.2216 507.602 11.7113 509.6L11.1697 509.401L10.8376 507.774C10.9234 506.29 11.0967 505.046 10.441 503.656L9.62854 503.546Q9.29214 506.087 8.83821 508.609C8.46792 507.496 8.49374 506.613 8.49983 505.45C8.57989 490.145 18.7139 479.89 28.8518 469.804Z"/>
	<path fill="#51565B" d="M10.8376 507.774L11.1697 509.401L11.7113 509.6C13.2216 507.602 13.7262 503.228 14.4368 500.689C14.2975 504.875 13.9656 509.531 12.4398 513.482C11.7838 522.896 15.9163 539.493 22.0139 546.902C24.4517 549.864 29.0524 552.761 30.495 556.272L30.3454 558.097C29.6731 557.584 29.0486 557.095 28.2834 556.728C27.7662 556.48 27.2261 556.264 26.7214 555.991C21.0497 552.918 13.9966 538.701 12.2482 532.655C10.3809 527.97 8.93254 518.913 9.44494 513.911C9.65094 511.9 10.3824 509.754 10.8376 507.774Z"/>
	<path fill="#51565B" d="M549.162 40.502C563.092 56.9643 580.962 69.5493 594.539 86.4021C591.852 86.6469 590.167 84.136 587.927 82.8601L587.521 82.6338C581.045 77.5268 576.182 70.3722 570.265 64.6799C566.244 60.8124 561.036 58.143 557.316 53.968C553.448 49.6275 551.495 44.7863 546.906 40.9029L549.162 40.502Z"/>
	<path fill="#566063" d="M134.678 364.838C141.852 358.713 148.395 351.998 155.067 345.341C158.542 341.875 162.455 338.458 165.462 334.589C166.24 333.587 166.978 332.773 167.917 331.918L168.836 332.583L168.988 332.369L169.68 332.966L168.313 335.512C169.763 335.88 169.657 335.825 170.426 337.112C167.812 341.558 163.974 345.502 159.874 348.632C155.161 353.274 150.501 358.413 145.391 362.593C142.467 363.912 139.67 364.572 136.633 365.515C136.36 365.599 136.077 365.649 135.799 365.716L134.678 364.838Z"/>
	<path fill="#FEFEFE" d="M320.773 993.943C330.807 992.988 341.466 993.669 351.588 993.648L416.157 993.683L499.92 993.702C516.65 993.691 533.755 992.869 550.428 994.308C549.008 995.224 547.959 995.358 546.282 995.448C537.41 995.929 528.316 995.554 519.424 995.55L466.25 995.548L388.035 995.527C371.032 995.54 353.928 995.926 336.94 995.38C328.834 995.815 320.619 995.572 312.494 995.685C302.568 995.822 279.652 997.172 270.988 994.903C271.763 994.392 272.417 994.04 273.35 993.916C278.461 993.242 284.293 993.744 289.48 993.754Q305.127 993.758 320.773 993.943Z"/>
	<path fill="#51565B" d="M134.678 364.838L135.799 365.716C136.077 365.649 136.36 365.599 136.633 365.515C139.67 364.572 142.467 363.912 145.391 362.593C141.23 367.037 135.814 369.731 131.453 373.898C121.738 383.18 112.545 393.044 103.074 402.572C99.383 406.286 95.4178 409.706 91.7104 413.395C88.3878 416.701 85.5031 420.435 82.156 423.714C78.6067 427.19 74.8391 430.432 71.3285 433.955C64.5623 440.745 58.1189 447.86 51.3162 454.609C39.9196 465.915 24.8252 478.039 17.1357 491.981C16.8994 490.622 16.6221 490.501 15.8501 489.431C17.5 480.834 26.3588 477.929 29.5744 471.229L28.8518 469.804C31.951 466.045 35.9485 462.581 39.4072 459.123L61.3762 437.195L134.678 364.838Z"/>
	<path fill="#28363E" d="M678.437 92.3621C680.312 90.3465 682.297 88.3471 684.474 86.6542C688.489 83.533 694.495 81.6316 699.517 80.9916C707.105 80.0247 715.109 80.4029 722.754 80.3708L768.5 80.5446L812.754 80.2035C823.111 80.1367 833.444 79.8107 843.757 81.0036C847.936 81.4869 854.375 83.5892 857.105 87.0109C864.078 91.9705 869.961 98.2024 871.347 106.995C871.875 110.343 871.934 113.704 872.645 117.029C872.82 117.851 872.753 117.502 872.808 118.585C873.698 151.038 872.594 183.45 872.669 215.897C872.69 225.391 873.528 234.874 873.724 244.367C873.987 257.027 873.242 269.695 873.086 282.355C872.997 289.629 873.592 296.971 873.321 304.219C873.25 306.11 873.244 307.911 872.134 309.474C868.237 306.901 865.063 301.253 861.97 297.675C858.826 294.038 855.446 290.613 852.055 287.209C838.925 274.022 824.629 261.985 811.701 248.595C792.488 228.697 774.62 206.82 753.387 188.932C749.09 185.629 745.407 181.383 741.447 177.67C735.945 173.6 731.395 168.219 726.075 163.897C723.621 161.904 719.221 159.575 717.743 156.836C714.869 151.507 698.782 138.852 693.213 134.543C690.674 132.578 687.712 130.88 685.367 128.707C683.53 127.005 681.99 124.884 680.52 122.859C678.842 120.547 677.217 119.057 674.978 117.332C673.906 116.619 672.695 115.91 671.725 115.064C670.603 114.086 670.011 113.385 669.99 111.838C669.923 106.899 675.04 95.9606 678.437 92.3621Z"/>
	<path fill="#566063" d="M741.447 177.67C744.592 177.422 746.331 178.696 748.666 180.79C750.603 182.527 753.456 185.701 753.421 188.419C753.418 188.59 753.398 188.761 753.387 188.932C749.09 185.629 745.407 181.383 741.447 177.67Z"/>
	<path fill="#566063" d="M678.437 92.3621L679.631 93.5707C680.353 93.272 680.672 93.0348 681.277 92.5178C681.948 91.9445 682.158 91.8271 683.001 91.6931C676.606 98.4374 676.925 103.006 672.314 109.488C673.319 111.57 675.669 115.062 674.978 117.332C673.906 116.619 672.695 115.91 671.725 115.064C670.603 114.086 670.011 113.385 669.99 111.838C669.923 106.899 675.04 95.9606 678.437 92.3621Z"/>
	<path fill="#51565B" d="M840.19 83.2645C843.256 82.1759 846.938 83.5642 849.776 84.9204C851.502 85.7455 857.518 90.2359 858.608 89.9804C858.189 88.9086 857.685 87.9991 857.105 87.0109C864.078 91.9705 869.961 98.2024 871.347 106.995C871.875 110.343 871.934 113.704 872.645 117.029C872.82 117.851 872.753 117.502 872.808 118.585L872.249 119.542C868.715 113.495 868.344 109.604 868.439 102.719C859.352 92.8523 854.277 85.6027 840.19 83.2645Z"/>
	<defs>
		<linearGradient id="gradient_0" gradientUnits="userSpaceOnUse" x1="767.9162" y1="77.228813" x2="769.02185" y2="95.821014">
			<stop offset="0" stop-color="#565664"/>
			<stop offset="1" stop-color="#5A6262"/>
		</linearGradient>
	</defs>
	<path fill="url(#gradient_0)" d="M678.437 92.3621C680.312 90.3465 682.297 88.3471 684.474 86.6542C688.489 83.533 694.495 81.6316 699.517 80.9916C707.105 80.0247 715.109 80.4029 722.754 80.3708L768.5 80.5446L812.754 80.2035C823.111 80.1367 833.444 79.8107 843.757 81.0036C847.936 81.4869 854.375 83.5892 857.105 87.0109C857.685 87.9991 858.189 88.9086 858.608 89.9804C857.518 90.2359 851.502 85.7455 849.776 84.9204C846.938 83.5642 843.256 82.1759 840.19 83.2645C833.241 84.1541 825.616 83.523 818.595 83.463C806.571 83.3603 794.519 83.6037 782.501 83.3187C778.073 83.2137 773.673 82.5891 769.248 82.4946C764.192 82.3865 759.087 83.0217 754.023 83.1244C745.083 83.3056 736.138 83.1485 727.198 83.2399C717.85 83.3355 707.547 82.1196 698.394 83.9573C692.526 85.1356 687.404 87.6576 683.001 91.6931C682.158 91.8271 681.948 91.9445 681.277 92.5178C680.672 93.0348 680.353 93.272 679.631 93.5707L678.437 92.3621Z"/>
	<path fill="#28363E" d="M482.781 21.6717L484.332 22.7716L485.559 22.5297L485.69 22.1805C490.572 21.8317 495.325 20.8713 500.222 21.4904C503.722 21.5395 507.437 21.36 510.876 22.0092C519.296 23.2572 532.164 28.4935 538.95 33.6105C541.858 35.8034 544.205 38.4969 546.906 40.9029C551.495 44.7863 553.448 49.6275 557.316 53.968C561.036 58.143 566.244 60.8124 570.265 64.6799C576.182 70.3722 581.045 77.5268 587.521 82.6338L587.927 82.8601C590.167 84.136 591.852 86.6469 594.539 86.4021C596.859 88.3755 598.851 90.6745 600.895 92.9242C605.924 97.1382 610.133 102.316 614.694 107.012C617.924 110.891 620.978 114.709 624.676 118.181C627.723 121.042 631.11 123.515 634.144 126.377C639.212 130.718 644.397 136.117 648.47 141.388C652.221 144.06 659.528 152.218 663.107 155.962C669.651 160.632 674.495 167.049 680.656 172.045C687.168 176.503 699.908 190.668 706.43 197.201C718.184 208.976 730.181 220.307 742.374 231.614C751.404 240.697 760.858 249.332 769.967 258.328L857.152 345.645Q867.044 355.584 877.234 365.218C881.834 369.638 886.937 374.157 890.805 379.239Q901.757 390.161 913.2 400.567C915.665 402.813 918.383 404.797 920.785 407.107C927.268 413.344 933.095 420.531 939.49 426.94C952.057 439.535 964.958 451.797 977.448 464.463C983.298 470.396 989.598 476.294 994.753 482.847C997.369 486.173 1000.03 490.253 1001.74 494.129L1001.82 494.598C1003.2 498.038 1003.5 501.7 1004.4 505.267C1007.17 517.459 1003.02 531.812 996.525 542.16C989.387 553.529 988.153 556.107 976.175 562.154C972.115 564.204 967.974 566.026 963.519 567.029C953.249 569.34 934.3 567.531 925.311 561.739C920.245 558.474 899.276 536.228 898.56 536.105C895.397 529.467 865.668 502.625 858.528 495.778L822.115 460.638L723.805 364.334L572.142 214.824C559.28 202.16 546.903 188.935 533.85 176.476C528.043 170.934 513.783 157.032 507.452 153.67C504.523 153.957 502.222 155.702 500.049 157.585C491.816 164.719 484.276 172.651 476.411 180.172C458.154 197.628 440.183 215.268 422.316 233.111L331.501 322.259L210.137 442.278C178.685 472.825 146.436 502.537 116.712 534.814C113.146 539.3 108.855 543.316 104.812 547.375C93.6928 558.537 84.1924 567.28 67.8165 569.104C55.7957 570.442 40.6181 566.94 31.2641 558.975C30.7409 558.53 30.7468 558.518 30.3454 558.097L30.495 556.272C29.0524 552.761 24.4517 549.864 22.0139 546.902C15.9163 539.493 11.7838 522.896 12.4398 513.482C13.9656 509.531 14.2975 504.875 14.4368 500.689C14.5816 497.553 15.9249 494.826 17.1357 491.981C24.8252 478.039 39.9196 465.915 51.3162 454.609C58.1189 447.86 64.5623 440.745 71.3285 433.955C74.8391 430.432 78.6067 427.19 82.156 423.714C85.5031 420.435 88.3878 416.701 91.7104 413.395C95.4178 409.706 99.383 406.286 103.074 402.572C112.545 393.044 121.738 383.18 131.453 373.898C135.814 369.731 141.23 367.037 145.391 362.593C150.501 358.413 155.161 353.274 159.874 348.632C163.974 345.502 167.812 341.558 170.426 337.112C169.657 335.825 169.763 335.88 168.313 335.512L169.68 332.966L168.988 332.369L168.836 332.583L167.917 331.918C170.924 327.297 176.493 322.429 180.9 319.098C185.476 315.959 189.846 310.51 193.808 306.558L225.607 274.679L296.345 203.987C318.451 182.002 340.955 160.189 362.204 137.403C364.768 134.01 368.343 130.883 371.336 127.827C382.041 116.9 393.588 106.89 404.391 96.0521C408.696 91.7337 412.477 86.9238 416.817 82.6674C420.144 79.4046 423.771 76.447 427.14 73.2235C434.763 65.9297 442.313 58.2971 449.7 50.7592C455.638 44.7007 460.615 37.5594 466.868 31.837C471.525 27.5747 477.058 24.2723 482.781 21.6717Z"/>
	<path fill="#51565B" d="M1004.4 505.267C1003.55 504.959 1002.27 504.604 1001.62 503.962C1000.68 503.032 1000.07 500.718 1000.1 499.409C1000.15 497.465 1000.45 495.943 1001.82 494.598C1003.2 498.038 1003.5 501.7 1004.4 505.267Z"/>
	<path fill="#566063" d="M587.521 82.6338L587.927 82.8601C590.167 84.136 591.852 86.6469 594.539 86.4021C596.859 88.3755 598.851 90.6745 600.895 92.9242C600.481 93.1672 599.964 93.3034 599.513 93.4675C595.48 92.2435 590.431 85.6984 587.521 82.6338Z"/>
	<path fill="#566063" d="M634.144 126.377C639.212 130.718 644.397 136.117 648.47 141.388C648.296 141.443 648.128 141.526 647.948 141.553C645.058 141.998 634.085 128.852 630.924 126.784L634.144 126.377Z"/>
	<path fill="#566063" d="M663.107 155.962C669.651 160.632 674.495 167.049 680.656 172.045C680.6 174.175 681.163 175.138 682.102 176.999C682.185 177.164 682.258 177.334 682.336 177.501C675.829 170.709 668.616 164.525 662.711 157.176L663.107 155.962Z"/>
	<path fill="#51565B" d="M614.694 107.012C617.924 110.891 620.978 114.709 624.676 118.181C627.723 121.042 631.11 123.515 634.144 126.377L630.924 126.784C624.042 122.676 619.757 117.752 614.684 111.698C614.419 110.029 614.076 108.649 614.694 107.012Z"/>
	<path fill="#51565B" d="M180.9 319.098C180.875 319.317 180.867 319.538 180.824 319.753C180.601 320.883 180.081 321.451 179.403 322.348L180.103 322.638C180.38 322.503 180.647 322.346 180.934 322.234C181.817 321.888 183.057 321.894 183.984 321.879C185.103 321.862 185.827 321.524 186.856 321.117C186.722 321.245 186.59 321.376 186.454 321.502C182.943 324.775 178.352 326.785 174.978 330.138C173.13 331.974 172.223 335.67 170.426 337.112C169.657 335.825 169.763 335.88 168.313 335.512L169.68 332.966L168.988 332.369L168.836 332.583L167.917 331.918C170.924 327.297 176.493 322.429 180.9 319.098Z"/>
	<path fill="#51565B" d="M680.656 172.045C687.168 176.503 699.908 190.668 706.43 197.201C718.184 208.976 730.181 220.307 742.374 231.614L739.848 232.198C734.405 228.763 730.231 224.202 725.506 219.921C710.574 206.39 696.541 191.793 682.336 177.501C682.258 177.334 682.185 177.164 682.102 176.999C681.163 175.138 680.6 174.175 680.656 172.045Z"/>
	<path fill="#51565B" d="M890.805 379.239Q901.757 390.161 913.2 400.567C915.665 402.813 918.383 404.797 920.785 407.107C927.268 413.344 933.095 420.531 939.49 426.94C952.057 439.535 964.958 451.797 977.448 464.463C983.298 470.396 989.598 476.294 994.753 482.847C997.369 486.173 1000.03 490.253 1001.74 494.129C1001.38 494.069 1001 494.058 1000.65 493.956C1000.34 493.868 1000.04 493.752 999.751 493.611C996.39 491.97 992.864 484.789 990.335 481.823C985.413 476.051 979.649 470.436 974.18 465.142C959.232 450.672 944.733 435.721 929.89 421.138L909.318 400.86C902.701 394.336 894.902 387.46 890.06 379.475L890.805 379.239Z"/>
	<path fill="#51565B" d="M482.781 21.6717L484.332 22.7716L485.559 22.5297L485.69 22.1805C490.572 21.8317 495.325 20.8713 500.222 21.4904C491.343 23.597 479.841 27.4475 472.532 33.014C463.975 39.5316 458.978 49.3797 451.498 57.0069C444.081 64.57 436.578 72.2527 428.853 79.4924C425.478 82.6551 421.727 85.4761 418.446 88.7149C416.016 91.1125 414.302 94.2439 412.056 96.8199C407.366 102.199 400.651 108.323 395.316 113.295C391.883 116.494 387.18 118.12 383.814 121.393C378.973 126.099 374.144 131.128 369.887 136.371C366.718 140.275 363.768 145.058 360.086 148.442C360.632 147.033 361.054 145.639 361.446 144.181L361.147 144.033C360.212 144.904 360.727 144.57 359.62 145.062C359.796 142.917 361.349 142.685 362.311 141.082C363.139 139.704 362.697 138.786 362.204 137.403C364.768 134.01 368.343 130.883 371.336 127.827C382.041 116.9 393.588 106.89 404.391 96.0521C408.696 91.7337 412.477 86.9238 416.817 82.6674C420.144 79.4046 423.771 76.447 427.14 73.2235C434.763 65.9297 442.313 58.2971 449.7 50.7592C455.638 44.7007 460.615 37.5594 466.868 31.837C471.525 27.5747 477.058 24.2723 482.781 21.6717Z"/>
	<path fill="#566063" d="M180.9 319.098C185.476 315.959 189.846 310.51 193.808 306.558L225.607 274.679L296.345 203.987C318.451 182.002 340.955 160.189 362.204 137.403C362.697 138.786 363.139 139.704 362.311 141.082C361.349 142.685 359.796 142.917 359.62 145.062C360.727 144.57 360.212 144.904 361.147 144.033L361.446 144.181C361.054 145.639 360.632 147.033 360.086 148.442C355.476 151.893 351.479 156.805 347.461 160.938C340.995 167.587 334.4 174.186 327.77 180.673C306.365 201.619 285.563 223.202 264.322 244.31L222.213 286.19L196.826 311.505C193.851 314.446 190.343 318.891 186.856 321.117C185.827 321.524 185.103 321.862 183.984 321.879C183.057 321.894 181.817 321.888 180.934 322.234C180.647 322.346 180.38 322.503 180.103 322.638L179.403 322.348C180.081 321.451 180.601 320.883 180.824 319.753C180.867 319.538 180.875 319.317 180.9 319.098Z"/>
	<path fill="#FEFEFE" d="M116.712 534.814C146.436 502.537 178.685 472.825 210.137 442.278L331.501 322.259L422.316 233.111C440.183 215.268 458.154 197.628 476.411 180.172C484.276 172.651 491.816 164.719 500.049 157.585C502.222 155.702 504.523 153.957 507.452 153.67C513.783 157.032 528.043 170.934 533.85 176.476C546.903 188.935 559.28 202.16 572.142 214.824L723.805 364.334L822.115 460.638L858.528 495.778C865.668 502.625 895.397 529.467 898.56 536.105C897.187 540.65 898.863 547.327 898.959 552.194C899.13 560.923 899.032 569.674 899.031 578.407C899.03 584.455 899.308 590.654 898.746 596.673L899.589 849.811Q900.15 884.913 899.876 920.018C899.884 929.4 900.935 943.208 899.282 951.897C897.515 961.19 888.922 971.972 882.321 978.434C878.025 982.639 873.44 986.119 867.937 988.579C867.821 988.891 867.733 989.217 867.588 989.517C867.031 990.672 862.341 991.298 861.03 991.582C847.709 994.47 834.608 993.74 821.087 993.901Q786.755 994.247 752.422 994.013L611.36 994.124C591.093 994.118 570.673 994.706 550.428 994.308C533.755 992.869 516.65 993.691 499.92 993.702L416.157 993.683L351.588 993.648C341.466 993.669 330.807 992.988 320.773 993.943Q305.127 993.758 289.48 993.754C284.293 993.744 278.461 993.242 273.35 993.916C272.417 994.04 271.763 994.392 270.988 994.903C268.484 993.111 263.193 994.125 260.163 994.625C259.322 994.763 258.662 995.05 257.865 995.255C257.771 995.28 257.671 995.256 257.573 995.256C244.14 996.652 229.89 996.171 216.429 995.3C216.12 995.198 215.807 995.108 215.502 994.994C214.001 994.432 212.733 994.334 211.131 994.247C208.833 994.122 202.153 993.4 200.565 994.83C200.001 994.457 199.819 994.271 199.2 994.079C195.864 993.045 168.019 993.155 165.1 994.48C163.627 993.554 161.613 993.211 159.936 992.719C153.937 990.958 147.314 989.437 142.424 985.324C135.683 980.347 129.193 973.457 125.271 966.005C120.778 957.996 118.462 948.148 117.655 938.989C117.002 931.585 117.423 923.797 117.333 916.345C117.086 895.904 117.399 875.471 117.375 855.031L117.32 688.44L117.272 628.152C117.245 614.811 117.508 601.424 116.681 588.103C114.758 577.877 117.483 568.95 117.887 558.899C118.2 551.112 117.154 543.322 116.748 535.604L116.712 534.814Z"/>
	<path fill="#28363E" d="M519.896 340.927C522.285 340.856 524.713 340.722 527.102 340.818C527.923 340.85 528.731 340.909 529.544 341.039C542.922 343.173 550.513 359.931 556.026 370.686C556.788 372.172 558.137 375.686 559.466 376.633C560.918 377.667 581.574 379.594 584.997 380.295C591.604 381.648 598.161 383.588 604.172 386.691C618.72 394.201 628.263 406.833 636.993 420.154C639.965 424.689 643.208 430.219 647.606 433.516C651.751 436.623 657.015 437.4 661.944 438.505C673.717 441.145 684.621 445.624 692.955 454.694C702.321 464.887 705.339 479.997 704.682 493.497C703.877 510.031 693.812 527.708 681.647 538.659C673.131 546.326 656.344 553.051 644.848 549.479C641.015 548.288 637.831 545.063 633.847 544.255C625.214 542.505 615.76 542.402 606.969 541.552C601.802 541.052 596.457 539.919 591.292 539.8C589.049 539.748 587.324 539.883 585.59 541.468C584.28 543.977 585.163 547.232 585.542 549.926C589.972 581.435 615.29 611.623 627.486 641.001C634.564 658.049 639.883 677.035 640.66 695.498C641.355 712.032 638.516 726.632 633.72 742.307C632.629 745.873 631.654 749.942 629.988 753.27C628.12 757.002 624.961 759.944 622.844 763.515C618.59 770.688 615.052 777.195 609.293 783.399C599.498 793.952 588.919 804.496 577.015 812.653C562.669 822.484 534.584 833.323 517.417 837.139C509.865 838.818 501.856 839.681 494.133 839.93C436.91 841.772 394.854 837.659 351.3 796.484C334.974 781.05 315.867 758.948 315.256 735.341C313.584 735.874 311.901 736.393 310.193 736.801C303.787 738.332 279.085 742.635 274.374 739.782C273.745 737.394 274.222 734.698 274.537 732.278C275.835 722.306 278.27 712.467 279.794 702.51C281.531 691.166 282.669 677.832 284.954 666.934C285.734 663.213 286.89 659.84 288.523 656.412C294.742 660.249 300.376 665.092 306.465 669.164C320.069 678.264 335.191 685.991 346.626 697.951C348.646 700.063 352.506 704.295 351.823 707.448C350.249 714.716 332.063 721.612 326.006 724.78C323.987 725.836 322.138 727.204 320.303 728.547L327.368 725.754C334.142 727.722 339.542 731.907 345.169 735.977C360.453 745.512 374.271 755.498 393.065 754.899C395.294 749.226 398.494 743.209 403.934 740.039C407.3 738.076 410.985 737.668 414.712 738.788C423.544 741.444 428.325 748.887 432.419 756.492C441.747 754.804 450.301 751.065 458.145 745.701C459.881 744.513 462.247 742.583 462.474 740.306C462.961 735.421 455.935 730.112 453.146 726.379C450.553 722.909 448.971 718.87 449.741 714.498C450.35 711.043 452.509 707.219 455.483 705.273C460.246 702.156 468.813 703.199 473.895 705.259C476.789 706.432 480.166 708.615 483.278 708.995C484.65 709.162 485.604 708.874 486.581 707.885C489.473 704.959 492.225 696.841 492.858 692.934C493.316 690.107 493.119 686.924 493.14 684.054C483.108 676.059 475.33 666.229 463.95 659.949C449.347 651.889 433.994 655.454 420.62 664.017C415.882 667.05 410.941 671.224 405.436 672.639C402.082 673.501 398.545 673.072 395.609 671.178C388.852 666.818 389.116 657.397 387.641 650.343C386.014 642.556 382.374 636.165 375.522 631.866C359.284 621.68 342.503 636.388 326.996 640.191C325.691 639.848 324.34 639.519 323.113 638.948C319.32 637.182 317.315 634.124 315.811 630.357C316.354 627.329 316.866 624.264 317.594 621.274C322.02 603.095 343.826 576.014 357.908 563.744C366.261 556.466 375.514 550.471 384.95 544.717C393.232 539.667 407.089 530.806 417.124 533.516C419.747 534.224 423.033 536.258 424.709 538.388C428.507 543.215 430.284 551.099 432.761 556.764C434.643 561.068 436.95 565.202 439.365 569.226C447.692 583.107 462.194 601.217 475.175 610.888C479.142 613.843 483.535 616.137 487.899 618.444C491.335 620.26 495.108 622.507 498.916 623.372C500.68 623.773 502.826 623.974 504.312 622.706C505.425 621.756 505.858 620.211 506.056 618.816C506.485 615.801 506.085 612.556 506.083 609.5C506.079 603.263 506.209 597.084 505.991 590.843C498.802 589.611 480.609 587.728 475.508 582.76C474.273 581.556 473.787 579.839 473.739 578.158C473.609 573.641 476.76 567.481 479.905 564.381C486.561 557.82 497.152 558.971 505.716 559.086C504.913 549.829 505.338 540.39 504.857 531.083C493.602 530.148 460.902 534.229 453.325 527.075C451.64 525.486 450.879 523.386 450.931 521.089C451.273 506.157 467.975 498.375 476.985 489.131C479.298 486.758 481.714 483.707 481.544 480.196C481.437 477.984 480.05 476.147 478.388 474.797C475.709 472.62 472.307 471.201 469.232 469.67C459.193 464.671 445.972 459.834 437.988 451.775C435.622 449.385 433.937 446.335 434.092 442.892C434.861 425.859 469.98 428.147 479.739 419.467C484.255 411.471 453.359 374.333 452.829 358.867C452.704 355.195 454.443 351.238 457.062 348.674C459.727 346.065 463.84 346.173 467.229 347.014C472.237 348.256 476.89 351.029 481.37 353.503C491.304 358.992 502.489 366.413 513.5 369.395C515.261 369.871 517.178 369.866 518.993 369.907C519.114 359.325 514.558 351.233 519.896 340.927Z"/>
	<path fill="#FEFEFE" d="M583.585 428.527C588.892 428.267 594.551 429.958 598.457 433.654C603.442 438.371 606.073 447.015 606.144 453.727C606.214 460.344 604.314 466.72 599.487 471.456C595.397 475.468 591.234 475.599 585.875 475.523C584.01 475.57 582.485 475.31 580.786 474.491C573.981 471.211 567.567 464.616 565.259 457.383C563.473 451.787 563.418 445.025 566.239 439.743C569.898 432.89 576.656 430.667 583.585 428.527Z"/>
	<path fill="#FEFEFE" d="M586.116 637.061C590.422 636.896 594.77 637.012 599.081 637.005C603.51 643.429 609.811 663.071 611.058 671.083C613.744 688.346 614.683 723.578 604.009 738.159C603.119 738.818 602.218 739.509 601.258 740.065C599.712 740.961 597.65 741.151 595.967 740.553C592.635 739.367 590.784 735.857 589.359 732.874C590.705 721.156 590.315 708.676 588.991 696.958C588.474 692.379 587.915 687.706 586.985 683.194C585.131 674.195 577.507 648.368 581.179 640.59C582.214 638.397 583.998 637.916 586.116 637.061Z"/>
	<path fill="#28363E" d="M811.935 504.46L864.365 560.498C875.795 572.563 887.589 584.355 898.746 596.673L899.589 849.811Q900.15 884.913 899.876 920.018C899.884 929.4 900.935 943.208 899.282 951.897C897.515 961.19 888.922 971.972 882.321 978.434C878.025 982.639 873.44 986.119 867.937 988.579C867.821 988.891 867.733 989.217 867.588 989.517C867.031 990.672 862.341 991.298 861.03 991.582C847.709 994.47 834.608 993.74 821.087 993.901Q786.755 994.247 752.422 994.013L611.36 994.124C591.093 994.118 570.673 994.706 550.428 994.308C533.755 992.869 516.65 993.691 499.92 993.702L416.157 993.683L351.588 993.648C341.466 993.669 330.807 992.988 320.773 993.943Q305.127 993.758 289.48 993.754C284.293 993.744 278.461 993.242 273.35 993.916C272.417 994.04 271.763 994.392 270.988 994.903C268.484 993.111 263.193 994.125 260.163 994.625C259.322 994.763 258.662 995.05 257.865 995.255C257.771 995.28 257.671 995.256 257.573 995.256C244.14 996.652 229.89 996.171 216.429 995.3C216.12 995.198 215.807 995.108 215.502 994.994C214.001 994.432 212.733 994.334 211.131 994.247C208.833 994.122 202.153 993.4 200.565 994.83C200.001 994.457 199.819 994.271 199.2 994.079C195.864 993.045 168.019 993.155 165.1 994.48C163.627 993.554 161.613 993.211 159.936 992.719C153.937 990.958 147.314 989.437 142.424 985.324C135.683 980.347 129.193 973.457 125.271 966.005C120.778 957.996 118.462 948.148 117.655 938.989C117.002 931.585 117.423 923.797 117.333 916.345C117.086 895.904 117.399 875.471 117.375 855.031L117.32 688.44L117.272 628.152C117.245 614.811 117.508 601.424 116.681 588.103L117.29 588.244C117.611 584.838 118.977 583.742 121.33 581.529L121.864 581.055C127.972 575.692 134.955 571.237 141.381 566.254C145.679 562.921 149.703 559.103 153.67 555.386C164.556 545.183 175.319 534.43 185.762 523.765C191.607 517.796 197.143 511.524 203.441 506.018C204.268 523.132 203.852 540.23 203.723 557.352C203.644 567.82 203.955 578.303 203.747 588.768C203.599 596.248 203.068 603.698 203.037 611.188C202.993 622.067 203.542 632.882 203.716 643.749C203.987 660.643 203.913 677.62 203.9 694.516C203.893 704.87 203.153 715.194 203.057 725.543Q202.64 781.885 203.642 838.218C203.825 857.587 202.955 877.27 204.112 896.584C204.267 899.167 204.187 904.773 206.01 906.766C207.455 908.345 209.843 908.861 211.857 909.17C221.681 910.677 231.846 910.053 241.753 910.362C267.427 911.163 292.996 910.724 318.659 911.067Q467.428 913.2 616.187 910.442C627.174 910.295 638.23 911.001 649.25 910.961L743.807 910.328L779.676 910.309C787.079 910.334 794.677 910.78 802.049 910.192C804.844 909.97 808.233 909.665 810.46 907.821C811.498 905.084 811.973 902.326 812.154 899.417C812.515 893.647 812.216 887.782 812.239 882.001L812.187 841.015L811.419 705.668L811.935 504.46Z"/>
	<path fill="#FEFEFE" d="M216.429 995.3L216.733 994.299C220.314 993.414 254.66 993.09 256.979 994.259C257.53 994.537 257.376 994.586 257.573 995.256C244.14 996.652 229.89 996.171 216.429 995.3Z"/>
	<path fill="#51565B" d="M121.33 581.529C119.374 590.599 120.749 605.936 120.598 615.798C119.992 655.568 120.494 695.297 120.498 735.067L120.442 883.23C120.442 892.688 120.401 902.388 120.057 911.835C119.794 919.089 119.103 926.281 119.443 933.547C119.64 937.763 123.478 956.888 125.269 960.418C127.288 963.979 129.087 968.367 131.55 971.575C134.28 975.13 143.328 980.247 142.52 985.018C142.502 985.123 142.456 985.222 142.424 985.324C135.683 980.347 129.193 973.457 125.271 966.005C120.778 957.996 118.462 948.148 117.655 938.989C117.002 931.585 117.423 923.797 117.333 916.345C117.086 895.904 117.399 875.471 117.375 855.031L117.32 688.44L117.272 628.152C117.245 614.811 117.508 601.424 116.681 588.103L117.29 588.244C117.611 584.838 118.977 583.742 121.33 581.529Z"/>
</svg>
