<?xml version="1.0" encoding="utf-8" ?>
<svg xmlns="http://www.w3.org/2000/svg" xmlns:xlink="http://www.w3.org/1999/xlink" width="1024" height="1024">
	<path fill="#05232A" d="M226.084 325.709C226.096 316.619 223.735 307.261 222.429 298.258C220.97 288.202 220.082 277.898 219.037 267.778L208.565 171.947C207.898 165.766 208.329 159.457 207.488 153.309C207.12 150.624 206.696 147.57 204.724 145.544C203.031 143.804 200.014 142.658 197.852 141.573C183.781 134.508 172.526 117.231 167.839 102.61C165.966 96.767 165.897 91.3255 165.875 85.248C165.832 72.8663 166.588 62.0351 172.455 50.7865C179.242 37.7747 186.636 31.2147 198.894 23.6082C204.18 20.3278 209.328 17.3681 215.311 15.5115C216.668 15.0903 218.17 14.608 219.59 14.5349C222.819 14.3685 226.158 15.0114 229.416 15.0136C235.701 15.0177 243.066 13.6488 249.165 14.9118C254.045 15.9224 259.058 18.1976 263.433 20.5422C274.624 26.5403 285.494 36.3205 291.719 47.5254C294.214 52.0172 295.89 56.9128 298.528 61.3421C313.516 57.9028 327.802 51.1906 342.702 47.2904C357.061 43.532 371.546 41.4703 386.196 39.4562C390.723 38.8336 395.055 37.2985 399.654 37.013C406.303 36.6003 413.127 36.9008 419.802 36.9026L454.885 36.9267C463.276 36.9729 471.374 38.2909 479.608 39.8009C483.935 40.5944 487.8 41.9132 492.259 41.8686C499.142 41.7998 505.665 44.5679 512.375 45.9343C525.177 48.5415 538.076 50.9751 550.752 54.1729C566.625 58.1773 582.289 62.9711 598.289 66.4647C612.264 69.5165 626.03 73.0544 640.368 73.9188C642.884 74.0705 645.147 74.0523 647.489 75.1213C653.595 77.9086 661.048 76.9609 667.68 76.9684C675.684 76.9773 684.02 77.4396 691.99 76.8266C696.461 76.4828 700.708 74.9195 705.13 74.3236Q715.85 72.9861 726.475 71.0313Q737.099 69.0765 747.594 66.511Q758.088 63.9454 768.416 60.7777Q778.744 57.6099 788.872 53.8506C803.509 48.2872 822.017 36.8001 837.894 43.793C845.228 47.0231 850.553 53.196 853.261 60.6632C856.76 70.3141 857.928 81.8876 853.444 91.3233C846.602 105.717 834.446 117.609 824.977 130.278C806.28 155.293 788.081 180.703 768.798 205.287C762.121 213.799 752.82 219.679 748.676 230.046C755.506 236.704 761.341 244.324 767.555 251.542C770.566 255.041 773.98 258.182 777.076 261.606C779.955 264.79 782.459 268.3 785.304 271.515C789.94 276.754 795.233 281.609 800.191 286.554C805.939 292.287 811.514 298.186 817.239 303.932C819.539 306.241 822.549 307.935 825.218 309.791C831.187 313.944 838.181 318.865 842.644 324.646C847.037 330.336 849.217 337.089 849.317 344.243C849.409 350.839 847.197 356.24 842.524 360.911C833.193 370.241 819.544 375.938 807.878 381.752C765.797 402.726 734.686 413.902 687.491 419.921C672.623 421.817 658.235 423.18 643.208 423.054C614.862 422.817 586.374 418.2 558.623 412.736C552.216 411.474 545.893 409.806 539.486 408.572Q505.342 402.331 470.748 399.505C464.817 399.026 458.838 398.07 452.883 398.06C447.11 398.052 441.266 398.642 435.5 399.009C428.698 399.441 421.807 399.679 415.043 400.483C392.437 403.167 369.711 408.782 347.983 415.431C338.912 418.207 310.45 426.646 304.267 432.644C303.008 433.865 303.174 435.253 303.196 436.899C303.413 452.523 307.037 468.512 308.822 484.055L322.574 600.601C323.119 605.244 323.223 609.941 323.708 614.595L328.536 658.487C329.78 670.243 331.59 681.952 332.757 693.72C333.252 698.711 333.007 703.738 333.23 708.742C333.458 713.865 334.486 719.002 335.127 724.089C336.145 732.169 336.505 739.521 339.081 747.328C342.453 746.398 345.919 745.838 349.259 744.833C357.24 742.434 365.278 739.374 373.435 737.635C387.292 734.682 401.058 733.372 415.089 731.753C425.915 730.505 436.461 728.974 447.357 728.285C453.387 727.903 459.442 728.257 465.472 727.839C471.115 727.447 476.722 726.513 482.368 726.194C498.033 725.311 513.816 725.502 529.495 725.017C539.614 724.704 549.52 723.787 559.678 724.102C569.238 724.398 578.7 726.2 588.225 726.906C595.963 727.48 604.055 726.171 611.686 727.519C621.226 729.203 630.846 733.354 640.095 736.223C644.58 737.614 649.143 739 653.713 740.08C656.185 740.665 658.851 740.753 661.255 741.541C680.585 747.878 704.616 759.302 722.356 769.378C738.683 778.652 754.878 788.053 770.103 799.1C801.485 821.871 831.696 854.578 853.048 886.805C858.486 895.013 868.405 909.905 870.642 918.959C870.95 920.205 871.045 921.156 870.696 922.415C866.361 925.797 860.579 930.078 855.694 932.47C846.621 940.365 836.848 947.82 826.417 953.848C820.068 957.517 813.336 960.573 806.873 964.043C802.128 966.59 797.368 969.928 792.411 971.967C788.614 973.528 784.472 974.079 780.586 975.397C772.776 978.045 765.103 981.083 757.267 983.703C752.059 985.445 746.802 987.352 741.46 988.636C733.643 990.513 725.61 991.518 717.668 992.731C705.893 994.529 694.169 996.322 682.361 997.912C660.283 1000.88 638.43 1006.29 616.141 1007.83C609.301 1008.31 602.283 1008.02 595.423 1008.01L561.512 1008L453.584 1008C429.211 1008 404.693 1008.65 380.364 1007.27C375.736 1007.01 370.683 1007.42 366.151 1006.61C359.383 1005.39 352.444 1002.87 345.774 1001.09C329.715 996.797 313.71 992.541 297.719 988.002C283.55 983.98 269.08 981.513 255.484 975.552C248.362 972.429 237.098 966.513 230.389 962.723C226.31 960.419 222.464 957.733 218.337 955.502C210.502 951.267 202.328 947.547 194.382 943.503C185.819 939.145 177.419 934.462 168.821 930.176C163.123 927.807 158.115 923.403 154.565 918.384C154.683 918.235 154.805 918.089 154.919 917.936C157.605 914.365 158.799 909.839 160.734 905.843C163.544 900.041 166.856 894.178 170.056 888.575C180.72 869.906 199.946 846.211 214.84 830.479C218.567 826.543 223.045 823.357 226.95 819.604C234.473 812.371 241.376 804.748 249.645 798.287C258.269 791.55 268.46 786.169 276.043 778.319C275.563 755.274 270.338 732.644 268.067 709.743C267.753 706.577 268.127 703.379 267.837 700.208C267.42 695.653 266.167 691.147 265.58 686.6L260.857 647.752C259.545 637.298 258.876 626.73 257.575 616.286C257.011 611.761 256.007 607.313 255.522 602.769C255.082 598.642 255.035 594.478 254.554 590.354C252.499 572.723 249.811 555.166 248.026 537.501C247.596 533.242 248.324 528.903 247.889 524.653L235.899 416.643C234.763 406.71 235.65 396.052 232.646 386.452C222.668 383.669 218.293 383.05 212.824 373.412C208.5 365.793 206.555 354.56 208.892 346.072C210.378 340.676 213.566 333.736 218.267 330.525C220.789 328.803 223.7 327.605 226.084 325.709Z"/>
	<path fill="#EFEEE0" d="M285.048 334.167C289.893 333.611 294.415 333.86 299.034 335.423C302.064 338.383 304.22 342.285 304.837 346.506C305.512 351.128 304.141 356.53 301.152 360.168C299.654 361.99 297.451 362.629 295.243 363.187C287.363 365.177 278.675 365.45 270.603 366.301C261.026 367.311 251.468 368.659 241.881 369.528L228.752 371.31C225.408 368.27 223.232 365.102 222.364 360.579C221.488 356.016 221.513 350.329 224.356 346.438C225.643 344.677 227.484 343.252 229.47 342.364C240.823 337.291 271.006 336.199 285.048 334.167Z"/>
	<path fill="#EFEEE0" d="M253.766 146.459L254.717 146.63C256.958 153.118 258.165 171.838 259.132 179.782C261.066 195.66 263.278 211.558 264.97 227.458C266.79 244.555 268.132 261.694 270.062 278.781L272.849 303.429C273.465 308.824 273.819 314.387 275.163 319.657C264.841 320.739 254.243 321.427 244.103 323.697C243.5 323.987 243.159 323.911 242.505 323.882C241.702 323.023 241.359 321.909 241.203 320.761C240.588 316.263 240.528 311.631 240.025 307.105L234.083 249.422C232.378 233.158 229.545 217.011 227.94 200.756L224.571 165.933C224.12 161.347 224.342 156.428 222.938 152.02C233.666 152.145 243.74 150.178 253.766 146.459Z"/>
	<path fill="#EFEEE0" d="M228.014 29.1734Q229.095 29.0431 230.182 28.9624Q231.268 28.8818 232.357 28.8511Q233.446 28.8204 234.535 28.8396Q235.624 28.8589 236.711 28.928Q237.798 28.9972 238.881 29.1161Q239.964 29.2351 241.04 29.4035Q242.116 29.572 243.183 29.7896Q244.251 30.0073 245.307 30.2736Q246.363 30.54 247.406 30.8545Q248.449 31.169 249.476 31.5309Q250.504 31.8929 251.514 32.3017Q252.523 32.7104 253.513 33.165Q254.503 33.6195 255.471 34.119Q256.439 34.6185 257.383 35.1619Q258.327 35.7053 259.245 36.2914Q260.164 36.8774 261.054 37.505C272.519 45.5079 280.809 59.1377 283.218 72.8402C285.477 85.6947 282.814 100.887 275.186 111.629C265.689 125.003 252.642 131.136 236.872 133.862C223.551 134.689 211.74 131.452 200.932 123.445C189.62 115.064 183.525 102.75 181.515 89.0362C179.514 75.3814 183.494 59.4056 191.745 48.3498C200.649 36.4196 213.742 31.2364 228.014 29.1734Z"/>
	<path fill="#EFEEE0" d="M278.849 381.595L279.998 381.478C281.139 382.514 281.282 384.758 281.495 386.24C284.254 405.441 285.805 424.964 287.879 444.253L298.523 540.82Q315.595 679.88 329.487 819.294C329.607 820.545 330.205 823.162 329.502 824.117C323.346 826.169 306.578 825.049 299.375 825.025C298.463 825.041 298.118 824.962 297.284 824.677C296.113 819.466 295.965 814.006 295.475 808.692L292.747 777.646C291.154 760.891 288.941 744.213 287.092 727.487C285.746 715.319 284.744 703.113 283.341 690.949L267.27 559.146C263.503 526 260.641 492.74 257.236 459.559L251.479 408.455C250.722 401.165 249.168 393.213 249.76 385.922L250.246 385.468L249.96 385.153C251.48 384.727 251.686 385.859 253.013 385.717C261.225 384.838 269.909 383.677 277.947 381.809L278.849 381.595Z"/>
	<path fill="#EFEEE0" d="M339.739 766.29C362.96 753.557 390.789 747.3 416.921 743.947C425.529 742.843 434.264 742.351 442.906 741.507C454.277 740.397 465.721 738.956 477.135 738.466C490.161 737.908 503.223 738.22 516.253 737.94C527.871 737.691 539.457 737.387 551.082 737.292C556.018 737.251 561.063 736.956 565.988 737.269C574.999 737.841 584.299 740.684 593.339 741.872C602.102 743.023 611.141 743.082 619.671 745.548C628.085 747.979 636.332 751.006 644.714 753.549C655.095 756.699 665.794 759.425 675.822 763.605C689.428 769.275 702.96 776.662 715.82 783.877C762.752 810.208 798.861 839.623 830.221 883.822C835.313 890.999 840.827 898.188 845.043 905.93C849.75 914.572 851.697 923.669 855.694 932.47C846.621 940.365 836.848 947.82 826.417 953.848C820.068 957.517 813.336 960.573 806.873 964.043C802.128 966.59 797.368 969.928 792.411 971.967C788.614 973.528 784.472 974.079 780.586 975.397C772.776 978.045 765.103 981.083 757.267 983.703C752.059 985.445 746.802 987.352 741.46 988.636C733.643 990.513 725.61 991.518 717.668 992.731C705.893 994.529 694.169 996.322 682.361 997.912C660.283 1000.88 638.43 1006.29 616.141 1007.83C609.301 1008.31 602.283 1008.02 595.423 1008.01L561.512 1008L453.584 1008C429.211 1008 404.693 1008.65 380.364 1007.27C375.736 1007.01 370.683 1007.42 366.151 1006.61C359.383 1005.39 352.444 1002.87 345.774 1001.09C329.715 996.797 313.71 992.541 297.719 988.002C283.55 983.98 269.08 981.513 255.484 975.552C248.362 972.429 237.098 966.513 230.389 962.723C226.31 960.419 222.464 957.733 218.337 955.502C210.502 951.267 202.328 947.547 194.382 943.503C185.819 939.145 177.419 934.462 168.821 930.176C175.189 915.125 182.251 900.219 191.099 886.44C208.509 859.33 239.355 824.049 265.416 805.343C268.105 803.412 271.648 800.28 274.747 799.244C275.572 798.969 275.569 799.001 276.3 798.922C276.458 799.177 278.87 820.563 278.885 822.343L278.515 822.849C277.675 822.642 276.056 821.997 275.257 822.048C272.69 822.21 262.253 825.826 259.948 827.253C258.316 828.263 256.467 829.674 256.07 831.676C255.732 833.381 255.755 835.283 256.814 836.717C259.633 840.535 266.207 841.57 270.596 841.916C289.907 843.439 312.549 844.341 331.629 841.369C337.198 840.501 342.785 838.837 348.193 837.247C352.774 835.899 357.883 834.546 361.548 831.328C363.08 829.983 364.299 828.287 364.368 826.183C364.446 823.803 363.098 821.579 361.451 819.968C357.168 815.778 350.781 814.848 345.041 814.987C344.5 801.499 343.229 778.97 339.739 766.29Z"/>
	<path fill="#EFEEE0" d="M407.047 52.1707C413.923 51.6788 420.938 51.978 427.831 51.9614C440.854 51.9301 453.796 52.1495 466.761 53.5762C506.831 57.9856 545.314 70.3249 584.439 79.289C592.649 81.1699 601.022 82.1578 609.275 83.8073C619.195 85.79 629.039 88.2771 639.042 89.8184C655.614 92.3718 682.038 93.1321 698.646 91.5364C722.072 89.2856 758.341 81.4805 780.565 73.2299Q792.471 68.7235 804.204 63.7846C809.396 61.6553 814.868 59.081 820.352 57.8732C824.199 57.0258 827.679 57.3705 830.991 59.6346C835.468 62.6947 838.72 68.692 839.501 73.9956C840.322 79.5731 837.961 85.3363 835.351 90.1702C832.666 95.1451 829.047 99.7068 825.694 104.251Q814.368 119.288 802.592 133.974C796.505 141.711 790.997 149.975 785.217 157.947Q775.729 170.918 765.627 183.416C759.35 191.261 752.995 199.108 746.389 206.679C740.596 213.318 734.793 219.381 729.5 226.474C730.036 228.953 730.695 231.429 732.081 233.579C737.373 241.786 744.85 248.859 751.452 256.027C768.631 274.678 785.963 292.715 804.703 309.791C811.362 315.86 829.051 329.446 832.44 336.239C833.762 338.886 834.638 341.948 833.513 344.821C832.173 348.239 829.328 351.149 826.492 353.398C813.372 363.801 783.202 376.213 766.877 383.257C747.712 391.75 731.473 395.249 711.251 399.531C683.518 405.404 662.443 408.129 634.101 406.924C611.551 405.966 588.878 401.602 566.749 397.466C527.818 390.191 492.182 383.09 452.216 382.982C417.735 382.888 380.516 389.118 347.275 398.526C339.891 400.615 305.556 413.8 301.998 413.786C298.51 408.189 297.775 388.242 297.599 380.991C298.381 380.022 307.256 377.696 311.292 374.139C317.12 369.003 319.485 361.997 319.944 354.465C320.59 343.882 317.69 332.624 310.339 324.699C304.225 318.107 298.302 319.064 290.181 318.877C289.832 300.804 287.111 282.586 285.057 264.646L275.941 183.192Q274.586 170.48 273.419 157.75C272.785 151.391 271.832 145.058 271.954 138.654C273.617 136.634 275.681 135.003 277.588 133.22C287.941 123.547 296.826 109.84 299.424 95.7397C300.396 90.4626 300.485 84.7616 300.678 79.3989C307.276 71.4651 362.698 58.483 374.82 56.2968C385.521 54.3668 396.286 53.588 407.047 52.1707Z"/>
	<path fill="#05232A" d="M477.302 174.069C481.956 173.83 486.466 173.391 490.791 175.489Q491.388 175.775 491.954 176.118Q492.52 176.461 493.049 176.859Q493.578 177.256 494.065 177.704Q494.553 178.151 494.993 178.645Q495.434 179.138 495.824 179.673Q496.214 180.208 496.549 180.778Q496.885 181.349 497.162 181.95Q497.439 182.551 497.656 183.176Q497.859 183.765 498 184.372Q498.141 184.979 498.218 185.597Q498.295 186.215 498.308 186.838Q498.321 187.461 498.269 188.081Q498.217 188.702 498.102 189.314Q497.986 189.927 497.807 190.523Q497.629 191.12 497.39 191.695Q497.151 192.271 496.853 192.818C494.731 196.787 491.161 198.828 486.973 199.996C482.699 200.177 478.242 200.386 474.235 198.655C470.714 197.135 467.889 194.308 466.654 190.645C465.59 187.489 465.835 184.052 467.472 181.135C469.639 177.275 473.167 175.236 477.302 174.069Z"/>
	<path fill="#05232A" d="M504.84 99.1644C505.678 99.1189 506.405 99.1226 507.237 99.2709C511.991 100.12 515.905 101.179 518.752 105.413C525.468 115.401 520.077 133.83 517.726 144.786C525.945 135.939 545.831 121.895 557.922 120.282C563.456 119.543 569.724 121.32 573.993 124.921Q574.621 125.448 575.193 126.036Q575.765 126.624 576.275 127.267Q576.785 127.909 577.228 128.599Q577.671 129.29 578.042 130.021Q578.414 130.752 578.71 131.517Q579.006 132.282 579.224 133.073Q579.442 133.863 579.579 134.672Q579.716 135.481 579.772 136.299C580.727 148.96 566.512 167.327 558.397 176.427C556.289 178.791 553.459 180.739 551.531 183.167C550.737 184.166 549.945 185.837 550.252 187.122C550.971 190.137 567.47 194.577 570.849 196.052Q573.406 197.17 575.812 198.583Q578.218 199.996 580.44 201.684C587.35 206.887 593.828 213.63 594.892 222.621C596.711 237.988 580.761 251.685 569.236 259.197C566.907 260.715 561.686 262.867 560.154 265.082C559.227 266.422 567.395 271.043 568.677 271.842C578.773 278.132 590.746 287.17 593.488 299.539C594.674 304.889 593.06 309.841 590.127 314.323C583.283 324.781 570.393 332.982 558.271 335.562C557.131 338.048 556.196 340.545 554.928 342.986L544.797 342.995L541.293 340.6C538.831 324.654 540.865 310.734 541.007 294.992C541.151 279.09 541.393 263.052 540.998 247.158C540.877 242.264 540.222 237.395 540.052 232.503C539.693 222.18 540.205 213.369 537.28 203.232C535.966 198.677 534.2 194.413 531.8 190.324C530.724 188.49 529.202 186.636 528.395 184.693C527.996 183.732 527.835 182.583 528.287 181.602C529.464 179.041 537.23 173.665 539.644 171.555C548.418 163.888 559.533 153.224 563.894 142.366L564.169 141.673C562.806 140.242 561.351 138.887 559.938 137.506C542.726 142.446 526.578 156.138 513.886 168.45C506.947 164.845 499.54 161.234 491.923 159.333C477.375 155.701 459.389 158.283 445.359 162.669C428.067 168.635 409.029 171.709 395.506 184.894C386.9 193.285 383.1 204.232 383.071 216.199C383.037 230.03 388.694 245.201 398.646 254.935C412.359 268.348 433.421 274.137 452.274 273.876C470.322 273.626 487.516 266.164 499.446 252.577C502.764 248.798 504.801 243.953 508.263 240.37C510.012 239.812 511.679 239.892 513.483 240.181C516.271 240.627 520.935 241.402 522.416 244.104C523.321 245.756 522.664 247.834 521.934 249.409C512.281 270.242 494.739 280.84 473.951 288.305C473.989 295.184 474.981 337.762 473.082 340.813C471.833 342.818 467.949 343.338 465.817 343.876C463.846 343.21 461.388 342.525 459.746 341.211C459.376 340.916 458.561 340.111 458.381 339.708C457.537 337.823 457.088 296.551 456.835 291.151C451.194 290.657 445.428 291.149 439.755 290.738C421.62 289.427 403.371 283.543 389.698 271.169C376.124 258.885 366.742 242.478 365.982 223.826C365.208 204.835 369.754 188.138 382.897 174.018C395.985 159.957 411.398 154.808 429.076 149.098C440.065 145.549 450.44 142.416 462.081 141.944C463.05 139.318 464.403 137.002 465.835 134.61C472.921 122.773 482.274 108.344 495.076 102.143C498.119 100.669 501.574 99.9789 504.84 99.1644Z"/>
	<path fill="#EFEEE0" d="M502.835 115.85C504.135 115.928 504.133 116.031 505.11 116.92C507.466 122.632 504.719 130.934 502.875 136.516C502.308 138.233 500.731 143.401 499.005 143.97C496.647 144.746 490.728 142.095 488.247 141.264C486.336 141.005 484.326 141.034 482.396 140.95L481.73 140.168C481.744 139.616 481.723 139.333 481.893 138.756C483.706 132.588 497.279 119.119 502.835 115.85Z"/>
	<path fill="#EFEEE0" d="M556.985 283.65C558.042 283.802 559.005 284.128 559.937 284.647C567.76 289.005 576.381 296.587 579.017 305.324C576.622 307.725 573.594 309.657 570.85 311.651C566.165 314.562 561.877 317.984 557.015 320.628L556.985 283.65Z"/>
	<path fill="#EFEEE0" d="M554.971 207.931C556.5 207.913 557.949 207.935 559.42 208.407C568.659 211.373 576.02 218.255 580.452 226.718C578.247 230.508 575.234 233.386 572.095 236.391C569.244 238.841 566.253 241.415 562.978 243.283C561.215 244.289 559.434 245.303 557.396 244.746C555.908 241.313 557.06 227.264 556.89 222.662C556.717 217.966 556.209 213.176 555.133 208.598L554.971 207.931Z"/>
</svg>
