<svg xmlns="http://www.w3.org/2000/svg" xmlns:v="https://svgstorm.com"
viewBox = "0 0 1024 1024"
width="1024"
height="1024">
<g fill="None" fill-opacity="0.0" stroke="#000000" stroke-opacity="0.00" stroke-width="0.3"><path d="
M 0.00 1024.00 
L 1024.00 1024.00
L 1024.00 0.00
L 0.00 0.00
L 0.00 1024.00
M 186.00 251.00 
C 186.18 250.93 186.00 250.00 186.00 250.00
C 164.12 248.02 144.21 269.36 121.98 268.98 C 99.75 268.59 80.31 261.90 64.25 245.75 C 48.18 229.61 37.33 216.48 32.07 194.93 C 26.82 173.37 22.62 141.82 28.00 120.00 C 33.38 98.18 37.38 77.88 51.92 60.92 C 66.45 43.95 78.81 31.69 101.02 27.02 C 123.24 22.36 152.29 26.59 173.08 35.92 C 193.86 45.26 217.12 46.28 239.67 52.33 C 262.22 58.38 286.02 61.16 310.01 64.99 C 334.00 68.83 359.58 70.74 384.67 73.33 C 409.76 75.92 436.98 76.86 463.00 78.00 C 489.02 79.14 517.95 79.12 544.00 78.00 C 570.06 76.88 597.80 76.69 623.00 74.00 C 648.20 71.32 673.72 69.74 698.00 66.00 C 722.28 62.26 746.39 59.68 769.67 54.67 C 792.95 49.67 815.15 46.50 837.22 39.22 C 859.29 31.94 882.41 24.45 906.00 25.00 C 929.59 25.55 947.26 34.19 962.75 51.25 C 978.25 68.31 985.07 83.85 991.78 105.22 C 998.48 126.60 999.87 157.83 996.00 180.00 C 992.13 202.17 984.89 220.23 969.75 236.75 C 954.61 253.27 939.90 263.72 916.93 266.93 C 893.95 270.14 866.94 261.33 846.00 254.00
C 848.06 277.80 846.23 300.99 847.98 325.02 C 849.72 349.06 846.79 373.93 847.00 398.00 C 847.21 422.07 845.84 445.05 847.00 469.00 C 848.16 492.95 820.40 492.13 807.00 503.00
C 821.40 511.29 846.76 511.81 847.00 534.00 C 847.24 556.19 846.16 581.64 848.00 604.00 C 849.84 626.36 822.83 627.14 810.00 637.00
C 833.33 646.27 851.01 660.04 847.00 688.00 C 842.99 715.96 850.51 745.20 849.00 772.00
C 879.22 764.79 917.39 756.86 945.70 773.31 C 974.00 789.75 983.49 814.29 990.99 844.01 C 998.49 873.72 996.19 914.25 981.69 941.69 C 967.20 969.14 951.48 987.41 919.93 995.93 C 888.38 1004.44 849.76 992.60 818.99 984.01 C 788.23 975.41 755.81 969.13 722.98 964.02 C 690.15 958.92 656.41 950.63 622.00 948.00 C 587.59 945.37 546.85 943.39 512.00 944.00 C 477.15 944.61 437.82 948.22 403.78 951.78 C 369.73 955.34 332.77 958.84 300.33 965.33 C 267.89 971.81 234.62 975.61 204.32 985.32 C 174.02 995.04 133.12 1003.97 102.33 995.67 C 71.53 987.38 55.22 968.37 40.23 941.77 C 25.24 915.17 22.80 872.57 29.33 842.33 C 35.86 812.09 49.70 791.11 77.69 774.69 C 105.69 758.28 145.33 768.96 177.00 771.00
C 180.30 756.09 171.21 736.59 174.93 722.93 C 178.65 709.26 193.77 704.84 205.00 701.00
C 189.63 694.02 176.11 684.51 177.00 665.00 C 177.89 645.49 171.91 623.85 174.00 604.00 C 176.09 584.15 193.48 581.53 209.00 575.00
C 188.53 567.71 175.22 556.39 177.00 533.00 C 178.78 509.61 175.29 485.01 177.00 461.00 C 178.71 436.99 175.62 412.23 175.02 388.98 C 174.43 365.72 173.73 338.45 175.98 315.98 C 178.22 293.50 172.07 268.18 186.00 251.00 Z"/>
</g>
<g fill="None" fill-opacity="0.0" stroke="#433D42" stroke-opacity="0.98" stroke-width="0.3"><path d="
M 186.00 250.00 
C 188.15 248.07 192.13 243.82 195.00 247.00
C 191.74 247.55 189.05 249.76 186.00 251.00
C 172.07 268.18 178.22 293.50 175.98 315.98 C 173.73 338.45 174.43 365.72 175.02 388.98 C 175.62 412.23 178.71 436.99 177.00 461.00 C 175.29 485.01 178.78 509.61 177.00 533.00 C 175.22 556.39 188.53 567.71 209.00 575.00
C 193.48 581.53 176.09 584.15 174.00 604.00 C 171.91 623.85 177.89 645.49 177.00 665.00 C 176.11 684.51 189.63 694.02 205.00 701.00
C 193.77 704.84 178.65 709.26 174.93 722.93 C 171.21 736.59 180.30 756.09 177.00 771.00
C 145.33 768.96 105.69 758.28 77.69 774.69 C 49.70 791.11 35.86 812.09 29.33 842.33 C 22.80 872.57 25.24 915.17 40.23 941.77 C 55.22 968.37 71.53 987.38 102.33 995.67 C 133.12 1003.97 174.02 995.04 204.32 985.32 C 234.62 975.61 267.89 971.81 300.33 965.33 C 332.77 958.84 369.73 955.34 403.78 951.78 C 437.82 948.22 477.15 944.61 512.00 944.00 C 546.85 943.39 587.59 945.37 622.00 948.00 C 656.41 950.63 690.15 958.92 722.98 964.02 C 755.81 969.13 788.23 975.41 818.99 984.01 C 849.76 992.60 888.38 1004.44 919.93 995.93 C 951.48 987.41 967.20 969.14 981.69 941.69 C 996.19 914.25 998.49 873.72 990.99 844.01 C 983.49 814.29 974.00 789.75 945.70 773.31 C 917.39 756.86 879.22 764.79 849.00 772.00
C 850.51 745.20 842.99 715.96 847.00 688.00 C 851.01 660.04 833.33 646.27 810.00 637.00
C 822.83 627.14 849.84 626.36 848.00 604.00 C 846.16 581.64 847.24 556.19 847.00 534.00 C 846.76 511.81 821.40 511.29 807.00 503.00
C 820.40 492.13 848.16 492.95 847.00 469.00 C 845.84 445.05 847.21 422.07 847.00 398.00 C 846.79 373.93 849.72 349.06 847.98 325.02 C 846.23 300.99 848.06 277.80 846.00 254.00
C 866.94 261.33 893.95 270.14 916.93 266.93 C 939.90 263.72 954.61 253.27 969.75 236.75 C 984.89 220.23 992.13 202.17 996.00 180.00 C 999.87 157.83 998.48 126.60 991.78 105.22 C 985.07 83.85 978.25 68.31 962.75 51.25 C 947.26 34.19 929.59 25.55 906.00 25.00 C 882.41 24.45 859.29 31.94 837.22 39.22 C 815.15 46.50 792.95 49.67 769.67 54.67 C 746.39 59.68 722.28 62.26 698.00 66.00 C 673.72 69.74 648.20 71.32 623.00 74.00 C 597.80 76.69 570.06 76.88 544.00 78.00 C 517.95 79.12 489.02 79.14 463.00 78.00 C 436.98 76.86 409.76 75.92 384.67 73.33 C 359.58 70.74 334.00 68.83 310.01 64.99 C 286.02 61.16 262.22 58.38 239.67 52.33 C 217.12 46.28 193.86 45.26 173.08 35.92 C 152.29 26.59 123.24 22.36 101.02 27.02 C 78.81 31.69 66.45 43.95 51.92 60.92 C 37.38 77.88 33.38 98.18 28.00 120.00 C 22.62 141.82 26.82 173.37 32.07 194.93 C 37.33 216.48 48.18 229.61 64.25 245.75 C 80.31 261.90 99.75 268.59 121.98 268.98 C 144.21 269.36 164.12 248.02 186.00 250.00
M 853.00 239.00 
C 788.59 216.96 721.55 202.74 656.00 186.00
C 617.86 176.26 578.81 175.88 539.00 172.00 C 499.19 168.12 453.51 173.25 415.00 178.00 C 376.49 182.74 342.04 190.68 305.00 200.00
C 283.04 205.52 263.02 210.82 241.32 218.32 C 219.62 225.82 196.20 228.54 173.00 232.00
C 148.54 235.65 120.02 259.67 94.93 246.07 C 69.84 232.48 56.50 215.47 49.07 188.93 C 41.64 162.38 41.24 123.84 51.78 98.78 C 62.32 73.71 72.46 53.93 100.07 44.07 C 127.69 34.22 158.54 48.90 185.22 56.78 C 211.91 64.65 241.32 69.23 270.00 75.00 C 298.68 80.76 329.84 84.03 360.22 87.78 C 390.61 91.53 425.32 92.43 457.00 94.00 C 488.68 95.57 525.25 95.16 557.00 94.00 C 588.75 92.85 623.16 91.20 653.67 87.67 C 684.18 84.14 715.54 80.40 744.67 75.67 C 773.80 70.94 802.71 64.67 830.02 58.02 C 857.34 51.38 887.51 36.46 916.00 42.00 C 944.49 47.54 956.27 69.03 968.31 92.69 C 980.34 116.36 983.99 155.08 978.00 182.00 C 972.02 208.93 959.09 227.20 934.92 241.92 C 910.76 256.65 878.11 247.59 853.00 239.00
M 586.00 204.00 
C 670.02 211.88 748.62 245.90 830.00 264.00
C 827.98 278.61 828.30 293.23 829.00 308.00
C 829.99 320.48 831.69 332.81 831.00 346.00 C 830.31 359.19 831.13 372.73 831.00 386.00 C 830.87 399.27 830.70 413.80 831.00 427.00 C 831.30 440.20 830.02 454.08 831.00 467.00 C 831.98 479.92 815.05 479.06 806.93 482.93 C 798.81 486.79 785.77 494.21 788.78 504.22 C 791.79 514.23 801.03 519.15 810.68 522.32 C 820.33 525.49 832.86 529.83 831.00 543.00 C 829.14 556.17 831.62 570.51 831.00 583.00 C 830.38 595.49 834.31 610.46 821.32 613.32 C 808.33 616.19 804.44 620.16 795.25 628.25 C 786.06 636.34 794.37 647.74 803.08 651.92 C 811.80 656.10 821.24 661.03 829.00 667.00
C 830.66 681.33 829.74 696.32 830.00 711.00 C 830.26 725.68 830.03 740.06 829.00 754.00 C 827.97 767.94 809.65 765.48 797.99 768.99 C 786.34 772.50 772.84 774.06 760.78 777.78 C 748.72 781.50 735.69 783.50 723.00 786.00 C 710.31 788.50 697.75 791.22 684.78 793.78 C 671.80 796.34 658.38 797.82 645.00 800.00 C 631.61 802.17 618.07 804.08 604.00 805.00 C 589.93 805.92 574.33 806.13 560.00 807.00 C 545.67 807.87 530.74 808.40 516.00 808.00 C 501.26 807.60 484.59 808.53 470.00 808.00 C 455.41 807.47 441.20 805.93 426.99 805.01 C 412.78 804.08 398.65 802.94 384.98 801.02 C 371.30 799.11 357.27 798.26 344.00 796.00 C 330.73 793.74 317.91 791.44 304.99 789.01 C 292.08 786.58 279.79 783.93 267.33 780.67 C 254.87 777.41 243.36 774.01 230.93 771.07 C 218.49 768.13 206.17 765.81 194.00 762.00
C 196.38 752.51 191.59 737.19 192.07 728.93 C 192.56 720.66 205.55 715.47 213.02 715.02 C 220.50 714.58 232.97 703.17 225.69 694.31 C 218.42 685.44 214.56 685.32 203.77 681.23 C 192.98 677.14 192.70 667.46 193.99 656.99 C 195.29 646.52 191.49 636.01 193.00 625.00 C 194.51 613.99 189.32 603.12 198.23 597.23 C 207.14 591.34 215.48 592.56 222.75 585.75 C 230.02 578.94 225.96 566.10 221.22 558.78 C 216.49 551.45 202.93 553.85 196.92 547.08 C 190.92 540.30 193.51 526.28 193.00 516.00 C 192.49 505.72 193.25 492.12 193.00 481.00 C 192.75 469.88 193.16 456.43 193.00 445.00 C 192.84 433.57 193.17 421.48 193.00 410.00 C 192.83 398.52 191.10 387.39 193.00 376.00 C 194.90 364.61 189.90 354.43 191.78 343.78 C 193.66 333.12 192.65 320.85 194.00 310.00
C 194.24 297.78 190.65 278.99 195.00 268.00 C 199.35 257.01 217.77 260.92 227.68 255.68 C 237.59 250.43 250.63 248.56 261.68 244.68 C 272.73 240.79 285.61 237.93 297.07 234.07 C 308.53 230.22 320.76 227.92 332.67 224.67 C 344.58 221.43 356.40 218.75 368.67 215.67 C 380.94 212.60 392.35 209.49 405.22 207.22 C 418.09 204.95 433.56 203.92 447.00 203.00
C 469.53 201.47 492.99 202.99 516.00 202.00 C 539.01 201.01 563.43 201.88 586.00 204.00
M 857.00 978.00 
C 813.02 964.46 773.59 956.34 727.78 947.22 C 681.96 938.10 634.49 932.00 586.00 929.00 C 537.51 926.00 481.34 927.49 433.00 931.00 C 384.66 934.51 338.54 943.68 291.93 949.93 C 245.32 956.17 205.98 970.03 161.00 980.00
C 141.20 984.39 114.46 982.59 96.77 974.23 C 79.08 965.87 68.25 954.98 59.08 937.92 C 49.90 920.87 42.65 899.22 43.02 878.98 C 43.40 858.73 46.71 836.36 56.25 818.25 C 65.80 800.15 76.89 792.31 96.23 784.23 C 115.57 776.15 142.02 787.00 162.00 787.00
C 166.51 787.00 171.20 787.32 175.00 788.00
C 202.07 789.84 225.93 802.43 252.68 808.32 C 279.43 814.21 305.82 821.06 334.01 824.99 C 362.20 828.93 389.22 836.44 419.00 838.00 C 448.78 839.56 483.25 842.00 514.00 842.00
C 517.08 841.70 521.25 841.00 525.00 841.00
C 567.17 841.00 613.30 835.49 654.00 830.00 C 694.71 824.52 733.64 816.77 773.02 808.02 C 812.41 799.28 847.37 788.29 887.02 781.02 C 926.68 773.76 960.17 794.52 971.78 833.22 C 983.38 871.93 980.94 912.78 959.25 947.25 C 937.55 981.71 894.65 989.59 857.00 978.00 Z"/>
</g>
<g fill="None" fill-opacity="0.0" stroke="#F9FAF8" stroke-opacity="1.00" stroke-width="0.3"><path d="
M 173.00 232.00 
C 181.18 226.61 180.66 211.96 192.68 210.68 C 204.69 209.39 216.23 206.75 228.22 204.22 C 240.21 201.70 252.21 200.90 265.00 200.00 C 277.79 199.10 292.64 199.64 305.00 200.00
C 342.04 190.68 376.49 182.74 415.00 178.00 C 453.51 173.25 499.19 168.12 539.00 172.00 C 578.81 175.88 617.86 176.26 656.00 186.00
C 664.50 184.77 677.85 184.91 689.00 185.00 C 700.15 185.09 713.11 185.45 724.00 186.00 C 734.89 186.55 745.78 188.35 756.00 190.00 C 766.23 191.65 775.39 195.87 785.07 197.93 C 794.76 199.98 804.76 202.29 813.68 205.32 C 822.59 208.36 830.84 210.98 837.75 217.25 C 844.66 223.52 850.80 230.52 853.00 239.00
C 878.11 247.59 910.76 256.65 934.92 241.92 C 959.09 227.20 972.02 208.93 978.00 182.00 C 983.99 155.08 980.34 116.36 968.31 92.69 C 956.27 69.03 944.49 47.54 916.00 42.00 C 887.51 36.46 857.34 51.38 830.02 58.02 C 802.71 64.67 773.80 70.94 744.67 75.67 C 715.54 80.40 684.18 84.14 653.67 87.67 C 623.16 91.20 588.75 92.85 557.00 94.00 C 525.25 95.16 488.68 95.57 457.00 94.00 C 425.32 92.43 390.61 91.53 360.22 87.78 C 329.84 84.03 298.68 80.76 270.00 75.00 C 241.32 69.23 211.91 64.65 185.22 56.78 C 158.54 48.90 127.69 34.22 100.07 44.07 C 72.46 53.93 62.32 73.71 51.78 98.78 C 41.24 123.84 41.64 162.38 49.07 188.93 C 56.50 215.47 69.84 232.48 94.93 246.07 C 120.02 259.67 148.54 235.65 173.00 232.00
M 912.00 53.00 
C 930.99 56.40 941.70 75.05 951.30 91.70 C 960.91 108.34 964.06 135.85 965.00 157.00 C 965.94 178.15 956.24 198.08 945.25 216.25 C 934.25 234.42 908.77 240.61 889.77 232.23 C 870.77 223.85 859.15 213.03 849.25 194.75 C 839.34 176.48 832.89 153.78 833.93 132.93 C 834.97 112.08 841.33 91.13 855.75 75.75 C 870.17 60.37 890.16 49.09 912.00 53.00
M 61.00 128.00 
C 63.96 109.42 69.58 92.39 82.00 78.00
C 100.95 56.04 134.09 44.36 157.25 65.75 C 180.40 87.15 191.84 113.97 190.00 144.00 C 188.16 174.03 174.56 197.68 155.25 220.25 C 135.94 242.82 99.52 241.89 80.75 217.25 C 61.98 192.61 55.94 159.80 61.00 128.00 Z"/>
</g>
<g fill="None" fill-opacity="0.0" stroke="#443E43" stroke-opacity="1.00" stroke-width="0.3"><path d="
M 912.00 53.00 
C 890.16 49.09 870.17 60.37 855.75 75.75 C 841.33 91.13 834.97 112.08 833.93 132.93 C 832.89 153.78 839.34 176.48 849.25 194.75 C 859.15 213.03 870.77 223.85 889.77 232.23 C 908.77 240.61 934.25 234.42 945.25 216.25 C 956.24 198.08 965.94 178.15 965.00 157.00 C 964.06 135.85 960.91 108.34 951.30 91.70 C 941.70 75.05 930.99 56.40 912.00 53.00
M 877.00 200.00 
C 900.82 206.19 932.99 204.12 946.75 180.75 C 960.51 157.38 955.07 128.68 938.75 108.25 C 922.42 87.83 890.83 84.91 867.00 91.00
C 871.11 82.92 878.84 78.42 887.23 74.23 C 895.62 70.04 905.25 65.05 915.02 64.02 C 924.80 62.99 933.30 69.74 939.75 77.25 C 946.20 84.76 948.61 91.92 952.32 101.68 C 956.03 111.44 956.92 120.96 959.98 132.02 C 963.04 143.09 958.54 154.40 958.00 166.00 C 957.46 177.61 956.04 185.41 952.08 197.08 C 948.11 208.74 938.80 207.39 929.31 212.31 C 919.81 217.22 909.87 219.28 899.93 215.07 C 889.99 210.87 882.35 209.94 877.00 200.00
M 889.00 180.00 
C 877.89 178.05 864.51 180.08 859.70 167.30 C 854.88 154.53 852.20 145.22 854.99 131.99 C 857.78 118.76 870.43 119.42 880.00 115.00
C 888.20 111.21 898.95 105.25 908.07 109.93 C 917.19 114.61 923.27 118.69 928.30 127.70 C 933.33 136.71 936.11 146.62 934.22 157.22 C 932.33 167.82 927.34 172.42 918.75 179.75 C 910.17 187.09 898.24 181.62 889.00 180.00 Z"/>
</g>
<g fill="None" fill-opacity="0.0" stroke="#443E43" stroke-opacity="1.00" stroke-width="0.3"><path d="
M 82.00 78.00 
C 81.82 78.12 85.04 76.65 86.00 76.00
C 93.85 70.70 100.63 62.27 110.22 65.78 C 119.81 69.28 128.77 71.68 137.23 76.77 C 145.69 81.86 153.11 84.65 159.00 93.00
C 134.69 82.83 107.60 85.27 88.25 104.25 C 68.90 123.23 64.89 150.06 74.32 175.68 C 83.76 201.29 115.77 207.31 140.00 201.00
C 132.34 212.46 110.78 220.86 97.78 214.22 C 84.78 207.59 75.83 196.49 68.68 183.32 C 61.52 170.16 62.26 145.78 62.00 130.00
C 61.89 129.11 61.07 128.40 61.00 128.00
C 55.94 159.80 61.98 192.61 80.75 217.25 C 99.52 241.89 135.94 242.82 155.25 220.25 C 174.56 197.68 188.16 174.03 190.00 144.00 C 191.84 113.97 180.40 87.15 157.25 65.75 C 134.09 44.36 100.95 56.04 82.00 78.00
M 142.00 114.00 
C 152.22 117.50 168.37 117.34 168.00 130.00 C 167.63 142.66 168.11 155.85 164.02 168.02 C 159.94 180.20 145.31 178.90 135.00 181.00
C 123.11 183.42 112.60 189.85 102.75 179.25 C 92.91 168.65 88.94 158.76 91.00 145.00 C 93.06 131.24 96.43 123.76 106.75 114.75 C 117.06 105.73 130.70 110.14 142.00 114.00 Z"/>
</g>
<g fill="None" fill-opacity="0.0" stroke="#958F91" stroke-opacity="1.00" stroke-width="0.3"><path d="
M 86.00 76.00 
C 71.61 88.54 63.71 112.32 62.00 130.00
C 62.26 145.78 61.52 170.16 68.68 183.32 C 75.83 196.49 84.78 207.59 97.78 214.22 C 110.78 220.86 132.34 212.46 140.00 201.00
C 115.77 207.31 83.76 201.29 74.32 175.68 C 64.89 150.06 68.90 123.23 88.25 104.25 C 107.60 85.27 134.69 82.83 159.00 93.00
C 153.11 84.65 145.69 81.86 137.23 76.77 C 128.77 71.68 119.81 69.28 110.22 65.78 C 100.63 62.27 93.85 70.70 86.00 76.00 Z"/>
</g>
<g fill="None" fill-opacity="0.0" stroke="#959091" stroke-opacity="1.00" stroke-width="0.3"><path d="
M 877.00 200.00 
C 882.35 209.94 889.99 210.87 899.93 215.07 C 909.87 219.28 919.81 217.22 929.31 212.31 C 938.80 207.39 948.11 208.74 952.08 197.08 C 956.04 185.41 957.46 177.61 958.00 166.00 C 958.54 154.40 963.04 143.09 959.98 132.02 C 956.92 120.96 956.03 111.44 952.32 101.68 C 948.61 91.92 946.20 84.76 939.75 77.25 C 933.30 69.74 924.80 62.99 915.02 64.02 C 905.25 65.05 895.62 70.04 887.23 74.23 C 878.84 78.42 871.11 82.92 867.00 91.00
C 890.83 84.91 922.42 87.83 938.75 108.25 C 955.07 128.68 960.51 157.38 946.75 180.75 C 932.99 204.12 900.82 206.19 877.00 200.00 Z"/>
</g>
<g fill="None" fill-opacity="0.0" stroke="#625D61" stroke-opacity="1.00" stroke-width="0.3"><path d="
M 82.00 78.00 
C 69.58 92.39 63.96 109.42 61.00 128.00
C 61.07 128.40 61.89 129.11 62.00 130.00
C 63.71 112.32 71.61 88.54 86.00 76.00
C 85.04 76.65 81.82 78.12 82.00 78.00 Z"/>
</g>
<g fill="None" fill-opacity="0.0" stroke="#F7F8F6" stroke-opacity="1.00" stroke-width="0.3"><path d="
M 880.00 115.00 
C 871.55 123.53 874.11 140.71 874.78 151.22 C 875.44 161.73 880.10 173.58 889.00 180.00
C 898.24 181.62 910.17 187.09 918.75 179.75 C 927.34 172.42 932.33 167.82 934.22 157.22 C 936.11 146.62 933.33 136.71 928.30 127.70 C 923.27 118.69 917.19 114.61 908.07 109.93 C 898.95 105.25 888.20 111.21 880.00 115.00
M 908.00 131.00 
C 924.30 134.38 920.60 166.72 906.00 166.00 C 891.39 165.27 888.09 126.88 908.00 131.00 Z"/>
</g>
<g fill="None" fill-opacity="0.0" stroke="#F8F9F7" stroke-opacity="1.00" stroke-width="0.3"><path d="
M 135.00 181.00 
C 140.19 176.69 142.45 168.95 144.98 162.98 C 147.50 157.00 150.34 143.67 148.00 137.00 C 145.66 130.33 146.32 119.31 142.00 114.00
C 130.70 110.14 117.06 105.73 106.75 114.75 C 96.43 123.76 93.06 131.24 91.00 145.00 C 88.94 158.76 92.91 168.65 102.75 179.25 C 112.60 189.85 123.11 183.42 135.00 181.00
M 121.00 131.00 
C 131.31 133.02 129.41 144.88 126.68 154.68 C 123.95 164.48 112.71 164.26 111.02 153.98 C 109.35 143.69 108.63 128.57 121.00 131.00 Z"/>
</g>
<g fill="None" fill-opacity="0.0" stroke="#D6D6D4" stroke-opacity="1.00" stroke-width="0.3"><path d="
M 135.00 181.00 
C 145.31 178.90 159.94 180.20 164.02 168.02 C 168.11 155.85 167.63 142.66 168.00 130.00 C 168.37 117.34 152.22 117.50 142.00 114.00
C 146.32 119.31 145.66 130.33 148.00 137.00 C 150.34 143.67 147.50 157.00 144.98 162.98 C 142.45 168.95 140.19 176.69 135.00 181.00 Z"/>
</g>
<g fill="None" fill-opacity="0.0" stroke="#D5D5D3" stroke-opacity="1.00" stroke-width="0.3"><path d="
M 889.00 180.00 
C 880.10 173.58 875.44 161.73 874.78 151.22 C 874.11 140.71 871.55 123.53 880.00 115.00
C 870.43 119.42 857.78 118.76 854.99 131.99 C 852.20 145.22 854.88 154.53 859.70 167.30 C 864.51 180.08 877.89 178.05 889.00 180.00 Z"/>
</g>
<g fill="None" fill-opacity="0.0" stroke="#433D42" stroke-opacity="1.00" stroke-width="0.3"><path d="
M 121.00 131.00 
C 108.63 128.57 109.35 143.69 111.02 153.98 C 112.71 164.26 123.95 164.48 126.68 154.68 C 129.41 144.88 131.31 133.02 121.00 131.00 Z"/>
</g>
<g fill="None" fill-opacity="0.0" stroke="#433D42" stroke-opacity="1.00" stroke-width="0.3"><path d="
M 908.00 131.00 
C 888.09 126.88 891.39 165.27 906.00 166.00 C 920.60 166.72 924.30 134.38 908.00 131.00 Z"/>
</g>
<g fill="None" fill-opacity="0.0" stroke="#C3C1C1" stroke-opacity="1.00" stroke-width="0.3"><path d="
M 656.00 186.00 
C 721.55 202.74 788.59 216.96 853.00 239.00
C 850.80 230.52 844.66 223.52 837.75 217.25 C 830.84 210.98 822.59 208.36 813.68 205.32 C 804.76 202.29 794.76 199.98 785.07 197.93 C 775.39 195.87 766.23 191.65 756.00 190.00 C 745.78 188.35 734.89 186.55 724.00 186.00 C 713.11 185.45 700.15 185.09 689.00 185.00 C 677.85 184.91 664.50 184.77 656.00 186.00 Z"/>
</g>
<g fill="None" fill-opacity="0.0" stroke="#C3C1C1" stroke-opacity="1.00" stroke-width="0.3"><path d="
M 173.00 232.00 
C 196.20 228.54 219.62 225.82 241.32 218.32 C 263.02 210.82 283.04 205.52 305.00 200.00
C 292.64 199.64 277.79 199.10 265.00 200.00 C 252.21 200.90 240.21 201.70 228.22 204.22 C 216.23 206.75 204.69 209.39 192.68 210.68 C 180.66 211.96 181.18 226.61 173.00 232.00 Z"/>
</g>
<g fill="None" fill-opacity="0.0" stroke="#F9FAF8" stroke-opacity="1.00" stroke-width="0.3"><path d="
M 447.00 203.00 
C 427.22 211.54 405.17 222.00 383.77 229.77 C 362.37 237.54 338.69 245.44 316.98 252.98 C 295.26 260.51 275.08 270.92 254.31 280.31 C 233.53 289.69 214.86 300.90 194.00 310.00
C 192.65 320.85 193.66 333.12 191.78 343.78 C 189.90 354.43 194.90 364.61 193.00 376.00 C 191.10 387.39 192.83 398.52 193.00 410.00 C 193.17 421.48 192.84 433.57 193.00 445.00 C 193.16 456.43 192.75 469.88 193.00 481.00 C 193.25 492.12 192.49 505.72 193.00 516.00 C 193.51 526.28 190.92 540.30 196.92 547.08 C 202.93 553.85 216.49 551.45 221.22 558.78 C 225.96 566.10 230.02 578.94 222.75 585.75 C 215.48 592.56 207.14 591.34 198.23 597.23 C 189.32 603.12 194.51 613.99 193.00 625.00 C 191.49 636.01 195.29 646.52 193.99 656.99 C 192.70 667.46 192.98 677.14 203.77 681.23 C 214.56 685.32 218.42 685.44 225.69 694.31 C 232.97 703.17 220.50 714.58 213.02 715.02 C 205.55 715.47 192.56 720.66 192.07 728.93 C 191.59 737.19 196.38 752.51 194.00 762.00
C 206.17 765.81 218.49 768.13 230.93 771.07 C 243.36 774.01 254.87 777.41 267.33 780.67 C 279.79 783.93 292.08 786.58 304.99 789.01 C 317.91 791.44 330.73 793.74 344.00 796.00 C 357.27 798.26 371.30 799.11 384.98 801.02 C 398.65 802.94 412.78 804.08 426.99 805.01 C 441.20 805.93 455.41 807.47 470.00 808.00 C 484.59 808.53 501.26 807.60 516.00 808.00 C 530.74 808.40 545.67 807.87 560.00 807.00 C 574.33 806.13 589.93 805.92 604.00 805.00 C 618.07 804.08 631.61 802.17 645.00 800.00 C 658.38 797.82 671.80 796.34 684.78 793.78 C 697.75 791.22 710.31 788.50 723.00 786.00 C 735.69 783.50 748.72 781.50 760.78 777.78 C 772.84 774.06 786.34 772.50 797.99 768.99 C 809.65 765.48 827.97 767.94 829.00 754.00 C 830.03 740.06 830.26 725.68 830.00 711.00 C 829.74 696.32 830.66 681.33 829.00 667.00
C 821.24 661.03 811.80 656.10 803.08 651.92 C 794.37 647.74 786.06 636.34 795.25 628.25 C 804.44 620.16 808.33 616.19 821.32 613.32 C 834.31 610.46 830.38 595.49 831.00 583.00 C 831.62 570.51 829.14 556.17 831.00 543.00 C 832.86 529.83 820.33 525.49 810.68 522.32 C 801.03 519.15 791.79 514.23 788.78 504.22 C 785.77 494.21 798.81 486.79 806.93 482.93 C 815.05 479.06 831.98 479.92 831.00 467.00 C 830.02 454.08 831.30 440.20 831.00 427.00 C 830.70 413.80 830.87 399.27 831.00 386.00 C 831.13 372.73 830.31 359.19 831.00 346.00 C 831.69 332.81 829.99 320.48 829.00 308.00
C 824.62 300.31 811.29 300.07 804.31 294.70 C 797.32 289.32 785.63 287.36 777.92 282.08 C 770.22 276.79 761.15 273.83 752.77 269.23 C 744.40 264.63 733.89 262.22 725.32 257.68 C 716.76 253.13 708.89 248.35 699.32 245.68 C 689.75 243.00 680.51 237.90 670.92 235.08 C 661.34 232.25 652.40 228.34 642.93 225.07 C 633.46 221.80 623.57 217.97 613.99 215.01 C 604.41 212.05 595.13 207.01 586.00 204.00
C 563.43 201.88 539.01 201.01 516.00 202.00 C 492.99 202.99 469.53 201.47 447.00 203.00
M 613.00 322.00 
C 613.70 326.30 613.60 330.78 613.00 335.00
C 612.48 348.65 609.47 369.47 593.98 373.98 C 578.48 378.48 561.79 367.44 546.93 365.07 C 532.06 362.70 522.75 349.82 512.00 341.00
C 509.61 379.14 548.36 400.75 557.00 435.00
C 567.28 430.01 580.20 428.49 590.22 423.22 C 600.24 417.96 608.52 413.23 616.25 404.25 C 623.98 395.27 628.74 387.34 634.31 376.31 C 639.87 365.27 641.62 355.82 645.93 342.93 C 650.23 330.03 665.84 337.86 673.25 345.75 C 680.66 353.64 689.49 358.88 696.30 367.70 C 703.12 376.51 710.89 383.57 716.77 393.23 C 722.65 402.89 727.97 411.33 732.92 422.08 C 737.87 432.82 741.76 443.79 745.32 455.68 C 748.88 467.56 750.13 481.07 752.00 494.00 C 753.87 506.94 752.33 524.43 751.01 537.01 C 749.68 549.58 744.26 561.66 742.07 573.07 C 739.88 584.49 729.27 600.79 725.07 585.93 C 720.88 571.06 724.44 559.07 720.01 545.99 C 715.57 532.91 713.05 525.83 704.25 515.75 C 695.45 505.67 681.55 505.27 669.98 508.98 C 658.40 512.68 652.47 522.55 642.00 527.00
C 638.55 513.31 636.65 503.76 626.75 492.25 C 616.84 480.75 604.71 481.05 589.33 480.33 C 573.95 479.61 561.68 488.25 563.07 504.07 C 564.47 519.90 554.13 527.99 549.25 540.25 C 544.36 552.51 535.36 559.97 528.25 570.25 C 521.13 580.53 512.88 587.53 505.08 597.08 C 497.28 606.63 488.15 612.77 480.75 622.75 C 473.36 632.73 467.66 647.80 471.78 660.22 C 475.90 672.64 484.16 680.13 495.70 686.31 C 507.23 692.48 524.36 694.19 536.00 687.00
C 528.25 677.29 515.47 668.99 514.00 656.00
C 560.80 649.29 593.95 686.43 637.00 692.00
C 629.23 704.24 620.20 713.89 608.75 723.75 C 597.30 733.61 586.57 741.53 571.77 746.77 C 556.97 752.01 534.07 752.57 518.00 751.00 C 501.93 749.44 482.24 746.42 468.32 739.68 C 454.40 732.93 443.00 726.64 433.25 714.75 C 423.50 702.87 410.03 696.48 408.07 679.93 C 406.12 663.37 379.65 667.57 375.23 652.77 C 370.81 637.97 395.58 630.21 401.92 618.92 C 408.25 607.63 376.39 595.05 383.93 582.93 C 391.46 570.80 414.56 573.51 425.25 564.25 C 435.94 554.98 406.59 532.89 424.08 527.08 C 441.56 521.26 460.90 524.27 458.00 500.00
C 458.00 497.00 459.25 490.67 458.00 488.00
C 453.43 481.34 439.69 482.74 432.00 481.00 C 424.31 479.26 412.17 483.39 405.31 487.31 C 398.44 491.22 392.98 496.91 389.08 504.08 C 385.18 511.25 380.50 520.51 380.00 529.00
C 365.66 516.09 346.95 499.23 326.92 510.92 C 306.90 522.62 302.68 544.33 303.00 566.00
C 303.00 572.35 303.38 579.41 302.00 585.00
C 299.26 596.05 290.66 594.64 287.70 585.31 C 284.73 575.97 281.34 570.98 279.22 561.78 C 277.11 552.58 274.34 544.20 273.22 534.78 C 272.10 525.35 271.38 514.53 271.00 505.00 C 270.62 495.47 272.22 484.16 273.00 475.00 C 273.78 465.84 277.77 457.23 279.78 448.78 C 281.79 440.32 285.14 433.27 288.77 425.77 C 292.40 418.28 295.64 411.75 299.77 404.77 C 303.90 397.79 307.92 391.24 312.75 384.75 C 317.58 378.26 321.60 373.38 327.25 367.25 C 332.90 361.12 337.39 357.62 343.75 351.75 C 350.12 345.88 354.42 342.71 362.08 337.08 C 369.74 331.45 377.55 337.79 377.99 347.01 C 378.43 356.23 382.66 364.74 385.32 372.68 C 387.98 380.62 392.95 386.65 396.75 393.25 C 400.56 399.85 406.28 405.61 411.25 410.75 C 416.21 415.89 425.71 421.66 431.08 423.92 C 436.44 426.19 450.86 435.45 451.97 428.97 C 453.09 422.50 449.05 411.10 441.75 407.25 C 434.45 403.40 430.65 393.95 435.33 385.33 C 440.00 376.70 439.20 366.80 431.77 362.23 C 424.34 357.66 419.37 355.21 413.25 348.75 C 407.13 342.29 418.88 334.58 421.75 328.75 C 424.62 322.93 434.87 318.12 436.75 311.75 C 438.63 305.38 429.52 300.52 426.08 292.92 C 422.63 285.32 424.02 276.33 434.08 274.08 C 444.13 271.82 448.16 267.05 457.68 265.68 C 467.19 264.30 475.20 258.78 470.08 250.92 C 464.95 243.07 458.02 238.45 460.00 229.00 C 461.99 219.55 475.36 221.01 481.70 225.30 C 488.04 229.60 489.50 239.10 498.25 241.75 C 506.99 244.41 498.58 230.87 500.78 222.78 C 502.98 214.69 514.28 213.44 520.25 219.75 C 526.22 226.07 526.75 235.12 532.75 240.25 C 538.76 245.37 550.18 243.34 556.69 248.31 C 563.21 253.27 570.26 254.80 575.75 261.25 C 581.24 267.69 587.62 272.33 589.31 280.69 C 591.00 289.06 593.16 297.25 601.68 300.32 C 610.20 303.39 612.58 314.35 613.00 322.00 Z"/>
</g>
<g fill="None" fill-opacity="0.0" stroke="#C3C1C1" stroke-opacity="1.00" stroke-width="0.3"><path d="
M 194.00 310.00 
C 214.86 300.90 233.53 289.69 254.31 280.31 C 275.08 270.92 295.26 260.51 316.98 252.98 C 338.69 245.44 362.37 237.54 383.77 229.77 C 405.17 222.00 427.22 211.54 447.00 203.00
C 433.56 203.92 418.09 204.95 405.22 207.22 C 392.35 209.49 380.94 212.60 368.67 215.67 C 356.40 218.75 344.58 221.43 332.67 224.67 C 320.76 227.92 308.53 230.22 297.07 234.07 C 285.61 237.93 272.73 240.79 261.68 244.68 C 250.63 248.56 237.59 250.43 227.68 255.68 C 217.77 260.92 199.35 257.01 195.00 268.00 C 190.65 278.99 194.24 297.78 194.00 310.00 Z"/>
</g>
<g fill="None" fill-opacity="0.0" stroke="#C3C1C1" stroke-opacity="1.00" stroke-width="0.3"><path d="
M 829.00 308.00 
C 828.30 293.23 827.98 278.61 830.00 264.00
C 748.62 245.90 670.02 211.88 586.00 204.00
C 595.13 207.01 604.41 212.05 613.99 215.01 C 623.57 217.97 633.46 221.80 642.93 225.07 C 652.40 228.34 661.34 232.25 670.92 235.08 C 680.51 237.90 689.75 243.00 699.32 245.68 C 708.89 248.35 716.76 253.13 725.32 257.68 C 733.89 262.22 744.40 264.63 752.77 269.23 C 761.15 273.83 770.22 276.79 777.92 282.08 C 785.63 287.36 797.32 289.32 804.31 294.70 C 811.29 300.07 824.62 300.31 829.00 308.00 Z"/>
</g>
<g fill="None" fill-opacity="0.0" stroke="#433D42" stroke-opacity="1.00" stroke-width="0.3"><path d="
M 302.00 585.00 
C 302.75 578.93 302.47 571.45 303.00 566.00
C 302.68 544.33 306.90 522.62 326.92 510.92 C 346.95 499.23 365.66 516.09 380.00 529.00
C 380.50 520.51 385.18 511.25 389.08 504.08 C 392.98 496.91 398.44 491.22 405.31 487.31 C 412.17 483.39 424.31 479.26 432.00 481.00 C 439.69 482.74 453.43 481.34 458.00 488.00
C 460.36 491.44 458.32 496.68 458.00 500.00
C 460.90 524.27 441.56 521.26 424.08 527.08 C 406.59 532.89 435.94 554.98 425.25 564.25 C 414.56 573.51 391.46 570.80 383.93 582.93 C 376.39 595.05 408.25 607.63 401.92 618.92 C 395.58 630.21 370.81 637.97 375.23 652.77 C 379.65 667.57 406.12 663.37 408.07 679.93 C 410.03 696.48 423.50 702.87 433.25 714.75 C 443.00 726.64 454.40 732.93 468.32 739.68 C 482.24 746.42 501.93 749.44 518.00 751.00 C 534.07 752.57 556.97 752.01 571.77 746.77 C 586.57 741.53 597.30 733.61 608.75 723.75 C 620.20 713.89 629.23 704.24 637.00 692.00
C 593.95 686.43 560.80 649.29 514.00 656.00
C 515.47 668.99 528.25 677.29 536.00 687.00
C 524.36 694.19 507.23 692.48 495.70 686.31 C 484.16 680.13 475.90 672.64 471.78 660.22 C 467.66 647.80 473.36 632.73 480.75 622.75 C 488.15 612.77 497.28 606.63 505.08 597.08 C 512.88 587.53 521.13 580.53 528.25 570.25 C 535.36 559.97 544.36 552.51 549.25 540.25 C 554.13 527.99 564.47 519.90 563.07 504.07 C 561.68 488.25 573.95 479.61 589.33 480.33 C 604.71 481.05 616.84 480.75 626.75 492.25 C 636.65 503.76 638.55 513.31 642.00 527.00
C 652.47 522.55 658.40 512.68 669.98 508.98 C 681.55 505.27 695.45 505.67 704.25 515.75 C 713.05 525.83 715.57 532.91 720.01 545.99 C 724.44 559.07 720.88 571.06 725.07 585.93 C 729.27 600.79 739.88 584.49 742.07 573.07 C 744.26 561.66 749.68 549.58 751.01 537.01 C 752.33 524.43 753.87 506.94 752.00 494.00 C 750.13 481.07 748.88 467.56 745.32 455.68 C 741.76 443.79 737.87 432.82 732.92 422.08 C 727.97 411.33 722.65 402.89 716.77 393.23 C 710.89 383.57 703.12 376.51 696.30 367.70 C 689.49 358.88 680.66 353.64 673.25 345.75 C 665.84 337.86 650.23 330.03 645.93 342.93 C 641.62 355.82 639.87 365.27 634.31 376.31 C 628.74 387.34 623.98 395.27 616.25 404.25 C 608.52 413.23 600.24 417.96 590.22 423.22 C 580.20 428.49 567.28 430.01 557.00 435.00
C 548.36 400.75 509.61 379.14 512.00 341.00
C 522.75 349.82 532.06 362.70 546.93 365.07 C 561.79 367.44 578.48 378.48 593.98 373.98 C 609.47 369.47 612.48 348.65 613.00 335.00
C 613.16 330.73 613.23 326.27 613.00 322.00
C 612.58 314.35 610.20 303.39 601.68 300.32 C 593.16 297.25 591.00 289.06 589.31 280.69 C 587.62 272.33 581.24 267.69 575.75 261.25 C 570.26 254.80 563.21 253.27 556.69 248.31 C 550.18 243.34 538.76 245.37 532.75 240.25 C 526.75 235.12 526.22 226.07 520.25 219.75 C 514.28 213.44 502.98 214.69 500.78 222.78 C 498.58 230.87 506.99 244.41 498.25 241.75 C 489.50 239.10 488.04 229.60 481.70 225.30 C 475.36 221.01 461.99 219.55 460.00 229.00 C 458.02 238.45 464.95 243.07 470.08 250.92 C 475.20 258.78 467.19 264.30 457.68 265.68 C 448.16 267.05 444.13 271.82 434.08 274.08 C 424.02 276.33 422.63 285.32 426.08 292.92 C 429.52 300.52 438.63 305.38 436.75 311.75 C 434.87 318.12 424.62 322.93 421.75 328.75 C 418.88 334.58 407.13 342.29 413.25 348.75 C 419.37 355.21 424.34 357.66 431.77 362.23 C 439.20 366.80 440.00 376.70 435.33 385.33 C 430.65 393.95 434.45 403.40 441.75 407.25 C 449.05 411.10 453.09 422.50 451.97 428.97 C 450.86 435.45 436.44 426.19 431.08 423.92 C 425.71 421.66 416.21 415.89 411.25 410.75 C 406.28 405.61 400.56 399.85 396.75 393.25 C 392.95 386.65 387.98 380.62 385.32 372.68 C 382.66 364.74 378.43 356.23 377.99 347.01 C 377.55 337.79 369.74 331.45 362.08 337.08 C 354.42 342.71 350.12 345.88 343.75 351.75 C 337.39 357.62 332.90 361.12 327.25 367.25 C 321.60 373.38 317.58 378.26 312.75 384.75 C 307.92 391.24 303.90 397.79 299.77 404.77 C 295.64 411.75 292.40 418.28 288.77 425.77 C 285.14 433.27 281.79 440.32 279.78 448.78 C 277.77 457.23 273.78 465.84 273.00 475.00 C 272.22 484.16 270.62 495.47 271.00 505.00 C 271.38 514.53 272.10 525.35 273.22 534.78 C 274.34 544.20 277.11 552.58 279.22 561.78 C 281.34 570.98 284.73 575.97 287.70 585.31 C 290.66 594.64 299.26 596.05 302.00 585.00
M 524.00 714.00 
C 527.67 714.00 531.33 714.00 535.00 714.00
C 544.88 714.00 549.34 716.38 540.92 720.92 C 532.51 725.47 529.20 724.51 521.00 726.00 C 512.79 727.48 506.21 727.30 498.33 725.67 C 490.45 724.04 486.28 723.62 478.32 720.68 C 470.36 717.74 469.62 718.62 460.92 713.08 C 452.22 707.54 441.22 697.08 435.70 688.30 C 430.17 679.53 429.98 681.04 426.00 673.00
C 421.25 668.20 418.39 659.98 419.00 652.00
C 419.91 640.16 416.46 623.51 419.00 612.00 C 421.54 600.49 426.08 592.27 431.77 582.77 C 437.46 573.28 441.99 566.52 449.25 558.25 C 456.51 549.98 462.42 543.08 466.92 532.92 C 471.43 522.77 475.18 513.29 477.98 501.98 C 480.77 490.66 481.32 476.05 480.00 464.00 C 478.69 451.94 477.18 438.96 473.22 427.78 C 469.26 416.59 467.40 406.87 463.07 395.93 C 458.75 384.98 457.31 373.94 454.67 362.33 C 452.03 350.71 451.45 334.62 452.78 322.78 C 454.11 310.94 456.87 300.91 463.77 291.77 C 470.67 282.63 476.22 277.70 485.70 271.70 C 495.18 265.70 506.23 261.44 518.00 261.00 C 529.77 260.56 541.92 263.71 552.08 268.92 C 562.24 274.13 567.28 280.79 571.92 291.08 C 576.57 301.36 577.84 310.52 589.08 316.92 C 600.32 323.32 594.92 336.02 592.07 348.07 C 589.23 360.12 575.37 350.78 565.33 348.67 C 555.28 346.56 543.97 341.94 535.25 336.75 C 526.54 331.55 520.46 321.26 511.25 317.75 C 502.05 314.23 495.46 329.04 493.01 338.01 C 490.56 346.98 493.11 364.13 497.77 373.23 C 502.43 382.32 506.87 392.26 513.25 400.75 C 519.63 409.23 523.88 417.26 529.31 426.70 C 534.73 436.13 538.19 446.57 540.33 457.67 C 542.47 468.77 542.92 486.72 541.00 498.00 C 539.08 509.28 535.70 520.26 531.07 530.07 C 526.45 539.88 520.92 547.17 514.25 555.25 C 507.57 563.33 500.54 569.71 493.25 577.25 C 485.95 584.79 479.80 591.06 473.25 599.25 C 466.70 607.43 461.83 615.13 456.69 624.70 C 451.56 634.26 448.80 649.04 450.99 660.01 C 453.18 670.97 456.07 680.89 463.75 689.25 C 471.44 697.60 477.96 702.26 488.23 706.77 C 498.50 711.28 512.29 714.00 524.00 714.00 Z"/>
</g>
<g fill="None" fill-opacity="0.0" stroke="#3D363C" stroke-opacity="0.49" stroke-width="0.3"><path d="
M 186.00 250.00 
C 186.00 250.00 186.18 250.93 186.00 251.00
C 189.05 249.76 191.74 247.55 195.00 247.00
C 192.13 243.82 188.15 248.07 186.00 250.00 Z"/>
</g>
<g fill="None" fill-opacity="0.0" stroke="#F9FAF8" stroke-opacity="1.00" stroke-width="0.3"><path d="
M 419.00 652.00 
C 419.89 658.39 423.14 667.22 426.00 673.00
C 429.98 681.04 430.17 679.53 435.70 688.30 C 441.22 697.08 452.22 707.54 460.92 713.08 C 469.62 718.62 470.36 717.74 478.32 720.68 C 486.28 723.62 490.45 724.04 498.33 725.67 C 506.21 727.30 512.79 727.48 521.00 726.00 C 529.20 724.51 532.51 725.47 540.92 720.92 C 549.34 716.38 544.88 714.00 535.00 714.00
C 531.54 714.33 527.39 714.33 524.00 714.00
C 512.29 714.00 498.50 711.28 488.23 706.77 C 477.96 702.26 471.44 697.60 463.75 689.25 C 456.07 680.89 453.18 670.97 450.99 660.01 C 448.80 649.04 451.56 634.26 456.69 624.70 C 461.83 615.13 466.70 607.43 473.25 599.25 C 479.80 591.06 485.95 584.79 493.25 577.25 C 500.54 569.71 507.57 563.33 514.25 555.25 C 520.92 547.17 526.45 539.88 531.07 530.07 C 535.70 520.26 539.08 509.28 541.00 498.00 C 542.92 486.72 542.47 468.77 540.33 457.67 C 538.19 446.57 534.73 436.13 529.31 426.70 C 523.88 417.26 519.63 409.23 513.25 400.75 C 506.87 392.26 502.43 382.32 497.77 373.23 C 493.11 364.13 490.56 346.98 493.01 338.01 C 495.46 329.04 502.05 314.23 511.25 317.75 C 520.46 321.26 526.54 331.55 535.25 336.75 C 543.97 341.94 555.28 346.56 565.33 348.67 C 575.37 350.78 589.23 360.12 592.07 348.07 C 594.92 336.02 600.32 323.32 589.08 316.92 C 577.84 310.52 576.57 301.36 571.92 291.08 C 567.28 280.79 562.24 274.13 552.08 268.92 C 541.92 263.71 529.77 260.56 518.00 261.00 C 506.23 261.44 495.18 265.70 485.70 271.70 C 476.22 277.70 470.67 282.63 463.77 291.77 C 456.87 300.91 454.11 310.94 452.78 322.78 C 451.45 334.62 452.03 350.71 454.67 362.33 C 457.31 373.94 458.75 384.98 463.07 395.93 C 467.40 406.87 469.26 416.59 473.22 427.78 C 477.18 438.96 478.69 451.94 480.00 464.00 C 481.32 476.05 480.77 490.66 477.98 501.98 C 475.18 513.29 471.43 522.77 466.92 532.92 C 462.42 543.08 456.51 549.98 449.25 558.25 C 441.99 566.52 437.46 573.28 431.77 582.77 C 426.08 592.27 421.54 600.49 419.00 612.00 C 416.46 623.51 419.91 640.16 419.00 652.00
M 554.00 290.00 
C 566.44 292.85 567.19 315.23 553.93 312.07 C 540.67 308.92 539.48 286.68 554.00 290.00 Z"/>
</g>
<g fill="None" fill-opacity="0.0" stroke="#272529" stroke-opacity="1.00" stroke-width="0.3"><path d="
M 554.00 290.00 
C 539.48 286.68 540.67 308.92 553.93 312.07 C 567.19 315.23 566.44 292.85 554.00 290.00 Z"/>
</g>
<g fill="None" fill-opacity="0.0" stroke="#969395" stroke-opacity="1.00" stroke-width="0.3"><path d="
M 613.00 335.00 
C 613.60 330.78 613.70 326.30 613.00 322.00
C 613.23 326.27 613.16 330.73 613.00 335.00 Z"/>
</g>
<g fill="None" fill-opacity="0.0" stroke="#928F91" stroke-opacity="1.00" stroke-width="0.3"><path d="
M 458.00 500.00 
C 458.32 496.68 460.36 491.44 458.00 488.00
C 459.25 490.67 458.00 497.00 458.00 500.00 Z"/>
</g>
<g fill="None" fill-opacity="0.0" stroke="#878486" stroke-opacity="1.00" stroke-width="0.3"><path d="
M 302.00 585.00 
C 303.38 579.41 303.00 572.35 303.00 566.00
C 302.47 571.45 302.75 578.93 302.00 585.00 Z"/>
</g>
<g fill="None" fill-opacity="0.0" stroke="#060606" stroke-opacity="1.00" stroke-width="0.3"><path d="
M 426.00 673.00 
C 423.14 667.22 419.89 658.39 419.00 652.00
C 418.39 659.98 421.25 668.20 426.00 673.00 Z"/>
</g>
<g fill="None" fill-opacity="0.0" stroke="#8B888A" stroke-opacity="1.00" stroke-width="0.3"><path d="
M 535.00 714.00 
C 531.33 714.00 527.67 714.00 524.00 714.00
C 527.39 714.33 531.54 714.33 535.00 714.00 Z"/>
</g>
<g fill="None" fill-opacity="0.0" stroke="#F9FAF8" stroke-opacity="1.00" stroke-width="0.3"><path d="
M 525.00 841.00 
C 521.92 841.30 517.75 842.00 514.00 842.00
C 483.25 842.00 448.78 839.56 419.00 838.00 C 389.22 836.44 362.20 828.93 334.01 824.99 C 305.82 821.06 279.43 814.21 252.68 808.32 C 225.93 802.43 202.07 789.84 175.00 788.00
C 170.73 787.71 165.58 787.35 162.00 787.00
C 142.02 787.00 115.57 776.15 96.23 784.23 C 76.89 792.31 65.80 800.15 56.25 818.25 C 46.71 836.36 43.40 858.73 43.02 878.98 C 42.65 899.22 49.90 920.87 59.08 937.92 C 68.25 954.98 79.08 965.87 96.77 974.23 C 114.46 982.59 141.20 984.39 161.00 980.00
C 169.68 975.32 172.31 963.89 180.25 957.25 C 188.19 950.62 195.76 942.96 206.68 940.68 C 217.60 938.40 228.35 934.31 239.67 931.67 C 250.99 929.04 263.36 926.87 275.00 924.00 C 286.65 921.13 298.72 918.55 311.02 917.02 C 323.33 915.50 336.17 914.47 348.67 912.67 C 361.17 910.87 374.11 909.01 387.00 908.00 C 399.89 906.99 411.86 904.87 425.02 904.02 C 438.19 903.17 451.38 901.03 465.00 901.00 C 478.62 900.97 494.28 900.70 508.00 901.00 C 521.72 901.30 536.47 900.14 550.00 901.00 C 563.53 901.86 578.58 901.69 592.00 902.00 C 605.42 902.31 616.99 905.50 630.07 905.93 C 643.15 906.36 655.42 909.66 668.07 910.93 C 680.73 912.20 693.71 914.37 706.01 915.99 C 718.31 917.61 730.12 920.28 742.07 921.93 C 754.02 923.57 766.74 926.36 778.00 929.00 C 789.27 931.63 799.35 936.32 810.02 938.98 C 820.70 941.63 829.68 947.29 837.25 954.75 C 844.82 962.21 847.91 972.25 857.00 978.00
C 894.65 989.59 937.55 981.71 959.25 947.25 C 980.94 912.78 983.38 871.93 971.78 833.22 C 960.17 794.52 926.68 773.76 887.02 781.02 C 847.37 788.29 812.41 799.28 773.02 808.02 C 733.64 816.77 694.71 824.52 654.00 830.00 C 613.30 835.49 567.17 841.00 525.00 841.00
M 72.00 934.00 
C 68.75 928.80 66.46 923.76 64.00 918.00
C 56.52 900.46 57.82 872.58 61.00 854.00 C 64.17 835.42 69.48 818.41 84.00 806.00
C 107.89 785.59 140.33 790.92 159.75 814.25 C 179.17 837.58 192.52 867.26 188.02 897.02 C 183.53 926.79 172.42 949.95 144.77 965.77 C 117.12 981.59 86.62 957.38 72.00 934.00
M 942.00 811.00 
C 953.32 822.32 957.36 837.68 960.00 853.00
C 963.63 874.06 964.27 903.56 957.02 923.02 C 949.78 942.48 941.12 958.52 921.77 966.77 C 902.42 975.02 876.38 968.82 861.75 954.25 C 847.12 939.68 838.10 922.38 835.22 901.78 C 832.34 881.18 837.19 855.40 846.31 836.31 C 855.43 817.21 866.38 807.69 885.69 796.70 C 905.01 785.70 927.05 796.05 942.00 811.00 Z"/>
</g>
<g fill="None" fill-opacity="0.0" stroke="#A09D9F" stroke-opacity="1.00" stroke-width="0.3"><path d="
M 175.00 788.00 
C 171.20 787.32 166.51 787.00 162.00 787.00
C 165.58 787.35 170.73 787.71 175.00 788.00 Z"/>
</g>
<g fill="None" fill-opacity="0.0" stroke="#443E43" stroke-opacity="1.00" stroke-width="0.3"><path d="
M 84.00 806.00 
C 90.81 804.89 100.16 810.56 108.00 810.00 C 115.85 809.44 122.05 815.02 130.07 815.93 C 138.09 816.83 143.18 825.75 133.97 827.98 C 124.77 830.20 117.06 829.46 108.99 831.99 C 100.92 834.53 96.99 837.35 89.92 840.92 C 82.86 844.50 79.65 847.50 76.23 855.23 C 72.81 862.96 72.15 868.84 72.00 879.00 C 71.85 889.16 72.40 893.09 75.97 904.03 C 79.55 914.96 90.57 929.20 101.69 934.31 C 112.82 939.41 115.31 936.86 126.00 938.00 C 136.69 939.14 141.05 934.10 151.00 934.00
C 147.77 942.14 139.92 948.23 130.98 949.98 C 122.04 951.72 106.95 952.02 98.78 947.22 C 90.60 942.43 83.12 939.58 76.00 933.00
C 74.52 932.73 72.80 932.72 72.00 934.00
C 86.62 957.38 117.12 981.59 144.77 965.77 C 172.42 949.95 183.53 926.79 188.02 897.02 C 192.52 867.26 179.17 837.58 159.75 814.25 C 140.33 790.92 107.89 785.59 84.00 806.00
M 132.00 850.00 
C 143.55 852.07 158.98 848.92 161.92 863.08 C 164.87 877.23 168.67 887.31 165.07 901.07 C 161.47 914.84 144.87 910.13 135.00 914.00
C 123.43 924.09 107.27 920.70 99.75 907.25 C 92.22 893.81 88.79 879.92 95.77 864.77 C 102.75 849.62 116.88 847.29 132.00 850.00 Z"/>
</g>
<g fill="None" fill-opacity="0.0" stroke="#443E43" stroke-opacity="1.00" stroke-width="0.3"><path d="
M 960.00 853.00 
C 959.95 853.34 956.88 857.53 958.93 862.07 C 960.98 866.62 957.96 871.78 959.00 877.00 C 960.04 882.22 958.30 884.67 959.00 891.00 C 959.70 897.33 958.56 897.15 958.02 905.02 C 957.49 912.90 953.54 918.61 948.70 924.70 C 943.85 930.78 940.92 933.84 935.25 940.25 C 929.58 946.66 926.44 949.56 916.33 951.33 C 906.21 953.10 889.92 950.32 881.31 944.70 C 872.69 939.07 871.75 936.63 867.00 929.00
C 876.25 929.75 882.46 936.65 892.00 937.00 C 901.54 937.35 913.78 937.09 922.07 933.07 C 930.37 929.06 934.67 924.46 940.30 917.30 C 945.94 910.15 948.72 902.23 950.00 893.00 C 951.28 883.76 951.54 870.93 949.07 861.93 C 946.60 852.93 941.81 848.16 934.75 842.25 C 927.69 836.34 920.20 834.93 911.98 831.02 C 903.75 827.12 888.71 832.65 880.98 828.02 C 873.24 823.39 887.33 814.98 893.70 812.70 C 900.06 810.41 912.72 808.41 920.22 805.22 C 927.72 802.04 936.53 807.16 942.00 811.00
C 927.05 796.05 905.01 785.70 885.69 796.70 C 866.38 807.69 855.43 817.21 846.31 836.31 C 837.19 855.40 832.34 881.18 835.22 901.78 C 838.10 922.38 847.12 939.68 861.75 954.25 C 876.38 968.82 902.42 975.02 921.77 966.77 C 941.12 958.52 949.78 942.48 957.02 923.02 C 964.27 903.56 963.63 874.06 960.00 853.00
M 885.00 852.00 
C 893.33 851.38 903.87 845.10 912.22 850.78 C 920.58 856.45 926.93 858.27 929.93 868.07 C 932.92 877.87 932.57 888.72 929.02 898.02 C 925.48 907.33 921.07 911.52 912.31 916.31 C 903.54 921.09 893.73 914.93 886.00 911.00
C 884.62 910.30 883.76 908.72 882.00 909.00
C 881.08 911.77 884.19 912.90 885.00 915.00
C 875.61 915.54 865.90 914.74 860.08 906.92 C 854.26 899.10 853.12 890.35 854.33 880.33 C 855.54 870.31 857.67 864.51 861.77 854.77 C 865.88 845.04 876.56 849.37 885.00 852.00 Z"/>
</g>
<g fill="None" fill-opacity="0.0" stroke="#958F91" stroke-opacity="1.00" stroke-width="0.3"><path d="
M 960.00 853.00 
C 957.36 837.68 953.32 822.32 942.00 811.00
C 936.53 807.16 927.72 802.04 920.22 805.22 C 912.72 808.41 900.06 810.41 893.70 812.70 C 887.33 814.98 873.24 823.39 880.98 828.02 C 888.71 832.65 903.75 827.12 911.98 831.02 C 920.20 834.93 927.69 836.34 934.75 842.25 C 941.81 848.16 946.60 852.93 949.07 861.93 C 951.54 870.93 951.28 883.76 950.00 893.00 C 948.72 902.23 945.94 910.15 940.30 917.30 C 934.67 924.46 930.37 929.06 922.07 933.07 C 913.78 937.09 901.54 937.35 892.00 937.00 C 882.46 936.65 876.25 929.75 867.00 929.00
C 871.75 936.63 872.69 939.07 881.31 944.70 C 889.92 950.32 906.21 953.10 916.33 951.33 C 926.44 949.56 929.58 946.66 935.25 940.25 C 940.92 933.84 943.85 930.78 948.70 924.70 C 953.54 918.61 957.49 912.90 958.02 905.02 C 958.56 897.15 959.70 897.33 959.00 891.00 C 958.30 884.67 960.04 882.22 959.00 877.00 C 957.96 871.78 960.98 866.62 958.93 862.07 C 956.88 857.53 959.95 853.34 960.00 853.00 Z"/>
</g>
<g fill="None" fill-opacity="0.0" stroke="#958F91" stroke-opacity="1.00" stroke-width="0.3"><path d="
M 64.00 918.00 
C 63.86 916.48 63.44 913.74 65.00 913.00
C 68.96 919.39 70.29 927.69 76.00 933.00
C 83.12 939.58 90.60 942.43 98.78 947.22 C 106.95 952.02 122.04 951.72 130.98 949.98 C 139.92 948.23 147.77 942.14 151.00 934.00
C 141.05 934.10 136.69 939.14 126.00 938.00 C 115.31 936.86 112.82 939.41 101.69 934.31 C 90.57 929.20 79.55 914.96 75.97 904.03 C 72.40 893.09 71.85 889.16 72.00 879.00 C 72.15 868.84 72.81 862.96 76.23 855.23 C 79.65 847.50 82.86 844.50 89.92 840.92 C 96.99 837.35 100.92 834.53 108.99 831.99 C 117.06 829.46 124.77 830.20 133.97 827.98 C 143.18 825.75 138.09 816.83 130.07 815.93 C 122.05 815.02 115.85 809.44 108.00 810.00 C 100.16 810.56 90.81 804.89 84.00 806.00
C 69.48 818.41 64.17 835.42 61.00 854.00 C 57.82 872.58 56.52 900.46 64.00 918.00 Z"/>
</g>
<g fill="None" fill-opacity="0.0" stroke="#918E90" stroke-opacity="1.00" stroke-width="0.3"><path d="
M 514.00 842.00 
C 517.75 842.00 521.92 841.30 525.00 841.00
C 521.25 841.00 517.08 841.70 514.00 842.00 Z"/>
</g>
<g fill="None" fill-opacity="0.0" stroke="#F7F8F6" stroke-opacity="1.00" stroke-width="0.3"><path d="
M 135.00 914.00 
C 152.65 898.61 153.26 862.49 132.00 850.00
C 116.88 847.29 102.75 849.62 95.77 864.77 C 88.79 879.92 92.22 893.81 99.75 907.25 C 107.27 920.70 123.43 924.09 135.00 914.00
M 115.00 869.00 
C 129.08 869.33 132.61 896.81 117.93 898.93 C 103.25 901.04 101.59 868.69 115.00 869.00 Z"/>
</g>
<g fill="None" fill-opacity="0.0" stroke="#969092" stroke-opacity="1.00" stroke-width="0.3"><path d="
M 886.00 911.00 
C 879.19 904.19 876.04 891.30 877.00 882.00 C 877.96 872.70 877.19 858.48 885.00 852.00
C 876.56 849.37 865.88 845.04 861.77 854.77 C 857.67 864.51 855.54 870.31 854.33 880.33 C 853.12 890.35 854.26 899.10 860.08 906.92 C 865.90 914.74 875.61 915.54 885.00 915.00
C 884.19 912.90 881.08 911.77 882.00 909.00
C 883.76 908.72 884.62 910.30 886.00 911.00 Z"/>
</g>
<g fill="None" fill-opacity="0.0" stroke="#F7F8F6" stroke-opacity="1.00" stroke-width="0.3"><path d="
M 885.00 852.00 
C 877.19 858.48 877.96 872.70 877.00 882.00 C 876.04 891.30 879.19 904.19 886.00 911.00
C 893.73 914.93 903.54 921.09 912.31 916.31 C 921.07 911.52 925.48 907.33 929.02 898.02 C 932.57 888.72 932.92 877.87 929.93 868.07 C 926.93 858.27 920.58 856.45 912.22 850.78 C 903.87 845.10 893.33 851.38 885.00 852.00
M 908.00 869.00 
C 922.25 870.69 921.14 897.78 905.99 897.99 C 890.84 898.21 892.96 867.22 908.00 869.00 Z"/>
</g>
<g fill="None" fill-opacity="0.0" stroke="#C4C2C4" stroke-opacity="1.00" stroke-width="0.3"><path d="
M 135.00 914.00 
C 144.87 910.13 161.47 914.84 165.07 901.07 C 168.67 887.31 164.87 877.23 161.92 863.08 C 158.98 848.92 143.55 852.07 132.00 850.00
C 153.26 862.49 152.65 898.61 135.00 914.00 Z"/>
</g>
<g fill="None" fill-opacity="0.0" stroke="#433D42" stroke-opacity="1.00" stroke-width="0.3"><path d="
M 115.00 869.00 
C 101.59 868.69 103.25 901.04 117.93 898.93 C 132.61 896.81 129.08 869.33 115.00 869.00 Z"/>
</g>
<g fill="None" fill-opacity="0.0" stroke="#433D42" stroke-opacity="1.00" stroke-width="0.3"><path d="
M 908.00 869.00 
C 892.96 867.22 890.84 898.21 905.99 897.99 C 921.14 897.78 922.25 870.69 908.00 869.00 Z"/>
</g>
<g fill="None" fill-opacity="0.0" stroke="#C3C1C1" stroke-opacity="1.00" stroke-width="0.3"><path d="
M 161.00 980.00 
C 205.98 970.03 245.32 956.17 291.93 949.93 C 338.54 943.68 384.66 934.51 433.00 931.00 C 481.34 927.49 537.51 926.00 586.00 929.00 C 634.49 932.00 681.96 938.10 727.78 947.22 C 773.59 956.34 813.02 964.46 857.00 978.00
C 847.91 972.25 844.82 962.21 837.25 954.75 C 829.68 947.29 820.70 941.63 810.02 938.98 C 799.35 936.32 789.27 931.63 778.00 929.00 C 766.74 926.36 754.02 923.57 742.07 921.93 C 730.12 920.28 718.31 917.61 706.01 915.99 C 693.71 914.37 680.73 912.20 668.07 910.93 C 655.42 909.66 643.15 906.36 630.07 905.93 C 616.99 905.50 605.42 902.31 592.00 902.00 C 578.58 901.69 563.53 901.86 550.00 901.00 C 536.47 900.14 521.72 901.30 508.00 901.00 C 494.28 900.70 478.62 900.97 465.00 901.00 C 451.38 901.03 438.19 903.17 425.02 904.02 C 411.86 904.87 399.89 906.99 387.00 908.00 C 374.11 909.01 361.17 910.87 348.67 912.67 C 336.17 914.47 323.33 915.50 311.02 917.02 C 298.72 918.55 286.65 921.13 275.00 924.00 C 263.36 926.87 250.99 929.04 239.67 931.67 C 228.35 934.31 217.60 938.40 206.68 940.68 C 195.76 942.96 188.19 950.62 180.25 957.25 C 172.31 963.89 169.68 975.32 161.00 980.00 Z"/>
</g>
<g fill="None" fill-opacity="0.0" stroke="#5D5A5B" stroke-opacity="1.00" stroke-width="0.3"><path d="
M 64.00 918.00 
C 66.46 923.76 68.75 928.80 72.00 934.00
C 72.80 932.72 74.52 932.73 76.00 933.00
C 70.29 927.69 68.96 919.39 65.00 913.00
C 63.44 913.74 63.86 916.48 64.00 918.00 Z"/>
</g>
<g fill="#000000" fill-opacity="0.00" stroke="None">
<path d="
M 0.00 1024.00 
L 1024.00 1024.00
L 1024.00 0.00
L 0.00 0.00
L 0.00 1024.00
M 186.00 251.00 
C 186.18 250.93 186.00 250.00 186.00 250.00
C 164.12 248.02 144.21 269.36 121.98 268.98 C 99.75 268.59 80.31 261.90 64.25 245.75 C 48.18 229.61 37.33 216.48 32.07 194.93 C 26.82 173.37 22.62 141.82 28.00 120.00 C 33.38 98.18 37.38 77.88 51.92 60.92 C 66.45 43.95 78.81 31.69 101.02 27.02 C 123.24 22.36 152.29 26.59 173.08 35.92 C 193.86 45.26 217.12 46.28 239.67 52.33 C 262.22 58.38 286.02 61.16 310.01 64.99 C 334.00 68.83 359.58 70.74 384.67 73.33 C 409.76 75.92 436.98 76.86 463.00 78.00 C 489.02 79.14 517.95 79.12 544.00 78.00 C 570.06 76.88 597.80 76.69 623.00 74.00 C 648.20 71.32 673.72 69.74 698.00 66.00 C 722.28 62.26 746.39 59.68 769.67 54.67 C 792.95 49.67 815.15 46.50 837.22 39.22 C 859.29 31.94 882.41 24.45 906.00 25.00 C 929.59 25.55 947.26 34.19 962.75 51.25 C 978.25 68.31 985.07 83.85 991.78 105.22 C 998.48 126.60 999.87 157.83 996.00 180.00 C 992.13 202.17 984.89 220.23 969.75 236.75 C 954.61 253.27 939.90 263.72 916.93 266.93 C 893.95 270.14 866.94 261.33 846.00 254.00
C 848.06 277.80 846.23 300.99 847.98 325.02 C 849.72 349.06 846.79 373.93 847.00 398.00 C 847.21 422.07 845.84 445.05 847.00 469.00 C 848.16 492.95 820.40 492.13 807.00 503.00
C 821.40 511.29 846.76 511.81 847.00 534.00 C 847.24 556.19 846.16 581.64 848.00 604.00 C 849.84 626.36 822.83 627.14 810.00 637.00
C 833.33 646.27 851.01 660.04 847.00 688.00 C 842.99 715.96 850.51 745.20 849.00 772.00
C 879.22 764.79 917.39 756.86 945.70 773.31 C 974.00 789.75 983.49 814.29 990.99 844.01 C 998.49 873.72 996.19 914.25 981.69 941.69 C 967.20 969.14 951.48 987.41 919.93 995.93 C 888.38 1004.44 849.76 992.60 818.99 984.01 C 788.23 975.41 755.81 969.13 722.98 964.02 C 690.15 958.92 656.41 950.63 622.00 948.00 C 587.59 945.37 546.85 943.39 512.00 944.00 C 477.15 944.61 437.82 948.22 403.78 951.78 C 369.73 955.34 332.77 958.84 300.33 965.33 C 267.89 971.81 234.62 975.61 204.32 985.32 C 174.02 995.04 133.12 1003.97 102.33 995.67 C 71.53 987.38 55.22 968.37 40.23 941.77 C 25.24 915.17 22.80 872.57 29.33 842.33 C 35.86 812.09 49.70 791.11 77.69 774.69 C 105.69 758.28 145.33 768.96 177.00 771.00
C 180.30 756.09 171.21 736.59 174.93 722.93 C 178.65 709.26 193.77 704.84 205.00 701.00
C 189.63 694.02 176.11 684.51 177.00 665.00 C 177.89 645.49 171.91 623.85 174.00 604.00 C 176.09 584.15 193.48 581.53 209.00 575.00
C 188.53 567.71 175.22 556.39 177.00 533.00 C 178.78 509.61 175.29 485.01 177.00 461.00 C 178.71 436.99 175.62 412.23 175.02 388.98 C 174.43 365.72 173.73 338.45 175.98 315.98 C 178.22 293.50 172.07 268.18 186.00 251.00 Z"/>
</g>
<g fill="#433D42" fill-opacity="0.98" stroke="None">
<path d="
M 186.00 250.00 
C 188.15 248.07 192.13 243.82 195.00 247.00
C 191.74 247.55 189.05 249.76 186.00 251.00
C 172.07 268.18 178.22 293.50 175.98 315.98 C 173.73 338.45 174.43 365.72 175.02 388.98 C 175.62 412.23 178.71 436.99 177.00 461.00 C 175.29 485.01 178.78 509.61 177.00 533.00 C 175.22 556.39 188.53 567.71 209.00 575.00
C 193.48 581.53 176.09 584.15 174.00 604.00 C 171.91 623.85 177.89 645.49 177.00 665.00 C 176.11 684.51 189.63 694.02 205.00 701.00
C 193.77 704.84 178.65 709.26 174.93 722.93 C 171.21 736.59 180.30 756.09 177.00 771.00
C 145.33 768.96 105.69 758.28 77.69 774.69 C 49.70 791.11 35.86 812.09 29.33 842.33 C 22.80 872.57 25.24 915.17 40.23 941.77 C 55.22 968.37 71.53 987.38 102.33 995.67 C 133.12 1003.97 174.02 995.04 204.32 985.32 C 234.62 975.61 267.89 971.81 300.33 965.33 C 332.77 958.84 369.73 955.34 403.78 951.78 C 437.82 948.22 477.15 944.61 512.00 944.00 C 546.85 943.39 587.59 945.37 622.00 948.00 C 656.41 950.63 690.15 958.92 722.98 964.02 C 755.81 969.13 788.23 975.41 818.99 984.01 C 849.76 992.60 888.38 1004.44 919.93 995.93 C 951.48 987.41 967.20 969.14 981.69 941.69 C 996.19 914.25 998.49 873.72 990.99 844.01 C 983.49 814.29 974.00 789.75 945.70 773.31 C 917.39 756.86 879.22 764.79 849.00 772.00
C 850.51 745.20 842.99 715.96 847.00 688.00 C 851.01 660.04 833.33 646.27 810.00 637.00
C 822.83 627.14 849.84 626.36 848.00 604.00 C 846.16 581.64 847.24 556.19 847.00 534.00 C 846.76 511.81 821.40 511.29 807.00 503.00
C 820.40 492.13 848.16 492.95 847.00 469.00 C 845.84 445.05 847.21 422.07 847.00 398.00 C 846.79 373.93 849.72 349.06 847.98 325.02 C 846.23 300.99 848.06 277.80 846.00 254.00
C 866.94 261.33 893.95 270.14 916.93 266.93 C 939.90 263.72 954.61 253.27 969.75 236.75 C 984.89 220.23 992.13 202.17 996.00 180.00 C 999.87 157.83 998.48 126.60 991.78 105.22 C 985.07 83.85 978.25 68.31 962.75 51.25 C 947.26 34.19 929.59 25.55 906.00 25.00 C 882.41 24.45 859.29 31.94 837.22 39.22 C 815.15 46.50 792.95 49.67 769.67 54.67 C 746.39 59.68 722.28 62.26 698.00 66.00 C 673.72 69.74 648.20 71.32 623.00 74.00 C 597.80 76.69 570.06 76.88 544.00 78.00 C 517.95 79.12 489.02 79.14 463.00 78.00 C 436.98 76.86 409.76 75.92 384.67 73.33 C 359.58 70.74 334.00 68.83 310.01 64.99 C 286.02 61.16 262.22 58.38 239.67 52.33 C 217.12 46.28 193.86 45.26 173.08 35.92 C 152.29 26.59 123.24 22.36 101.02 27.02 C 78.81 31.69 66.45 43.95 51.92 60.92 C 37.38 77.88 33.38 98.18 28.00 120.00 C 22.62 141.82 26.82 173.37 32.07 194.93 C 37.33 216.48 48.18 229.61 64.25 245.75 C 80.31 261.90 99.75 268.59 121.98 268.98 C 144.21 269.36 164.12 248.02 186.00 250.00
M 853.00 239.00 
C 788.59 216.96 721.55 202.74 656.00 186.00
C 617.86 176.26 578.81 175.88 539.00 172.00 C 499.19 168.12 453.51 173.25 415.00 178.00 C 376.49 182.74 342.04 190.68 305.00 200.00
C 283.04 205.52 263.02 210.82 241.32 218.32 C 219.62 225.82 196.20 228.54 173.00 232.00
C 148.54 235.65 120.02 259.67 94.93 246.07 C 69.84 232.48 56.50 215.47 49.07 188.93 C 41.64 162.38 41.24 123.84 51.78 98.78 C 62.32 73.71 72.46 53.93 100.07 44.07 C 127.69 34.22 158.54 48.90 185.22 56.78 C 211.91 64.65 241.32 69.23 270.00 75.00 C 298.68 80.76 329.84 84.03 360.22 87.78 C 390.61 91.53 425.32 92.43 457.00 94.00 C 488.68 95.57 525.25 95.16 557.00 94.00 C 588.75 92.85 623.16 91.20 653.67 87.67 C 684.18 84.14 715.54 80.40 744.67 75.67 C 773.80 70.94 802.71 64.67 830.02 58.02 C 857.34 51.38 887.51 36.46 916.00 42.00 C 944.49 47.54 956.27 69.03 968.31 92.69 C 980.34 116.36 983.99 155.08 978.00 182.00 C 972.02 208.93 959.09 227.20 934.92 241.92 C 910.76 256.65 878.11 247.59 853.00 239.00
M 586.00 204.00 
C 670.02 211.88 748.62 245.90 830.00 264.00
C 827.98 278.61 828.30 293.23 829.00 308.00
C 829.99 320.48 831.69 332.81 831.00 346.00 C 830.31 359.19 831.13 372.73 831.00 386.00 C 830.87 399.27 830.70 413.80 831.00 427.00 C 831.30 440.20 830.02 454.08 831.00 467.00 C 831.98 479.92 815.05 479.06 806.93 482.93 C 798.81 486.79 785.77 494.21 788.78 504.22 C 791.79 514.23 801.03 519.15 810.68 522.32 C 820.33 525.49 832.86 529.83 831.00 543.00 C 829.14 556.17 831.62 570.51 831.00 583.00 C 830.38 595.49 834.31 610.46 821.32 613.32 C 808.33 616.19 804.44 620.16 795.25 628.25 C 786.06 636.34 794.37 647.74 803.08 651.92 C 811.80 656.10 821.24 661.03 829.00 667.00
C 830.66 681.33 829.74 696.32 830.00 711.00 C 830.26 725.68 830.03 740.06 829.00 754.00 C 827.97 767.94 809.65 765.48 797.99 768.99 C 786.34 772.50 772.84 774.06 760.78 777.78 C 748.72 781.50 735.69 783.50 723.00 786.00 C 710.31 788.50 697.75 791.22 684.78 793.78 C 671.80 796.34 658.38 797.82 645.00 800.00 C 631.61 802.17 618.07 804.08 604.00 805.00 C 589.93 805.92 574.33 806.13 560.00 807.00 C 545.67 807.87 530.74 808.40 516.00 808.00 C 501.26 807.60 484.59 808.53 470.00 808.00 C 455.41 807.47 441.20 805.93 426.99 805.01 C 412.78 804.08 398.65 802.94 384.98 801.02 C 371.30 799.11 357.27 798.26 344.00 796.00 C 330.73 793.74 317.91 791.44 304.99 789.01 C 292.08 786.58 279.79 783.93 267.33 780.67 C 254.87 777.41 243.36 774.01 230.93 771.07 C 218.49 768.13 206.17 765.81 194.00 762.00
C 196.38 752.51 191.59 737.19 192.07 728.93 C 192.56 720.66 205.55 715.47 213.02 715.02 C 220.50 714.58 232.97 703.17 225.69 694.31 C 218.42 685.44 214.56 685.32 203.77 681.23 C 192.98 677.14 192.70 667.46 193.99 656.99 C 195.29 646.52 191.49 636.01 193.00 625.00 C 194.51 613.99 189.32 603.12 198.23 597.23 C 207.14 591.34 215.48 592.56 222.75 585.75 C 230.02 578.94 225.96 566.10 221.22 558.78 C 216.49 551.45 202.93 553.85 196.92 547.08 C 190.92 540.30 193.51 526.28 193.00 516.00 C 192.49 505.72 193.25 492.12 193.00 481.00 C 192.75 469.88 193.16 456.43 193.00 445.00 C 192.84 433.57 193.17 421.48 193.00 410.00 C 192.83 398.52 191.10 387.39 193.00 376.00 C 194.90 364.61 189.90 354.43 191.78 343.78 C 193.66 333.12 192.65 320.85 194.00 310.00
C 194.24 297.78 190.65 278.99 195.00 268.00 C 199.35 257.01 217.77 260.92 227.68 255.68 C 237.59 250.43 250.63 248.56 261.68 244.68 C 272.73 240.79 285.61 237.93 297.07 234.07 C 308.53 230.22 320.76 227.92 332.67 224.67 C 344.58 221.43 356.40 218.75 368.67 215.67 C 380.94 212.60 392.35 209.49 405.22 207.22 C 418.09 204.95 433.56 203.92 447.00 203.00
C 469.53 201.47 492.99 202.99 516.00 202.00 C 539.01 201.01 563.43 201.88 586.00 204.00
M 857.00 978.00 
C 813.02 964.46 773.59 956.34 727.78 947.22 C 681.96 938.10 634.49 932.00 586.00 929.00 C 537.51 926.00 481.34 927.49 433.00 931.00 C 384.66 934.51 338.54 943.68 291.93 949.93 C 245.32 956.17 205.98 970.03 161.00 980.00
C 141.20 984.39 114.46 982.59 96.77 974.23 C 79.08 965.87 68.25 954.98 59.08 937.92 C 49.90 920.87 42.65 899.22 43.02 878.98 C 43.40 858.73 46.71 836.36 56.25 818.25 C 65.80 800.15 76.89 792.31 96.23 784.23 C 115.57 776.15 142.02 787.00 162.00 787.00
C 166.51 787.00 171.20 787.32 175.00 788.00
C 202.07 789.84 225.93 802.43 252.68 808.32 C 279.43 814.21 305.82 821.06 334.01 824.99 C 362.20 828.93 389.22 836.44 419.00 838.00 C 448.78 839.56 483.25 842.00 514.00 842.00
C 517.08 841.70 521.25 841.00 525.00 841.00
C 567.17 841.00 613.30 835.49 654.00 830.00 C 694.71 824.52 733.64 816.77 773.02 808.02 C 812.41 799.28 847.37 788.29 887.02 781.02 C 926.68 773.76 960.17 794.52 971.78 833.22 C 983.38 871.93 980.94 912.78 959.25 947.25 C 937.55 981.71 894.65 989.59 857.00 978.00 Z"/>
</g>
<g fill="#F9FAF8" fill-opacity="1.00" stroke="None">
<path d="
M 173.00 232.00 
C 181.18 226.61 180.66 211.96 192.68 210.68 C 204.69 209.39 216.23 206.75 228.22 204.22 C 240.21 201.70 252.21 200.90 265.00 200.00 C 277.79 199.10 292.64 199.64 305.00 200.00
C 342.04 190.68 376.49 182.74 415.00 178.00 C 453.51 173.25 499.19 168.12 539.00 172.00 C 578.81 175.88 617.86 176.26 656.00 186.00
C 664.50 184.77 677.85 184.91 689.00 185.00 C 700.15 185.09 713.11 185.45 724.00 186.00 C 734.89 186.55 745.78 188.35 756.00 190.00 C 766.23 191.65 775.39 195.87 785.07 197.93 C 794.76 199.98 804.76 202.29 813.68 205.32 C 822.59 208.36 830.84 210.98 837.75 217.25 C 844.66 223.52 850.80 230.52 853.00 239.00
C 878.11 247.59 910.76 256.65 934.92 241.92 C 959.09 227.20 972.02 208.93 978.00 182.00 C 983.99 155.08 980.34 116.36 968.31 92.69 C 956.27 69.03 944.49 47.54 916.00 42.00 C 887.51 36.46 857.34 51.38 830.02 58.02 C 802.71 64.67 773.80 70.94 744.67 75.67 C 715.54 80.40 684.18 84.14 653.67 87.67 C 623.16 91.20 588.75 92.85 557.00 94.00 C 525.25 95.16 488.68 95.57 457.00 94.00 C 425.32 92.43 390.61 91.53 360.22 87.78 C 329.84 84.03 298.68 80.76 270.00 75.00 C 241.32 69.23 211.91 64.65 185.22 56.78 C 158.54 48.90 127.69 34.22 100.07 44.07 C 72.46 53.93 62.32 73.71 51.78 98.78 C 41.24 123.84 41.64 162.38 49.07 188.93 C 56.50 215.47 69.84 232.48 94.93 246.07 C 120.02 259.67 148.54 235.65 173.00 232.00
M 912.00 53.00 
C 930.99 56.40 941.70 75.05 951.30 91.70 C 960.91 108.34 964.06 135.85 965.00 157.00 C 965.94 178.15 956.24 198.08 945.25 216.25 C 934.25 234.42 908.77 240.61 889.77 232.23 C 870.77 223.85 859.15 213.03 849.25 194.75 C 839.34 176.48 832.89 153.78 833.93 132.93 C 834.97 112.08 841.33 91.13 855.75 75.75 C 870.17 60.37 890.16 49.09 912.00 53.00
M 61.00 128.00 
C 63.96 109.42 69.58 92.39 82.00 78.00
C 100.95 56.04 134.09 44.36 157.25 65.75 C 180.40 87.15 191.84 113.97 190.00 144.00 C 188.16 174.03 174.56 197.68 155.25 220.25 C 135.94 242.82 99.52 241.89 80.75 217.25 C 61.98 192.61 55.94 159.80 61.00 128.00 Z"/>
</g>
<g fill="#443E43" fill-opacity="1.00" stroke="None">
<path d="
M 912.00 53.00 
C 890.16 49.09 870.17 60.37 855.75 75.75 C 841.33 91.13 834.97 112.08 833.93 132.93 C 832.89 153.78 839.34 176.48 849.25 194.75 C 859.15 213.03 870.77 223.85 889.77 232.23 C 908.77 240.61 934.25 234.42 945.25 216.25 C 956.24 198.08 965.94 178.15 965.00 157.00 C 964.06 135.85 960.91 108.34 951.30 91.70 C 941.70 75.05 930.99 56.40 912.00 53.00
M 877.00 200.00 
C 900.82 206.19 932.99 204.12 946.75 180.75 C 960.51 157.38 955.07 128.68 938.75 108.25 C 922.42 87.83 890.83 84.91 867.00 91.00
C 871.11 82.92 878.84 78.42 887.23 74.23 C 895.62 70.04 905.25 65.05 915.02 64.02 C 924.80 62.99 933.30 69.74 939.75 77.25 C 946.20 84.76 948.61 91.92 952.32 101.68 C 956.03 111.44 956.92 120.96 959.98 132.02 C 963.04 143.09 958.54 154.40 958.00 166.00 C 957.46 177.61 956.04 185.41 952.08 197.08 C 948.11 208.74 938.80 207.39 929.31 212.31 C 919.81 217.22 909.87 219.28 899.93 215.07 C 889.99 210.87 882.35 209.94 877.00 200.00
M 889.00 180.00 
C 877.89 178.05 864.51 180.08 859.70 167.30 C 854.88 154.53 852.20 145.22 854.99 131.99 C 857.78 118.76 870.43 119.42 880.00 115.00
C 888.20 111.21 898.95 105.25 908.07 109.93 C 917.19 114.61 923.27 118.69 928.30 127.70 C 933.33 136.71 936.11 146.62 934.22 157.22 C 932.33 167.82 927.34 172.42 918.75 179.75 C 910.17 187.09 898.24 181.62 889.00 180.00 Z"/>
</g>
<g fill="#443E43" fill-opacity="1.00" stroke="None">
<path d="
M 82.00 78.00 
C 81.82 78.12 85.04 76.65 86.00 76.00
C 93.85 70.70 100.63 62.27 110.22 65.78 C 119.81 69.28 128.77 71.68 137.23 76.77 C 145.69 81.86 153.11 84.65 159.00 93.00
C 134.69 82.83 107.60 85.27 88.25 104.25 C 68.90 123.23 64.89 150.06 74.32 175.68 C 83.76 201.29 115.77 207.31 140.00 201.00
C 132.34 212.46 110.78 220.86 97.78 214.22 C 84.78 207.59 75.83 196.49 68.68 183.32 C 61.52 170.16 62.26 145.78 62.00 130.00
C 61.89 129.11 61.07 128.40 61.00 128.00
C 55.94 159.80 61.98 192.61 80.75 217.25 C 99.52 241.89 135.94 242.82 155.25 220.25 C 174.56 197.68 188.16 174.03 190.00 144.00 C 191.84 113.97 180.40 87.15 157.25 65.75 C 134.09 44.36 100.95 56.04 82.00 78.00
M 142.00 114.00 
C 152.22 117.50 168.37 117.34 168.00 130.00 C 167.63 142.66 168.11 155.85 164.02 168.02 C 159.94 180.20 145.31 178.90 135.00 181.00
C 123.11 183.42 112.60 189.85 102.75 179.25 C 92.91 168.65 88.94 158.76 91.00 145.00 C 93.06 131.24 96.43 123.76 106.75 114.75 C 117.06 105.73 130.70 110.14 142.00 114.00 Z"/>
</g>
<g fill="#958F91" fill-opacity="1.00" stroke="None">
<path d="
M 86.00 76.00 
C 71.61 88.54 63.71 112.32 62.00 130.00
C 62.26 145.78 61.52 170.16 68.68 183.32 C 75.83 196.49 84.78 207.59 97.78 214.22 C 110.78 220.86 132.34 212.46 140.00 201.00
C 115.77 207.31 83.76 201.29 74.32 175.68 C 64.89 150.06 68.90 123.23 88.25 104.25 C 107.60 85.27 134.69 82.83 159.00 93.00
C 153.11 84.65 145.69 81.86 137.23 76.77 C 128.77 71.68 119.81 69.28 110.22 65.78 C 100.63 62.27 93.85 70.70 86.00 76.00 Z"/>
</g>
<g fill="#959091" fill-opacity="1.00" stroke="None">
<path d="
M 877.00 200.00 
C 882.35 209.94 889.99 210.87 899.93 215.07 C 909.87 219.28 919.81 217.22 929.31 212.31 C 938.80 207.39 948.11 208.74 952.08 197.08 C 956.04 185.41 957.46 177.61 958.00 166.00 C 958.54 154.40 963.04 143.09 959.98 132.02 C 956.92 120.96 956.03 111.44 952.32 101.68 C 948.61 91.92 946.20 84.76 939.75 77.25 C 933.30 69.74 924.80 62.99 915.02 64.02 C 905.25 65.05 895.62 70.04 887.23 74.23 C 878.84 78.42 871.11 82.92 867.00 91.00
C 890.83 84.91 922.42 87.83 938.75 108.25 C 955.07 128.68 960.51 157.38 946.75 180.75 C 932.99 204.12 900.82 206.19 877.00 200.00 Z"/>
</g>
<g fill="#625D61" fill-opacity="1.00" stroke="None">
<path d="
M 82.00 78.00 
C 69.58 92.39 63.96 109.42 61.00 128.00
C 61.07 128.40 61.89 129.11 62.00 130.00
C 63.71 112.32 71.61 88.54 86.00 76.00
C 85.04 76.65 81.82 78.12 82.00 78.00 Z"/>
</g>
<g fill="#F7F8F6" fill-opacity="1.00" stroke="None">
<path d="
M 880.00 115.00 
C 871.55 123.53 874.11 140.71 874.78 151.22 C 875.44 161.73 880.10 173.58 889.00 180.00
C 898.24 181.62 910.17 187.09 918.75 179.75 C 927.34 172.42 932.33 167.82 934.22 157.22 C 936.11 146.62 933.33 136.71 928.30 127.70 C 923.27 118.69 917.19 114.61 908.07 109.93 C 898.95 105.25 888.20 111.21 880.00 115.00
M 908.00 131.00 
C 924.30 134.38 920.60 166.72 906.00 166.00 C 891.39 165.27 888.09 126.88 908.00 131.00 Z"/>
</g>
<g fill="#F8F9F7" fill-opacity="1.00" stroke="None">
<path d="
M 135.00 181.00 
C 140.19 176.69 142.45 168.95 144.98 162.98 C 147.50 157.00 150.34 143.67 148.00 137.00 C 145.66 130.33 146.32 119.31 142.00 114.00
C 130.70 110.14 117.06 105.73 106.75 114.75 C 96.43 123.76 93.06 131.24 91.00 145.00 C 88.94 158.76 92.91 168.65 102.75 179.25 C 112.60 189.85 123.11 183.42 135.00 181.00
M 121.00 131.00 
C 131.31 133.02 129.41 144.88 126.68 154.68 C 123.95 164.48 112.71 164.26 111.02 153.98 C 109.35 143.69 108.63 128.57 121.00 131.00 Z"/>
</g>
<g fill="#D6D6D4" fill-opacity="1.00" stroke="None">
<path d="
M 135.00 181.00 
C 145.31 178.90 159.94 180.20 164.02 168.02 C 168.11 155.85 167.63 142.66 168.00 130.00 C 168.37 117.34 152.22 117.50 142.00 114.00
C 146.32 119.31 145.66 130.33 148.00 137.00 C 150.34 143.67 147.50 157.00 144.98 162.98 C 142.45 168.95 140.19 176.69 135.00 181.00 Z"/>
</g>
<g fill="#D5D5D3" fill-opacity="1.00" stroke="None">
<path d="
M 889.00 180.00 
C 880.10 173.58 875.44 161.73 874.78 151.22 C 874.11 140.71 871.55 123.53 880.00 115.00
C 870.43 119.42 857.78 118.76 854.99 131.99 C 852.20 145.22 854.88 154.53 859.70 167.30 C 864.51 180.08 877.89 178.05 889.00 180.00 Z"/>
</g>
<g fill="#433D42" fill-opacity="1.00" stroke="None">
<path d="
M 121.00 131.00 
C 108.63 128.57 109.35 143.69 111.02 153.98 C 112.71 164.26 123.95 164.48 126.68 154.68 C 129.41 144.88 131.31 133.02 121.00 131.00 Z"/>
</g>
<g fill="#433D42" fill-opacity="1.00" stroke="None">
<path d="
M 908.00 131.00 
C 888.09 126.88 891.39 165.27 906.00 166.00 C 920.60 166.72 924.30 134.38 908.00 131.00 Z"/>
</g>
<g fill="#C3C1C1" fill-opacity="1.00" stroke="None">
<path d="
M 656.00 186.00 
C 721.55 202.74 788.59 216.96 853.00 239.00
C 850.80 230.52 844.66 223.52 837.75 217.25 C 830.84 210.98 822.59 208.36 813.68 205.32 C 804.76 202.29 794.76 199.98 785.07 197.93 C 775.39 195.87 766.23 191.65 756.00 190.00 C 745.78 188.35 734.89 186.55 724.00 186.00 C 713.11 185.45 700.15 185.09 689.00 185.00 C 677.85 184.91 664.50 184.77 656.00 186.00 Z"/>
</g>
<g fill="#C3C1C1" fill-opacity="1.00" stroke="None">
<path d="
M 173.00 232.00 
C 196.20 228.54 219.62 225.82 241.32 218.32 C 263.02 210.82 283.04 205.52 305.00 200.00
C 292.64 199.64 277.79 199.10 265.00 200.00 C 252.21 200.90 240.21 201.70 228.22 204.22 C 216.23 206.75 204.69 209.39 192.68 210.68 C 180.66 211.96 181.18 226.61 173.00 232.00 Z"/>
</g>
<g fill="#F9FAF8" fill-opacity="1.00" stroke="None">
<path d="
M 447.00 203.00 
C 427.22 211.54 405.17 222.00 383.77 229.77 C 362.37 237.54 338.69 245.44 316.98 252.98 C 295.26 260.51 275.08 270.92 254.31 280.31 C 233.53 289.69 214.86 300.90 194.00 310.00
C 192.65 320.85 193.66 333.12 191.78 343.78 C 189.90 354.43 194.90 364.61 193.00 376.00 C 191.10 387.39 192.83 398.52 193.00 410.00 C 193.17 421.48 192.84 433.57 193.00 445.00 C 193.16 456.43 192.75 469.88 193.00 481.00 C 193.25 492.12 192.49 505.72 193.00 516.00 C 193.51 526.28 190.92 540.30 196.92 547.08 C 202.93 553.85 216.49 551.45 221.22 558.78 C 225.96 566.10 230.02 578.94 222.75 585.75 C 215.48 592.56 207.14 591.34 198.23 597.23 C 189.32 603.12 194.51 613.99 193.00 625.00 C 191.49 636.01 195.29 646.52 193.99 656.99 C 192.70 667.46 192.98 677.14 203.77 681.23 C 214.56 685.32 218.42 685.44 225.69 694.31 C 232.97 703.17 220.50 714.58 213.02 715.02 C 205.55 715.47 192.56 720.66 192.07 728.93 C 191.59 737.19 196.38 752.51 194.00 762.00
C 206.17 765.81 218.49 768.13 230.93 771.07 C 243.36 774.01 254.87 777.41 267.33 780.67 C 279.79 783.93 292.08 786.58 304.99 789.01 C 317.91 791.44 330.73 793.74 344.00 796.00 C 357.27 798.26 371.30 799.11 384.98 801.02 C 398.65 802.94 412.78 804.08 426.99 805.01 C 441.20 805.93 455.41 807.47 470.00 808.00 C 484.59 808.53 501.26 807.60 516.00 808.00 C 530.74 808.40 545.67 807.87 560.00 807.00 C 574.33 806.13 589.93 805.92 604.00 805.00 C 618.07 804.08 631.61 802.17 645.00 800.00 C 658.38 797.82 671.80 796.34 684.78 793.78 C 697.75 791.22 710.31 788.50 723.00 786.00 C 735.69 783.50 748.72 781.50 760.78 777.78 C 772.84 774.06 786.34 772.50 797.99 768.99 C 809.65 765.48 827.97 767.94 829.00 754.00 C 830.03 740.06 830.26 725.68 830.00 711.00 C 829.74 696.32 830.66 681.33 829.00 667.00
C 821.24 661.03 811.80 656.10 803.08 651.92 C 794.37 647.74 786.06 636.34 795.25 628.25 C 804.44 620.16 808.33 616.19 821.32 613.32 C 834.31 610.46 830.38 595.49 831.00 583.00 C 831.62 570.51 829.14 556.17 831.00 543.00 C 832.86 529.83 820.33 525.49 810.68 522.32 C 801.03 519.15 791.79 514.23 788.78 504.22 C 785.77 494.21 798.81 486.79 806.93 482.93 C 815.05 479.06 831.98 479.92 831.00 467.00 C 830.02 454.08 831.30 440.20 831.00 427.00 C 830.70 413.80 830.87 399.27 831.00 386.00 C 831.13 372.73 830.31 359.19 831.00 346.00 C 831.69 332.81 829.99 320.48 829.00 308.00
C 824.62 300.31 811.29 300.07 804.31 294.70 C 797.32 289.32 785.63 287.36 777.92 282.08 C 770.22 276.79 761.15 273.83 752.77 269.23 C 744.40 264.63 733.89 262.22 725.32 257.68 C 716.76 253.13 708.89 248.35 699.32 245.68 C 689.75 243.00 680.51 237.90 670.92 235.08 C 661.34 232.25 652.40 228.34 642.93 225.07 C 633.46 221.80 623.57 217.97 613.99 215.01 C 604.41 212.05 595.13 207.01 586.00 204.00
C 563.43 201.88 539.01 201.01 516.00 202.00 C 492.99 202.99 469.53 201.47 447.00 203.00
M 613.00 322.00 
C 613.70 326.30 613.60 330.78 613.00 335.00
C 612.48 348.65 609.47 369.47 593.98 373.98 C 578.48 378.48 561.79 367.44 546.93 365.07 C 532.06 362.70 522.75 349.82 512.00 341.00
C 509.61 379.14 548.36 400.75 557.00 435.00
C 567.28 430.01 580.20 428.49 590.22 423.22 C 600.24 417.96 608.52 413.23 616.25 404.25 C 623.98 395.27 628.74 387.34 634.31 376.31 C 639.87 365.27 641.62 355.82 645.93 342.93 C 650.23 330.03 665.84 337.86 673.25 345.75 C 680.66 353.64 689.49 358.88 696.30 367.70 C 703.12 376.51 710.89 383.57 716.77 393.23 C 722.65 402.89 727.97 411.33 732.92 422.08 C 737.87 432.82 741.76 443.79 745.32 455.68 C 748.88 467.56 750.13 481.07 752.00 494.00 C 753.87 506.94 752.33 524.43 751.01 537.01 C 749.68 549.58 744.26 561.66 742.07 573.07 C 739.88 584.49 729.27 600.79 725.07 585.93 C 720.88 571.06 724.44 559.07 720.01 545.99 C 715.57 532.91 713.05 525.83 704.25 515.75 C 695.45 505.67 681.55 505.27 669.98 508.98 C 658.40 512.68 652.47 522.55 642.00 527.00
C 638.55 513.31 636.65 503.76 626.75 492.25 C 616.84 480.75 604.71 481.05 589.33 480.33 C 573.95 479.61 561.68 488.25 563.07 504.07 C 564.47 519.90 554.13 527.99 549.25 540.25 C 544.36 552.51 535.36 559.97 528.25 570.25 C 521.13 580.53 512.88 587.53 505.08 597.08 C 497.28 606.63 488.15 612.77 480.75 622.75 C 473.36 632.73 467.66 647.80 471.78 660.22 C 475.90 672.64 484.16 680.13 495.70 686.31 C 507.23 692.48 524.36 694.19 536.00 687.00
C 528.25 677.29 515.47 668.99 514.00 656.00
C 560.80 649.29 593.95 686.43 637.00 692.00
C 629.23 704.24 620.20 713.89 608.75 723.75 C 597.30 733.61 586.57 741.53 571.77 746.77 C 556.97 752.01 534.07 752.57 518.00 751.00 C 501.93 749.44 482.24 746.42 468.32 739.68 C 454.40 732.93 443.00 726.64 433.25 714.75 C 423.50 702.87 410.03 696.48 408.07 679.93 C 406.12 663.37 379.65 667.57 375.23 652.77 C 370.81 637.97 395.58 630.21 401.92 618.92 C 408.25 607.63 376.39 595.05 383.93 582.93 C 391.46 570.80 414.56 573.51 425.25 564.25 C 435.94 554.98 406.59 532.89 424.08 527.08 C 441.56 521.26 460.90 524.27 458.00 500.00
C 458.00 497.00 459.25 490.67 458.00 488.00
C 453.43 481.34 439.69 482.74 432.00 481.00 C 424.31 479.26 412.17 483.39 405.31 487.31 C 398.44 491.22 392.98 496.91 389.08 504.08 C 385.18 511.25 380.50 520.51 380.00 529.00
C 365.66 516.09 346.95 499.23 326.92 510.92 C 306.90 522.62 302.68 544.33 303.00 566.00
C 303.00 572.35 303.38 579.41 302.00 585.00
C 299.26 596.05 290.66 594.64 287.70 585.31 C 284.73 575.97 281.34 570.98 279.22 561.78 C 277.11 552.58 274.34 544.20 273.22 534.78 C 272.10 525.35 271.38 514.53 271.00 505.00 C 270.62 495.47 272.22 484.16 273.00 475.00 C 273.78 465.84 277.77 457.23 279.78 448.78 C 281.79 440.32 285.14 433.27 288.77 425.77 C 292.40 418.28 295.64 411.75 299.77 404.77 C 303.90 397.79 307.92 391.24 312.75 384.75 C 317.58 378.26 321.60 373.38 327.25 367.25 C 332.90 361.12 337.39 357.62 343.75 351.75 C 350.12 345.88 354.42 342.71 362.08 337.08 C 369.74 331.45 377.55 337.79 377.99 347.01 C 378.43 356.23 382.66 364.74 385.32 372.68 C 387.98 380.62 392.95 386.65 396.75 393.25 C 400.56 399.85 406.28 405.61 411.25 410.75 C 416.21 415.89 425.71 421.66 431.08 423.92 C 436.44 426.19 450.86 435.45 451.97 428.97 C 453.09 422.50 449.05 411.10 441.75 407.25 C 434.45 403.40 430.65 393.95 435.33 385.33 C 440.00 376.70 439.20 366.80 431.77 362.23 C 424.34 357.66 419.37 355.21 413.25 348.75 C 407.13 342.29 418.88 334.58 421.75 328.75 C 424.62 322.93 434.87 318.12 436.75 311.75 C 438.63 305.38 429.52 300.52 426.08 292.92 C 422.63 285.32 424.02 276.33 434.08 274.08 C 444.13 271.82 448.16 267.05 457.68 265.68 C 467.19 264.30 475.20 258.78 470.08 250.92 C 464.95 243.07 458.02 238.45 460.00 229.00 C 461.99 219.55 475.36 221.01 481.70 225.30 C 488.04 229.60 489.50 239.10 498.25 241.75 C 506.99 244.41 498.58 230.87 500.78 222.78 C 502.98 214.69 514.28 213.44 520.25 219.75 C 526.22 226.07 526.75 235.12 532.75 240.25 C 538.76 245.37 550.18 243.34 556.69 248.31 C 563.21 253.27 570.26 254.80 575.75 261.25 C 581.24 267.69 587.62 272.33 589.31 280.69 C 591.00 289.06 593.16 297.25 601.68 300.32 C 610.20 303.39 612.58 314.35 613.00 322.00 Z"/>
</g>
<g fill="#C3C1C1" fill-opacity="1.00" stroke="None">
<path d="
M 194.00 310.00 
C 214.86 300.90 233.53 289.69 254.31 280.31 C 275.08 270.92 295.26 260.51 316.98 252.98 C 338.69 245.44 362.37 237.54 383.77 229.77 C 405.17 222.00 427.22 211.54 447.00 203.00
C 433.56 203.92 418.09 204.95 405.22 207.22 C 392.35 209.49 380.94 212.60 368.67 215.67 C 356.40 218.75 344.58 221.43 332.67 224.67 C 320.76 227.92 308.53 230.22 297.07 234.07 C 285.61 237.93 272.73 240.79 261.68 244.68 C 250.63 248.56 237.59 250.43 227.68 255.68 C 217.77 260.92 199.35 257.01 195.00 268.00 C 190.65 278.99 194.24 297.78 194.00 310.00 Z"/>
</g>
<g fill="#C3C1C1" fill-opacity="1.00" stroke="None">
<path d="
M 829.00 308.00 
C 828.30 293.23 827.98 278.61 830.00 264.00
C 748.62 245.90 670.02 211.88 586.00 204.00
C 595.13 207.01 604.41 212.05 613.99 215.01 C 623.57 217.97 633.46 221.80 642.93 225.07 C 652.40 228.34 661.34 232.25 670.92 235.08 C 680.51 237.90 689.75 243.00 699.32 245.68 C 708.89 248.35 716.76 253.13 725.32 257.68 C 733.89 262.22 744.40 264.63 752.77 269.23 C 761.15 273.83 770.22 276.79 777.92 282.08 C 785.63 287.36 797.32 289.32 804.31 294.70 C 811.29 300.07 824.62 300.31 829.00 308.00 Z"/>
</g>
<g fill="#433D42" fill-opacity="1.00" stroke="None">
<path d="
M 302.00 585.00 
C 302.75 578.93 302.47 571.45 303.00 566.00
C 302.68 544.33 306.90 522.62 326.92 510.92 C 346.95 499.23 365.66 516.09 380.00 529.00
C 380.50 520.51 385.18 511.25 389.08 504.08 C 392.98 496.91 398.44 491.22 405.31 487.31 C 412.17 483.39 424.31 479.26 432.00 481.00 C 439.69 482.74 453.43 481.34 458.00 488.00
C 460.36 491.44 458.32 496.68 458.00 500.00
C 460.90 524.27 441.56 521.26 424.08 527.08 C 406.59 532.89 435.94 554.98 425.25 564.25 C 414.56 573.51 391.46 570.80 383.93 582.93 C 376.39 595.05 408.25 607.63 401.92 618.92 C 395.58 630.21 370.81 637.97 375.23 652.77 C 379.65 667.57 406.12 663.37 408.07 679.93 C 410.03 696.48 423.50 702.87 433.25 714.75 C 443.00 726.64 454.40 732.93 468.32 739.68 C 482.24 746.42 501.93 749.44 518.00 751.00 C 534.07 752.57 556.97 752.01 571.77 746.77 C 586.57 741.53 597.30 733.61 608.75 723.75 C 620.20 713.89 629.23 704.24 637.00 692.00
C 593.95 686.43 560.80 649.29 514.00 656.00
C 515.47 668.99 528.25 677.29 536.00 687.00
C 524.36 694.19 507.23 692.48 495.70 686.31 C 484.16 680.13 475.90 672.64 471.78 660.22 C 467.66 647.80 473.36 632.73 480.75 622.75 C 488.15 612.77 497.28 606.63 505.08 597.08 C 512.88 587.53 521.13 580.53 528.25 570.25 C 535.36 559.97 544.36 552.51 549.25 540.25 C 554.13 527.99 564.47 519.90 563.07 504.07 C 561.68 488.25 573.95 479.61 589.33 480.33 C 604.71 481.05 616.84 480.75 626.75 492.25 C 636.65 503.76 638.55 513.31 642.00 527.00
C 652.47 522.55 658.40 512.68 669.98 508.98 C 681.55 505.27 695.45 505.67 704.25 515.75 C 713.05 525.83 715.57 532.91 720.01 545.99 C 724.44 559.07 720.88 571.06 725.07 585.93 C 729.27 600.79 739.88 584.49 742.07 573.07 C 744.26 561.66 749.68 549.58 751.01 537.01 C 752.33 524.43 753.87 506.94 752.00 494.00 C 750.13 481.07 748.88 467.56 745.32 455.68 C 741.76 443.79 737.87 432.82 732.92 422.08 C 727.97 411.33 722.65 402.89 716.77 393.23 C 710.89 383.57 703.12 376.51 696.30 367.70 C 689.49 358.88 680.66 353.64 673.25 345.75 C 665.84 337.86 650.23 330.03 645.93 342.93 C 641.62 355.82 639.87 365.27 634.31 376.31 C 628.74 387.34 623.98 395.27 616.25 404.25 C 608.52 413.23 600.24 417.96 590.22 423.22 C 580.20 428.49 567.28 430.01 557.00 435.00
C 548.36 400.75 509.61 379.14 512.00 341.00
C 522.75 349.82 532.06 362.70 546.93 365.07 C 561.79 367.44 578.48 378.48 593.98 373.98 C 609.47 369.47 612.48 348.65 613.00 335.00
C 613.16 330.73 613.23 326.27 613.00 322.00
C 612.58 314.35 610.20 303.39 601.68 300.32 C 593.16 297.25 591.00 289.06 589.31 280.69 C 587.62 272.33 581.24 267.69 575.75 261.25 C 570.26 254.80 563.21 253.27 556.69 248.31 C 550.18 243.34 538.76 245.37 532.75 240.25 C 526.75 235.12 526.22 226.07 520.25 219.75 C 514.28 213.44 502.98 214.69 500.78 222.78 C 498.58 230.87 506.99 244.41 498.25 241.75 C 489.50 239.10 488.04 229.60 481.70 225.30 C 475.36 221.01 461.99 219.55 460.00 229.00 C 458.02 238.45 464.95 243.07 470.08 250.92 C 475.20 258.78 467.19 264.30 457.68 265.68 C 448.16 267.05 444.13 271.82 434.08 274.08 C 424.02 276.33 422.63 285.32 426.08 292.92 C 429.52 300.52 438.63 305.38 436.75 311.75 C 434.87 318.12 424.62 322.93 421.75 328.75 C 418.88 334.58 407.13 342.29 413.25 348.75 C 419.37 355.21 424.34 357.66 431.77 362.23 C 439.20 366.80 440.00 376.70 435.33 385.33 C 430.65 393.95 434.45 403.40 441.75 407.25 C 449.05 411.10 453.09 422.50 451.97 428.97 C 450.86 435.45 436.44 426.19 431.08 423.92 C 425.71 421.66 416.21 415.89 411.25 410.75 C 406.28 405.61 400.56 399.85 396.75 393.25 C 392.95 386.65 387.98 380.62 385.32 372.68 C 382.66 364.74 378.43 356.23 377.99 347.01 C 377.55 337.79 369.74 331.45 362.08 337.08 C 354.42 342.71 350.12 345.88 343.75 351.75 C 337.39 357.62 332.90 361.12 327.25 367.25 C 321.60 373.38 317.58 378.26 312.75 384.75 C 307.92 391.24 303.90 397.79 299.77 404.77 C 295.64 411.75 292.40 418.28 288.77 425.77 C 285.14 433.27 281.79 440.32 279.78 448.78 C 277.77 457.23 273.78 465.84 273.00 475.00 C 272.22 484.16 270.62 495.47 271.00 505.00 C 271.38 514.53 272.10 525.35 273.22 534.78 C 274.34 544.20 277.11 552.58 279.22 561.78 C 281.34 570.98 284.73 575.97 287.70 585.31 C 290.66 594.64 299.26 596.05 302.00 585.00
M 524.00 714.00 
C 527.67 714.00 531.33 714.00 535.00 714.00
C 544.88 714.00 549.34 716.38 540.92 720.92 C 532.51 725.47 529.20 724.51 521.00 726.00 C 512.79 727.48 506.21 727.30 498.33 725.67 C 490.45 724.04 486.28 723.62 478.32 720.68 C 470.36 717.74 469.62 718.62 460.92 713.08 C 452.22 707.54 441.22 697.08 435.70 688.30 C 430.17 679.53 429.98 681.04 426.00 673.00
C 421.25 668.20 418.39 659.98 419.00 652.00
C 419.91 640.16 416.46 623.51 419.00 612.00 C 421.54 600.49 426.08 592.27 431.77 582.77 C 437.46 573.28 441.99 566.52 449.25 558.25 C 456.51 549.98 462.42 543.08 466.92 532.92 C 471.43 522.77 475.18 513.29 477.98 501.98 C 480.77 490.66 481.32 476.05 480.00 464.00 C 478.69 451.94 477.18 438.96 473.22 427.78 C 469.26 416.59 467.40 406.87 463.07 395.93 C 458.75 384.98 457.31 373.94 454.67 362.33 C 452.03 350.71 451.45 334.62 452.78 322.78 C 454.11 310.94 456.87 300.91 463.77 291.77 C 470.67 282.63 476.22 277.70 485.70 271.70 C 495.18 265.70 506.23 261.44 518.00 261.00 C 529.77 260.56 541.92 263.71 552.08 268.92 C 562.24 274.13 567.28 280.79 571.92 291.08 C 576.57 301.36 577.84 310.52 589.08 316.92 C 600.32 323.32 594.92 336.02 592.07 348.07 C 589.23 360.12 575.37 350.78 565.33 348.67 C 555.28 346.56 543.97 341.94 535.25 336.75 C 526.54 331.55 520.46 321.26 511.25 317.75 C 502.05 314.23 495.46 329.04 493.01 338.01 C 490.56 346.98 493.11 364.13 497.77 373.23 C 502.43 382.32 506.87 392.26 513.25 400.75 C 519.63 409.23 523.88 417.26 529.31 426.70 C 534.73 436.13 538.19 446.57 540.33 457.67 C 542.47 468.77 542.92 486.72 541.00 498.00 C 539.08 509.28 535.70 520.26 531.07 530.07 C 526.45 539.88 520.92 547.17 514.25 555.25 C 507.57 563.33 500.54 569.71 493.25 577.25 C 485.95 584.79 479.80 591.06 473.25 599.25 C 466.70 607.43 461.83 615.13 456.69 624.70 C 451.56 634.26 448.80 649.04 450.99 660.01 C 453.18 670.97 456.07 680.89 463.75 689.25 C 471.44 697.60 477.96 702.26 488.23 706.77 C 498.50 711.28 512.29 714.00 524.00 714.00 Z"/>
</g>
<g fill="#3D363C" fill-opacity="0.49" stroke="None">
<path d="
M 186.00 250.00 
C 186.00 250.00 186.18 250.93 186.00 251.00
C 189.05 249.76 191.74 247.55 195.00 247.00
C 192.13 243.82 188.15 248.07 186.00 250.00 Z"/>
</g>
<g fill="#F9FAF8" fill-opacity="1.00" stroke="None">
<path d="
M 419.00 652.00 
C 419.89 658.39 423.14 667.22 426.00 673.00
C 429.98 681.04 430.17 679.53 435.70 688.30 C 441.22 697.08 452.22 707.54 460.92 713.08 C 469.62 718.62 470.36 717.74 478.32 720.68 C 486.28 723.62 490.45 724.04 498.33 725.67 C 506.21 727.30 512.79 727.48 521.00 726.00 C 529.20 724.51 532.51 725.47 540.92 720.92 C 549.34 716.38 544.88 714.00 535.00 714.00
C 531.54 714.33 527.39 714.33 524.00 714.00
C 512.29 714.00 498.50 711.28 488.23 706.77 C 477.96 702.26 471.44 697.60 463.75 689.25 C 456.07 680.89 453.18 670.97 450.99 660.01 C 448.80 649.04 451.56 634.26 456.69 624.70 C 461.83 615.13 466.70 607.43 473.25 599.25 C 479.80 591.06 485.95 584.79 493.25 577.25 C 500.54 569.71 507.57 563.33 514.25 555.25 C 520.92 547.17 526.45 539.88 531.07 530.07 C 535.70 520.26 539.08 509.28 541.00 498.00 C 542.92 486.72 542.47 468.77 540.33 457.67 C 538.19 446.57 534.73 436.13 529.31 426.70 C 523.88 417.26 519.63 409.23 513.25 400.75 C 506.87 392.26 502.43 382.32 497.77 373.23 C 493.11 364.13 490.56 346.98 493.01 338.01 C 495.46 329.04 502.05 314.23 511.25 317.75 C 520.46 321.26 526.54 331.55 535.25 336.75 C 543.97 341.94 555.28 346.56 565.33 348.67 C 575.37 350.78 589.23 360.12 592.07 348.07 C 594.92 336.02 600.32 323.32 589.08 316.92 C 577.84 310.52 576.57 301.36 571.92 291.08 C 567.28 280.79 562.24 274.13 552.08 268.92 C 541.92 263.71 529.77 260.56 518.00 261.00 C 506.23 261.44 495.18 265.70 485.70 271.70 C 476.22 277.70 470.67 282.63 463.77 291.77 C 456.87 300.91 454.11 310.94 452.78 322.78 C 451.45 334.62 452.03 350.71 454.67 362.33 C 457.31 373.94 458.75 384.98 463.07 395.93 C 467.40 406.87 469.26 416.59 473.22 427.78 C 477.18 438.96 478.69 451.94 480.00 464.00 C 481.32 476.05 480.77 490.66 477.98 501.98 C 475.18 513.29 471.43 522.77 466.92 532.92 C 462.42 543.08 456.51 549.98 449.25 558.25 C 441.99 566.52 437.46 573.28 431.77 582.77 C 426.08 592.27 421.54 600.49 419.00 612.00 C 416.46 623.51 419.91 640.16 419.00 652.00
M 554.00 290.00 
C 566.44 292.85 567.19 315.23 553.93 312.07 C 540.67 308.92 539.48 286.68 554.00 290.00 Z"/>
</g>
<g fill="#272529" fill-opacity="1.00" stroke="None">
<path d="
M 554.00 290.00 
C 539.48 286.68 540.67 308.92 553.93 312.07 C 567.19 315.23 566.44 292.85 554.00 290.00 Z"/>
</g>
<g fill="#969395" fill-opacity="1.00" stroke="None">
<path d="
M 613.00 335.00 
C 613.60 330.78 613.70 326.30 613.00 322.00
C 613.23 326.27 613.16 330.73 613.00 335.00 Z"/>
</g>
<g fill="#928F91" fill-opacity="1.00" stroke="None">
<path d="
M 458.00 500.00 
C 458.32 496.68 460.36 491.44 458.00 488.00
C 459.25 490.67 458.00 497.00 458.00 500.00 Z"/>
</g>
<g fill="#878486" fill-opacity="1.00" stroke="None">
<path d="
M 302.00 585.00 
C 303.38 579.41 303.00 572.35 303.00 566.00
C 302.47 571.45 302.75 578.93 302.00 585.00 Z"/>
</g>
<g fill="#060606" fill-opacity="1.00" stroke="None">
<path d="
M 426.00 673.00 
C 423.14 667.22 419.89 658.39 419.00 652.00
C 418.39 659.98 421.25 668.20 426.00 673.00 Z"/>
</g>
<g fill="#8B888A" fill-opacity="1.00" stroke="None">
<path d="
M 535.00 714.00 
C 531.33 714.00 527.67 714.00 524.00 714.00
C 527.39 714.33 531.54 714.33 535.00 714.00 Z"/>
</g>
<g fill="#F9FAF8" fill-opacity="1.00" stroke="None">
<path d="
M 525.00 841.00 
C 521.92 841.30 517.75 842.00 514.00 842.00
C 483.25 842.00 448.78 839.56 419.00 838.00 C 389.22 836.44 362.20 828.93 334.01 824.99 C 305.82 821.06 279.43 814.21 252.68 808.32 C 225.93 802.43 202.07 789.84 175.00 788.00
C 170.73 787.71 165.58 787.35 162.00 787.00
C 142.02 787.00 115.57 776.15 96.23 784.23 C 76.89 792.31 65.80 800.15 56.25 818.25 C 46.71 836.36 43.40 858.73 43.02 878.98 C 42.65 899.22 49.90 920.87 59.08 937.92 C 68.25 954.98 79.08 965.87 96.77 974.23 C 114.46 982.59 141.20 984.39 161.00 980.00
C 169.68 975.32 172.31 963.89 180.25 957.25 C 188.19 950.62 195.76 942.96 206.68 940.68 C 217.60 938.40 228.35 934.31 239.67 931.67 C 250.99 929.04 263.36 926.87 275.00 924.00 C 286.65 921.13 298.72 918.55 311.02 917.02 C 323.33 915.50 336.17 914.47 348.67 912.67 C 361.17 910.87 374.11 909.01 387.00 908.00 C 399.89 906.99 411.86 904.87 425.02 904.02 C 438.19 903.17 451.38 901.03 465.00 901.00 C 478.62 900.97 494.28 900.70 508.00 901.00 C 521.72 901.30 536.47 900.14 550.00 901.00 C 563.53 901.86 578.58 901.69 592.00 902.00 C 605.42 902.31 616.99 905.50 630.07 905.93 C 643.15 906.36 655.42 909.66 668.07 910.93 C 680.73 912.20 693.71 914.37 706.01 915.99 C 718.31 917.61 730.12 920.28 742.07 921.93 C 754.02 923.57 766.74 926.36 778.00 929.00 C 789.27 931.63 799.35 936.32 810.02 938.98 C 820.70 941.63 829.68 947.29 837.25 954.75 C 844.82 962.21 847.91 972.25 857.00 978.00
C 894.65 989.59 937.55 981.71 959.25 947.25 C 980.94 912.78 983.38 871.93 971.78 833.22 C 960.17 794.52 926.68 773.76 887.02 781.02 C 847.37 788.29 812.41 799.28 773.02 808.02 C 733.64 816.77 694.71 824.52 654.00 830.00 C 613.30 835.49 567.17 841.00 525.00 841.00
M 72.00 934.00 
C 68.75 928.80 66.46 923.76 64.00 918.00
C 56.52 900.46 57.82 872.58 61.00 854.00 C 64.17 835.42 69.48 818.41 84.00 806.00
C 107.89 785.59 140.33 790.92 159.75 814.25 C 179.17 837.58 192.52 867.26 188.02 897.02 C 183.53 926.79 172.42 949.95 144.77 965.77 C 117.12 981.59 86.62 957.38 72.00 934.00
M 942.00 811.00 
C 953.32 822.32 957.36 837.68 960.00 853.00
C 963.63 874.06 964.27 903.56 957.02 923.02 C 949.78 942.48 941.12 958.52 921.77 966.77 C 902.42 975.02 876.38 968.82 861.75 954.25 C 847.12 939.68 838.10 922.38 835.22 901.78 C 832.34 881.18 837.19 855.40 846.31 836.31 C 855.43 817.21 866.38 807.69 885.69 796.70 C 905.01 785.70 927.05 796.05 942.00 811.00 Z"/>
</g>
<g fill="#A09D9F" fill-opacity="1.00" stroke="None">
<path d="
M 175.00 788.00 
C 171.20 787.32 166.51 787.00 162.00 787.00
C 165.58 787.35 170.73 787.71 175.00 788.00 Z"/>
</g>
<g fill="#443E43" fill-opacity="1.00" stroke="None">
<path d="
M 84.00 806.00 
C 90.81 804.89 100.16 810.56 108.00 810.00 C 115.85 809.44 122.05 815.02 130.07 815.93 C 138.09 816.83 143.18 825.75 133.97 827.98 C 124.77 830.20 117.06 829.46 108.99 831.99 C 100.92 834.53 96.99 837.35 89.92 840.92 C 82.86 844.50 79.65 847.50 76.23 855.23 C 72.81 862.96 72.15 868.84 72.00 879.00 C 71.85 889.16 72.40 893.09 75.97 904.03 C 79.55 914.96 90.57 929.20 101.69 934.31 C 112.82 939.41 115.31 936.86 126.00 938.00 C 136.69 939.14 141.05 934.10 151.00 934.00
C 147.77 942.14 139.92 948.23 130.98 949.98 C 122.04 951.72 106.95 952.02 98.78 947.22 C 90.60 942.43 83.12 939.58 76.00 933.00
C 74.52 932.73 72.80 932.72 72.00 934.00
C 86.62 957.38 117.12 981.59 144.77 965.77 C 172.42 949.95 183.53 926.79 188.02 897.02 C 192.52 867.26 179.17 837.58 159.75 814.25 C 140.33 790.92 107.89 785.59 84.00 806.00
M 132.00 850.00 
C 143.55 852.07 158.98 848.92 161.92 863.08 C 164.87 877.23 168.67 887.31 165.07 901.07 C 161.47 914.84 144.87 910.13 135.00 914.00
C 123.43 924.09 107.27 920.70 99.75 907.25 C 92.22 893.81 88.79 879.92 95.77 864.77 C 102.75 849.62 116.88 847.29 132.00 850.00 Z"/>
</g>
<g fill="#443E43" fill-opacity="1.00" stroke="None">
<path d="
M 960.00 853.00 
C 959.95 853.34 956.88 857.53 958.93 862.07 C 960.98 866.62 957.96 871.78 959.00 877.00 C 960.04 882.22 958.30 884.67 959.00 891.00 C 959.70 897.33 958.56 897.15 958.02 905.02 C 957.49 912.90 953.54 918.61 948.70 924.70 C 943.85 930.78 940.92 933.84 935.25 940.25 C 929.58 946.66 926.44 949.56 916.33 951.33 C 906.21 953.10 889.92 950.32 881.31 944.70 C 872.69 939.07 871.75 936.63 867.00 929.00
C 876.25 929.75 882.46 936.65 892.00 937.00 C 901.54 937.35 913.78 937.09 922.07 933.07 C 930.37 929.06 934.67 924.46 940.30 917.30 C 945.94 910.15 948.72 902.23 950.00 893.00 C 951.28 883.76 951.54 870.93 949.07 861.93 C 946.60 852.93 941.81 848.16 934.75 842.25 C 927.69 836.34 920.20 834.93 911.98 831.02 C 903.75 827.12 888.71 832.65 880.98 828.02 C 873.24 823.39 887.33 814.98 893.70 812.70 C 900.06 810.41 912.72 808.41 920.22 805.22 C 927.72 802.04 936.53 807.16 942.00 811.00
C 927.05 796.05 905.01 785.70 885.69 796.70 C 866.38 807.69 855.43 817.21 846.31 836.31 C 837.19 855.40 832.34 881.18 835.22 901.78 C 838.10 922.38 847.12 939.68 861.75 954.25 C 876.38 968.82 902.42 975.02 921.77 966.77 C 941.12 958.52 949.78 942.48 957.02 923.02 C 964.27 903.56 963.63 874.06 960.00 853.00
M 885.00 852.00 
C 893.33 851.38 903.87 845.10 912.22 850.78 C 920.58 856.45 926.93 858.27 929.93 868.07 C 932.92 877.87 932.57 888.72 929.02 898.02 C 925.48 907.33 921.07 911.52 912.31 916.31 C 903.54 921.09 893.73 914.93 886.00 911.00
C 884.62 910.30 883.76 908.72 882.00 909.00
C 881.08 911.77 884.19 912.90 885.00 915.00
C 875.61 915.54 865.90 914.74 860.08 906.92 C 854.26 899.10 853.12 890.35 854.33 880.33 C 855.54 870.31 857.67 864.51 861.77 854.77 C 865.88 845.04 876.56 849.37 885.00 852.00 Z"/>
</g>
<g fill="#958F91" fill-opacity="1.00" stroke="None">
<path d="
M 960.00 853.00 
C 957.36 837.68 953.32 822.32 942.00 811.00
C 936.53 807.16 927.72 802.04 920.22 805.22 C 912.72 808.41 900.06 810.41 893.70 812.70 C 887.33 814.98 873.24 823.39 880.98 828.02 C 888.71 832.65 903.75 827.12 911.98 831.02 C 920.20 834.93 927.69 836.34 934.75 842.25 C 941.81 848.16 946.60 852.93 949.07 861.93 C 951.54 870.93 951.28 883.76 950.00 893.00 C 948.72 902.23 945.94 910.15 940.30 917.30 C 934.67 924.46 930.37 929.06 922.07 933.07 C 913.78 937.09 901.54 937.35 892.00 937.00 C 882.46 936.65 876.25 929.75 867.00 929.00
C 871.75 936.63 872.69 939.07 881.31 944.70 C 889.92 950.32 906.21 953.10 916.33 951.33 C 926.44 949.56 929.58 946.66 935.25 940.25 C 940.92 933.84 943.85 930.78 948.70 924.70 C 953.54 918.61 957.49 912.90 958.02 905.02 C 958.56 897.15 959.70 897.33 959.00 891.00 C 958.30 884.67 960.04 882.22 959.00 877.00 C 957.96 871.78 960.98 866.62 958.93 862.07 C 956.88 857.53 959.95 853.34 960.00 853.00 Z"/>
</g>
<g fill="#958F91" fill-opacity="1.00" stroke="None">
<path d="
M 64.00 918.00 
C 63.86 916.48 63.44 913.74 65.00 913.00
C 68.96 919.39 70.29 927.69 76.00 933.00
C 83.12 939.58 90.60 942.43 98.78 947.22 C 106.95 952.02 122.04 951.72 130.98 949.98 C 139.92 948.23 147.77 942.14 151.00 934.00
C 141.05 934.10 136.69 939.14 126.00 938.00 C 115.31 936.86 112.82 939.41 101.69 934.31 C 90.57 929.20 79.55 914.96 75.97 904.03 C 72.40 893.09 71.85 889.16 72.00 879.00 C 72.15 868.84 72.81 862.96 76.23 855.23 C 79.65 847.50 82.86 844.50 89.92 840.92 C 96.99 837.35 100.92 834.53 108.99 831.99 C 117.06 829.46 124.77 830.20 133.97 827.98 C 143.18 825.75 138.09 816.83 130.07 815.93 C 122.05 815.02 115.85 809.44 108.00 810.00 C 100.16 810.56 90.81 804.89 84.00 806.00
C 69.48 818.41 64.17 835.42 61.00 854.00 C 57.82 872.58 56.52 900.46 64.00 918.00 Z"/>
</g>
<g fill="#918E90" fill-opacity="1.00" stroke="None">
<path d="
M 514.00 842.00 
C 517.75 842.00 521.92 841.30 525.00 841.00
C 521.25 841.00 517.08 841.70 514.00 842.00 Z"/>
</g>
<g fill="#F7F8F6" fill-opacity="1.00" stroke="None">
<path d="
M 135.00 914.00 
C 152.65 898.61 153.26 862.49 132.00 850.00
C 116.88 847.29 102.75 849.62 95.77 864.77 C 88.79 879.92 92.22 893.81 99.75 907.25 C 107.27 920.70 123.43 924.09 135.00 914.00
M 115.00 869.00 
C 129.08 869.33 132.61 896.81 117.93 898.93 C 103.25 901.04 101.59 868.69 115.00 869.00 Z"/>
</g>
<g fill="#969092" fill-opacity="1.00" stroke="None">
<path d="
M 886.00 911.00 
C 879.19 904.19 876.04 891.30 877.00 882.00 C 877.96 872.70 877.19 858.48 885.00 852.00
C 876.56 849.37 865.88 845.04 861.77 854.77 C 857.67 864.51 855.54 870.31 854.33 880.33 C 853.12 890.35 854.26 899.10 860.08 906.92 C 865.90 914.74 875.61 915.54 885.00 915.00
C 884.19 912.90 881.08 911.77 882.00 909.00
C 883.76 908.72 884.62 910.30 886.00 911.00 Z"/>
</g>
<g fill="#F7F8F6" fill-opacity="1.00" stroke="None">
<path d="
M 885.00 852.00 
C 877.19 858.48 877.96 872.70 877.00 882.00 C 876.04 891.30 879.19 904.19 886.00 911.00
C 893.73 914.93 903.54 921.09 912.31 916.31 C 921.07 911.52 925.48 907.33 929.02 898.02 C 932.57 888.72 932.92 877.87 929.93 868.07 C 926.93 858.27 920.58 856.45 912.22 850.78 C 903.87 845.10 893.33 851.38 885.00 852.00
M 908.00 869.00 
C 922.25 870.69 921.14 897.78 905.99 897.99 C 890.84 898.21 892.96 867.22 908.00 869.00 Z"/>
</g>
<g fill="#C4C2C4" fill-opacity="1.00" stroke="None">
<path d="
M 135.00 914.00 
C 144.87 910.13 161.47 914.84 165.07 901.07 C 168.67 887.31 164.87 877.23 161.92 863.08 C 158.98 848.92 143.55 852.07 132.00 850.00
C 153.26 862.49 152.65 898.61 135.00 914.00 Z"/>
</g>
<g fill="#433D42" fill-opacity="1.00" stroke="None">
<path d="
M 115.00 869.00 
C 101.59 868.69 103.25 901.04 117.93 898.93 C 132.61 896.81 129.08 869.33 115.00 869.00 Z"/>
</g>
<g fill="#433D42" fill-opacity="1.00" stroke="None">
<path d="
M 908.00 869.00 
C 892.96 867.22 890.84 898.21 905.99 897.99 C 921.14 897.78 922.25 870.69 908.00 869.00 Z"/>
</g>
<g fill="#C3C1C1" fill-opacity="1.00" stroke="None">
<path d="
M 161.00 980.00 
C 205.98 970.03 245.32 956.17 291.93 949.93 C 338.54 943.68 384.66 934.51 433.00 931.00 C 481.34 927.49 537.51 926.00 586.00 929.00 C 634.49 932.00 681.96 938.10 727.78 947.22 C 773.59 956.34 813.02 964.46 857.00 978.00
C 847.91 972.25 844.82 962.21 837.25 954.75 C 829.68 947.29 820.70 941.63 810.02 938.98 C 799.35 936.32 789.27 931.63 778.00 929.00 C 766.74 926.36 754.02 923.57 742.07 921.93 C 730.12 920.28 718.31 917.61 706.01 915.99 C 693.71 914.37 680.73 912.20 668.07 910.93 C 655.42 909.66 643.15 906.36 630.07 905.93 C 616.99 905.50 605.42 902.31 592.00 902.00 C 578.58 901.69 563.53 901.86 550.00 901.00 C 536.47 900.14 521.72 901.30 508.00 901.00 C 494.28 900.70 478.62 900.97 465.00 901.00 C 451.38 901.03 438.19 903.17 425.02 904.02 C 411.86 904.87 399.89 906.99 387.00 908.00 C 374.11 909.01 361.17 910.87 348.67 912.67 C 336.17 914.47 323.33 915.50 311.02 917.02 C 298.72 918.55 286.65 921.13 275.00 924.00 C 263.36 926.87 250.99 929.04 239.67 931.67 C 228.35 934.31 217.60 938.40 206.68 940.68 C 195.76 942.96 188.19 950.62 180.25 957.25 C 172.31 963.89 169.68 975.32 161.00 980.00 Z"/>
</g>
<g fill="#5D5A5B" fill-opacity="1.00" stroke="None">
<path d="
M 64.00 918.00 
C 66.46 923.76 68.75 928.80 72.00 934.00
C 72.80 932.72 74.52 932.73 76.00 933.00
C 70.29 927.69 68.96 919.39 65.00 913.00
C 63.44 913.74 63.86 916.48 64.00 918.00 Z"/>
</g>
</svg>