<?xml version="1.0" encoding="utf-8" ?>
<svg xmlns="http://www.w3.org/2000/svg" xmlns:xlink="http://www.w3.org/1999/xlink" width="1024" height="1024">
	<path fill="#20292C" d="M657.846 211.269C658.078 211.222 658.311 211.177 658.542 211.127C663.32 210.088 667.4 207.422 672.221 206.597C686.285 204.191 700.372 203.122 714.568 202.042C722.456 201.441 730.315 200.242 738.209 199.765C747.625 199.196 757.227 199.553 766.664 199.517C773.351 199.491 780.601 198.839 787.183 199.959Q788.741 200.223 790.215 200.794Q791.689 201.366 793.018 202.221C795.502 203.829 797.543 206.161 798.011 209.165C798.718 213.707 797.207 218.907 794.331 222.458C788.239 229.98 773.123 231.272 764.252 232.018C754.741 232.817 745.722 232.057 736.264 231.746C729.412 231.521 722.445 231.792 715.591 232.007C704.41 232.357 693.232 234.75 682.077 235.861C677.996 236.268 673.42 232.924 669.695 235.042L669.114 235.971C669.609 237.556 671.159 238.444 672.552 239.199C676.54 241.359 681.118 242.705 685.275 244.578Q701.59 252.097 717.982 259.445Q731.406 265.684 744.72 272.152C749.921 274.654 755.878 278.161 761.51 279.447L762.087 279.123C762.926 278.661 762.586 278.832 763.487 278.459C764.839 279.492 765.858 281.101 767.331 281.903C775.158 286.165 782.573 285.244 784.082 297.012C784.507 300.328 783.646 303.93 781.493 306.524C778.77 309.805 774.638 311.178 770.502 311.446C765.987 311.739 762.297 310.869 758.059 309.421C747.638 305.861 737.288 299.91 727.268 295.263Q705.08 285.153 682.524 275.893C678.516 274.218 670.116 269.876 666.129 269.319C665.427 269.221 664.713 269.697 664.073 269.96C663.689 269.056 663.78 269.576 664.006 268.377C659.571 265.814 648.16 264.772 645.728 260.326Q647.673 259.124 649.513 257.767C659.637 250.17 666.461 235.752 662.287 223.288C661.154 219.906 656.263 214.972 656.737 211.831L657.846 211.269Z"/>
	<path fill="#20292C" d="M323.265 53.8693C352.595 58.5374 382.305 80.5604 412.567 67.4853C413.075 66.4378 413.023 66.2666 414.038 65.5844Q414.682 66.1651 415.305 66.7673C420.968 63.4026 428.472 60.337 432.918 55.5652C435.138 53.1819 442.534 52.2446 442.487 48.8372C442.484 48.6031 442.463 48.3695 442.451 48.1356C443.576 47.8038 443.824 48.4574 444.69 48.3337C446.936 48.013 451.256 44.0583 452.404 42.25L452.956 41.3999C453.08 41.2052 453.199 41.0073 453.32 40.811C453.454 41.0027 453.582 41.1983 453.721 41.386C454.301 42.1688 454.022 41.9091 454.857 42.343C455.667 41.5727 455.969 40.7518 456.418 39.7478C458.04 39.6472 458.651 39.8096 459.954 38.7846L460.054 38.0713C460.199 37.0898 460.123 37.4818 460.357 36.5728L462.276 37.5503L462.971 37.2098C463.077 36.0512 462.869 34.7317 463.756 33.9477C463.786 34.1127 463.814 34.2784 463.848 34.4428C464.025 35.2975 463.968 35.0102 464.348 36.0121L465.368 35.8439C465.528 35.1316 465.647 34.4352 465.739 33.7109C468.414 32.9867 470.286 33.3094 471.893 30.6064C472.528 30.7003 473.46 31.5044 473.52 31.509C474.114 31.5536 485.192 27.8446 487.222 27.4178C505.37 23.6008 516.523 23.6409 534.604 27.5897C543.764 29.5902 552.996 33.8607 561.106 38.5469C565.238 40.9344 580.238 51.8532 583.168 52.3691C583.626 52.4497 584.071 52.5916 584.522 52.7063C584.762 53.3119 584.859 53.9965 585.243 54.523C587.173 57.1706 603.105 65.6677 606.516 67.1346C618.1 72.1167 631.529 72.4402 643.773 70.0807C665.824 65.8315 702.226 43.5088 723.994 57.3223C726.828 59.1208 730.214 62.1527 731.454 65.3589C733.809 71.4487 731.284 80.8352 728.504 86.5145C722.421 98.9357 698.217 122.756 687.819 133.753C684.614 137.142 681.731 140.823 678.512 144.2C668.186 155.033 657.438 165.55 646.834 176.112C641.08 181.843 635.466 187.916 629.325 193.224Q586.619 190.905 543.866 192.106C537.855 192.285 531.861 192.92 525.852 193.187C518.013 193.536 510.122 193.465 502.274 193.466C470.772 193.471 439.188 192.591 407.69 193.359C402.675 193.481 396.077 192.678 391.298 194.037C390.318 193.023 384.272 186.629 383.201 186.687C382.586 186.721 382.501 187.306 381.525 187.287C381.572 186.553 381.64 185.843 381.727 185.114C370.121 174.342 358.914 163.221 347.856 151.88C346.608 150.601 340.32 142.971 339.827 142.738C339.283 142.481 338.654 142.47 338.067 142.336C331.373 132.709 323.048 124.206 315.249 115.476C305.39 104.44 291.353 91.6521 289.914 75.9891C289.46 71.0517 290.464 65.9611 293.773 62.1474C300.335 54.5874 309.854 53.8329 319.284 53.2972L323.265 53.8693Z"/>
	<path fill="#696B6D" d="M417.856 141.552C419.305 141.38 420.823 141.152 422.269 141.44C429.228 142.826 442.87 157.823 446.452 163.926C447.952 166.481 448.857 169.533 448.031 172.474C447.246 175.266 445.108 176.545 442.735 177.912C441.282 178.243 439.602 178.511 438.12 178.235C432.585 177.204 417.578 160.956 414.082 155.84C412.533 153.574 411.827 151.094 412.399 148.351C413.083 145.074 415.156 143.271 417.856 141.552Z"/>
	<path fill="#696B6D" d="M601.766 139.575C603.253 139.487 604.672 139.461 606.123 139.856C608.654 140.543 611.028 142.284 612.226 144.644C613.417 146.991 613.267 149.578 612.353 151.99C611.647 153.854 588.65 176.979 586.106 178.191C583.276 178.012 580.151 177.881 577.56 176.614C575.915 175.81 574.477 174.408 573.953 172.622C573.146 169.871 574.294 166.868 575.519 164.429C580.58 154.346 590.96 143.267 601.766 139.575Z"/>
	<path fill="#696B6D" d="M510.685 114.624C510.819 114.613 510.952 114.598 511.086 114.592C515.772 114.384 519.826 115.727 523.2 119.039C528.65 124.389 531.915 133.826 531.872 141.402C531.827 149.161 529.577 161.123 523.787 166.631C521.117 169.172 518.906 169.738 515.291 169.704C511.057 168.966 505.922 168.851 502.222 166.493C497.454 163.454 495.195 157.068 494.182 151.747C492.408 142.432 491.916 129.954 497.742 121.884C501.119 117.205 505.171 115.389 510.685 114.624Z"/>
	<path fill="#20292C" d="M391.298 194.037C396.077 192.678 402.675 193.481 407.69 193.359C439.188 192.591 470.772 193.471 502.274 193.466C510.122 193.465 518.013 193.536 525.852 193.187C531.861 192.92 537.855 192.285 543.866 192.106Q586.619 190.905 629.325 193.224C641.443 196.184 647.461 196.114 654.414 207.64C655.281 209.078 655.689 210.621 657.376 211.177C657.527 211.227 657.689 211.238 657.846 211.269L656.737 211.831C656.263 214.972 661.154 219.906 662.287 223.288C666.461 235.752 659.637 250.17 649.513 257.767Q647.673 259.124 645.728 260.326C644.975 260.802 644.526 261.188 643.868 261.756C640.551 264.619 633.493 265.779 631.911 267.349L634.158 269.394C634.11 270.702 633.007 272.047 632.342 273.172C634.553 276.474 636.007 277.998 639.439 279.967C639.95 280.863 640.316 281.72 640.667 282.689C641.652 282.994 641.72 283.001 642.656 282.789C642.713 283.469 642.715 284.051 642.681 284.727C643.713 285.608 644.565 285.619 645.863 285.802C648.579 288.317 650.638 291.774 653.326 294.463C657.815 298.953 662.683 302.951 667.345 307.245C671.271 310.861 674.929 314.764 678.822 318.416C682.372 321.747 686.28 324.687 689.869 327.987C694.038 331.82 697.793 336.132 701.947 340.015C713.379 350.701 725.181 361.167 736.2 372.272Q748.937 384.895 760.922 398.233Q772.907 411.571 784.101 425.58Q795.294 439.59 805.658 454.223Q816.023 468.857 825.523 484.065C828.094 488.175 830.786 492.266 833.105 496.524C834.104 498.357 834.9 501.082 836.093 502.686C836.44 503.152 837.848 503.397 838.158 503.864C838.519 504.407 838.533 505.233 838.636 505.862C839.738 512.555 845.371 519.585 848.431 525.746C852.064 533.06 855.592 540.586 858.773 548.106C861.136 553.692 862.987 559.585 865 565.308C869.797 578.947 874.29 592.963 877.207 607.137C879.942 620.425 881.488 634.136 883.019 647.61C883.406 645.748 883.699 643.786 884.315 641.986C884.489 646.912 883.378 651.512 883.397 656.443C883.472 676.137 883.733 695.32 881.09 714.915C874.489 763.867 853.763 809.441 825.088 849.337C818.4 858.642 811.394 868.061 803.574 876.457Q796.099 884.572 788.161 892.235Q780.224 899.899 771.852 907.085Q763.48 914.271 754.703 920.956Q745.925 927.64 736.771 933.799C729.561 938.568 721.959 942.668 714.396 946.838Q706.097 951.451 697.593 955.677Q689.09 959.903 680.4 963.732Q671.711 967.561 662.854 970.985Q653.998 974.409 644.993 977.421Q635.987 980.433 626.853 983.026Q617.718 985.619 608.474 987.789Q599.229 989.958 589.895 991.698Q580.56 993.439 571.155 994.747L551.073 997.314C546.946 997.868 542.929 998.805 538.747 998.928C522.991 999.393 507.507 999.302 491.755 998.874C487.982 998.771 484.161 999.073 480.399 998.81C475.707 998.481 471.019 997.525 466.344 996.971C450.711 995.12 434.995 993.084 419.686 989.333C404.38 985.583 388.681 981.647 373.698 976.786C369.84 975.535 354.995 969.451 352.654 969.663L352.73 968.399C351.285 966.9 345.618 965.283 343.518 965.295C343.193 965.296 342.867 965.316 342.542 965.327L342.499 963.983C338.98 961.947 334.624 960.467 330.665 959.59C329.994 959.441 330.263 959.56 329.731 959.153C329.433 957.867 329.358 957.804 328.159 957.087C327.031 956.413 325.834 956.009 324.546 956.283L324.155 957.443L322.905 957.579L323.657 957.963C323.621 956.561 323.677 955.746 322.847 954.558L321.939 954.553Q321.287 955.464 320.654 956.387L320.651 954.006C319.725 953.214 319.788 953.183 318.58 953.22L317.751 954.776C317.598 953.453 317.829 952.339 316.753 951.484L315.761 951.649L315.102 952.997L314.79 953.095C314.672 952.362 314.613 951.695 314.621 950.952C314.155 950.91 312.672 950.938 312.336 950.745C310.299 949.573 308.278 945.623 305.692 946.18L304.848 947.36C304.102 946.388 304.016 945.62 303.799 944.445C297.543 940.591 290.953 937.379 284.757 933.34Q276.52 927.865 268.595 921.948Q260.67 916.031 253.081 909.688Q245.492 903.346 238.261 896.597Q231.031 889.848 224.181 882.714C220.318 878.635 216.898 874.104 213.179 869.885C208.941 865.077 198.27 852.865 195.875 848.081C194.331 844.995 192.061 842.073 190.159 839.188C185.96 832.823 181.545 826.305 177.729 819.713C174.485 814.109 171.699 808.376 168.989 802.497C167.635 799.56 166.48 796.317 164.864 793.525C163.621 790.555 162.433 787.595 160.806 784.808C158.687 779.047 156.128 773.439 154.183 767.617C147.873 748.737 144.362 729.802 141.19 710.233C140.668 707.01 138.754 704.399 138.655 701.079L139.63 700.595L139.382 700.811C140.8 698.639 138.725 683.462 138.563 679.701C138.073 668.3 138.885 656.958 139.815 645.602Q140.476 637.955 141.491 630.347Q142.506 622.739 143.873 615.186Q145.239 607.633 146.954 600.152Q148.668 592.67 150.727 585.276Q152.787 577.882 155.186 570.591Q157.586 563.3 160.321 556.129Q163.055 548.957 166.119 541.919Q169.183 534.882 172.57 527.994C175.115 522.792 178.069 517.791 180.765 512.667C182.546 509.283 183.608 505.551 185.465 502.23C187.544 498.515 190.031 494.999 192.225 491.345C212.981 456.78 237.217 425.77 264.342 395.948C270.667 388.994 277.432 382.473 284.039 375.791Q301.726 357.669 319.961 340.098C324.571 335.633 329.775 331.799 334.209 327.147C336.648 324.588 335.777 323.115 336.936 321.852C338.228 321.786 339.662 321.937 340.695 321.059C340.66 320.207 340.628 319.841 340.948 319.031L343.001 318.925C346.295 316.101 349.332 312.973 352.607 310.122C355.572 307.542 359.645 305.067 362.117 302.067C363.312 300.617 363.629 298.588 364.764 297.181C365.624 296.116 367.125 295.973 368.391 295.713L368.997 295.593C370.217 294.318 369.902 293.638 369.937 291.917L370.628 291.346C371.161 291.783 371.078 292.665 371.18 293.332C375.582 289.745 379.04 286.858 382.274 282.098L382.55 282.334C385.318 281.382 389.022 274.424 390.76 271.888L390.453 271.19L389.883 268.266C387.658 265.911 375.82 265.459 370.099 261.93C362.583 257.293 357.085 249.402 355.124 240.818C352.95 231.301 356.169 220.775 361.251 212.685C367.062 203.435 378.217 197 388.78 194.626L391.298 194.037Z"/>
	<path fill="#696B6D" d="M460.927 271.052C462.95 271.084 464.97 271.105 466.99 271.231L466.094 277.022C464.616 274.801 462.769 272.967 460.927 271.052Z"/>
	<path fill="#010102" d="M399.662 722.105C405.254 720.442 418.157 715.444 423.448 718.294C424.161 718.678 424.182 719.086 424.505 719.777C423.793 723.279 420.732 726.674 419.287 730.065C419.229 729.918 419.16 729.775 419.114 729.624C418.772 728.513 419.042 727.82 419.641 726.856C419.785 726.624 419.948 726.403 420.102 726.177C418.188 726.406 415.848 727.201 413.947 726.89C412.554 726.662 410.989 726.899 410.055 725.836L410.577 725.37C413.748 725.577 418.931 725.923 421.533 723.895L421.513 723.291C419.059 723.335 416.099 722.649 414.066 721.252C409.325 717.994 404.388 723.953 399.662 722.105Z"/>
	<path fill="#696B6D" d="M557.383 269.419C562.625 270.119 567.887 269.606 573.156 269.487C574.664 270.735 576.201 272.138 577.204 273.836C580.521 279.451 582.157 286.324 585.086 292.221C593.864 309.895 603.817 327.725 615.173 343.895C621.94 353.532 629.601 363.19 638.648 370.754C645.018 376.081 653.18 380.47 658.383 386.942C661.283 390.55 660.985 393.92 660.433 398.247C656.878 402.315 653.78 404.261 648.68 405.841Q647.079 405.445 645.513 404.925C636.585 401.868 621.863 391.814 614.68 385.472C611.162 382.366 608.327 378.43 605.191 374.947C600.073 369.262 594.593 364.049 590.187 357.746C584.064 348.987 578.944 338.933 574.442 329.233C569.717 319.052 564.85 308.601 561.703 297.794C560.6 294.006 560.188 290.049 559.099 286.271C558.158 283.005 556.245 279.648 556.029 276.239C555.877 273.831 556.568 271.649 557.383 269.419Z"/>
	<path fill="#696B6D" d="M446.054 271.128C451.04 270.666 455.981 269.972 460.927 271.052C462.769 272.967 464.616 274.801 466.094 277.022C464.563 288.21 460.496 307.474 456.468 317.614C452.595 327.363 447.096 336.77 442.111 345.999C432.928 362.996 420.769 376.221 406.649 389.178C402.868 392.647 398.907 396.546 394.652 399.406C392.051 401.154 389.188 402.492 386.46 404.025C383.697 405.578 381.188 407.67 378.09 408.512C374.709 409.431 371.312 409.026 368.283 407.256C365.024 405.351 361.752 402.097 360.879 398.307C358.962 389.973 372.237 379.219 377.841 374.465C399.309 356.25 420.358 329.927 431.83 304.124C436.335 293.991 440.372 280.32 446.054 271.128Z"/>
	<path fill="#FEFEFD" d="M397.668 485.639C399.663 485.63 401.908 485.391 403.31 487.128C407.515 492.336 403.43 509.661 403.109 516.427C401.79 544.16 408.013 572.983 425.151 595.217C428.931 600.122 433.696 604.202 437.836 608.794C445.212 616.976 453.632 631.394 453.062 642.769C452.366 643.987 452.221 644.412 450.829 644.921C440 648.879 422.74 629.115 415.516 623.053C411.421 619.618 406.992 616.492 401.971 614.572C388.109 609.269 375.837 613.849 365.245 623.197C361.899 626.15 358.391 630.067 354.196 631.771C352.476 632.47 350.609 632.725 348.881 631.891C345.834 630.419 343.448 620.541 342.033 617.203C338.489 608.902 334.235 601.68 325.576 597.849C308.567 590.324 292.6 602.167 281.817 614.637C279.258 617.595 275.357 624.993 271.57 625.859C270.262 626.158 269.952 625.877 268.852 625.258C267.851 623.879 267.449 622.669 267.208 620.976C265.309 607.62 286.539 570.526 294.815 559.311C300.074 552.184 306.048 544.73 312.364 538.545C330.544 520.744 372.786 489.33 397.668 485.639Z"/>
	<path fill="#FEFEFD" d="M391.298 194.037C396.077 192.678 402.675 193.481 407.69 193.359C439.188 192.591 470.772 193.471 502.274 193.466C510.122 193.465 518.013 193.536 525.852 193.187C531.861 192.92 537.855 192.285 543.866 192.106Q586.619 190.905 629.325 193.224C641.443 196.184 647.461 196.114 654.414 207.64C655.281 209.078 655.689 210.621 657.376 211.177C657.527 211.227 657.689 211.238 657.846 211.269L656.737 211.831C656.263 214.972 661.154 219.906 662.287 223.288C666.461 235.752 659.637 250.17 649.513 257.767Q647.673 259.124 645.728 260.326C644.975 260.802 644.526 261.188 643.868 261.756C640.551 264.619 633.493 265.779 631.911 267.349L634.158 269.394C634.11 270.702 633.007 272.047 632.342 273.172L632.277 273.586C630.552 272.923 628.337 269.903 626.992 268.503C620.38 268.34 613.714 268.932 607.096 269.006C595.784 269.133 584.458 268.934 573.156 269.487C567.887 269.606 562.625 270.119 557.383 269.419C545.204 268.689 532.87 269.096 520.667 269.101L455.321 269.274C442.67 269.324 429.894 269.458 417.252 269.054C409.852 268.818 402.436 267.947 395.031 268.028C393.608 269.126 392.122 270.509 390.453 271.19L389.883 268.266C387.658 265.911 375.82 265.459 370.099 261.93C362.583 257.293 357.085 249.402 355.124 240.818C352.95 231.301 356.169 220.775 361.251 212.685C367.062 203.435 378.217 197 388.78 194.626L391.298 194.037Z"/>
	<path fill="#20292C" d="M392.5 215.593C405.447 214.855 418.648 215.394 431.623 215.432L495.319 215.483L582.952 215.399C595.857 215.389 608.816 215.103 621.714 215.387C624.223 215.442 628.862 215.37 631.128 216.358C635.124 218.1 639.272 223.511 640.702 227.549C641.872 230.851 641.843 234.347 640.196 237.478C637.696 242.23 633.02 244.867 628.06 246.338C617.857 248.527 606.271 247.489 595.857 247.464L547.651 247.405L453.347 247.423C436.149 247.452 418.828 248.001 401.648 247.446C397.61 247.315 393.327 247.061 389.472 245.776C385.767 244.54 382.539 242.303 380.846 238.686C379.188 235.141 379.105 230.787 380.452 227.132C382.359 221.957 387.561 217.759 392.5 215.593Z"/>
	<path fill="#FEFEFD" d="M468.466 409.615C469.909 408.078 471.428 406.07 473.683 405.833C474.642 405.733 475.292 406.029 476.139 406.404C481.064 411.553 484.166 418.636 488.505 424.333C494.176 431.779 520.843 457.12 528.775 460.266C537.4 463.686 548.38 462.905 557.881 466.469C560.299 472.267 562.287 483.949 568.361 486.61C575.074 489.55 584.887 485.743 591.818 485.273C593.627 495.913 594.595 507.949 593.626 518.747C578.313 515.843 569.741 509.692 552.883 509.119C550.508 509.038 547.478 508.785 545.453 510.225C544.844 510.658 544.462 511.415 544.308 512.14C544.04 513.401 544.677 514.662 545.47 515.593C552.291 523.599 570.85 526.266 577.013 535.149C578.176 536.825 578.702 538.95 579.186 540.909C578.247 542.518 577.346 544.155 576.229 545.649C557.076 545.579 540.716 532.446 521.001 530.646C516.418 534.002 498.5 556.769 495.284 562.716Q493.698 565.702 492.608 568.903Q491.518 572.104 490.952 575.438C489.512 584.467 492.872 592.768 498.198 599.9C505.316 609.43 516.475 614.969 528.12 616.582C544.509 618.851 566.202 614.118 579.417 604.021C588.715 596.919 595.82 587.368 603.211 578.421C605.092 576.144 607.369 573.979 608.964 571.501C611.31 567.853 612.724 563.224 614.33 559.19C618.411 548.939 622.448 540.454 623.839 529.28C624.72 522.199 624.622 514.824 623.918 507.733C623.47 503.228 622.363 498.143 622.807 493.637C622.944 492.244 623.431 491.687 624.509 490.847C625.804 489.838 627.736 489.202 629.251 488.57C677.275 507.413 711.022 528.323 738.388 573.642C742.86 581.048 747.573 588.475 751.032 596.424C753.474 602.034 761.728 621.287 759.199 626.872C758.811 627.731 758.459 627.898 757.755 628.475C755.874 628.601 754.817 627.84 753.448 626.596C748.734 622.31 745.466 616.599 741.536 611.632C734.272 602.45 722.989 595.126 710.925 595.327C702.926 595.461 695.218 600.792 689.962 606.548Q688.228 608.473 686.799 610.635Q685.37 612.797 684.278 615.147C682.166 619.594 678.525 633.598 673.085 634.429C669.31 631.351 666.29 627.34 662.926 623.826C654.146 614.658 643.498 608.285 630.459 609.695C620.173 610.807 611.587 615.866 605.203 623.939C604.902 624.32 604.625 624.719 604.343 625.114C612.674 635.783 638.552 634.96 643.892 640.144C644.806 641.032 644.84 641.568 644.88 642.732C643.374 646.654 644.475 651.162 641.973 654.66C642.482 656.944 643.258 659.844 645.338 661.241C648.766 663.543 653.722 664.683 657.538 666.297C663.886 668.98 676.83 676.471 678.511 683.703Q678.619 684.146 678.644 684.601Q678.669 685.056 678.61 685.508Q678.552 685.959 678.413 686.393Q678.273 686.827 678.057 687.228C677.501 688.269 676.95 688.481 675.835 688.663C669.8 689.649 662.547 686.896 656.371 686.659C656.393 694.919 656.775 705.51 663.148 711.66C665.922 714.337 669.382 716.279 672.253 718.862C678.298 724.301 683.667 734.058 684.044 742.282C684.127 744.105 684.053 745.951 683.942 747.771C680.399 749.167 677.41 750.106 673.72 748.622C668.302 746.442 664.712 741.575 658.995 739.423C655.878 747.618 654.44 756.689 652.666 765.252C659.005 772.211 663.93 782.517 663.361 792.138C663.12 796.212 661.36 799.911 658.209 802.524Q656.486 803.928 654.666 805.204C646.09 801.682 642.961 794.054 638.72 786.432C634.125 794.629 627.577 802.424 624.145 811.116C628.367 815.305 630.806 819.089 630.837 825.304C630.876 832.731 627.537 840.315 622.217 845.458C620.015 847.588 617.468 849.137 614.676 850.367L614.194 849.852C609.396 844.648 608.922 839.599 609.227 832.809C609.369 829.648 610.118 825.664 609.319 822.639C608.423 823.313 608.834 822.844 608.325 823.991C607.042 826.877 602.253 829.498 599.66 831.435C586.574 841.21 573.98 850.305 558.433 855.916C532.003 865.455 500.134 870.88 472.264 865.794C464.508 864.378 456.992 861.534 449.467 859.219C441.032 856.625 432.533 854.339 424.517 850.567C401.617 839.792 379.871 823.157 364.708 802.856C360.535 797.269 356.952 791.154 353.343 785.191C348.579 777.321 344.067 769.907 340.955 761.182C336.592 748.948 332.909 736.162 326.25 724.914C324.718 740.504 320.387 743.454 309.28 753.249C304.92 737.56 304.316 721.345 302.09 705.291C300.535 694.077 297.854 683.092 295.584 672.013C302.304 673.192 308.712 677.82 314.661 681.021C328.655 688.549 351.051 698.827 360.238 712.018C362.237 714.889 368.148 723.938 367.521 727.243C367.359 728.092 366.861 728.34 366.272 728.909C363.768 728.892 361.167 727.827 358.748 727.192C352.585 725.575 347.168 724.448 340.737 724.635C344.782 736.374 353.316 746.924 360.475 756.953C365.356 763.792 369.871 770.937 374.893 777.662C389.233 796.862 407.105 812.79 428.709 823.338C460.197 838.711 501.107 841.289 534.19 829.795C549.375 824.518 565.339 815.405 575.206 802.365C579.406 796.814 582.962 789.985 585.988 783.723C592.466 770.321 594.388 753.887 589.724 739.533C582.857 739.272 576.127 738.76 569.317 737.775C563.157 747.814 560.925 762.192 561.783 773.818C562.183 779.243 563.246 784.638 563.476 790.067C542.064 792.821 511.508 791.745 492.821 802.282C484.732 806.844 478.541 813.845 470.623 818.454C468.031 816.928 466.071 815.375 464.046 813.134C464.03 803.259 467.592 797.588 474.314 790.846C475.846 789.31 477.462 787.833 478.919 786.226L478.593 785.669C476.056 781.423 472.494 778 467.545 776.884C457.954 774.721 453.283 781.576 447.342 781.468C446.108 781.445 445.934 780.855 445.325 779.951C444.884 775.666 446.702 769.85 449.401 766.475C452.69 762.362 457.516 761.076 462.539 760.625C473.827 759.609 482.359 764.288 492.202 769.013C495.005 770.358 498.101 771.928 501.221 772.323C510.477 773.493 528.512 769.586 538.443 768.287C538.49 755.682 533.762 741.314 537.87 729.118C538.986 725.806 540.813 722.676 542.367 719.549C543.66 716.945 545.294 714.238 542.972 711.741C537.407 705.757 520.067 700.115 512.203 695.637Q508.283 706.004 506.165 716.882C504.954 723.349 504.426 730.117 502.356 736.38C483.045 734.167 466.334 724.3 447.481 720.734C438.857 729.931 430.231 739.459 417.583 742.687C417.959 738.533 419.137 734.145 419.287 730.065C420.732 726.674 423.793 723.279 424.505 719.777C424.182 719.086 424.161 718.678 423.448 718.294C418.157 715.444 405.254 720.442 399.662 722.105C397.396 722.092 394.908 722.392 392.972 721.019C391.658 720.087 391.06 719.005 390.813 717.398C390.267 713.841 392.4 709.289 394.612 706.632C400.37 699.719 410.771 700.362 419.045 699.681C410.897 677.656 396.294 685.705 390.994 679.507C390.323 678.722 390.231 678.081 390.233 677.095C390.237 674.755 391.23 672.817 392.941 671.237C396.791 667.685 403.255 666.636 408.315 666.812C411.664 666.928 414.323 668 417.303 669.417C429.792 675.361 432.125 683.773 440.905 692.656C447.996 699.83 460.497 701.423 469.91 703.494C472.765 704.123 476.321 705.443 479.191 705.34C480.782 705.283 481.161 702.979 481.384 701.739C483.404 690.485 482.541 678.812 490.682 669.608C490.841 669.429 491.003 669.252 491.163 669.075C487.572 663.405 482.935 658.708 478.716 653.537C469.776 642.582 463.018 629.42 460.572 615.437C457.55 598.161 453.385 575.523 461.291 558.996C464.134 553.052 470.661 545.127 475.212 540.324C477.844 537.546 489.611 526.313 490.846 524.184C491.842 522.467 491.61 521.316 491.099 519.54C487.51 520.507 483.197 520.816 479.478 520.754C472.365 526.154 461.795 532.163 452.514 531.106C451.092 530.945 449.717 530.576 448.755 529.446C448.14 528.725 447.955 527.634 448.092 526.711C448.909 521.222 458.517 512.682 462.813 509.181C463.482 508.636 464.126 508.054 464.778 507.488C464.603 507.363 464.43 507.236 464.253 507.113C458.305 502.96 441.44 499.82 439.814 492.023C439.627 491.124 439.609 490.776 439.931 489.905C448.327 486.44 481.131 492.267 485.297 485.287C484.744 483.293 483.229 482.466 481.479 481.501C477.163 479.119 472.337 477.637 467.934 475.398C452.459 467.527 434.096 453.744 429.01 436.367C428.168 433.489 427.812 430.485 427.657 427.498C429.327 425.364 430.89 422.866 433.621 422.078C437.499 422.959 445.986 437.357 449.447 440.991C458.638 450.641 482.142 463.454 495.744 465.107C497.67 465.341 500.313 465.763 502.079 464.805C502.25 464.713 502.395 464.579 502.552 464.465C502.706 463.144 502.449 462.673 501.594 461.639C498.648 458.076 493.95 455.461 490.429 452.419C477.421 441.18 467.695 427.374 468.466 409.615Z"/>
	<path fill="#010102" d="M479.478 520.754C481.413 519.134 483.038 518.134 485.592 517.876C487.844 517.649 489.412 518.138 491.099 519.54C487.51 520.507 483.197 520.816 479.478 520.754Z"/>
	<path fill="#696B6D" d="M644.88 642.732C643.374 646.654 644.475 651.162 641.973 654.66C641.535 652.139 640.052 647.765 641.022 645.46C641.702 643.843 643.417 643.431 644.88 642.732Z"/>
	<path fill="#010102" d="M535.365 479.031C541.028 478.709 546.624 479.791 550.994 483.694C552.311 484.869 553.565 486.617 553.42 488.477C553.269 490.418 552.095 492.049 550.753 493.345C547.883 493.443 544.816 493.684 541.977 493.182C538.788 492.618 535.49 490.244 533.704 487.578C532.634 485.983 532.056 484.14 532.559 482.234C533.004 480.549 533.995 479.897 535.365 479.031Z"/>
</svg>
